<svg id="Capa_1" data-name="Capa 1" xmlns="http://www.w3.org/2000/svg" viewBox="0 0 354.81 400.02"><defs><style>.cls-1{fill:#0b0c0c;}.cls-2{fill:#65594f;}.cls-3{fill:#50463e;}.cls-4{fill:#675b51;}.cls-5{fill:#b38d73;}.cls-6{fill:#e0b08f;}.cls-7{fill:#fefefe;}.cls-8{fill:#deaf8f;}.cls-9{fill:#403832;}.cls-10{fill:#534941;}.cls-11{fill:#cbcbcb;}.cls-12{fill:#dfb091;}.cls-13{fill:#b28d74;}</style></defs><title>404-obi</title><path class="cls-1" d="M184.59,400h-6.67a2.19,2.19,0,0,0-.49-.17,100.83,100.83,0,0,1-19.62-4.61,289.4,289.4,0,0,1-37.34-15.34,306.77,306.77,0,0,1-30-16.48c-.25-.15-.49-.41-.84-.3l-.24-.18c0-.16-.1-.21-.26-.17-1-.76-2.09-1.55-3.16-2.29a82.93,82.93,0,0,1-6.65-5c-1.93-1.64-3.87-3.28-4.92-5.68,0-.31,0-.63,0-.93a108.11,108.11,0,0,0-.31-25.55,221.42,221.42,0,0,0-6-30.5c-3.57-13.63-8-27-12.37-40.4-2.87-8.8-5.86-17.58-7.86-26.64-1-4.64-1.87-9.28-.79-14.1,2.47-10.91,6.59-21,13.5-29.93A71.42,71.42,0,0,1,85,162a43.46,43.46,0,0,1,6.34-2.86c0,.31,0,.62,0,.94,0,9.57.08,19.15.34,28.73A421.12,421.12,0,0,0,94.77,232a241.1,241.1,0,0,0,6.5,33.14c3.24,11.74,7.51,23.06,13.77,33.56,6,10,13.46,18.68,23.28,25.15a41.34,41.34,0,0,0,7.06,3.94h0a2.22,2.22,0,0,0,1.28.6h0c.07.21.24.23.43.21h0c.08.2.25.21.44.19h0a.53.53,0,0,0,.6.27h0a.38.38,0,0,0,.45.19h0c.09.2.27.21.46.21s.43.22.65.31A73.92,73.92,0,0,0,172,334.82a86.09,86.09,0,0,0,16.91-.44,4.24,4.24,0,0,0,.62,0,71.85,71.85,0,0,0,23.57-6.77C224.93,321.8,234,312.94,241,301.91a115.79,115.79,0,0,0,13-29.72c5.37-18.32,7.58-37.13,8.71-56.11.48-7.9.65-15.81.78-23.72.18-10.79-.06-21.59-.06-32.38a3.36,3.36,0,0,0-.91-2.47c-.91-1.27-2.36-1.83-3.57-2.7,1.14-.06,2.08.66,3.16.82a9.19,9.19,0,0,0,.85.38,85.24,85.24,0,0,1,13.11,6.09,62.32,62.32,0,0,1,20.65,18.57c6.08,8.76,9.48,18.55,11.23,29a18.22,18.22,0,0,1,.34,4.66,85.19,85.19,0,0,1-2.17,12.49c-3.3,13.71-7.5,27.16-11.28,40.73-4.81,17.25-9.41,34.55-12.22,52.26a168.09,168.09,0,0,0-2.15,21c-.1,3,0,6,0,9.06a8.74,8.74,0,0,1-2.18,3.48,64.07,64.07,0,0,1-11.1,9c-2.35,1.62-4.74,3.2-7.11,4.8a.2.2,0,0,0-.26.18h0c-.82,0-1.36.64-2,1A355.43,355.43,0,0,1,224.11,386a229.87,229.87,0,0,1-29.21,11.53c-.33.1-.78.07-1,.5l-.38.07c-.2-.19-.35-.14-.46.09-.8.19-1.6.38-2.41.55Z"/><path class="cls-2" d="M91.31,159.17A43.46,43.46,0,0,0,85,162a71.42,71.42,0,0,0-24.42,19.73c-6.91,8.89-11,19-13.5,29.93-1.08,4.82-.24,9.46.79,14.1,2,9.06,5,17.84,7.86,26.64,4.37,13.39,8.8,26.77,12.37,40.4a221.42,221.42,0,0,1,6,30.5,108.11,108.11,0,0,1,.31,25.55c0,.3,0,.62,0,.93-1.85-1.57-3.51-3.34-5.21-5.07A285.49,285.49,0,0,1,29,292.07,409.51,409.51,0,0,1,.52,234.72c-.13-.33-.12-.76-.52-1v-.83c.12-.29.27-.56.36-.85C2,226.49,3.82,221,5.68,215.44,12.9,194,20.89,172.79,29.8,152c10.53-24.61,22.19-48.66,36-71.59C75,65.14,85.12,50.53,97,37.21c8.49-9.51,17.74-18.18,28.51-25.1,9.19-5.9,19-10.15,29.93-11.62A13.18,13.18,0,0,0,158.55,0h9c.07.06.14.17.22.17a64.5,64.5,0,0,1,9.78,1.58q0,70.49,0,141h0c-4.6-.15-9.19.24-13.79.18-1.94,0-3.86.27-5.8.23-.65,0-.84.3-.83.89,0,.83,0,1.67,0,2.5v.13h-.62c-11.45.4-22.87,1.17-34.24,2.56a142.42,142.42,0,0,0-19.44,3.49,33,33,0,0,0-8.71,3.37A5.73,5.73,0,0,0,91.31,159.17Z"/><path class="cls-3" d="M177.52,142.72q0-70.48,0-141A54.09,54.09,0,0,1,183.28.58,21.26,21.26,0,0,0,187.09,0h9c.08.21.26.18.43.19A59.92,59.92,0,0,1,211.8,3.46c10.69,3.72,20.07,9.7,28.72,16.89,11.2,9.3,20.74,20.16,29.47,31.75,14,18.63,25.66,38.72,36.22,59.45,9.1,17.87,17.25,36.17,24.76,54.75q11.46,28.35,20.88,57.44,1.48,4.59,3,9.19v.62c-.14.3-.3.59-.42.9-5.09,12.49-10.65,24.77-16.87,36.74-11.12,21.45-24,41.69-39.69,60.15a228.4,228.4,0,0,1-17.37,18.51c0-3-.1-6.05,0-9.06a168.09,168.09,0,0,1,2.15-21c2.81-17.71,7.41-35,12.22-52.26,3.78-13.57,8-27,11.28-40.73a85.19,85.19,0,0,0,2.17-12.49,18.22,18.22,0,0,0-.34-4.66c-1.75-10.43-5.15-20.22-11.23-29a62.32,62.32,0,0,0-20.65-18.57A85.24,85.24,0,0,0,263,156a9.19,9.19,0,0,1-.85-.38c-.14-1.78-1.55-2.55-2.81-3.36-3.21-2-6.86-3-10.49-3.85a164.2,164.2,0,0,0-20-3.25c-5.16-.59-10.33-1-15.49-1.38-3.93-.33-7.87-.52-11.81-.63-4.82-.14-9.63-.24-14.44-.42C183.9,142.62,180.71,142.72,177.52,142.72Z"/><path class="cls-4" d="M172.51,400a13.77,13.77,0,0,0-3.43-.53A137.48,137.48,0,0,1,134.37,390a183.51,183.51,0,0,1-44.14-26.21c-.23-.18-.55-.3-.62-.65.35-.11.59.15.84.3a306.77,306.77,0,0,0,30,16.48,289.4,289.4,0,0,0,37.34,15.34,100.83,100.83,0,0,0,19.62,4.61,2.19,2.19,0,0,1,.49.17Z"/><path class="cls-5" d="M258.94,154.81c1.21.87,2.66,1.43,3.57,2.7-.31.36-.2.8-.19,1.2.05,4.71,0,9.42.14,14.13.17,5.71.06,11.44-.13,17.15-.07,2,0,4.09,0,6.14a1.85,1.85,0,0,1-.21,1.2,35.9,35.9,0,0,0-.3-6c-.16,4.27-.57,8.51-.91,12.76-.66,8.17-1.63,16.29-3,24.37a142.74,142.74,0,0,1-6,25c-1.62,4.53-3.53,8.92-6.7,12.62a10.9,10.9,0,0,1-6.61,4c-.71.12-1.12.16-.92-.83a16.87,16.87,0,0,0,0-5.8,53.45,53.45,0,0,0-4.33-14.19,80.88,80.88,0,0,0-4.8-9.47,2.65,2.65,0,0,0-2.72-1.5,5.51,5.51,0,0,1-2.9-.7,29.06,29.06,0,0,1-7-5.23c-6.79-6.4-12.73-13.56-18.6-20.78a1.67,1.67,0,0,0-1.86-.7c-4.66.94-9.32,1.87-14,2.71-1.48.27-2.92.87-4.5.55-4.83-1-9.69-1.8-14.49-2.88-2.17-.49-4-.63-5.15,1.66a2.64,2.64,0,0,1-.17-1.52q0-31.66,0-63.33c0-.49,0-1,0-1.46a.57.57,0,0,0,0-.13,1.89,1.89,0,0,0,.4.08c3.08-.09,6.15-.22,9.23-.28,3.6-.07,7.2-.09,10.8-.12l17.52.22,6.19.19.67,0c2.32.11,4.64.2,6.95.32q9,.47,18,1.32l.66.05,1.41.16.27,0,1.4.15,5.13.68a109.26,109.26,0,0,1,19.28,4,19.94,19.94,0,0,0,3,1.07,1,1,0,0,0,1,.43Z"/><path class="cls-6" d="M157.08,146.65c0,.49,0,1,0,1.46q0,31.66,0,63.33a2.64,2.64,0,0,0,.17,1.52l-.2.35c-4.55,5.42-9.07,10.87-14.05,15.92a52.36,52.36,0,0,1-8.71,7.57,6.61,6.61,0,0,1-4,1.49,3.27,3.27,0,0,0-3.39,2,81.35,81.35,0,0,0-7.81,18.23,25.77,25.77,0,0,0-1,11c.12.7-.28.67-.72.61a9.64,9.64,0,0,1-5-2.3,23.41,23.41,0,0,1-5.64-7.66,80.71,80.71,0,0,1-6-17.48A219.39,219.39,0,0,1,96.27,218q-1.08-8.56-1.73-17.18c-.26-3.49-.49-7-.78-10.48-.15,1.82-.12,3.64-.15,5.46-.09,5.73.1,11.45.38,17.17a266.7,266.7,0,0,0,2.63,26.6,204.69,204.69,0,0,0,6.95,30.94c3.67,11.72,8.51,22.9,15.49,33.07,6.74,9.83,15.08,17.93,25.66,23.58.26.14.63.18.66.59a41.34,41.34,0,0,1-7.06-3.94C128.5,317.38,121,308.73,115,298.7c-6.26-10.5-10.53-21.82-13.77-33.56A241.1,241.1,0,0,1,94.77,232a421.12,421.12,0,0,1-3.16-43.16c-.26-9.58-.35-19.16-.34-28.73,0-.32,0-.63,0-.94a5.73,5.73,0,0,1,2.76-3.11,33,33,0,0,1,8.71-3.37,142.42,142.42,0,0,1,19.44-3.49c11.37-1.39,22.79-2.16,34.24-2.56Z"/><path class="cls-7" d="M145.38,327.79c0-.41-.4-.45-.66-.59-10.58-5.65-18.92-13.75-25.66-23.58-7-10.17-11.82-21.35-15.49-33.07a204.69,204.69,0,0,1-6.95-30.94A266.7,266.7,0,0,1,94,213c-.28-5.72-.47-11.44-.38-17.17,0-1.82,0-3.64.15-5.46.29,3.49.52,7,.78,10.48q.64,8.61,1.73,17.18a219.39,219.39,0,0,0,4.37,24.68,80.71,80.71,0,0,0,6,17.48,23.41,23.41,0,0,0,5.64,7.66,9.64,9.64,0,0,0,5,2.3c.44.06.84.09.72-.61a25.77,25.77,0,0,1,1-11,81.35,81.35,0,0,1,7.81-18.23,3.27,3.27,0,0,1,3.39-2,6.61,6.61,0,0,0,4-1.49,52.36,52.36,0,0,0,8.71-7.57c5-5,9.5-10.5,14.05-15.92,0,4.51,0,9,0,13.51q0,16.8,0,33.6a46.88,46.88,0,0,1-5.8.44c-3.93.05-7.86.08-11.67-1-.87-.25-1.09,0-1.14.78-.51,8.56,0,17,2.9,25.16a10.63,10.63,0,0,0,2.39,4,2.1,2.1,0,0,0,1.65.69c3.89,0,7.78,0,11.67,0,0,.41,0,.83,0,1.25q0,18,0,36a1.42,1.42,0,0,0,1.33,1.67,84.78,84.78,0,0,0,22.18,2.11,90.23,90.23,0,0,0,10.65-1,68.62,68.62,0,0,0,26.89-9.81,62.59,62.59,0,0,0,11.94-9.82c1.53-1.61,3-3.25,4.53-4.87.14.45-.23.69-.44,1a76.68,76.68,0,0,1-8.21,9.25,64.76,64.76,0,0,1-29.64,16.48c-2.45.61-4.93,1.08-7.4,1.61a86.09,86.09,0,0,1-16.91.44,73.92,73.92,0,0,1-22.38-5.08c-.22-.09-.43-.21-.65-.31s-.24-.28-.46-.21h0c-.1-.18-.24-.28-.45-.19h0a.47.47,0,0,0-.6-.27h0a.3.3,0,0,0-.44-.19h0a.3.3,0,0,0-.43-.21h0a1.18,1.18,0,0,0-1.28-.6Z"/><path class="cls-8" d="M188.92,334.38c2.47-.53,5-1,7.4-1.61A64.76,64.76,0,0,0,226,316.29a76.68,76.68,0,0,0,8.21-9.25c.21-.29.58-.53.44-1h0c.16,0,.22-.07.21-.22h0c.38-.05.5-.28.42-.64h0c.16,0,.23-.06.22-.21h0c.15,0,.21-.08.22-.21h0l.21-.22h0a.36.36,0,0,0,.21-.43h0a.23.23,0,0,0,.22-.22h0a.34.34,0,0,0,.22-.43v0l.24,0a15.63,15.63,0,0,1,1.58-2.3,132.92,132.92,0,0,0,7.87-14.76.52.52,0,0,0,.31-.44v0l.21-.43h0a2.86,2.86,0,0,0,.63-1.47h0a.73.73,0,0,0,.22-.64v0a1.13,1.13,0,0,0,.42-.85h0a1.33,1.33,0,0,0,.42-1.05h0a1.47,1.47,0,0,0,.42-1.26h0c.44-.23.44-.64.43-1.05h0l.21-.43h0a1.3,1.3,0,0,0,.42-1.05h0a.72.72,0,0,0,.22-.63h0a11.05,11.05,0,0,0,1.26-3.56h0a1,1,0,0,0,.22-.84h0a.7.7,0,0,0,.22-.64v0a2.77,2.77,0,0,0,.63-1.89h0a1,1,0,0,0,.22-.84h0a.64.64,0,0,0,.22-.53h0a6.79,6.79,0,0,0,.84-2.82v0a1.09,1.09,0,0,0,.22-.85h0a.76.76,0,0,0,.22-.64v0a6.88,6.88,0,0,0,.63-2.52v0c.26-.29.19-.65.21-1a4.36,4.36,0,0,1,0-.52,235.55,235.55,0,0,0,5.44-30.06c.76-6.58,1.3-13.17,1.56-19.79.18-4.53.33-9.08.24-13.62a1.85,1.85,0,0,0,.21-1.2c0-2,0-4.09,0-6.14.19-5.71.3-11.44.13-17.15-.14-4.71-.09-9.42-.14-14.13,0-.4-.12-.84.19-1.2a3.36,3.36,0,0,1,.91,2.47c0,10.79.24,21.59.06,32.38-.13,7.91-.3,15.82-.78,23.72-1.13,19-3.34,37.79-8.71,56.11a115.79,115.79,0,0,1-13,29.72c-7,11-16,19.89-27.87,25.72a71.85,71.85,0,0,1-23.57,6.77A4.24,4.24,0,0,1,188.92,334.38Z"/><path class="cls-9" d="M195,146.42l-17.52-.22c0-1.16,0-2.32,0-3.48h0c3.19,0,6.38-.1,9.57,0,4.81.18,9.62.28,14.44.42,3.94.11,7.88.3,11.81.63,5.16.42,10.33.79,15.49,1.38a164.2,164.2,0,0,1,20,3.25c3.63.88,7.28,1.81,10.49,3.85,1.26.81,2.67,1.58,2.81,3.36-1.08-.16-2-.88-3.16-.82h0c-.19-.42-.58-.42-1-.43a19.94,19.94,0,0,1-3-1.07,109.26,109.26,0,0,0-19.28-4l-5.13-.68c-.42-.5-.91-.34-1.4-.15l-.27,0a1.06,1.06,0,0,0-1.41-.16l-.66-.05a.52.52,0,0,0-.48-.33c-3.52-.28-7-.59-10.54-.85-2.82-.22-5.65-.43-8.48-.54a21.7,21.7,0,0,0-5.46.08l-.67,0a.47.47,0,0,0-.39-.29A37.45,37.45,0,0,0,195,146.42Z"/><path class="cls-10" d="M259.81,367.31a69,69,0,0,1-6.95,5.07,168.89,168.89,0,0,1-49,23.36q-4.56,1.31-9.19,2.25a5.51,5.51,0,0,1-.71.06c.19-.43.64-.4,1-.5A229.87,229.87,0,0,0,224.11,386a355.43,355.43,0,0,0,33.7-17.69C258.45,368,259,367.34,259.81,367.31Z"/><path class="cls-6" d="M145.38,327.79a1.18,1.18,0,0,1,1.28.6A2.22,2.22,0,0,1,145.38,327.79Z"/><path class="cls-10" d="M193.55,398.12a.39.39,0,0,1-.46.09C193.2,398,193.35,397.93,193.55,398.12Z"/><path class="cls-6" d="M147.5,328.77a.47.47,0,0,1,.6.27A.53.53,0,0,1,147.5,328.77Z"/><path class="cls-6" d="M148.52,329.22c.22-.07.35,0,.46.21C148.79,329.43,148.61,329.42,148.52,329.22Z"/><path class="cls-6" d="M148.09,329c.21-.09.35,0,.45.19A.38.38,0,0,1,148.09,329Z"/><path class="cls-6" d="M146.65,328.38a.3.3,0,0,1,.43.21C146.89,328.61,146.72,328.59,146.65,328.38Z"/><path class="cls-6" d="M147.07,328.59a.3.3,0,0,1,.44.19C147.32,328.8,147.15,328.79,147.07,328.59Z"/><path class="cls-10" d="M260.07,367.14a.22.22,0,0,1-.26.18A.2.2,0,0,1,260.07,367.14Z"/><path class="cls-4" d="M89.37,362.94c-.13,0-.21,0-.26-.17C89.27,362.73,89.36,362.78,89.37,362.94Z"/><path class="cls-3" d="M177.51,142.72c0,1.16,0,2.32,0,3.48-3.6,0-7.2.05-10.8.12-3.08.06-6.15.19-9.23.28a1.89,1.89,0,0,1-.4-.08c0-.83,0-1.67,0-2.5,0-.59.18-.91.83-.89,1.94,0,3.86-.25,5.8-.23C168.32,143,172.91,142.57,177.51,142.72Z"/><path class="cls-11" d="M262.09,197.33c.09,4.54-.06,9.09-.24,13.62-.26,6.62-.8,13.21-1.56,19.79a235.55,235.55,0,0,1-5.44,30.06,4.36,4.36,0,0,0,0,.52,1.56,1.56,0,0,0-.21,1v0a6,6,0,0,0-.63,2.52v0c-.23.16-.22.41-.22.64h0a1,1,0,0,0-.22.85v0a7,7,0,0,0-.84,2.82h0a.67.67,0,0,0-.22.53h0a1.1,1.1,0,0,0-.22.84h0a3.47,3.47,0,0,0-.63,1.89v0a.74.74,0,0,0-.22.64h0a.9.9,0,0,0-.22.84h0a9.21,9.21,0,0,0-1.26,3.56h0a.57.57,0,0,0-.22.63h0a1.05,1.05,0,0,0-.42,1.05h0a.44.44,0,0,0-.21.43h0a1.67,1.67,0,0,0-.43,1.05h0a1.66,1.66,0,0,0-.42,1.26h0a1.05,1.05,0,0,0-.42,1.05h0a.81.81,0,0,0-.42.85v0a.7.7,0,0,0-.22.64h0a1.9,1.9,0,0,0-.63,1.47h0a.42.42,0,0,0-.21.43v0l-.31.44a132.92,132.92,0,0,1-7.87,14.76,15.63,15.63,0,0,0-1.58,2.3c-.09-.1-.18-.11-.24,0v0l-.22.43h0l-.22.22h0a.41.41,0,0,0-.21.43h0l-.21.22h0l-.22.21h0l-.22.21h0a.7.7,0,0,0-.42.64h0l-.21.22h0c-1.51,1.62-3,3.26-4.53,4.87a62.59,62.59,0,0,1-11.94,9.82,68.62,68.62,0,0,1-26.89,9.81,90.23,90.23,0,0,1-10.65,1,84.78,84.78,0,0,1-22.18-2.11,1.42,1.42,0,0,1-1.33-1.67q.06-18,0-36c0-.42,0-.84,0-1.25l0-.08c.31,0,.62.05.93.05q26.08,0,52.16,0a2.31,2.31,0,0,0,1.89-.87,15.54,15.54,0,0,0,3.09-6.41,68.81,68.81,0,0,0,2.1-21.86c-.1-1.7-.08-1.68-1.76-1.3a47,47,0,0,1-14.39.65,96.78,96.78,0,0,1-23-4.69,1,1,0,0,0-.7,0,33.74,33.74,0,0,1-5.86,1.76,127.78,127.78,0,0,1-14.49,2.81l0-.11q0-16.8,0-33.6c0-4.5,0-9,0-13.51l.2-.35c1.16-2.29,3-2.15,5.15-1.66,4.8,1.08,9.66,1.91,14.49,2.88,1.58.32,3-.28,4.5-.55,4.68-.84,9.34-1.77,14-2.71a1.67,1.67,0,0,1,1.86.7c5.87,7.22,11.81,14.38,18.6,20.78a29.06,29.06,0,0,0,7,5.23,5.51,5.51,0,0,0,2.9.7,2.65,2.65,0,0,1,2.72,1.5,80.88,80.88,0,0,1,4.8,9.47,53.45,53.45,0,0,1,4.33,14.19,16.87,16.87,0,0,1,0,5.8c-.2,1,.21.95.92.83a10.9,10.9,0,0,0,6.61-4c3.17-3.7,5.08-8.09,6.7-12.62a142.74,142.74,0,0,0,6-25c1.34-8.08,2.31-16.2,3-24.37.34-4.25.75-8.49.91-12.76A35.9,35.9,0,0,1,262.09,197.33Z"/><path class="cls-1" d="M201.9,146.64a21.7,21.7,0,0,1,5.46-.08c2.83.11,5.66.32,8.48.54,3.52.26,7,.57,10.54.85a.52.52,0,0,1,.48.33q-9-.84-18-1.32C206.54,146.84,204.22,146.75,201.9,146.64Z"/><path class="cls-1" d="M195,146.42a37.45,37.45,0,0,1,5.8-.1.47.47,0,0,1,.39.29Z"/><path class="cls-1" d="M227.52,148.33a1.06,1.06,0,0,1,1.41.16Z"/><path class="cls-1" d="M229.2,148.52c.49-.19,1-.35,1.4.15Z"/><path class="cls-1" d="M258,154.39c.37,0,.76,0,1,.43A1,1,0,0,1,258,154.39Z"/><path class="cls-12" d="M157.09,290.46c-3.89,0-7.78,0-11.67,0a2.1,2.1,0,0,1-1.65-.69,10.63,10.63,0,0,1-2.39-4c-2.87-8.16-3.41-16.6-2.9-25.16.05-.81.27-1,1.14-.78,3.81,1.1,7.74,1.07,11.67,1a46.88,46.88,0,0,0,5.8-.44l0,.11q0,14.93,0,29.85Z"/><path class="cls-13" d="M250,277.31a9.21,9.21,0,0,1,1.26-3.56A11.05,11.05,0,0,1,250,277.31Z"/><path class="cls-13" d="M252.71,269.07a7,7,0,0,1,.84-2.82A6.79,6.79,0,0,1,252.71,269.07Z"/><path class="cls-13" d="M254,264.81a6,6,0,0,1,.63-2.52A6.88,6.88,0,0,1,254,264.81Z"/><path class="cls-13" d="M251.67,272.31a3.47,3.47,0,0,1,.63-1.89A2.77,2.77,0,0,1,251.67,272.31Z"/><path class="cls-13" d="M246.67,285.64a1.9,1.9,0,0,1,.63-1.47A2.86,2.86,0,0,1,246.67,285.64Z"/><path class="cls-13" d="M248.34,281.68a1.66,1.66,0,0,1,.42-1.26A1.47,1.47,0,0,1,248.34,281.68Z"/><path class="cls-13" d="M249.38,279a1.05,1.05,0,0,1,.42-1.05A1.3,1.3,0,0,1,249.38,279Z"/><path class="cls-13" d="M247.92,282.72a1.05,1.05,0,0,1,.42-1.05A1.33,1.33,0,0,1,247.92,282.72Z"/><path class="cls-13" d="M248.75,280.43a1.67,1.67,0,0,1,.43-1.05C249.19,279.79,249.19,280.2,248.75,280.43Z"/><path class="cls-13" d="M254.59,262.31a1.56,1.56,0,0,1,.21-1C254.78,261.66,254.85,262,254.59,262.31Z"/><path class="cls-7" d="M234.81,305.86a.7.7,0,0,1,.42-.64C235.31,305.58,235.19,305.81,234.81,305.86Z"/><path class="cls-13" d="M247.5,283.56a.81.81,0,0,1,.42-.85A1.13,1.13,0,0,1,247.5,283.56Z"/><path class="cls-13" d="M253.54,266.27a1,1,0,0,1,.22-.85A1.09,1.09,0,0,1,253.54,266.27Z"/><path class="cls-13" d="M252.29,270.43a1.1,1.1,0,0,1,.22-.84A1,1,0,0,1,252.29,270.43Z"/><path class="cls-13" d="M251.25,273.76a.9.9,0,0,1,.22-.84A1,1,0,0,1,251.25,273.76Z"/><path class="cls-13" d="M253.75,265.43c0-.23,0-.48.22-.64A.76.76,0,0,1,253.75,265.43Z"/><path class="cls-13" d="M251.46,272.93a.74.74,0,0,1,.22-.64A.7.7,0,0,1,251.46,272.93Z"/><path class="cls-13" d="M249.79,277.93a.57.57,0,0,1,.22-.63A.72.72,0,0,1,249.79,277.93Z"/><path class="cls-13" d="M247.29,284.18a.7.7,0,0,1,.22-.64A.73.73,0,0,1,247.29,284.18Z"/><path class="cls-13" d="M249.17,279.39a.44.44,0,0,1,.21-.43Z"/><path class="cls-7" d="M236.26,304l.22-.43A.34.34,0,0,1,236.26,304Z"/><path class="cls-7" d="M235.85,304.61a.41.41,0,0,1,.21-.43A.36.36,0,0,1,235.85,304.61Z"/><path class="cls-13" d="M252.5,269.6a.67.67,0,0,1,.22-.53A.64.64,0,0,1,252.5,269.6Z"/><path class="cls-13" d="M246.16,286.48l.31-.44A.52.52,0,0,1,246.16,286.48Z"/><path class="cls-13" d="M246.46,286.06a.42.42,0,0,1,.21-.43Z"/><path class="cls-7" d="M234.6,306.07l.21-.22C234.82,306,234.76,306.09,234.6,306.07Z"/><path class="cls-7" d="M235.22,305.23l.22-.21C235.45,305.17,235.38,305.25,235.22,305.23Z"/><path class="cls-7" d="M235.43,305l.22-.21C235.64,304.94,235.58,305,235.43,305Z"/><path class="cls-7" d="M235.64,304.82l.21-.22Z"/><path class="cls-7" d="M236.05,304.19l.22-.22A.23.23,0,0,1,236.05,304.19Z"/><path class="cls-7" d="M236.47,303.57c.06-.14.15-.13.24,0Z"/><path class="cls-13" d="M157.13,290.38q0-14.92,0-29.85a127.78,127.78,0,0,0,14.49-2.81,33.74,33.74,0,0,0,5.86-1.76,1,1,0,0,1,.7,0,96.78,96.78,0,0,0,23,4.69,47,47,0,0,0,14.39-.65c1.68-.38,1.66-.4,1.76,1.3a68.81,68.81,0,0,1-2.1,21.86,15.54,15.54,0,0,1-3.09,6.41,2.31,2.31,0,0,1-1.89.87q-26.08,0-52.16,0C157.75,290.43,157.44,290.4,157.13,290.38Z"/></svg>