<svg xmlns="http://www.w3.org/2000/svg" viewBox="0 0 170 65.75"><defs><style>.cls-1{fill:#18191d;}</style></defs><title>dark-logo</title><g id="Capa_2" data-name="Capa 2"><g id="Home-xl-w-menu"><g id="logo"><polygon class="cls-1" points="30.04 29.82 35.65 29.82 35.65 13.64 41.26 13.64 41.26 6.71 24.76 6.71 24.76 13.64 30.04 13.64 30.04 29.82"/><polygon class="cls-1" points="30.04 29.82 35.65 29.82 35.65 13.64 41.26 13.64 41.26 6.71 24.76 6.71 24.76 13.64 30.04 13.64 30.04 29.82"/><path class="cls-1" d="M58.31,29.82h4.52l1.09-4.29h5.13l1.09,4.29h6.54L70.9,6.71H62.32L58.26,22.89H47.53V20.25h5.95v-4H47.53V13.64h9.25V6.71H41.92V29.82H58.31Zm8.31-18,2.29,9.13H64.15Z"/><path class="cls-1" d="M58.31,29.82h4.52l1.09-4.29h5.13l1.09,4.29h6.54L70.9,6.71H62.32L58.26,22.89H47.53V20.25h5.95v-4H47.53V13.64h9.25V6.71H41.92V29.82H58.31Zm8.31-18,2.29,9.13H64.15Z"/><path class="cls-1" d="M80.73,28.39a9.94,9.94,0,0,0,5.09,1.43h7.6V22.89H88.07a17.07,17.07,0,0,1-2.49-.18A7.66,7.66,0,0,1,84,22.29a2.83,2.83,0,0,1-1.34-1.18A6.25,6.25,0,0,1,82,18.18a6.39,6.39,0,0,1,.61-2.94,3.19,3.19,0,0,1,1.21-1.17,5.85,5.85,0,0,1,1.56-.38,21,21,0,0,1,2.69,0h5.35V6.71h-7.6A10.61,10.61,0,0,0,82,7.34a9,9,0,0,0-3.19,2.08,9.86,9.86,0,0,0-2.17,3.52,14,14,0,0,0-.78,4.84,15,15,0,0,0,1.31,6.57A9.27,9.27,0,0,0,80.73,28.39Z"/><path class="cls-1" d="M80.73,28.39a9.94,9.94,0,0,0,5.09,1.43h7.6V22.89H88.07a17.07,17.07,0,0,1-2.49-.18A7.66,7.66,0,0,1,84,22.29a2.83,2.83,0,0,1-1.34-1.18A6.25,6.25,0,0,1,82,18.18a6.39,6.39,0,0,1,.61-2.94,3.19,3.19,0,0,1,1.21-1.17,5.85,5.85,0,0,1,1.56-.38,21,21,0,0,1,2.69,0h5.35V6.71h-7.6A10.61,10.61,0,0,0,82,7.34a9,9,0,0,0-3.19,2.08,9.86,9.86,0,0,0-2.17,3.52,14,14,0,0,0-.78,4.84,15,15,0,0,0,1.31,6.57A9.27,9.27,0,0,0,80.73,28.39Z"/><polygon class="cls-1" points="99.36 21.57 103.98 21.57 103.98 29.82 109.59 29.82 109.59 6.71 103.98 6.71 103.98 14.63 99.36 14.63 99.36 6.71 93.75 6.71 93.75 29.82 99.36 29.82 99.36 21.57"/><polygon class="cls-1" points="99.36 21.57 103.98 21.57 103.98 29.82 109.59 29.82 109.59 6.71 103.98 6.71 103.98 14.63 99.36 14.63 99.36 6.71 93.75 6.71 93.75 29.82 99.36 29.82 99.36 21.57"/><path class="cls-1" d="M140.58,22.89l-1.29-2.27a7.29,7.29,0,0,0,3.09-1.78,6.26,6.26,0,0,0,1.51-2.79,12.48,12.48,0,0,0,0-4.73,6.94,6.94,0,0,0-2-3.2,7.37,7.37,0,0,0-3.43-1.41H127.09V22.89H116.52V20.25h6v-4h-6V13.64h8.92V6.71H110.91V29.82h22.45V22l5.57,7.8h6.64V22.89Zm-2-6.64a1.23,1.23,0,0,1-.75.36h-4.45v-4h4.44a.83.83,0,0,1,.71.27,2.5,2.5,0,0,1,.48,1.67C139,15.52,138.83,16,138.56,16.25Z"/><path class="cls-1" d="M140.58,22.89l-1.29-2.27a7.29,7.29,0,0,0,3.09-1.78,6.26,6.26,0,0,0,1.51-2.79,12.48,12.48,0,0,0,0-4.73,6.94,6.94,0,0,0-2-3.2,7.37,7.37,0,0,0-3.43-1.41H127.09V22.89H116.52V20.25h6v-4h-6V13.64h8.92V6.71H110.91V29.82h22.45V22l5.57,7.8h6.64V22.89Zm-2-6.64a1.23,1.23,0,0,1-.75.36h-4.45v-4h4.44a.83.83,0,0,1,.71.27,2.5,2.5,0,0,1,.48,1.67C139,15.52,138.83,16,138.56,16.25Z"/><polygon class="cls-1" points="56.13 32.46 53.61 42.42 49.83 32.46 41.69 32.46 38.45 42.42 34.73 32.46 25.88 32.46 34.16 55.57 43.01 55.57 45.87 45.8 49.32 55.57 58.17 55.57 64.98 32.46 56.13 32.46"/><polygon class="cls-1" points="56.13 32.46 53.61 42.42 49.83 32.46 41.69 32.46 38.45 42.42 34.73 32.46 25.88 32.46 34.16 55.57 43.01 55.57 45.87 45.8 49.32 55.57 58.17 55.57 64.98 32.46 56.13 32.46"/><path class="cls-1" d="M121.62,36.67c-.65,2.85,1.21,6,5.58,9.41,2.64,1.77,2.19,2.55-1.36,2.55H113.11l-2-2.26a13.94,13.94,0,0,0,4.86-1.78,6.13,6.13,0,0,0,2.37-2.79,7.94,7.94,0,0,0-.08-4.74,7.28,7.28,0,0,0-3.08-3.19,15.71,15.71,0,0,0-5.39-1.41H91.93V55.57h9.74V47.76l8.84,7.81h24.07c3.91-.66,5.91-2.35,6-5.21s-1.92-5.73-6-8.75c-2.28-1.6-1.8-2.22,1.43-2.22h6.59V32.46H127.8C124.33,32.46,122.28,33.82,121.62,36.67ZM109.93,42a2.57,2.57,0,0,1-1.19.36h-7.07v-4h7a1.83,1.83,0,0,1,1.12.26,2,2,0,0,1,.77,1.68C110.58,41.26,110.36,41.77,109.93,42Z"/><path class="cls-1" d="M121.62,36.67c-.65,2.85,1.21,6,5.58,9.41,2.64,1.77,2.19,2.55-1.36,2.55H113.11l-2-2.26a13.94,13.94,0,0,0,4.86-1.78,6.13,6.13,0,0,0,2.37-2.79,7.94,7.94,0,0,0-.08-4.74,7.28,7.28,0,0,0-3.08-3.19,15.71,15.71,0,0,0-5.39-1.41H91.93V55.57h9.74V47.76l8.84,7.81h24.07c3.91-.66,5.91-2.35,6-5.21s-1.92-5.73-6-8.75c-2.28-1.6-1.8-2.22,1.43-2.22h6.59V32.46H127.8C124.33,32.46,122.28,33.82,121.62,36.67ZM109.93,42a2.57,2.57,0,0,1-1.19.36h-7.07v-4h7a1.83,1.83,0,0,1,1.12.26,2,2,0,0,1,.77,1.68C110.58,41.26,110.36,41.77,109.93,42Z"/><path class="cls-1" d="M69.84,32.46,60.9,55.57h9.75l1.72-4.29h8.07l1.72,4.29h9.77L83.34,32.46Zm2.88,14.19,3.9-9.12,3.6,9.12Z"/><path class="cls-1" d="M69.84,32.46,60.9,55.57h9.75l1.72-4.29h8.07l1.72,4.29h9.77L83.34,32.46Zm2.88,14.19,3.9-9.12,3.6,9.12Z"/><path class="cls-1" d="M34.23,59.36v1.87h-2v4.41H30.19V61.23h-2V59.36Z"/><path class="cls-1" d="M34.23,59.36v1.87h-2v4.41H30.19V61.23h-2V59.36Z"/><path class="cls-1" d="M33.8,65.64V61.23H32.5V59.36h6.69v1.87H35.85V62H38v1.1H35.85v.72h3.87v1.87Z"/><path class="cls-1" d="M33.8,65.64V61.23H32.5V59.36h6.69v1.87H35.85V62H38v1.1H35.85v.72h3.87v1.87Z"/><path class="cls-1" d="M39,61.23V59.36H44.3l2.1,6.28H44l-.4-1.13H41.76l-.39,1.13H39.11l1.45-4.41Zm3.72-.48-.9,2.49h1.73Z"/><path class="cls-1" d="M39,61.23V59.36H44.3l2.1,6.28H44l-.4-1.13H41.76l-.39,1.13H39.11l1.45-4.41Zm3.72-.48-.9,2.49h1.73Z"/><path class="cls-1" d="M48.14,62.43a1.28,1.28,0,0,0,.68,1.2,1.83,1.83,0,0,0,1.6.07,2.43,2.43,0,0,0,.56-.37l1.24,1.37a3.22,3.22,0,0,1-1.07.7,5.45,5.45,0,0,1-1.54.24,4.21,4.21,0,0,1-1.48-.28,5.38,5.38,0,0,1-1-.62,2.64,2.64,0,0,1-.76-1,3,3,0,0,1-.28-1.35,3,3,0,0,1,.28-1.34,2.59,2.59,0,0,1,.76-1,5.3,5.3,0,0,1,1-.61,4.18,4.18,0,0,1,1.48-.29,5.77,5.77,0,0,1,1.54.25,3,3,0,0,1,1.07.69L51,61.54a2.52,2.52,0,0,0-.56-.38,2.68,2.68,0,0,0-.8-.15,2.13,2.13,0,0,0-.8.23,1.5,1.5,0,0,0-.46.41A1.42,1.42,0,0,0,48.14,62.43Z"/><path class="cls-1" d="M48.14,62.43a1.28,1.28,0,0,0,.68,1.2,1.83,1.83,0,0,0,1.6.07,2.43,2.43,0,0,0,.56-.37l1.24,1.37a3.22,3.22,0,0,1-1.07.7,5.45,5.45,0,0,1-1.54.24,4.21,4.21,0,0,1-1.48-.28,5.38,5.38,0,0,1-1-.62,2.64,2.64,0,0,1-.76-1,3,3,0,0,1-.28-1.35,3,3,0,0,1,.28-1.34,2.59,2.59,0,0,1,.76-1,5.3,5.3,0,0,1,1-.61,4.18,4.18,0,0,1,1.48-.29,5.77,5.77,0,0,1,1.54.25,3,3,0,0,1,1.07.69L51,61.54a2.52,2.52,0,0,0-.56-.38,2.68,2.68,0,0,0-.8-.15,2.13,2.13,0,0,0-.8.23,1.5,1.5,0,0,0-.46.41A1.42,1.42,0,0,0,48.14,62.43Z"/><path class="cls-1" d="M56.19,61.53V59.36h2v6.28h-2V63.38H54.54v2.26h-2V61.23H51.19V59.36h3.35v2.17Z"/><path class="cls-1" d="M56.19,61.53V59.36h2v6.28h-2V63.38H54.54v2.26h-2V61.23H51.19V59.36h3.35v2.17Z"/><path class="cls-1" d="M58.58,59.36h2.05v6.28H58.58Z"/><path class="cls-1" d="M58.58,59.36h2.05v6.28H58.58Z"/><path class="cls-1" d="M61.06,65.64V59.36h2L65,61.71V59.36h3.78v1.87H67v4.41H65l-1.87-2.35v2.35Z"/><path class="cls-1" d="M61.06,65.64V59.36h2L65,61.71V59.36h3.78v1.87H67v4.41H65l-1.87-2.35v2.35Z"/><path class="cls-1" d="M71.38,63.77V62.5h1.91v3.14h-2.7a4.38,4.38,0,0,1-1.8-.36,2.84,2.84,0,0,1-1.26-1.09,3.23,3.23,0,0,1-.46-1.78,3.11,3.11,0,0,1,.27-1.32,2.72,2.72,0,0,1,.77-1,5,5,0,0,1,1-.61,4.11,4.11,0,0,1,1.47-.29,5.62,5.62,0,0,1,1.54.25,2.86,2.86,0,0,1,1.07.69L72,61.54A1.83,1.83,0,0,0,70.59,61a2,2,0,0,0-.79.24,1.5,1.5,0,0,0-.44.43,1.64,1.64,0,0,0-.25.8,1.34,1.34,0,0,0,.25.75,1.31,1.31,0,0,0,.47.36,1.91,1.91,0,0,0,.62.17A5.45,5.45,0,0,0,71.38,63.77Z"/><path class="cls-1" d="M71.38,63.77V62.5h1.91v3.14h-2.7a4.38,4.38,0,0,1-1.8-.36,2.84,2.84,0,0,1-1.26-1.09,3.23,3.23,0,0,1-.46-1.78,3.11,3.11,0,0,1,.27-1.32,2.72,2.72,0,0,1,.77-1,5,5,0,0,1,1-.61,4.11,4.11,0,0,1,1.47-.29,5.62,5.62,0,0,1,1.54.25,2.86,2.86,0,0,1,1.07.69L72,61.54A1.83,1.83,0,0,0,70.59,61a2,2,0,0,0-.79.24,1.5,1.5,0,0,0-.44.43,1.64,1.64,0,0,0-.25.8,1.34,1.34,0,0,0,.25.75,1.31,1.31,0,0,0,.47.36,1.91,1.91,0,0,0,.62.17A5.45,5.45,0,0,0,71.38,63.77Z"/><path class="cls-1" d="M77.68,65.64V61.23h-1.3V59.36h5.4a2.84,2.84,0,0,1,1.25.39,1.79,1.79,0,0,1,.7.9,3.18,3.18,0,0,1,.16,1,2.76,2.76,0,0,1-.14.66,1.89,1.89,0,0,1-.57.7,2.46,2.46,0,0,1-1.26.52H80v2.07ZM80,60.93v1.15h1.58a.51.51,0,0,0,.27-.09c.1-.06.16-.22.16-.47A.63.63,0,0,0,81.8,61a.54.54,0,0,0-.26-.11Z"/><path class="cls-1" d="M77.68,65.64V61.23h-1.3V59.36h5.4a2.84,2.84,0,0,1,1.25.39,1.79,1.79,0,0,1,.7.9,3.18,3.18,0,0,1,.16,1,2.76,2.76,0,0,1-.14.66,1.89,1.89,0,0,1-.57.7,2.46,2.46,0,0,1-1.26.52H80v2.07ZM80,60.93v1.15h1.58a.51.51,0,0,0,.27-.09c.1-.06.16-.22.16-.47A.63.63,0,0,0,81.8,61a.54.54,0,0,0-.26-.11Z"/><path class="cls-1" d="M91.21,62.54a3.38,3.38,0,0,1-.43,1.76,2.7,2.7,0,0,1-1.24,1.09,4.85,4.85,0,0,1-2,.36,4.77,4.77,0,0,1-1.94-.36,2.68,2.68,0,0,1-1.23-1.09A3.45,3.45,0,0,1,84,62.54a3.71,3.71,0,0,1,.24-1.39,2.66,2.66,0,0,1,.7-1,3.08,3.08,0,0,1,1.13-.62,5.08,5.08,0,0,1,1.52-.21,4.76,4.76,0,0,1,1.94.37,2.7,2.7,0,0,1,1.25,1.1A3.35,3.35,0,0,1,91.21,62.54Zm-5,0a2,2,0,0,0,.27,1.06,1.17,1.17,0,0,0,1.08.45,1.47,1.47,0,0,0,.92-.24.94.94,0,0,0,.38-.54,3.42,3.42,0,0,0,.11-.73,2.22,2.22,0,0,0-.3-1q-.25-.45-1.11-.45Q86.23,61.05,86.23,62.55Z"/><path class="cls-1" d="M91.21,62.54a3.38,3.38,0,0,1-.43,1.76,2.7,2.7,0,0,1-1.24,1.09,4.85,4.85,0,0,1-2,.36,4.77,4.77,0,0,1-1.94-.36,2.68,2.68,0,0,1-1.23-1.09A3.45,3.45,0,0,1,84,62.54a3.71,3.71,0,0,1,.24-1.39,2.66,2.66,0,0,1,.7-1,3.08,3.08,0,0,1,1.13-.62,5.08,5.08,0,0,1,1.52-.21,4.76,4.76,0,0,1,1.94.37,2.7,2.7,0,0,1,1.25,1.1A3.35,3.35,0,0,1,91.21,62.54Zm-5,0a2,2,0,0,0,.27,1.06,1.17,1.17,0,0,0,1.08.45,1.47,1.47,0,0,0,.92-.24.94.94,0,0,0,.38-.54,3.42,3.42,0,0,0,.11-.73,2.22,2.22,0,0,0-.3-1q-.25-.45-1.11-.45Q86.23,61.05,86.23,62.55Z"/><path class="cls-1" d="M91.51,65.64V59.36h4.1a2.64,2.64,0,0,1,1.24.4,1.89,1.89,0,0,1,.71.89,2.44,2.44,0,0,1,0,1.29,1.57,1.57,0,0,1-.55.75,2.72,2.72,0,0,1-1.12.48l.47.6h3.36v1.87h-4l-2-2.07v2.07Zm2.28-4.71v1.15h1.58a.51.51,0,0,0,.27-.09c.1-.06.16-.22.16-.47a.63.63,0,0,0-.17-.48.54.54,0,0,0-.26-.11Z"/><path class="cls-1" d="M91.51,65.64V59.36h4.1a2.64,2.64,0,0,1,1.24.4,1.89,1.89,0,0,1,.71.89,2.44,2.44,0,0,1,0,1.29,1.57,1.57,0,0,1-.55.75,2.72,2.72,0,0,1-1.12.48l.47.6h3.36v1.87h-4l-2-2.07v2.07Zm2.28-4.71v1.15h1.58a.51.51,0,0,0,.27-.09c.1-.06.16-.22.16-.47a.63.63,0,0,0-.17-.48.54.54,0,0,0-.26-.11Z"/><path class="cls-1" d="M103.34,59.36v1.87h-2v4.41h-2V61.23h-2V59.36Z"/><path class="cls-1" d="M103.34,59.36v1.87h-2v4.41h-2V61.23h-2V59.36Z"/><path class="cls-1" d="M102.92,65.64V61.23h-1.31V59.36h6.69v1.87H105V62h2.16v1.1H105v2.59Z"/><path class="cls-1" d="M102.92,65.64V61.23h-1.31V59.36h6.69v1.87H105V62h2.16v1.1H105v2.59Z"/><path class="cls-1" d="M115.69,62.54a3.38,3.38,0,0,1-.43,1.76A2.7,2.7,0,0,1,114,65.39a4.85,4.85,0,0,1-2,.36,4.73,4.73,0,0,1-1.94-.36,2.63,2.63,0,0,1-1.23-1.09,3.45,3.45,0,0,1-.42-1.76,3.71,3.71,0,0,1,.24-1.39,2.66,2.66,0,0,1,.7-1,3.08,3.08,0,0,1,1.13-.62,5.08,5.08,0,0,1,1.52-.21,4.76,4.76,0,0,1,1.94.37,2.7,2.7,0,0,1,1.25,1.1A3.35,3.35,0,0,1,115.69,62.54Zm-5,0a2,2,0,0,0,.27,1.06,1.16,1.16,0,0,0,1.08.45,1.47,1.47,0,0,0,.92-.24.94.94,0,0,0,.38-.54,4.19,4.19,0,0,0,.11-.73,2.22,2.22,0,0,0-.3-1,1.18,1.18,0,0,0-1.11-.45Q110.71,61.05,110.71,62.55Z"/><path class="cls-1" d="M115.69,62.54a3.38,3.38,0,0,1-.43,1.76A2.7,2.7,0,0,1,114,65.39a4.85,4.85,0,0,1-2,.36,4.73,4.73,0,0,1-1.94-.36,2.63,2.63,0,0,1-1.23-1.09,3.45,3.45,0,0,1-.42-1.76,3.71,3.71,0,0,1,.24-1.39,2.66,2.66,0,0,1,.7-1,3.08,3.08,0,0,1,1.13-.62,5.08,5.08,0,0,1,1.52-.21,4.76,4.76,0,0,1,1.94.37,2.7,2.7,0,0,1,1.25,1.1A3.35,3.35,0,0,1,115.69,62.54Zm-5,0a2,2,0,0,0,.27,1.06,1.16,1.16,0,0,0,1.08.45,1.47,1.47,0,0,0,.92-.24.94.94,0,0,0,.38-.54,4.19,4.19,0,0,0,.11-.73,2.22,2.22,0,0,0-.3-1,1.18,1.18,0,0,0-1.11-.45Q110.71,61.05,110.71,62.55Z"/><path class="cls-1" d="M116,65.64V59.36H118v4.41h3.4v1.87Z"/><path class="cls-1" d="M116,65.64V59.36H118v4.41h3.4v1.87Z"/><path class="cls-1" d="M121.62,59.36h2v6.28h-2Z"/><path class="cls-1" d="M121.62,59.36h2v6.28h-2Z"/><path class="cls-1" d="M131.1,62.54a3.38,3.38,0,0,1-.44,1.76,2.7,2.7,0,0,1-1.24,1.09,4.85,4.85,0,0,1-1.95.36,4.77,4.77,0,0,1-1.94-.36,2.68,2.68,0,0,1-1.23-1.09,3.45,3.45,0,0,1-.42-1.76,3.71,3.71,0,0,1,.24-1.39,2.66,2.66,0,0,1,.7-1,3.08,3.08,0,0,1,1.13-.62,5.08,5.08,0,0,1,1.52-.21,4.84,4.84,0,0,1,1.95.37,2.72,2.72,0,0,1,1.24,1.1A3.35,3.35,0,0,1,131.1,62.54Zm-5,0a2,2,0,0,0,.27,1.06,1.17,1.17,0,0,0,1.08.45,1.47,1.47,0,0,0,.92-.24.94.94,0,0,0,.38-.54,3.42,3.42,0,0,0,.11-.73,2.34,2.34,0,0,0-.29-1,1.2,1.2,0,0,0-1.12-.45Q126.11,61.05,126.11,62.55Z"/><path class="cls-1" d="M131.1,62.54a3.38,3.38,0,0,1-.44,1.76,2.7,2.7,0,0,1-1.24,1.09,4.85,4.85,0,0,1-1.95.36,4.77,4.77,0,0,1-1.94-.36,2.68,2.68,0,0,1-1.23-1.09,3.45,3.45,0,0,1-.42-1.76,3.71,3.71,0,0,1,.24-1.39,2.66,2.66,0,0,1,.7-1,3.08,3.08,0,0,1,1.13-.62,5.08,5.08,0,0,1,1.52-.21,4.84,4.84,0,0,1,1.95.37,2.72,2.72,0,0,1,1.24,1.1A3.35,3.35,0,0,1,131.1,62.54Zm-5,0a2,2,0,0,0,.27,1.06,1.17,1.17,0,0,0,1.08.45,1.47,1.47,0,0,0,.92-.24.94.94,0,0,0,.38-.54,3.42,3.42,0,0,0,.11-.73,2.34,2.34,0,0,0-.29-1,1.2,1.2,0,0,0-1.12-.45Q126.11,61.05,126.11,62.55Z"/><path class="cls-1" d="M161.75,0H8.25A8.26,8.26,0,0,0,0,8.25v46a8.26,8.26,0,0,0,8.25,8.25H24.76v-3.3H8.25a5,5,0,0,1-4.95-5v-46a5,5,0,0,1,5-4.95h153.5a5,5,0,0,1,4.95,5v46a5,5,0,0,1-4.95,5H134v3.3h27.73A8.26,8.26,0,0,0,170,54.22v-46A8.26,8.26,0,0,0,161.75,0Z"/></g></g></g></svg>