<?xml version="1.0" encoding="utf-8"?>
<!-- Generator: Adobe Illustrator 22.1.0, SVG Export Plug-In . SVG Version: 6.00 Build 0)  -->
<svg version="1.1" id="Capa_1" xmlns="http://www.w3.org/2000/svg" xmlns:xlink="http://www.w3.org/1999/xlink" x="0px" y="0px"
	 viewBox="0 0 359.5 359.5" style="enable-background:new 0 0 359.5 359.5;" xml:space="preserve">
<style type="text/css">
	.st0{enable-background:new    ;}
	.st1{fill:#FFFFFF;}
	.st2{fill:none;stroke:#FFFFFF;stroke-width:2;stroke-miterlimit:10;}
</style>
<title>episodio-II-featured</title>
<g id="Episodio_II">
	<g class="st0">
		<path class="st1" d="M32.9,159.9c0-7.3,0-8.7-0.1-10.2c-0.1-1.6-0.5-2.4-2.1-2.7c-0.4-0.1-1.2-0.1-1.9-0.1c-0.5,0-0.8-0.1-0.8-0.4
			s0.3-0.4,1.1-0.4c1.3,0,2.7,0,3.9,0c1.3,0,2.4,0.1,3,0.1c1.5,0,11.1,0,12.1,0c0.9-0.1,1.7-0.2,2.1-0.3c0.2,0,0.5-0.2,0.8-0.2
			c0.2,0,0.3,0.2,0.3,0.4c0,0.3-0.2,0.9-0.4,3.1c0,0.5-0.1,2.6-0.2,3.2c0,0.2-0.1,0.5-0.5,0.5s-0.4-0.2-0.4-0.7c0-0.3,0-1.2-0.3-1.7
			c-0.3-0.9-0.8-1.4-3.2-1.7c-0.8-0.1-5.9-0.2-6.8-0.2c-0.2,0-0.3,0.1-0.3,0.5v12.2c0,0.3,0,0.5,0.3,0.5c1.1,0,6.6,0,7.7-0.1
			c1.2-0.1,1.9-0.2,2.3-0.7c0.3-0.4,0.5-0.6,0.8-0.6c0.2,0,0.3,0.1,0.3,0.4s-0.2,1.1-0.4,3.5c0,1-0.2,2.9-0.2,3.2
			c0,0.4,0,0.9-0.4,0.9c-0.3,0-0.4-0.2-0.4-0.4c0-0.5,0-1.1-0.2-1.7c-0.2-1-0.9-1.7-2.7-1.9c-0.9-0.1-5.7-0.1-6.8-0.1
			c-0.2,0-0.3,0.2-0.3,0.5v3.8c0,1.6,0,6.1,0,7.5c0.1,3.3,0.9,4.1,5.8,4.1c1.3,0,3.3,0,4.5-0.6c1.3-0.6,1.8-1.6,2.2-3.6
			c0.1-0.5,0.2-0.7,0.5-0.7c0.4,0,0.4,0.4,0.4,0.9c0,1.1-0.4,4.4-0.6,5.4c-0.3,1.3-0.8,1.3-2.6,1.3c-3.6,0-6.3-0.1-8.3-0.1
			c-2.1-0.1-3.6-0.1-5-0.1c-0.5,0-1.6,0-2.7,0c-1.1,0-2.4,0.1-3.3,0.1c-0.6,0-1-0.1-1-0.5c0-0.2,0.2-0.4,0.8-0.4
			c0.7,0,1.3-0.1,1.7-0.2c1-0.2,1.2-1.3,1.4-2.7c0.2-2,0.2-5.8,0.2-10.3V159.9z"/>
		<path class="st1" d="M62,159.9c0-7.3,0-8.7-0.1-10.2c-0.1-1.6-0.5-2.4-2.1-2.7c-0.4-0.1-1.2-0.1-1.9-0.1c-0.5,0-0.8-0.1-0.8-0.4
			s0.3-0.4,1.1-0.4c2.6,0,5.6,0.1,6.9,0.1c2,0,4.8-0.1,7-0.1c6,0,8.2,2,9,2.7c1.1,1,2.4,3.2,2.4,5.7c0,6.8-5,11.7-11.9,11.7
			c-0.2,0-0.8,0-1,0c-0.2,0-0.6-0.1-0.6-0.4c0-0.4,0.3-0.5,1.4-0.5c2.7,0,6.5-3,6.5-8c0-1.6-0.1-4.8-2.8-7.2
			c-1.7-1.6-3.7-1.9-4.8-1.9c-0.7,0-1.4,0-1.9,0.2c-0.2,0.1-0.4,0.4-0.4,0.9v19.3c0,4.4,0,8.2,0.2,10.3c0.1,1.4,0.4,2.4,1.9,2.6
			c0.7,0.1,1.7,0.2,2.5,0.2c0.5,0,0.8,0.1,0.8,0.4c0,0.3-0.4,0.5-0.9,0.5c-3.2,0-6.2-0.1-7.5-0.1c-1.1,0-4.1,0.1-6.1,0.1
			c-0.6,0-1-0.1-1-0.5c0-0.2,0.2-0.4,0.8-0.4c0.7,0,1.3-0.1,1.7-0.2c1-0.2,1.2-1.3,1.4-2.7c0.2-2,0.2-5.8,0.2-10.3V159.9z"/>
		<path class="st1" d="M92.1,159.9c0-7.3,0-8.7-0.1-10.2c-0.1-1.6-0.6-2.5-1.6-2.7c-0.5-0.1-1.2-0.2-1.7-0.2c-0.5,0-0.8-0.1-0.8-0.5
			c0-0.3,0.4-0.4,1.2-0.4c1.8,0,4.9,0.1,6.3,0.1c1.2,0,4.1-0.1,5.9-0.1c0.6,0,1,0.1,1,0.4c0,0.4-0.3,0.5-0.8,0.5
			c-0.5,0-0.9,0-1.4,0.1c-1.3,0.2-1.7,1.1-1.8,2.7c-0.1,1.5-0.1,2.9-0.1,10.2v8.5c0,4.7,0,8.5,0.2,10.6c0.1,1.3,0.5,2.2,1.9,2.4
			c0.7,0.1,1.7,0.2,2.5,0.2c0.5,0,0.8,0.1,0.8,0.4c0,0.3-0.4,0.5-0.9,0.5c-3.2,0-6.2-0.1-7.5-0.1c-1.1,0-4.1,0.1-6.1,0.1
			c-0.6,0-1-0.1-1-0.5c0-0.2,0.2-0.4,0.8-0.4c0.7,0,1.3-0.1,1.7-0.2c1-0.2,1.3-1,1.4-2.4c0.2-2,0.2-5.8,0.2-10.5V159.9z"/>
		<path class="st1" d="M109.9,181.8c-0.8-0.3-0.9-0.6-0.9-1.6c0-2.7,0.2-5.5,0.2-6.3c0-0.7,0.2-1.3,0.6-1.3c0.4,0,0.5,0.4,0.5,0.8
			c0,0.6,0.2,1.6,0.4,2.5c1.1,3.6,3.9,4.9,6.9,4.9c4.3,0,6.5-2.9,6.5-5.5c0-2.4-0.7-4.6-4.7-7.7l-2.2-1.7c-5.3-4.1-7.1-7.5-7.1-11.4
			c0-5.3,4.4-9.1,11.1-9.1c3.1,0,5.2,0.5,6.4,0.8c0.4,0.1,0.7,0.2,0.7,0.6c0,0.6-0.2,2-0.2,5.8c0,1.1-0.1,1.4-0.5,1.4
			c-0.3,0-0.5-0.3-0.5-0.9c0-0.4-0.2-1.9-1.3-3.2c-0.7-0.9-2.1-2.4-5.3-2.4c-3.6,0-5.7,2.1-5.7,5c0,2.2,1.1,3.9,5.1,6.9l1.4,1
			c5.8,4.4,7.9,7.7,7.9,12.3c0,2.8-1.1,6.1-4.5,8.4c-2.4,1.5-5.1,2-7.7,2C114.1,183,112,182.7,109.9,181.8z"/>
	</g>
	<g class="st0">
		<path class="st1" d="M133.8,164.1c0-8.2,5.4-18.9,19.9-18.9c12,0,19.5,7,19.5,18c0,11-7.7,19.8-20,19.8
			C139.4,183,133.8,172.7,133.8,164.1z M166.4,165.1c0-10.8-6.2-17.5-14.1-17.5c-5.5,0-11.9,3.1-11.9,15.1c0,10,5.5,18,14.8,18
			C158.6,180.6,166.4,179,166.4,165.1z"/>
		<path class="st1" d="M181.4,159.9c0-7.3,0-8.7-0.1-10.2c-0.1-1.6-0.5-2.4-2.1-2.7c-0.4-0.1-1.2-0.1-1.9-0.1
			c-0.5,0-0.8-0.1-0.8-0.4s0.3-0.4,1.1-0.4c2.6,0,5.6,0.1,6.9,0.1c1.5,0,4.5-0.1,7.4-0.1c6,0,14.1,0,19.3,5.5
			c2.4,2.5,4.7,6.5,4.7,12.2c0,6.1-2.6,10.7-5.3,13.5c-2.2,2.3-7.2,5.7-16.2,5.7c-1.7,0-3.7-0.1-5.5-0.3c-1.8-0.1-3.5-0.3-4.7-0.3
			c-0.5,0-1.6,0-2.7,0c-1.1,0-2.4,0.1-3.3,0.1c-0.6,0-1-0.1-1-0.5c0-0.2,0.2-0.4,0.8-0.4c0.7,0,1.3-0.1,1.7-0.2
			c1-0.2,1.2-1.3,1.4-2.7c0.2-2,0.2-5.8,0.2-10.3V159.9z M187.4,165.2c0,5.1,0,8.8,0.1,9.7c0,1.2,0.1,3.1,0.5,3.7
			c0.6,0.9,2.5,1.9,6.3,1.9c4.9,0,8.2-1,11.1-3.5c3.1-2.7,4.1-7,4.1-12c0-6.1-2.6-10.1-4.6-12.1c-4.4-4.2-9.9-4.8-13.7-4.8
			c-1,0-2.7,0.1-3.1,0.3c-0.4,0.2-0.6,0.4-0.6,1c0,1.6,0,5.8,0,9.6V165.2z"/>
		<path class="st1" d="M224.1,159.9c0-7.3,0-8.7-0.1-10.2c-0.1-1.6-0.6-2.5-1.6-2.7c-0.5-0.1-1.2-0.2-1.7-0.2
			c-0.5,0-0.8-0.1-0.8-0.5c0-0.3,0.4-0.4,1.2-0.4c1.8,0,4.9,0.1,6.3,0.1c1.2,0,4-0.1,5.9-0.1c0.6,0,1,0.1,1,0.4
			c0,0.4-0.3,0.5-0.8,0.5s-0.9,0-1.4,0.1c-1.3,0.2-1.7,1.1-1.8,2.7c-0.1,1.5-0.1,2.9-0.1,10.2v8.5c0,4.7,0,8.5,0.2,10.6
			c0.1,1.3,0.5,2.2,1.9,2.4c0.7,0.1,1.7,0.2,2.5,0.2c0.5,0,0.8,0.1,0.8,0.4c0,0.3-0.4,0.5-0.9,0.5c-3.2,0-6.2-0.1-7.5-0.1
			c-1.1,0-4.1,0.1-6.1,0.1c-0.6,0-1-0.1-1-0.5c0-0.2,0.2-0.4,0.8-0.4c0.7,0,1.3-0.1,1.7-0.2c1-0.2,1.3-1,1.4-2.4
			c0.2-2,0.2-5.8,0.2-10.5V159.9z"/>
	</g>
	<g class="st0">
		<path class="st1" d="M239.6,164.1c0-8.2,5.4-18.9,19.9-18.9c12,0,19.5,7,19.5,18c0,11-7.7,19.8-20,19.8
			C245.2,183,239.6,172.7,239.6,164.1z M272.3,165.1c0-10.8-6.2-17.5-14.1-17.5c-5.5,0-11.9,3.1-11.9,15.1c0,10,5.5,18,14.8,18
			C264.4,180.6,272.3,179,272.3,165.1z"/>
		<path class="st1" d="M301.2,159.9c0-7.3,0-8.7-0.1-10.2c-0.1-1.6-0.6-2.5-1.6-2.7c-0.5-0.1-1.2-0.2-1.7-0.2
			c-0.5,0-0.8-0.1-0.8-0.5c0-0.3,0.4-0.4,1.2-0.4c1.8,0,4.9,0.1,6.3,0.1c1.2,0,4.1-0.1,5.9-0.1c0.6,0,1,0.1,1,0.4
			c0,0.4-0.3,0.5-0.8,0.5s-0.9,0-1.4,0.1c-1.3,0.2-1.7,1.1-1.8,2.7c-0.1,1.5-0.1,2.9-0.1,10.2v8.5c0,4.7,0,8.5,0.2,10.6
			c0.1,1.3,0.5,2.2,1.9,2.4c0.7,0.1,1.7,0.2,2.5,0.2c0.5,0,0.8,0.1,0.8,0.4c0,0.3-0.4,0.5-0.9,0.5c-3.2,0-6.2-0.1-7.5-0.1
			c-1.1,0-4.1,0.1-6.1,0.1c-0.6,0-1-0.1-1-0.5c0-0.2,0.2-0.4,0.8-0.4c0.7,0,1.3-0.1,1.7-0.2c1-0.2,1.3-1,1.4-2.4
			c0.2-2,0.2-5.8,0.2-10.5V159.9z"/>
		<path class="st1" d="M321.6,159.9c0-7.3,0-8.7-0.1-10.2c-0.1-1.6-0.6-2.5-1.6-2.7c-0.5-0.1-1.2-0.2-1.7-0.2
			c-0.5,0-0.8-0.1-0.8-0.5c0-0.3,0.4-0.4,1.2-0.4c1.8,0,4.9,0.1,6.3,0.1c1.2,0,4.1-0.1,5.9-0.1c0.6,0,1,0.1,1,0.4
			c0,0.4-0.3,0.5-0.8,0.5s-0.9,0-1.4,0.1c-1.3,0.2-1.7,1.1-1.8,2.7c-0.1,1.5-0.1,2.9-0.1,10.2v8.5c0,4.7,0,8.5,0.2,10.6
			c0.1,1.3,0.5,2.2,1.9,2.4c0.7,0.1,1.7,0.2,2.5,0.2c0.5,0,0.8,0.1,0.8,0.4c0,0.3-0.4,0.5-0.9,0.5c-3.2,0-6.2-0.1-7.5-0.1
			c-1.1,0-4.1,0.1-6.1,0.1c-0.6,0-1-0.1-1-0.5c0-0.2,0.2-0.4,0.8-0.4c0.7,0,1.3-0.1,1.7-0.2c1-0.2,1.3-1,1.4-2.4
			c0.2-2,0.2-5.8,0.2-10.5V159.9z"/>
	</g>
	<g class="st0">
		<path class="st1" d="M30.7,221.3c0,1.7,0,3,0.1,3.8c0.1,0.8,0.2,1.3,0.4,1.5c0.1,0.1,0.2,0.2,0.3,0.2c0.1,0.1,0.3,0.1,0.5,0.2
			c0.2,0,0.5,0.1,0.8,0.1s0.7,0,1.2,0c0.6,0,1.2,0,1.7-0.1c0.5-0.1,0.9-0.3,1.2-0.6c0.2-0.2,0.3-0.4,0.4-0.7
			c0.1-0.3,0.2-0.5,0.2-0.7c0-0.2,0.1-0.3,0.2-0.3c0.1,0,0.1,0.1,0.1,0.4c0,0.1,0,0.2,0,0.4c0,0.2,0,0.4-0.1,0.6
			c0,0.2-0.1,0.5-0.1,0.7s-0.1,0.4-0.1,0.6c0,0.1-0.1,0.2-0.1,0.3c0,0.1-0.1,0.1-0.2,0.2c-0.1,0-0.2,0.1-0.4,0.1c-0.2,0-0.4,0-0.7,0
			c-0.8,0-1.6,0-2.2,0c-0.6,0-1.2,0-1.7,0c-0.5,0-0.9-0.1-1.3-0.1s-0.7,0-1.1,0c0,0-0.2,0-0.3,0c-0.2,0-0.4,0-0.6,0
			c-0.2,0-0.5,0-0.7,0c-0.2,0-0.4,0-0.6,0c-0.2,0-0.4-0.1-0.4-0.2c0-0.1,0.1-0.1,0.2-0.1c0.1,0,0.2,0,0.4,0c0.1,0,0.2,0,0.4-0.1
			c0.2,0,0.4-0.2,0.5-0.4c0.1-0.2,0.2-0.5,0.2-0.9c0.1-0.5,0.1-1.2,0.1-2.1c0-0.9,0-1.9,0-3v-4.1c0-0.9,0-1.6,0-2.2c0-0.6,0-1,0-1.4
			c0-0.4,0-0.6,0-0.9c0-0.2,0-0.4,0-0.6c0-0.4-0.1-0.7-0.2-0.9c-0.1-0.2-0.4-0.3-0.8-0.4c-0.1,0-0.2,0-0.4-0.1c-0.2,0-0.3,0-0.4,0
			c-0.1,0-0.2,0-0.2-0.1c0-0.1,0.1-0.2,0.4-0.2c0.3,0,0.5,0,0.8,0c0.3,0,0.6,0,0.8,0s0.5,0,0.7,0c0.2,0,0.3,0,0.3,0s0.1,0,0.4,0
			s0.4,0,0.7,0c0.3,0,0.5,0,0.8,0c0.3,0,0.5,0,0.7,0c0.2,0,0.4,0.1,0.4,0.2c0,0.1-0.1,0.1-0.2,0.1c-0.1,0-0.2,0-0.3,0
			c-0.1,0-0.3,0-0.4,0.1c-0.3,0.1-0.6,0.2-0.7,0.4c-0.1,0.2-0.2,0.5-0.2,0.9c0,0.2,0,0.4,0,0.6c0,0.2,0,0.5,0,0.9c0,0.3,0,0.8,0,1.4
			c0,0.6,0,1.3,0,2.2V221.3z"/>
	</g>
	<g class="st0">
		<path class="st1" d="M43.9,211c0.1-0.4,0.2-0.6,0.3-0.7c0.1-0.1,0.1-0.2,0.2-0.2s0.1,0.1,0.2,0.2s0.2,0.3,0.3,0.7
			c0.1,0.1,0.2,0.5,0.4,1.1c0.2,0.6,0.5,1.3,0.8,2.2c0.3,0.8,0.7,1.8,1.1,2.8c0.4,1,0.8,2,1.2,3c0.4,1,0.7,1.9,1.1,2.8
			s0.6,1.6,0.9,2.2c0.2,0.5,0.4,0.9,0.6,1.3c0.2,0.3,0.4,0.6,0.5,0.8c0.2,0.2,0.3,0.3,0.5,0.4c0.1,0.1,0.3,0.1,0.4,0.2
			c0.2,0.1,0.3,0.1,0.5,0.1s0.3,0,0.4,0c0.2,0,0.2,0,0.2,0.1c0,0.1,0,0.1-0.1,0.2c-0.1,0-0.2,0-0.3,0c-0.1,0-0.3,0-0.5,0
			c-0.2,0-0.5,0-0.9,0c-0.3,0-0.7,0-1.1,0s-0.8,0-1.2,0c-0.2,0-0.4,0-0.5,0c-0.1,0-0.2-0.1-0.2-0.1c0-0.1,0.1-0.1,0.2-0.2
			c0.1,0,0.1-0.1,0.2-0.2c0-0.1,0-0.2,0-0.4l-2.2-5.8c0-0.1-0.1-0.1-0.2-0.1h-5c-0.1,0-0.2,0.1-0.2,0.2l-1.4,4.1
			c-0.2,0.6-0.3,1.1-0.3,1.6c0,0.2,0.1,0.4,0.3,0.5c0.2,0.1,0.4,0.2,0.6,0.2h0.2c0.2,0,0.2,0,0.2,0.1c0,0.1-0.1,0.2-0.4,0.2
			c-0.1,0-0.3,0-0.5,0s-0.4,0-0.5,0c-0.2,0-0.3,0-0.5,0c-0.1,0-0.3,0-0.3,0c-0.1,0-0.2,0-0.4,0s-0.4,0-0.6,0c-0.2,0-0.5,0-0.8,0
			c-0.3,0-0.6,0-0.8,0c-0.3,0-0.4-0.1-0.4-0.2c0-0.1,0.1-0.1,0.2-0.1c0.1,0,0.2,0,0.3,0c0.1,0,0.3,0,0.4,0c0.5-0.1,1-0.3,1.2-0.7
			c0.3-0.4,0.5-0.9,0.7-1.5L43.9,211z M46.3,220.3c0.1,0,0.1-0.1,0.1-0.2l-2.2-6.3c-0.1-0.3-0.2-0.3-0.4,0l-2.1,6.3
			c0,0.1,0,0.2,0.1,0.2H46.3z"/>
	</g>
	<g class="st0">
		<path class="st1" d="M59.8,217.2c0-0.9,0-1.6,0-2.2c0-0.6,0-1,0-1.4c0-0.4,0-0.6,0-0.9c0-0.2,0-0.4,0-0.6c0-0.4-0.1-0.7-0.2-0.9
			c-0.1-0.2-0.4-0.3-0.8-0.4c-0.1,0-0.2,0-0.4-0.1c-0.2,0-0.3,0-0.4,0c-0.1,0-0.2,0-0.2-0.1c0-0.1,0.1-0.2,0.4-0.2
			c0.3,0,0.5,0,0.8,0c0.3,0,0.6,0,0.8,0s0.5,0,0.7,0c0.2,0,0.3,0,0.3,0c0.3,0,0.6,0,1.1,0c0.4,0,0.9,0,1.5,0c1,0,1.7,0.1,2.3,0.4
			c0.6,0.3,1.1,0.6,1.4,0.9s0.6,0.7,0.7,1.1c0.1,0.4,0.2,0.7,0.2,1c0,0.5-0.1,0.9-0.2,1.3c-0.1,0.4-0.3,0.8-0.5,1.1
			c-0.2,0.3-0.4,0.7-0.7,0.9c-0.3,0.3-0.5,0.6-0.8,0.9c0.4,0.1,0.9,0.3,1.4,0.6c0.5,0.3,0.9,0.6,1.3,1s0.7,0.9,1,1.4
			c0.3,0.5,0.4,1.2,0.4,1.8c0,0.6-0.1,1.2-0.4,1.8c-0.2,0.6-0.6,1.2-1.1,1.6c-0.5,0.5-1.1,0.9-1.9,1.2s-1.6,0.4-2.6,0.4
			c-0.1,0-0.4,0-0.7,0c-0.3,0-0.7,0-1,0c-0.3,0-0.7-0.1-0.9-0.1c-0.3,0-0.4,0-0.5,0c0,0-0.1,0-0.3,0c-0.2,0-0.4,0-0.6,0
			c-0.2,0-0.5,0-0.7,0s-0.5,0-0.6,0c-0.2,0-0.4-0.1-0.4-0.2c0-0.1,0.1-0.1,0.2-0.1c0.1,0,0.2,0,0.4,0c0.1,0,0.2,0,0.4-0.1
			c0.2,0,0.4-0.2,0.5-0.4c0.1-0.2,0.2-0.5,0.2-0.9c0.1-0.5,0.1-1.2,0.1-2.1c0-0.9,0-1.9,0-3V217.2z M61.7,217.7
			c0,0.1,0.1,0.2,0.2,0.3c0.1,0,0.2,0,0.4,0.1c0.2,0,0.5,0,1,0c0.3,0,0.6,0,0.8,0s0.4,0,0.5-0.1c0.1,0,0.3-0.1,0.4-0.2
			c0.1-0.1,0.2-0.2,0.4-0.3c0.2-0.3,0.5-0.6,0.6-1c0.2-0.4,0.2-0.8,0.2-1.3c0-0.5-0.1-1-0.2-1.5c-0.1-0.5-0.3-0.9-0.5-1.3
			c-0.2-0.4-0.6-0.7-1-0.9c-0.4-0.2-0.9-0.4-1.5-0.4c-0.1,0-0.3,0-0.5,0s-0.4,0-0.6,0.1c-0.2,0-0.3,0.1-0.3,0.3V217.7z M61.7,220.2
			c0,0.5,0,1,0,1.5s0,1.1,0,1.6s0,0.9,0,1.3c0,0.4,0,0.6,0,0.7c0,0.3,0,0.5,0,0.7c0,0.2,0.1,0.4,0.1,0.5c0.1,0.1,0.1,0.2,0.2,0.3
			c0.1,0.1,0.2,0.2,0.4,0.3c0.2,0.1,0.3,0.1,0.5,0.2c0.2,0,0.4,0.1,0.6,0.1c0.2,0,0.4,0,0.5,0s0.3,0,0.4,0c0.3,0,0.7-0.1,1-0.2
			c0.4-0.1,0.7-0.3,1.1-0.5c0.3-0.2,0.6-0.6,0.8-1s0.3-1,0.3-1.6c0-0.3,0-0.7-0.1-1.1s-0.2-0.8-0.4-1.3c-0.2-0.4-0.4-0.8-0.7-1.2
			s-0.7-0.7-1.1-1.1c-0.4-0.3-0.8-0.4-1.1-0.5c-0.3-0.1-0.6-0.1-0.9-0.2c-0.1,0-0.2,0-0.4,0c-0.2,0-0.3,0-0.5,0s-0.4,0-0.5,0
			c-0.2,0-0.3,0-0.4,0c-0.1,0-0.1,0.1-0.1,0.2V220.2z"/>
	</g>
	<g class="st0">
		<path class="st1" d="M76.8,211c0.1-0.4,0.2-0.6,0.3-0.7c0.1-0.1,0.1-0.2,0.2-0.2s0.1,0.1,0.2,0.2s0.2,0.3,0.3,0.7
			c0.1,0.1,0.2,0.5,0.4,1.1c0.2,0.6,0.5,1.3,0.8,2.2c0.3,0.8,0.7,1.8,1.1,2.8c0.4,1,0.8,2,1.2,3c0.4,1,0.7,1.9,1.1,2.8
			s0.6,1.6,0.9,2.2c0.2,0.5,0.4,0.9,0.6,1.3c0.2,0.3,0.4,0.6,0.5,0.8c0.2,0.2,0.3,0.3,0.5,0.4c0.1,0.1,0.3,0.1,0.4,0.2
			c0.2,0.1,0.3,0.1,0.5,0.1s0.3,0,0.4,0c0.2,0,0.2,0,0.2,0.1c0,0.1,0,0.1-0.1,0.2c-0.1,0-0.2,0-0.3,0c-0.1,0-0.3,0-0.5,0
			c-0.2,0-0.5,0-0.9,0c-0.3,0-0.7,0-1.1,0s-0.8,0-1.2,0c-0.2,0-0.4,0-0.5,0c-0.1,0-0.2-0.1-0.2-0.1c0-0.1,0.1-0.1,0.2-0.2
			c0.1,0,0.1-0.1,0.2-0.2c0-0.1,0-0.2,0-0.4l-2.2-5.8c0-0.1-0.1-0.1-0.2-0.1h-5c-0.1,0-0.2,0.1-0.2,0.2l-1.4,4.1
			c-0.2,0.6-0.3,1.1-0.3,1.6c0,0.2,0.1,0.4,0.3,0.5c0.2,0.1,0.4,0.2,0.6,0.2h0.2c0.2,0,0.2,0,0.2,0.1c0,0.1-0.1,0.2-0.4,0.2
			c-0.1,0-0.3,0-0.5,0s-0.4,0-0.5,0c-0.2,0-0.3,0-0.5,0c-0.1,0-0.3,0-0.3,0c-0.1,0-0.2,0-0.4,0s-0.4,0-0.6,0c-0.2,0-0.5,0-0.8,0
			c-0.3,0-0.6,0-0.8,0c-0.3,0-0.4-0.1-0.4-0.2c0-0.1,0.1-0.1,0.2-0.1c0.1,0,0.2,0,0.3,0c0.1,0,0.3,0,0.4,0c0.5-0.1,1-0.3,1.2-0.7
			c0.3-0.4,0.5-0.9,0.7-1.5L76.8,211z M79.2,220.3c0.1,0,0.1-0.1,0.1-0.2l-2.2-6.3c-0.1-0.3-0.2-0.3-0.4,0l-2.1,6.3
			c0,0.1,0,0.2,0.1,0.2H79.2z"/>
	</g>
	<g class="st0">
		<path class="st1" d="M90.8,221.3c0,1.1,0,2.1,0,3c0,0.9,0,1.6,0.1,2.1c0,0.3,0.1,0.6,0.2,0.9s0.3,0.4,0.7,0.4
			c0.2,0,0.4,0.1,0.6,0.1s0.4,0,0.5,0c0.1,0,0.2,0,0.2,0.1c0,0.1-0.1,0.2-0.4,0.2c-0.3,0-0.7,0-1,0c-0.3,0-0.6,0-0.9,0
			c-0.3,0-0.5,0-0.7,0s-0.3,0-0.3,0c0,0-0.1,0-0.3,0s-0.4,0-0.6,0c-0.2,0-0.5,0-0.7,0s-0.5,0-0.6,0c-0.2,0-0.4-0.1-0.4-0.2
			c0-0.1,0.1-0.1,0.2-0.1c0.1,0,0.2,0,0.4,0c0.1,0,0.2,0,0.4-0.1c0.2,0,0.4-0.2,0.5-0.4c0.1-0.2,0.2-0.5,0.2-0.9
			c0.1-0.5,0.1-1.2,0.1-2.1c0-0.9,0-1.9,0-3v-9.9l-3.5,0c-0.4,0-0.7,0-0.9,0s-0.5,0.1-0.7,0.1c-0.2,0.1-0.3,0.1-0.5,0.2
			c-0.1,0.1-0.2,0.2-0.3,0.4c-0.1,0.2-0.2,0.4-0.3,0.5c-0.1,0.1-0.1,0.2-0.1,0.3c-0.1,0.2-0.1,0.2-0.2,0.2c-0.1,0-0.1-0.1-0.1-0.2
			c0-0.1,0-0.2,0.1-0.5c0-0.2,0.1-0.5,0.2-0.8c0.1-0.3,0.1-0.5,0.2-0.8c0.1-0.2,0.1-0.4,0.1-0.4c0-0.1,0.1-0.2,0.1-0.3
			c0-0.1,0.1-0.2,0.1-0.2c0.1,0,0.2,0,0.3,0.1c0.1,0.1,0.4,0.1,0.7,0.2c0.3,0,0.7,0.1,1.1,0.1s0.6,0,0.8,0h8.8c0.4,0,0.7,0,1,0
			c0.3,0,0.5,0,0.7-0.1c0.2,0,0.3-0.1,0.4-0.1c0.1,0,0.2,0,0.2,0c0.1,0,0.1,0,0.1,0.1s0,0.1,0,0.2c0,0.2,0,0.4,0,0.7
			c0,0.3,0,0.5,0,0.8c0,0.3,0,0.5,0,0.7c0,0.2,0,0.3,0,0.4c0,0.2-0.1,0.3-0.2,0.3c-0.1,0-0.1,0-0.1-0.1s0-0.2-0.1-0.3l0-0.3
			c0-0.2-0.1-0.3-0.2-0.5c-0.1-0.2-0.2-0.3-0.5-0.4s-0.5-0.2-0.9-0.3c-0.4-0.1-0.8-0.1-1.4-0.1l-2.9,0V221.3z"/>
	</g>
	<g class="st0">
		<path class="st1" d="M101.9,211c0.1-0.4,0.2-0.6,0.3-0.7c0.1-0.1,0.1-0.2,0.2-0.2s0.1,0.1,0.2,0.2s0.2,0.3,0.3,0.7
			c0.1,0.1,0.2,0.5,0.4,1.1c0.2,0.6,0.5,1.3,0.8,2.2c0.3,0.8,0.7,1.8,1.1,2.8c0.4,1,0.8,2,1.2,3c0.4,1,0.7,1.9,1.1,2.8
			s0.6,1.6,0.9,2.2c0.2,0.5,0.4,0.9,0.6,1.3c0.2,0.3,0.4,0.6,0.5,0.8c0.2,0.2,0.3,0.3,0.5,0.4c0.1,0.1,0.3,0.1,0.4,0.2
			c0.2,0.1,0.3,0.1,0.5,0.1s0.3,0,0.4,0c0.2,0,0.2,0,0.2,0.1c0,0.1,0,0.1-0.1,0.2c-0.1,0-0.2,0-0.3,0c-0.1,0-0.3,0-0.5,0
			c-0.2,0-0.5,0-0.9,0c-0.3,0-0.7,0-1.1,0s-0.8,0-1.2,0c-0.2,0-0.4,0-0.5,0c-0.1,0-0.2-0.1-0.2-0.1c0-0.1,0.1-0.1,0.2-0.2
			c0.1,0,0.1-0.1,0.2-0.2c0-0.1,0-0.2,0-0.4l-2.2-5.8c0-0.1-0.1-0.1-0.2-0.1h-5c-0.1,0-0.2,0.1-0.2,0.2l-1.4,4.1
			c-0.2,0.6-0.3,1.1-0.3,1.6c0,0.2,0.1,0.4,0.3,0.5c0.2,0.1,0.4,0.2,0.6,0.2h0.2c0.2,0,0.2,0,0.2,0.1c0,0.1-0.1,0.2-0.4,0.2
			c-0.1,0-0.3,0-0.5,0s-0.4,0-0.5,0c-0.2,0-0.3,0-0.5,0c-0.1,0-0.3,0-0.3,0c-0.1,0-0.2,0-0.4,0s-0.4,0-0.6,0c-0.2,0-0.5,0-0.8,0
			c-0.3,0-0.6,0-0.8,0c-0.3,0-0.4-0.1-0.4-0.2c0-0.1,0.1-0.1,0.2-0.1c0.1,0,0.2,0,0.3,0c0.1,0,0.3,0,0.4,0c0.5-0.1,1-0.3,1.2-0.7
			c0.3-0.4,0.5-0.9,0.7-1.5L101.9,211z M104.4,220.3c0.1,0,0.1-0.1,0.1-0.2l-2.2-6.3c-0.1-0.3-0.2-0.3-0.4,0l-2.1,6.3
			c0,0.1,0,0.2,0.1,0.2H104.4z"/>
		<path class="st1" d="M114.5,221.3c0,1.7,0,3,0.1,3.8c0.1,0.8,0.2,1.3,0.4,1.5c0.1,0.1,0.2,0.2,0.3,0.2c0.1,0.1,0.3,0.1,0.5,0.2
			c0.2,0,0.5,0.1,0.8,0.1s0.7,0,1.2,0c0.6,0,1.2,0,1.7-0.1c0.5-0.1,0.9-0.3,1.2-0.6c0.2-0.2,0.3-0.4,0.4-0.7
			c0.1-0.3,0.2-0.5,0.2-0.7c0-0.2,0.1-0.3,0.2-0.3c0.1,0,0.1,0.1,0.1,0.4c0,0.1,0,0.2,0,0.4c0,0.2,0,0.4-0.1,0.6
			c0,0.2-0.1,0.5-0.1,0.7s-0.1,0.4-0.1,0.6c0,0.1-0.1,0.2-0.1,0.3c0,0.1-0.1,0.1-0.2,0.2c-0.1,0-0.2,0.1-0.4,0.1c-0.2,0-0.4,0-0.7,0
			c-0.8,0-1.6,0-2.2,0c-0.6,0-1.2,0-1.7,0c-0.5,0-0.9-0.1-1.3-0.1s-0.7,0-1.1,0c0,0-0.2,0-0.3,0c-0.2,0-0.4,0-0.6,0
			c-0.2,0-0.5,0-0.7,0c-0.2,0-0.4,0-0.6,0c-0.2,0-0.4-0.1-0.4-0.2c0-0.1,0.1-0.1,0.2-0.1c0.1,0,0.2,0,0.4,0c0.1,0,0.2,0,0.4-0.1
			c0.2,0,0.4-0.2,0.5-0.4c0.1-0.2,0.2-0.5,0.2-0.9c0.1-0.5,0.1-1.2,0.1-2.1c0-0.9,0-1.9,0-3v-4.1c0-0.9,0-1.6,0-2.2c0-0.6,0-1,0-1.4
			c0-0.4,0-0.6,0-0.9c0-0.2,0-0.4,0-0.6c0-0.4-0.1-0.7-0.2-0.9c-0.1-0.2-0.4-0.3-0.8-0.4c-0.1,0-0.2,0-0.4-0.1c-0.2,0-0.3,0-0.4,0
			c-0.1,0-0.2,0-0.2-0.1c0-0.1,0.1-0.2,0.4-0.2c0.3,0,0.5,0,0.8,0c0.3,0,0.6,0,0.8,0s0.5,0,0.7,0c0.2,0,0.3,0,0.3,0s0.1,0,0.4,0
			s0.4,0,0.7,0c0.3,0,0.5,0,0.8,0c0.3,0,0.5,0,0.7,0c0.2,0,0.4,0.1,0.4,0.2c0,0.1-0.1,0.1-0.2,0.1c-0.1,0-0.2,0-0.3,0
			c-0.1,0-0.3,0-0.4,0.1c-0.3,0.1-0.6,0.2-0.7,0.4c-0.1,0.2-0.2,0.5-0.2,0.9c0,0.2,0,0.4,0,0.6c0,0.2,0,0.5,0,0.9c0,0.3,0,0.8,0,1.4
			c0,0.6,0,1.3,0,2.2V221.3z"/>
	</g>
	<g class="st0">
		<path class="st1" d="M126,221.3c0,1.7,0,3,0.1,3.8c0.1,0.8,0.2,1.3,0.4,1.5c0.1,0.1,0.2,0.2,0.3,0.2c0.1,0.1,0.3,0.1,0.5,0.2
			c0.2,0,0.5,0.1,0.8,0.1s0.7,0,1.2,0c0.6,0,1.2,0,1.7-0.1c0.5-0.1,0.9-0.3,1.2-0.6c0.2-0.2,0.3-0.4,0.4-0.7
			c0.1-0.3,0.2-0.5,0.2-0.7c0-0.2,0.1-0.3,0.2-0.3c0.1,0,0.1,0.1,0.1,0.4c0,0.1,0,0.2,0,0.4c0,0.2,0,0.4-0.1,0.6
			c0,0.2-0.1,0.5-0.1,0.7s-0.1,0.4-0.1,0.6c0,0.1-0.1,0.2-0.1,0.3c0,0.1-0.1,0.1-0.2,0.2c-0.1,0-0.2,0.1-0.4,0.1c-0.2,0-0.4,0-0.7,0
			c-0.8,0-1.6,0-2.2,0c-0.6,0-1.2,0-1.7,0c-0.5,0-0.9-0.1-1.3-0.1s-0.7,0-1.1,0c0,0-0.2,0-0.3,0c-0.2,0-0.4,0-0.6,0
			c-0.2,0-0.5,0-0.7,0c-0.2,0-0.4,0-0.6,0c-0.2,0-0.4-0.1-0.4-0.2c0-0.1,0.1-0.1,0.2-0.1c0.1,0,0.2,0,0.4,0c0.1,0,0.2,0,0.4-0.1
			c0.2,0,0.4-0.2,0.5-0.4c0.1-0.2,0.2-0.5,0.2-0.9c0.1-0.5,0.1-1.2,0.1-2.1c0-0.9,0-1.9,0-3v-4.1c0-0.9,0-1.6,0-2.2c0-0.6,0-1,0-1.4
			c0-0.4,0-0.6,0-0.9c0-0.2,0-0.4,0-0.6c0-0.4-0.1-0.7-0.2-0.9c-0.1-0.2-0.4-0.3-0.8-0.4c-0.1,0-0.2,0-0.4-0.1c-0.2,0-0.3,0-0.4,0
			c-0.1,0-0.2,0-0.2-0.1c0-0.1,0.1-0.2,0.4-0.2c0.3,0,0.5,0,0.8,0c0.3,0,0.6,0,0.8,0s0.5,0,0.7,0c0.2,0,0.3,0,0.3,0s0.1,0,0.4,0
			s0.4,0,0.7,0c0.3,0,0.5,0,0.8,0c0.3,0,0.5,0,0.7,0c0.2,0,0.4,0.1,0.4,0.2c0,0.1-0.1,0.1-0.2,0.1c-0.1,0-0.2,0-0.3,0
			c-0.1,0-0.3,0-0.4,0.1c-0.3,0.1-0.6,0.2-0.7,0.4c-0.1,0.2-0.2,0.5-0.2,0.9c0,0.2,0,0.4,0,0.6c0,0.2,0,0.5,0,0.9c0,0.3,0,0.8,0,1.4
			c0,0.6,0,1.3,0,2.2V221.3z"/>
	</g>
	<g class="st0">
		<path class="st1" d="M139.2,211c0.1-0.4,0.2-0.6,0.3-0.7c0.1-0.1,0.1-0.2,0.2-0.2s0.1,0.1,0.2,0.2s0.2,0.3,0.3,0.7
			c0.1,0.1,0.2,0.5,0.4,1.1c0.2,0.6,0.5,1.3,0.8,2.2c0.3,0.8,0.7,1.8,1.1,2.8c0.4,1,0.8,2,1.2,3c0.4,1,0.7,1.9,1.1,2.8
			s0.6,1.6,0.9,2.2c0.2,0.5,0.4,0.9,0.6,1.3c0.2,0.3,0.4,0.6,0.5,0.8c0.2,0.2,0.3,0.3,0.5,0.4c0.1,0.1,0.3,0.1,0.4,0.2
			c0.2,0.1,0.3,0.1,0.5,0.1s0.3,0,0.4,0c0.2,0,0.2,0,0.2,0.1c0,0.1,0,0.1-0.1,0.2c-0.1,0-0.2,0-0.3,0c-0.1,0-0.3,0-0.5,0
			c-0.2,0-0.5,0-0.9,0c-0.3,0-0.7,0-1.1,0s-0.8,0-1.2,0c-0.2,0-0.4,0-0.5,0c-0.1,0-0.2-0.1-0.2-0.1c0-0.1,0.1-0.1,0.2-0.2
			c0.1,0,0.1-0.1,0.2-0.2c0-0.1,0-0.2,0-0.4l-2.2-5.8c0-0.1-0.1-0.1-0.2-0.1h-5c-0.1,0-0.2,0.1-0.2,0.2l-1.4,4.1
			c-0.2,0.6-0.3,1.1-0.3,1.6c0,0.2,0.1,0.4,0.3,0.5c0.2,0.1,0.4,0.2,0.6,0.2h0.2c0.2,0,0.2,0,0.2,0.1c0,0.1-0.1,0.2-0.4,0.2
			c-0.1,0-0.3,0-0.5,0s-0.4,0-0.5,0c-0.2,0-0.3,0-0.5,0c-0.1,0-0.3,0-0.3,0c-0.1,0-0.2,0-0.4,0s-0.4,0-0.6,0c-0.2,0-0.5,0-0.8,0
			c-0.3,0-0.6,0-0.8,0c-0.3,0-0.4-0.1-0.4-0.2c0-0.1,0.1-0.1,0.2-0.1c0.1,0,0.2,0,0.3,0c0.1,0,0.3,0,0.4,0c0.5-0.1,1-0.3,1.2-0.7
			c0.3-0.4,0.5-0.9,0.7-1.5L139.2,211z M141.6,220.3c0.1,0,0.1-0.1,0.1-0.2l-2.2-6.3c-0.1-0.3-0.2-0.3-0.4,0l-2.1,6.3
			c0,0.1,0,0.2,0.1,0.2H141.6z"/>
		<path class="st1" d="M155.1,217.2c0-0.9,0-1.6,0-2.2c0-0.6,0-1,0-1.4c0-0.4,0-0.6,0-0.9c0-0.2,0-0.4,0-0.6c0-0.4-0.1-0.7-0.2-0.9
			c-0.1-0.2-0.4-0.3-0.8-0.4c-0.1,0-0.2,0-0.4-0.1c-0.2,0-0.3,0-0.4,0c-0.1,0-0.2,0-0.2-0.1c0-0.1,0.1-0.2,0.4-0.2
			c0.3,0,0.5,0,0.8,0c0.3,0,0.6,0,0.8,0s0.5,0,0.7,0c0.2,0,0.3,0,0.3,0c0.1,0,0.2,0,0.4,0s0.5,0,0.7,0s0.6,0,0.9,0
			c0.3,0,0.7,0,1.1,0c0.6,0,1.3,0,2,0c0.8,0,1.6,0.1,2.5,0.2c0.9,0.2,1.7,0.4,2.5,0.8c0.8,0.4,1.6,0.9,2.3,1.6
			c0.3,0.3,0.6,0.7,0.9,1.1c0.3,0.4,0.5,0.8,0.7,1.3c0.2,0.5,0.4,1,0.5,1.6c0.1,0.6,0.2,1.2,0.2,1.9c0,0.7-0.1,1.4-0.2,2.1
			c-0.1,0.7-0.3,1.3-0.6,1.8c-0.2,0.6-0.5,1.1-0.8,1.5c-0.3,0.5-0.6,0.8-0.9,1.2c-0.2,0.3-0.6,0.6-1,0.9s-0.9,0.6-1.5,0.9
			c-0.6,0.3-1.2,0.5-2,0.7c-0.8,0.2-1.6,0.3-2.6,0.3c-0.5,0-1,0-1.6,0s-1.1-0.1-1.6-0.1c-0.5,0-1-0.1-1.3-0.1c-0.4,0-0.6,0-0.6,0
			c0,0-0.1,0-0.3,0c-0.2,0-0.4,0-0.6,0c-0.2,0-0.5,0-0.7,0s-0.5,0-0.6,0c-0.2,0-0.4-0.1-0.4-0.2c0-0.1,0.1-0.1,0.2-0.1
			c0.1,0,0.2,0,0.4,0c0.1,0,0.2,0,0.4-0.1c0.2,0,0.4-0.2,0.5-0.4c0.1-0.2,0.2-0.5,0.2-0.9c0.1-0.5,0.1-1.2,0.1-2.1c0-0.9,0-1.9,0-3
			V217.2z M157.1,219.7c0,0.6,0,1.2,0,1.8c0,0.6,0,1.1,0,1.5s0,0.8,0,1.1s0,0.5,0,0.6c0,0.1,0,0.3,0,0.5c0,0.2,0,0.4,0,0.5
			c0,0.2,0,0.3,0.1,0.5c0,0.1,0.1,0.2,0.1,0.3c0.1,0.1,0.2,0.2,0.4,0.3s0.4,0.2,0.7,0.3c0.3,0.1,0.7,0.2,1.2,0.2s1.1,0.1,1.7,0.1
			c1.1,0,2.1-0.2,3.1-0.6s1.8-0.9,2.5-1.6c0.3-0.3,0.6-0.7,0.8-1.1c0.2-0.4,0.4-0.9,0.6-1.4c0.2-0.5,0.3-1,0.4-1.5
			c0.1-0.5,0.1-1.1,0.1-1.6c0-0.7-0.1-1.4-0.2-2c-0.1-0.6-0.3-1.2-0.5-1.6c-0.2-0.5-0.5-0.9-0.7-1.3c-0.3-0.4-0.5-0.7-0.7-0.9
			c-0.5-0.6-1.1-1-1.7-1.4s-1.2-0.6-1.9-0.8c-0.6-0.2-1.3-0.3-2-0.4c-0.7-0.1-1.4-0.1-2.1-0.1c-0.1,0-0.3,0-0.4,0
			c-0.1,0-0.3,0-0.5,0c-0.2,0-0.3,0-0.4,0.1c-0.1,0-0.2,0-0.2,0.1c-0.2,0.1-0.3,0.2-0.3,0.5c0,0.2,0,0.5,0,0.9s0,0.8,0,1.3
			c0,0.5,0,0.9,0,1.4s0,1,0,1.4V219.7z"/>
		<path class="st1" d="M174.2,217.2c0-0.9,0-1.6,0-2.2c0-0.6,0-1,0-1.4c0-0.4,0-0.6,0-0.9c0-0.2,0-0.4,0-0.6c0-0.4-0.1-0.7-0.2-0.9
			c-0.1-0.2-0.4-0.3-0.8-0.4c-0.1,0-0.2,0-0.4-0.1c-0.2,0-0.3,0-0.4,0c-0.1,0-0.2,0-0.2-0.1c0-0.1,0.1-0.2,0.4-0.2
			c0.3,0,0.5,0,0.8,0c0.3,0,0.6,0,0.8,0l1,0c0,0,0.3,0,0.8,0c0.5,0,1.1,0,1.7,0c0.6,0,1.2,0,1.8,0s0.9,0,1,0c0.5,0,0.8-0.1,1-0.1
			c0.1,0,0.1,0,0.2-0.1s0.1,0,0.2,0s0.1,0.1,0.1,0.2c0,0.1,0,0.2-0.1,0.4c0,0.2-0.1,0.4-0.1,0.7c0,0.1,0,0.2,0,0.3
			c0,0.1,0,0.3,0,0.5c0,0.2,0,0.3,0,0.5c0,0.1,0,0.3,0,0.3s0,0.1-0.1,0.2s-0.1,0.1-0.1,0.1c-0.1,0-0.2-0.1-0.2-0.3
			c0-0.1,0-0.2,0-0.4s-0.1-0.3-0.1-0.5c-0.1-0.2-0.2-0.3-0.4-0.5c-0.2-0.1-0.6-0.2-1.2-0.3c-0.1,0-0.3,0-0.6,0c-0.3,0-0.7,0-1,0
			c-0.4,0-0.7,0-1,0c-0.3,0-0.5,0-0.5,0c-0.1,0-0.1,0.1-0.1,0.2v6.5c0,0.2,0,0.2,0.1,0.2c0.1,0,0.3,0,0.6,0s0.7,0,1.1,0
			c0.4,0,0.8,0,1.2,0c0.4,0,0.6,0,0.8,0c0.3,0,0.5-0.1,0.7-0.1s0.3-0.1,0.4-0.2c0.2-0.2,0.3-0.3,0.4-0.3c0.1,0,0.1,0.1,0.1,0.2
			c0,0.1,0,0.2-0.1,0.4s-0.1,0.5-0.1,0.9c0,0.1,0,0.3,0,0.4c0,0.1,0,0.3,0,0.4c0,0.1,0,0.3,0,0.4c0,0.1,0,0.2,0,0.2
			c0,0.1,0,0.2,0,0.3s-0.1,0.2-0.1,0.2c-0.1,0-0.2-0.1-0.2-0.2c0-0.1,0-0.2,0-0.4c0-0.1,0-0.3-0.1-0.4c0-0.2-0.1-0.3-0.3-0.5
			c-0.2-0.2-0.5-0.3-0.9-0.3c-0.2,0-0.4,0-0.7,0c-0.3,0-0.7,0-1,0c-0.4,0-0.7,0-1,0c-0.3,0-0.5,0-0.6,0c-0.1,0-0.2,0.1-0.2,0.2v2.1
			c0,0.2,0,0.5,0,0.9s0,0.8,0,1.2s0,0.8,0,1.2s0,0.6,0,0.7c0,0.4,0.1,0.7,0.1,1c0.1,0.2,0.2,0.4,0.4,0.6s0.5,0.2,0.8,0.3
			s0.8,0.1,1.4,0.1c0.3,0,0.7,0,1.1,0c0.4,0,0.8-0.1,1.1-0.2c0.3-0.1,0.5-0.3,0.7-0.6c0.2-0.3,0.3-0.6,0.4-1.1
			c0-0.2,0.1-0.4,0.2-0.4c0.1,0,0.1,0,0.1,0.1c0,0.1,0,0.2,0,0.2c0,0,0,0.2,0,0.4c0,0.2-0.1,0.4-0.1,0.7c0,0.2-0.1,0.5-0.1,0.7
			c0,0.2-0.1,0.4-0.1,0.5c0,0.2-0.1,0.3-0.1,0.4c0,0.1-0.1,0.1-0.2,0.2s-0.2,0.1-0.4,0.1c-0.1,0-0.3,0-0.6,0c-0.9,0-1.7,0-2.3,0
			c-0.6,0-1.2,0-1.6,0c-0.5,0-0.8-0.1-1.1-0.1c-0.3,0-0.5,0-0.7,0c0,0-0.1,0-0.3,0c-0.2,0-0.4,0-0.6,0c-0.2,0-0.5,0-0.7,0
			s-0.5,0-0.6,0c-0.2,0-0.4-0.1-0.4-0.2c0-0.1,0.1-0.1,0.2-0.1c0.1,0,0.2,0,0.4,0c0.1,0,0.2,0,0.4-0.1c0.2,0,0.4-0.2,0.5-0.4
			c0.1-0.2,0.2-0.5,0.2-0.9c0.1-0.5,0.1-1.2,0.1-2.1c0-0.9,0-1.9,0-3V217.2z"/>
	</g>
	<g class="st0">
		<path class="st1" d="M193.3,221.3c0,1.7,0,3,0.1,3.8c0.1,0.8,0.2,1.3,0.4,1.5c0.1,0.1,0.2,0.2,0.3,0.2c0.1,0.1,0.3,0.1,0.5,0.2
			c0.2,0,0.5,0.1,0.8,0.1s0.7,0,1.2,0c0.6,0,1.2,0,1.7-0.1c0.5-0.1,0.9-0.3,1.2-0.6c0.2-0.2,0.3-0.4,0.4-0.7
			c0.1-0.3,0.2-0.5,0.2-0.7c0-0.2,0.1-0.3,0.2-0.3c0.1,0,0.1,0.1,0.1,0.4c0,0.1,0,0.2,0,0.4c0,0.2,0,0.4-0.1,0.6
			c0,0.2-0.1,0.5-0.1,0.7s-0.1,0.4-0.1,0.6c0,0.1-0.1,0.2-0.1,0.3c0,0.1-0.1,0.1-0.2,0.2c-0.1,0-0.2,0.1-0.4,0.1c-0.2,0-0.4,0-0.7,0
			c-0.8,0-1.6,0-2.2,0c-0.6,0-1.2,0-1.7,0c-0.5,0-0.9-0.1-1.3-0.1s-0.7,0-1.1,0c0,0-0.2,0-0.3,0c-0.2,0-0.4,0-0.6,0
			c-0.2,0-0.5,0-0.7,0c-0.2,0-0.4,0-0.6,0c-0.2,0-0.4-0.1-0.4-0.2c0-0.1,0.1-0.1,0.2-0.1c0.1,0,0.2,0,0.4,0c0.1,0,0.2,0,0.4-0.1
			c0.2,0,0.4-0.2,0.5-0.4c0.1-0.2,0.2-0.5,0.2-0.9c0.1-0.5,0.1-1.2,0.1-2.1c0-0.9,0-1.9,0-3v-4.1c0-0.9,0-1.6,0-2.2c0-0.6,0-1,0-1.4
			c0-0.4,0-0.6,0-0.9c0-0.2,0-0.4,0-0.6c0-0.4-0.1-0.7-0.2-0.9c-0.1-0.2-0.4-0.3-0.8-0.4c-0.1,0-0.2,0-0.4-0.1c-0.2,0-0.3,0-0.4,0
			c-0.1,0-0.2,0-0.2-0.1c0-0.1,0.1-0.2,0.4-0.2c0.3,0,0.5,0,0.8,0c0.3,0,0.6,0,0.8,0c0.3,0,0.5,0,0.7,0c0.2,0,0.3,0,0.3,0
			s0.1,0,0.4,0c0.2,0,0.4,0,0.7,0c0.3,0,0.5,0,0.8,0c0.3,0,0.5,0,0.7,0c0.2,0,0.4,0.1,0.4,0.2c0,0.1-0.1,0.1-0.2,0.1
			c-0.1,0-0.2,0-0.3,0c-0.1,0-0.3,0-0.4,0.1c-0.3,0.1-0.6,0.2-0.7,0.4c-0.1,0.2-0.2,0.5-0.2,0.9c0,0.2,0,0.4,0,0.6
			c0,0.2,0,0.5,0,0.9c0,0.3,0,0.8,0,1.4c0,0.6,0,1.3,0,2.2V221.3z"/>
	</g>
	<g class="st0">
		<path class="st1" d="M199.9,217.2c0.2-0.7,0.4-1.4,0.7-2.1c0.3-0.7,0.7-1.3,1.2-1.9c0.5-0.6,1.1-1.2,1.8-1.6
			c0.7-0.5,1.5-0.8,2.3-1.1c0.9-0.3,1.8-0.4,2.9-0.4c1.3,0,2.5,0.2,3.6,0.6c1.1,0.4,2.1,1,2.9,1.7c0.8,0.8,1.5,1.7,1.9,2.8
			c0.5,1.1,0.7,2.3,0.7,3.7c0,1.3-0.2,2.5-0.7,3.7s-1.1,2.2-1.9,3s-1.8,1.6-2.9,2.1c-1.2,0.5-2.4,0.8-3.8,0.8c-1.6,0-3-0.3-4.1-0.8
			c-1.1-0.6-2.1-1.3-2.8-2.2c-0.7-0.9-1.3-1.9-1.6-3c-0.3-1.1-0.5-2.2-0.5-3.2C199.6,218.6,199.7,217.9,199.9,217.2z M202.4,222.3
			c0.4,1.1,0.9,2,1.6,2.8c0.7,0.8,1.5,1.4,2.4,1.8c0.9,0.4,1.9,0.6,2.9,0.6c0.5,0,1.2-0.1,1.9-0.3c0.7-0.2,1.4-0.6,2.1-1.2
			c0.7-0.6,1.3-1.4,1.7-2.4s0.7-2.4,0.7-4.1c0-1.4-0.2-2.6-0.6-3.7s-0.9-2-1.6-2.7c-0.7-0.7-1.4-1.3-2.3-1.6
			c-0.9-0.4-1.7-0.6-2.7-0.6c-1,0-1.9,0.2-2.7,0.5s-1.6,0.8-2.2,1.4c-0.6,0.6-1.1,1.5-1.4,2.4c-0.3,1-0.5,2.1-0.5,3.4
			C201.9,219.9,202.1,221.2,202.4,222.3z"/>
		<path class="st1" d="M221.4,228.3c-0.5-0.1-1-0.3-1.5-0.5c-0.2-0.1-0.3-0.2-0.3-0.3c0-0.1,0-0.3,0-0.6c0-0.6,0-1.1,0-1.5
			s0.1-0.7,0.1-0.9c0-0.2,0.1-0.4,0.2-0.4s0.2,0.1,0.2,0.3c0,0.1,0,0.2,0,0.4c0,0.1,0,0.3,0.1,0.5c0.1,0.4,0.2,0.8,0.5,1.1
			c0.2,0.3,0.5,0.5,0.8,0.7c0.3,0.2,0.7,0.3,1,0.4c0.4,0.1,0.8,0.1,1.1,0.1c0.6,0,1.1-0.1,1.5-0.3c0.4-0.2,0.8-0.4,1-0.7
			c0.3-0.3,0.5-0.6,0.6-1s0.2-0.7,0.2-1.1c0-0.4,0-0.8-0.1-1.1s-0.2-0.7-0.5-1c-0.2-0.3-0.5-0.6-0.8-1s-0.8-0.7-1.3-1.1l-1.1-0.9
			c-0.6-0.5-1.1-1-1.5-1.4c-0.4-0.4-0.7-0.9-0.9-1.3c-0.2-0.4-0.4-0.8-0.5-1.2s-0.1-0.8-0.1-1.2c0-0.6,0.1-1.2,0.3-1.7
			c0.2-0.5,0.5-1,1-1.3s0.9-0.7,1.5-0.9c0.6-0.2,1.3-0.3,2-0.3c0.5,0,0.9,0,1.2,0.1s0.7,0.1,1,0.2c0.2,0,0.4,0.1,0.5,0.1
			c0.1,0,0.2,0,0.3,0c0.2,0,0.2,0.1,0.2,0.2c0,0.1,0,0.3,0,0.7s0,1,0,1.8c0,0.4-0.1,0.5-0.2,0.5c-0.1,0-0.1,0-0.1-0.1
			c0-0.1,0-0.1,0-0.2c0-0.1-0.1-0.3-0.1-0.6c-0.1-0.3-0.1-0.4-0.2-0.6c0-0.1-0.1-0.2-0.2-0.3c-0.1-0.1-0.3-0.3-0.5-0.4
			c-0.2-0.1-0.5-0.3-0.9-0.4s-0.8-0.2-1.3-0.2c-0.8,0-1.5,0.2-2,0.7c-0.6,0.5-0.8,1.1-0.8,2c0,0.3,0,0.6,0.1,0.9s0.2,0.6,0.5,0.9
			c0.2,0.3,0.5,0.6,0.9,1c0.4,0.3,0.8,0.7,1.4,1.2l0.7,0.5c0.7,0.5,1.3,1.1,1.7,1.5c0.4,0.5,0.8,0.9,1.1,1.3s0.4,0.9,0.5,1.3
			c0.1,0.4,0.1,0.9,0.1,1.3c0,0.2,0,0.5-0.1,0.8s-0.2,0.7-0.3,1s-0.4,0.7-0.6,1.1c-0.3,0.4-0.6,0.7-1,0.9c-0.5,0.4-1.1,0.6-1.7,0.8
			c-0.6,0.1-1.2,0.2-1.9,0.2C222.5,228.4,221.9,228.4,221.4,228.3z"/>
		<path class="st1" d="M238.2,224.9c0,0.5,0,0.9,0.1,1.2s0.1,0.6,0.2,0.8c0.1,0.2,0.2,0.4,0.3,0.5c0.1,0.1,0.2,0.2,0.4,0.2
			c0.2,0.1,0.4,0.1,0.7,0.1s0.4,0,0.5,0c0.1,0,0.2,0,0.2,0.1c0,0.1-0.1,0.2-0.4,0.2c-0.7,0-1.2,0-1.7,0c-0.4,0-0.7,0-0.8,0
			c-0.1,0-0.4,0-0.8,0s-0.9,0-1.4,0c-0.2,0-0.4-0.1-0.4-0.2c0-0.1,0.1-0.1,0.2-0.1c0.1,0,0.2,0,0.4,0c0.2,0,0.4-0.1,0.5-0.1
			c0.3-0.1,0.5-0.3,0.6-0.7s0.1-1.2,0.1-2.2l0-13.4c0-0.5,0-0.8,0.1-0.9c0-0.2,0.1-0.2,0.2-0.2s0.2,0.1,0.4,0.3
			c0.2,0.2,0.3,0.3,0.4,0.5c0.1,0.1,0.4,0.4,0.8,0.9s1,1.1,1.7,1.8c0.7,0.7,1.5,1.6,2.3,2.5c0.8,0.9,1.7,1.9,2.6,2.8
			c0.6,0.6,1.2,1.3,1.7,1.9c0.6,0.6,1.1,1.2,1.6,1.8c0.5,0.6,1,1.1,1.4,1.5s0.7,0.7,0.9,0.9l-0.3-11.9c0-0.8-0.1-1.3-0.2-1.6
			c-0.1-0.3-0.4-0.5-0.7-0.6c-0.2,0-0.4-0.1-0.7-0.1c-0.2,0-0.4,0-0.5,0c-0.1,0-0.2-0.1-0.2-0.2s0.2-0.2,0.5-0.2c0.3,0,0.5,0,0.8,0
			c0.3,0,0.5,0,0.7,0c0.2,0,0.4,0,0.6,0s0.3,0,0.3,0c0.1,0,0.4,0,0.7,0s0.8,0,1.3,0c0.3,0,0.4,0.1,0.4,0.2s-0.1,0.2-0.3,0.2
			c-0.1,0-0.1,0-0.2,0c-0.1,0-0.2,0-0.3,0.1c-0.4,0.1-0.6,0.3-0.7,0.6s-0.1,0.8-0.1,1.5l0,13.7c0,0.4,0,0.7,0,0.9c0,0.2,0,0.4,0,0.5
			c0,0.1,0,0.2-0.1,0.2c0,0-0.1,0-0.1,0s-0.1,0-0.2-0.1c-0.1,0-0.2-0.1-0.3-0.2c-0.1-0.1-0.3-0.3-0.5-0.5c-0.2-0.2-0.4-0.4-0.8-0.8
			c-0.1-0.1-0.3-0.3-0.7-0.7s-0.9-0.9-1.5-1.5c-0.6-0.6-1.2-1.3-1.9-2c-0.7-0.7-1.3-1.4-2-2.1c-0.7-0.7-1.4-1.5-2-2.2
			c-0.6-0.7-1.2-1.4-1.8-2c-0.5-0.6-1-1.1-1.4-1.6c-0.4-0.4-0.7-0.8-0.9-1L238.2,224.9z"/>
	</g>
	<g class="st0">
		<path class="st1" d="M255,217.2c0.2-0.7,0.4-1.4,0.7-2.1c0.3-0.7,0.7-1.3,1.2-1.9c0.5-0.6,1.1-1.2,1.8-1.6
			c0.7-0.5,1.5-0.8,2.3-1.1c0.9-0.3,1.8-0.4,2.9-0.4c1.3,0,2.5,0.2,3.6,0.6c1.1,0.4,2.1,1,2.9,1.7c0.8,0.8,1.5,1.7,1.9,2.8
			c0.5,1.1,0.7,2.3,0.7,3.7c0,1.3-0.2,2.5-0.7,3.7c-0.4,1.2-1.1,2.2-1.9,3s-1.8,1.6-2.9,2.1c-1.2,0.5-2.4,0.8-3.8,0.8
			c-1.6,0-3-0.3-4.1-0.8c-1.1-0.6-2.1-1.3-2.8-2.2c-0.7-0.9-1.3-1.9-1.6-3c-0.3-1.1-0.5-2.2-0.5-3.2
			C254.7,218.6,254.8,217.9,255,217.2z M257.5,222.3c0.4,1.1,0.9,2,1.6,2.8c0.7,0.8,1.5,1.4,2.4,1.8s1.9,0.6,2.9,0.6
			c0.5,0,1.2-0.1,1.9-0.3c0.7-0.2,1.4-0.6,2.1-1.2c0.7-0.6,1.3-1.4,1.7-2.4c0.5-1.1,0.7-2.4,0.7-4.1c0-1.4-0.2-2.6-0.6-3.7
			s-0.9-2-1.6-2.7c-0.7-0.7-1.4-1.3-2.3-1.6c-0.9-0.4-1.7-0.6-2.7-0.6c-1,0-1.9,0.2-2.7,0.5s-1.6,0.8-2.2,1.4
			c-0.6,0.6-1.1,1.5-1.4,2.4c-0.3,1-0.5,2.1-0.5,3.4C257,219.9,257.2,221.2,257.5,222.3z"/>
	</g>
	<g class="st0">
		<path class="st1" d="M281.3,225.2c0.2-0.5,0.5-1.2,0.8-1.9c0.3-0.8,0.6-1.6,1-2.4s0.7-1.7,1-2.6c0.4-0.9,0.7-1.7,1-2.5
			s0.5-1.5,0.8-2.1c0.2-0.6,0.4-1.1,0.5-1.3c0.1-0.2,0.1-0.3,0.2-0.5c0-0.2,0.1-0.3,0.1-0.4c0-0.1,0-0.2-0.1-0.3
			c0-0.1-0.1-0.2-0.2-0.2c-0.1,0-0.3-0.1-0.5-0.1c-0.2,0-0.3,0-0.4,0c-0.2,0-0.3,0-0.3-0.1c0-0.1,0.2-0.2,0.5-0.2c0.5,0,0.9,0,1.4,0
			s0.8,0,0.9,0c0,0,0.1,0,0.2,0c0.1,0,0.3,0,0.5,0c0.2,0,0.4,0,0.6,0c0.2,0,0.4,0,0.5,0c0.3,0,0.4,0.1,0.4,0.2s-0.1,0.2-0.3,0.2
			c-0.1,0-0.2,0-0.5,0s-0.4,0.1-0.7,0.2c-0.1,0-0.2,0.1-0.2,0.2c-0.1,0.1-0.2,0.2-0.3,0.4c-0.1,0.2-0.2,0.4-0.3,0.6s-0.3,0.6-0.4,1
			c-0.1,0.2-0.2,0.5-0.4,0.9c-0.2,0.4-0.4,0.9-0.6,1.5c-0.2,0.6-0.5,1.2-0.8,1.9c-0.3,0.7-0.6,1.4-0.9,2.1c-0.7,1.7-1.3,3.2-1.8,4.4
			c-0.5,1.2-0.9,2.1-1.2,2.7c-0.3,0.7-0.5,1.2-0.7,1.4c-0.1,0.2-0.2,0.4-0.3,0.4c-0.1,0-0.3-0.1-0.4-0.3c-0.1-0.2-0.3-0.6-0.5-1.1
			l-5.7-14.3c-0.1-0.3-0.2-0.6-0.4-0.8c-0.1-0.2-0.2-0.4-0.4-0.5c-0.1-0.1-0.3-0.2-0.4-0.3s-0.3-0.1-0.5-0.2c-0.2,0-0.3-0.1-0.5-0.1
			c-0.2,0-0.3,0-0.4,0c-0.1,0-0.2-0.1-0.2-0.2s0.2-0.2,0.6-0.2c0.3,0,0.6,0,0.9,0c0.3,0,0.6,0,0.8,0c0.2,0,0.5,0,0.7,0
			c0.2,0,0.3,0,0.4,0c0.1,0,0.4,0,0.8,0c0.4,0,0.9,0,1.3,0c0.4,0,0.6,0.1,0.6,0.2s-0.1,0.2-0.2,0.2c-0.1,0-0.3,0-0.5,0
			c-0.2,0-0.3,0-0.4,0.1c-0.1,0.1-0.2,0.1-0.2,0.2s-0.1,0.2-0.1,0.2c0,0.2,0.1,0.4,0.2,0.7c0.1,0.3,0.3,0.7,0.4,1.2L281.3,225.2z"/>
		<path class="st1" d="M291.2,217.2c0-0.9,0-1.6,0-2.2c0-0.6,0-1,0-1.4c0-0.4,0-0.6,0-0.9c0-0.2,0-0.4,0-0.6c0-0.4-0.1-0.7-0.2-0.9
			c-0.1-0.2-0.4-0.3-0.8-0.4c-0.1,0-0.2,0-0.4-0.1c-0.2,0-0.3,0-0.4,0c-0.1,0-0.2,0-0.2-0.1c0-0.1,0.1-0.2,0.4-0.2
			c0.3,0,0.5,0,0.8,0s0.6,0,0.8,0l1,0c0,0,0.3,0,0.8,0c0.5,0,1.1,0,1.7,0c0.6,0,1.2,0,1.8,0c0.6,0,0.9,0,1,0c0.5,0,0.8-0.1,1-0.1
			c0.1,0,0.1,0,0.2-0.1s0.1,0,0.2,0s0.1,0.1,0.1,0.2c0,0.1,0,0.2-0.1,0.4c0,0.2-0.1,0.4-0.1,0.7c0,0.1,0,0.2,0,0.3
			c0,0.1,0,0.3,0,0.5c0,0.2,0,0.3,0,0.5c0,0.1,0,0.3,0,0.3s0,0.1-0.1,0.2s-0.1,0.1-0.1,0.1c-0.1,0-0.2-0.1-0.2-0.3
			c0-0.1,0-0.2,0-0.4s-0.1-0.3-0.1-0.5c-0.1-0.2-0.2-0.3-0.4-0.5c-0.2-0.1-0.6-0.2-1.2-0.3c-0.1,0-0.3,0-0.6,0c-0.3,0-0.7,0-1,0
			s-0.7,0-1,0c-0.3,0-0.5,0-0.5,0c-0.1,0-0.1,0.1-0.1,0.2v6.5c0,0.2,0,0.2,0.1,0.2c0.1,0,0.3,0,0.6,0s0.7,0,1.1,0c0.4,0,0.8,0,1.2,0
			c0.4,0,0.6,0,0.8,0c0.3,0,0.5-0.1,0.7-0.1c0.2,0,0.3-0.1,0.4-0.2c0.2-0.2,0.3-0.3,0.4-0.3c0.1,0,0.1,0.1,0.1,0.2
			c0,0.1,0,0.2-0.1,0.4s-0.1,0.5-0.1,0.9c0,0.1,0,0.3,0,0.4c0,0.1,0,0.3,0,0.4c0,0.1,0,0.3,0,0.4c0,0.1,0,0.2,0,0.2
			c0,0.1,0,0.2,0,0.3s-0.1,0.2-0.1,0.2c-0.1,0-0.2-0.1-0.2-0.2c0-0.1,0-0.2,0-0.4s0-0.3-0.1-0.4c0-0.2-0.1-0.3-0.3-0.5
			c-0.2-0.2-0.5-0.3-0.9-0.3c-0.2,0-0.4,0-0.7,0c-0.3,0-0.7,0-1,0c-0.4,0-0.7,0-1,0c-0.3,0-0.5,0-0.6,0c-0.1,0-0.2,0.1-0.2,0.2v2.1
			c0,0.2,0,0.5,0,0.9s0,0.8,0,1.2s0,0.8,0,1.2s0,0.6,0,0.7c0,0.4,0.1,0.7,0.1,1c0.1,0.2,0.2,0.4,0.4,0.6c0.2,0.1,0.5,0.2,0.8,0.3
			s0.8,0.1,1.4,0.1c0.3,0,0.7,0,1.1,0c0.4,0,0.8-0.1,1.1-0.2c0.3-0.1,0.5-0.3,0.7-0.6c0.2-0.3,0.3-0.6,0.4-1.1
			c0-0.2,0.1-0.4,0.2-0.4c0.1,0,0.1,0,0.1,0.1c0,0.1,0,0.2,0,0.2c0,0,0,0.2,0,0.4c0,0.2-0.1,0.4-0.1,0.7c0,0.2-0.1,0.5-0.1,0.7
			c0,0.2-0.1,0.4-0.1,0.5c0,0.2-0.1,0.3-0.1,0.4c0,0.1-0.1,0.1-0.2,0.2s-0.2,0.1-0.4,0.1c-0.1,0-0.3,0-0.6,0c-0.9,0-1.7,0-2.3,0
			c-0.6,0-1.2,0-1.6,0c-0.5,0-0.8-0.1-1.1-0.1s-0.5,0-0.7,0c0,0-0.1,0-0.3,0c-0.2,0-0.4,0-0.6,0c-0.2,0-0.5,0-0.7,0
			c-0.2,0-0.5,0-0.6,0c-0.2,0-0.4-0.1-0.4-0.2c0-0.1,0.1-0.1,0.2-0.1c0.1,0,0.2,0,0.4,0s0.2,0,0.4-0.1c0.2,0,0.4-0.2,0.5-0.4
			s0.2-0.5,0.2-0.9c0.1-0.5,0.1-1.2,0.1-2.1c0-0.9,0-1.9,0-3V217.2z"/>
		<path class="st1" d="M305.1,221.3c0,1.7,0,3,0.1,3.8c0.1,0.8,0.2,1.3,0.4,1.5c0.1,0.1,0.2,0.2,0.3,0.2c0.1,0.1,0.3,0.1,0.5,0.2
			c0.2,0,0.5,0.1,0.8,0.1s0.7,0,1.2,0c0.6,0,1.2,0,1.7-0.1c0.5-0.1,0.9-0.3,1.2-0.6c0.2-0.2,0.3-0.4,0.4-0.7
			c0.1-0.3,0.2-0.5,0.2-0.7c0-0.2,0.1-0.3,0.2-0.3c0.1,0,0.1,0.1,0.1,0.4c0,0.1,0,0.2,0,0.4c0,0.2,0,0.4-0.1,0.6
			c0,0.2-0.1,0.5-0.1,0.7s-0.1,0.4-0.1,0.6c0,0.1-0.1,0.2-0.1,0.3c0,0.1-0.1,0.1-0.2,0.2c-0.1,0-0.2,0.1-0.4,0.1c-0.2,0-0.4,0-0.7,0
			c-0.8,0-1.6,0-2.2,0c-0.6,0-1.2,0-1.7,0c-0.5,0-0.9-0.1-1.3-0.1s-0.7,0-1.1,0c0,0-0.2,0-0.3,0c-0.2,0-0.4,0-0.6,0
			c-0.2,0-0.5,0-0.7,0c-0.2,0-0.4,0-0.6,0c-0.2,0-0.4-0.1-0.4-0.2c0-0.1,0.1-0.1,0.2-0.1c0.1,0,0.2,0,0.4,0c0.1,0,0.2,0,0.4-0.1
			c0.2,0,0.4-0.2,0.5-0.4c0.1-0.2,0.2-0.5,0.2-0.9c0.1-0.5,0.1-1.2,0.1-2.1c0-0.9,0-1.9,0-3v-4.1c0-0.9,0-1.6,0-2.2c0-0.6,0-1,0-1.4
			c0-0.4,0-0.6,0-0.9c0-0.2,0-0.4,0-0.6c0-0.4-0.1-0.7-0.2-0.9c-0.1-0.2-0.4-0.3-0.8-0.4c-0.1,0-0.2,0-0.4-0.1c-0.2,0-0.3,0-0.4,0
			c-0.1,0-0.2,0-0.2-0.1c0-0.1,0.1-0.2,0.4-0.2c0.3,0,0.5,0,0.8,0c0.3,0,0.6,0,0.8,0c0.3,0,0.5,0,0.7,0c0.2,0,0.3,0,0.3,0
			s0.1,0,0.4,0c0.2,0,0.4,0,0.7,0c0.3,0,0.5,0,0.8,0c0.3,0,0.5,0,0.7,0c0.2,0,0.4,0.1,0.4,0.2c0,0.1-0.1,0.1-0.2,0.1
			c-0.1,0-0.2,0-0.3,0c-0.1,0-0.3,0-0.4,0.1c-0.3,0.1-0.6,0.2-0.7,0.4c-0.1,0.2-0.2,0.5-0.2,0.9c0,0.2,0,0.4,0,0.6
			c0,0.2,0,0.5,0,0.9c0,0.3,0,0.8,0,1.4c0,0.6,0,1.3,0,2.2V221.3z"/>
		<path class="st1" d="M314.7,217.2c0-0.9,0-1.6,0-2.2c0-0.6,0-1,0-1.4c0-0.4,0-0.6,0-0.9c0-0.2,0-0.4,0-0.6c0-0.4-0.1-0.7-0.2-0.9
			c-0.1-0.2-0.4-0.3-0.8-0.4c-0.1,0-0.2,0-0.4-0.1c-0.2,0-0.3,0-0.4,0c-0.1,0-0.2,0-0.2-0.1c0-0.1,0.1-0.2,0.4-0.2
			c0.3,0,0.5,0,0.8,0c0.3,0,0.6,0,0.8,0l1,0c0,0,0.3,0,0.8,0c0.5,0,1.1,0,1.7,0c0.6,0,1.2,0,1.8,0c0.6,0,0.9,0,1,0
			c0.5,0,0.8-0.1,1-0.1c0.1,0,0.1,0,0.2-0.1s0.1,0,0.2,0s0.1,0.1,0.1,0.2c0,0.1,0,0.2-0.1,0.4c0,0.2-0.1,0.4-0.1,0.7
			c0,0.1,0,0.2,0,0.3c0,0.1,0,0.3,0,0.5c0,0.2,0,0.3,0,0.5c0,0.1,0,0.3,0,0.3s0,0.1-0.1,0.2s-0.1,0.1-0.1,0.1
			c-0.1,0-0.2-0.1-0.2-0.3c0-0.1,0-0.2,0-0.4s-0.1-0.3-0.1-0.5c-0.1-0.2-0.2-0.3-0.4-0.5c-0.2-0.1-0.6-0.2-1.2-0.3
			c-0.1,0-0.3,0-0.6,0s-0.7,0-1,0c-0.4,0-0.7,0-1,0c-0.3,0-0.5,0-0.5,0c-0.1,0-0.1,0.1-0.1,0.2v6.5c0,0.2,0,0.2,0.1,0.2
			c0.1,0,0.3,0,0.6,0s0.7,0,1.1,0c0.4,0,0.8,0,1.2,0s0.6,0,0.8,0c0.3,0,0.5-0.1,0.7-0.1c0.2,0,0.3-0.1,0.4-0.2
			c0.2-0.2,0.3-0.3,0.4-0.3c0.1,0,0.1,0.1,0.1,0.2c0,0.1,0,0.2-0.1,0.4s-0.1,0.5-0.1,0.9c0,0.1,0,0.3,0,0.4c0,0.1,0,0.3,0,0.4
			c0,0.1,0,0.3,0,0.4c0,0.1,0,0.2,0,0.2c0,0.1,0,0.2,0,0.3s-0.1,0.2-0.1,0.2c-0.1,0-0.2-0.1-0.2-0.2c0-0.1,0-0.2,0-0.4
			c0-0.1,0-0.3-0.1-0.4c0-0.2-0.1-0.3-0.3-0.5c-0.2-0.2-0.5-0.3-0.9-0.3c-0.2,0-0.4,0-0.7,0c-0.3,0-0.7,0-1,0c-0.4,0-0.7,0-1,0
			c-0.3,0-0.5,0-0.6,0c-0.1,0-0.2,0.1-0.2,0.2v2.1c0,0.2,0,0.5,0,0.9s0,0.8,0,1.2s0,0.8,0,1.2s0,0.6,0,0.7c0,0.4,0.1,0.7,0.1,1
			c0.1,0.2,0.2,0.4,0.4,0.6c0.2,0.1,0.5,0.2,0.8,0.3s0.8,0.1,1.4,0.1c0.3,0,0.7,0,1.1,0s0.8-0.1,1.1-0.2s0.5-0.3,0.7-0.6
			c0.2-0.3,0.3-0.6,0.4-1.1c0-0.2,0.1-0.4,0.2-0.4c0.1,0,0.1,0,0.1,0.1c0,0.1,0,0.2,0,0.2c0,0,0,0.2,0,0.4c0,0.2-0.1,0.4-0.1,0.7
			c0,0.2-0.1,0.5-0.1,0.7c0,0.2-0.1,0.4-0.1,0.5c0,0.2-0.1,0.3-0.1,0.4c0,0.1-0.1,0.1-0.2,0.2c-0.1,0-0.2,0.1-0.4,0.1
			c-0.1,0-0.3,0-0.6,0c-0.9,0-1.7,0-2.3,0c-0.6,0-1.2,0-1.6,0c-0.5,0-0.8-0.1-1.1-0.1c-0.3,0-0.5,0-0.7,0c0,0-0.1,0-0.3,0
			s-0.4,0-0.6,0c-0.2,0-0.5,0-0.7,0c-0.2,0-0.5,0-0.6,0c-0.2,0-0.4-0.1-0.4-0.2c0-0.1,0.1-0.1,0.2-0.1c0.1,0,0.2,0,0.4,0
			c0.1,0,0.2,0,0.4-0.1c0.2,0,0.4-0.2,0.5-0.4c0.1-0.2,0.2-0.5,0.2-0.9c0.1-0.5,0.1-1.2,0.1-2.1c0-0.9,0-1.9,0-3V217.2z"/>
		<path class="st1" d="M326.6,228.3c-0.5-0.1-1-0.3-1.5-0.5c-0.2-0.1-0.3-0.2-0.3-0.3c0-0.1,0-0.3,0-0.6c0-0.6,0-1.1,0-1.5
			s0.1-0.7,0.1-0.9c0-0.2,0.1-0.4,0.2-0.4s0.2,0.1,0.2,0.3c0,0.1,0,0.2,0,0.4c0,0.1,0,0.3,0.1,0.5c0.1,0.4,0.2,0.8,0.5,1.1
			c0.2,0.3,0.5,0.5,0.8,0.7c0.3,0.2,0.7,0.3,1,0.4c0.4,0.1,0.8,0.1,1.1,0.1c0.6,0,1.1-0.1,1.5-0.3c0.4-0.2,0.8-0.4,1-0.7
			c0.3-0.3,0.5-0.6,0.6-1s0.2-0.7,0.2-1.1c0-0.4,0-0.8-0.1-1.1s-0.2-0.7-0.5-1c-0.2-0.3-0.5-0.6-0.8-1s-0.8-0.7-1.3-1.1l-1.1-0.9
			c-0.6-0.5-1.1-1-1.5-1.4c-0.4-0.4-0.7-0.9-0.9-1.3c-0.2-0.4-0.4-0.8-0.5-1.2s-0.1-0.8-0.1-1.2c0-0.6,0.1-1.2,0.3-1.7
			c0.2-0.5,0.5-1,1-1.3s0.9-0.7,1.5-0.9c0.6-0.2,1.3-0.3,2-0.3c0.5,0,0.9,0,1.2,0.1s0.7,0.1,1,0.2c0.2,0,0.4,0.1,0.5,0.1
			c0.1,0,0.2,0,0.3,0c0.2,0,0.2,0.1,0.2,0.2c0,0.1,0,0.3,0,0.7s0,1,0,1.8c0,0.4-0.1,0.5-0.2,0.5c-0.1,0-0.1,0-0.1-0.1
			c0-0.1,0-0.1,0-0.2c0-0.1-0.1-0.3-0.1-0.6c-0.1-0.3-0.1-0.4-0.2-0.6c0-0.1-0.1-0.2-0.2-0.3c-0.1-0.1-0.3-0.3-0.5-0.4
			c-0.2-0.1-0.5-0.3-0.9-0.4s-0.8-0.2-1.3-0.2c-0.8,0-1.5,0.2-2,0.7c-0.6,0.5-0.8,1.1-0.8,2c0,0.3,0,0.6,0.1,0.9s0.2,0.6,0.5,0.9
			c0.2,0.3,0.5,0.6,0.9,1c0.4,0.3,0.8,0.7,1.4,1.2l0.7,0.5c0.7,0.5,1.3,1.1,1.7,1.5c0.4,0.5,0.8,0.9,1.1,1.3s0.4,0.9,0.5,1.3
			c0.1,0.4,0.1,0.9,0.1,1.3c0,0.2,0,0.5-0.1,0.8s-0.2,0.7-0.3,1s-0.4,0.7-0.6,1.1c-0.3,0.4-0.6,0.7-1,0.9c-0.5,0.4-1.1,0.6-1.7,0.8
			c-0.6,0.1-1.2,0.2-1.9,0.2C327.7,228.4,327.1,228.4,326.6,228.3z"/>
	</g>
	<line class="st2" x1="25.5" y1="196.2" x2="334.9" y2="196.2"/>
	<line class="st2" x1="129.2" y1="134.7" x2="334.9" y2="134.7"/>
	<g class="st0">
		<path class="st1" d="M33.4,127.3v2.5h-2.7v5.9H28v-5.9h-2.7v-2.5H33.4z"/>
		<path class="st1" d="M32.8,135.6v-5.9h-1.7v-2.5H40v2.5h-4.5v1h2.9v1.5h-2.9v1h5.2v2.5H32.8z"/>
		<path class="st1" d="M39.9,135.6l2.8-8.4h4.2l2.8,8.4h-3.2l-0.5-1.5h-2.5l-0.5,1.5H39.9z M44.8,129.1l-1.2,3.3h2.3L44.8,129.1z"/>
		<path class="st1" d="M52,131.4c0,0.5,0.1,0.8,0.3,1s0.4,0.4,0.6,0.6c0.2,0.1,0.6,0.2,1.1,0.3c0.5,0,0.9-0.1,1.1-0.2
			c0.2-0.1,0.5-0.3,0.7-0.5l1.6,1.8c-0.5,0.4-1,0.8-1.4,0.9c-0.5,0.2-1.2,0.3-2.1,0.3c-0.9,0-1.5-0.2-2-0.4
			c-0.4-0.2-0.9-0.5-1.3-0.8c-0.4-0.3-0.8-0.8-1-1.3c-0.2-0.5-0.4-1.1-0.4-1.8c0-0.7,0.1-1.3,0.4-1.8c0.2-0.5,0.6-0.9,1-1.3
			c0.4-0.3,0.9-0.6,1.3-0.8c0.4-0.2,1.1-0.3,2-0.4c0.9,0,1.6,0.2,2.1,0.3s0.9,0.5,1.4,0.9l-1.6,1.8c-0.3-0.2-0.5-0.4-0.7-0.5
			c-0.2-0.1-0.6-0.2-1.1-0.2c-0.5,0.1-0.8,0.2-1.1,0.3c-0.2,0.1-0.4,0.3-0.6,0.6S52,130.9,52,131.4z"/>
		<path class="st1" d="M62.7,130.2v-2.9h2.7v8.4h-2.7v-3h-2.2v3h-2.7v-5.9H56v-2.5h4.5v2.9H62.7z"/>
		<path class="st1" d="M66,135.6v-5.9h-1.7v-2.5h8.9v2.5h-4.5v1h2.9v1.5h-2.9v1h5.2v2.5H66z"/>
		<path class="st1" d="M73.9,135.6v-8.4h5.5c0.7,0.1,1.2,0.2,1.7,0.5c0.4,0.3,0.8,0.7,1,1.2c0.2,0.7,0.2,1.3,0,1.7
			c-0.1,0.4-0.4,0.7-0.7,1s-0.8,0.5-1.5,0.6l0.6,0.8h4.5v2.5h-5.3l-2.7-2.8v2.8H73.9z M77,129.4v1.5h2.1c0.1,0,0.2,0,0.4-0.1
			s0.2-0.3,0.2-0.6c0-0.3-0.1-0.5-0.2-0.6c-0.1-0.1-0.3-0.2-0.3-0.2H77z"/>
		<path class="st1" d="M93.5,132.1l-0.9,3.6h-2.7l-2.6-8.4H90l1.2,3.6l1-3.6h2.5l1.2,3.6l0.8-3.6h2.7l-2.1,8.4h-2.7L93.5,132.1z"/>
		<path class="st1" d="M98.1,135.6l2.8-8.4h4.2l2.8,8.4h-3.2l-0.5-1.5h-2.5l-0.5,1.5H98.1z M103,129.1l-1.2,3.3h2.3L103,129.1z"/>
		<path class="st1" d="M107.7,135.6v-8.4h5.5c0.7,0.1,1.2,0.2,1.7,0.5c0.4,0.3,0.8,0.7,1,1.2c0.2,0.7,0.2,1.3,0,1.7
			c-0.1,0.4-0.4,0.7-0.7,1s-0.8,0.5-1.5,0.6l0.6,0.8h4.5v2.5h-5.3l-2.7-2.8v2.8H107.7z M110.8,129.4v1.5h2.1c0.1,0,0.2,0,0.4-0.1
			s0.2-0.3,0.2-0.6c0-0.3-0.1-0.5-0.2-0.6c-0.1-0.1-0.3-0.2-0.3-0.2H110.8z"/>
		<path class="st1" d="M123.9,129.8h-2.6c-1,0-1.1,0.2-0.4,0.8c1.3,1.1,1.9,2.2,1.8,3.2c0,1-0.6,1.7-1.8,1.9h-7.3v-2.5h4.6
			c1.1,0,1.2-0.3,0.4-0.9c-1.3-1.2-1.9-2.4-1.7-3.4c0.2-1,0.8-1.6,1.9-1.6h5.2V129.8z"/>
	</g>
</g>
</svg>
