<?xml version="1.0" encoding="utf-8"?>
<!-- Generator: Adobe Illustrator 22.1.0, SVG Export Plug-In . SVG Version: 6.00 Build 0)  -->
<svg version="1.1" id="Capa_1" xmlns="http://www.w3.org/2000/svg" xmlns:xlink="http://www.w3.org/1999/xlink" x="0px" y="0px"
	 viewBox="0 0 359.5 359.5" style="enable-background:new 0 0 359.5 359.5;" xml:space="preserve">
<style type="text/css">
	.st0{enable-background:new    ;}
	.st1{fill:#FFFFFF;}
	.st2{fill:none;stroke:#FFFFFF;stroke-width:2;stroke-miterlimit:10;}
</style>
<title>episodio-III-featured</title>
<g id="Episodio_III">
	<g class="st0">
		<path class="st1" d="M31.7,162.9c0-7.3,0-8.7-0.1-10.2c-0.1-1.6-0.5-2.4-2.1-2.7c-0.4-0.1-1.2-0.1-1.9-0.1c-0.5,0-0.8-0.1-0.8-0.4
			s0.3-0.4,1.1-0.4c1.3,0,2.7,0,3.9,0c1.3,0,2.4,0.1,3,0.1c1.5,0,11.1,0,12.1,0c0.9-0.1,1.7-0.2,2.1-0.3c0.2,0,0.5-0.2,0.8-0.2
			c0.2,0,0.3,0.2,0.3,0.4c0,0.3-0.2,0.9-0.4,3.1c0,0.5-0.1,2.6-0.2,3.2c0,0.2-0.1,0.5-0.5,0.5s-0.4-0.2-0.4-0.7c0-0.3,0-1.2-0.3-1.7
			c-0.3-0.9-0.8-1.4-3.2-1.7c-0.8-0.1-5.9-0.2-6.8-0.2c-0.2,0-0.3,0.1-0.3,0.5v12.2c0,0.3,0,0.5,0.3,0.5c1.1,0,6.6,0,7.7-0.1
			c1.2-0.1,1.9-0.2,2.3-0.7c0.3-0.4,0.5-0.6,0.8-0.6c0.2,0,0.3,0.1,0.3,0.4s-0.2,1.1-0.4,3.5c0,1-0.2,2.9-0.2,3.2
			c0,0.4,0,0.9-0.4,0.9c-0.3,0-0.4-0.2-0.4-0.4c0-0.5,0-1.1-0.2-1.7c-0.2-1-0.9-1.7-2.7-1.9c-0.9-0.1-5.7-0.1-6.8-0.1
			c-0.2,0-0.3,0.2-0.3,0.5v3.8c0,1.6,0,6.1,0,7.5c0.1,3.3,0.9,4.1,5.8,4.1c1.3,0,3.3,0,4.5-0.6c1.3-0.6,1.8-1.6,2.2-3.6
			c0.1-0.5,0.2-0.7,0.5-0.7c0.4,0,0.4,0.4,0.4,0.9c0,1.1-0.4,4.4-0.6,5.4c-0.3,1.3-0.8,1.3-2.6,1.3c-3.6,0-6.3-0.1-8.3-0.1
			c-2.1-0.1-3.6-0.1-5-0.1c-0.5,0-1.6,0-2.7,0c-1.1,0-2.4,0.1-3.3,0.1c-0.6,0-1-0.1-1-0.5c0-0.2,0.2-0.4,0.8-0.4
			c0.7,0,1.3-0.1,1.7-0.2c1-0.2,1.2-1.3,1.4-2.7c0.2-2,0.2-5.8,0.2-10.3V162.9z"/>
		<path class="st1" d="M59.4,162.9c0-7.3,0-8.7-0.1-10.2c-0.1-1.6-0.5-2.4-2.1-2.7c-0.4-0.1-1.2-0.1-1.9-0.1c-0.5,0-0.8-0.1-0.8-0.4
			s0.3-0.4,1.1-0.4c2.6,0,5.6,0.1,6.9,0.1c2,0,4.8-0.1,7-0.1c6,0,8.2,2,9,2.7c1.1,1,2.4,3.2,2.4,5.7c0,6.8-5,11.7-11.9,11.7
			c-0.2,0-0.8,0-1,0s-0.6-0.1-0.6-0.4c0-0.4,0.3-0.5,1.4-0.5c2.7,0,6.5-3,6.5-8c0-1.6-0.1-4.8-2.8-7.2c-1.7-1.6-3.7-1.9-4.8-1.9
			c-0.7,0-1.4,0-1.9,0.2c-0.2,0.1-0.4,0.4-0.4,0.9v19.3c0,4.4,0,8.2,0.2,10.3c0.1,1.3,0.4,2.4,1.9,2.6c0.7,0.1,1.7,0.2,2.5,0.2
			c0.5,0,0.8,0.1,0.8,0.4c0,0.3-0.4,0.5-0.9,0.5c-3.2,0-6.2-0.1-7.5-0.1c-1.1,0-4.1,0.1-6.1,0.1c-0.6,0-1-0.1-1-0.5
			c0-0.2,0.2-0.4,0.8-0.4c0.7,0,1.3-0.1,1.7-0.2c1-0.2,1.2-1.3,1.4-2.7c0.2-2,0.2-5.8,0.2-10.3V162.9z"/>
		<path class="st1" d="M88.1,162.9c0-7.3,0-8.7-0.1-10.2c-0.1-1.6-0.6-2.5-1.6-2.7c-0.5-0.1-1.2-0.2-1.7-0.2c-0.5,0-0.8-0.1-0.8-0.5
			c0-0.3,0.4-0.4,1.2-0.4c1.8,0,4.9,0.1,6.3,0.1c1.2,0,4-0.1,5.9-0.1c0.6,0,1,0.1,1,0.4c0,0.4-0.3,0.5-0.8,0.5c-0.5,0-0.9,0-1.4,0.1
			c-1.3,0.2-1.7,1.1-1.8,2.7c-0.1,1.5-0.1,2.9-0.1,10.2v8.5c0,4.7,0,8.5,0.2,10.6c0.1,1.3,0.5,2.2,1.9,2.4c0.7,0.1,1.7,0.2,2.5,0.2
			c0.5,0,0.8,0.1,0.8,0.4c0,0.3-0.4,0.5-0.9,0.5c-3.2,0-6.2-0.1-7.5-0.1c-1.1,0-4.1,0.1-6.1,0.1c-0.6,0-1-0.1-1-0.5
			c0-0.2,0.2-0.4,0.8-0.4c0.7,0,1.3-0.1,1.7-0.2c1-0.2,1.3-1,1.4-2.4c0.2-2,0.2-5.8,0.2-10.5V162.9z"/>
		<path class="st1" d="M104.4,184.8c-0.8-0.3-0.9-0.6-0.9-1.6c0-2.7,0.2-5.5,0.2-6.3c0-0.7,0.2-1.3,0.6-1.3c0.4,0,0.5,0.4,0.5,0.8
			c0,0.6,0.2,1.6,0.4,2.5c1.1,3.6,3.9,4.9,6.9,4.9c4.3,0,6.5-2.9,6.5-5.5c0-2.4-0.7-4.6-4.7-7.7l-2.2-1.7c-5.3-4.1-7.1-7.5-7.1-11.4
			c0-5.3,4.4-9.1,11.1-9.1c3.1,0,5.2,0.5,6.4,0.8c0.4,0.1,0.7,0.2,0.7,0.6c0,0.6-0.2,2-0.2,5.8c0,1.1-0.1,1.4-0.5,1.4
			c-0.3,0-0.5-0.3-0.5-0.9c0-0.4-0.2-1.9-1.3-3.2c-0.7-0.9-2.1-2.4-5.3-2.4c-3.6,0-5.7,2.1-5.7,5c0,2.2,1.1,3.9,5.1,6.9l1.4,1
			c5.8,4.4,7.9,7.7,7.9,12.3c0,2.8-1.1,6.1-4.5,8.4c-2.4,1.5-5.1,2-7.7,2C108.6,186,106.5,185.7,104.4,184.8z"/>
	</g>
	<g class="st0">
		<path class="st1" d="M126.6,167.1c0-8.2,5.4-18.9,19.9-18.9c12,0,19.5,7,19.5,18c0,11-7.7,19.8-20,19.8
			C132.2,186,126.6,175.7,126.6,167.1z M159.3,168.1c0-10.8-6.2-17.5-14.1-17.5c-5.5,0-11.9,3.1-11.9,15.1c0,10,5.5,18,14.8,18
			C151.5,183.6,159.3,182,159.3,168.1z"/>
		<path class="st1" d="M172.7,162.9c0-7.3,0-8.7-0.1-10.2c-0.1-1.6-0.5-2.4-2.1-2.7c-0.4-0.1-1.2-0.1-1.9-0.1
			c-0.5,0-0.8-0.1-0.8-0.4s0.3-0.4,1.1-0.4c2.6,0,5.6,0.1,6.9,0.1c1.5,0,4.5-0.1,7.4-0.1c6,0,14.1,0,19.3,5.5
			c2.4,2.5,4.7,6.5,4.7,12.2c0,6.1-2.6,10.7-5.3,13.5c-2.2,2.3-7.2,5.7-16.2,5.7c-1.7,0-3.7-0.1-5.5-0.3s-3.5-0.3-4.7-0.3
			c-0.5,0-1.6,0-2.7,0c-1.1,0-2.4,0.1-3.3,0.1c-0.6,0-1-0.1-1-0.5c0-0.2,0.2-0.4,0.8-0.4c0.7,0,1.3-0.1,1.7-0.2
			c1-0.2,1.2-1.3,1.4-2.7c0.2-2,0.2-5.8,0.2-10.3V162.9z M178.8,168.2c0,5.1,0,8.8,0.1,9.7c0,1.2,0.1,3.1,0.5,3.7
			c0.6,0.9,2.5,1.9,6.3,1.9c4.9,0,8.2-1,11.1-3.5c3.1-2.7,4.1-7,4.1-12c0-6.1-2.6-10.1-4.6-12.1c-4.4-4.2-9.9-4.8-13.7-4.8
			c-1,0-2.7,0.1-3.1,0.3c-0.4,0.2-0.6,0.4-0.6,1c0,1.6,0,5.8,0,9.6V168.2z"/>
		<path class="st1" d="M214,162.9c0-7.3,0-8.7-0.1-10.2c-0.1-1.6-0.6-2.5-1.6-2.7c-0.5-0.1-1.2-0.2-1.7-0.2c-0.5,0-0.8-0.1-0.8-0.5
			c0-0.3,0.4-0.4,1.2-0.4c1.8,0,4.9,0.1,6.3,0.1c1.2,0,4.1-0.1,5.9-0.1c0.6,0,1,0.1,1,0.4c0,0.4-0.3,0.5-0.8,0.5
			c-0.5,0-0.9,0-1.4,0.1c-1.3,0.2-1.7,1.1-1.8,2.7c-0.1,1.5-0.1,2.9-0.1,10.2v8.5c0,4.7,0,8.5,0.2,10.6c0.1,1.3,0.5,2.2,1.9,2.4
			c0.7,0.1,1.7,0.2,2.5,0.2c0.5,0,0.8,0.1,0.8,0.4c0,0.3-0.4,0.5-0.9,0.5c-3.2,0-6.2-0.1-7.5-0.1c-1.1,0-4.1,0.1-6.1,0.1
			c-0.6,0-1-0.1-1-0.5c0-0.2,0.2-0.4,0.8-0.4c0.7,0,1.3-0.1,1.7-0.2c1-0.2,1.3-1,1.4-2.4c0.2-2,0.2-5.8,0.2-10.5V162.9z"/>
	</g>
	<g class="st0">
		<path class="st1" d="M228,167.1c0-8.2,5.4-18.9,19.9-18.9c12,0,19.5,7,19.5,18c0,11-7.7,19.8-20,19.8
			C233.6,186,228,175.7,228,167.1z M260.6,168.1c0-10.8-6.2-17.5-14.1-17.5c-5.5,0-11.9,3.1-11.9,15.1c0,10,5.5,18,14.8,18
			C252.8,183.6,260.6,182,260.6,168.1z"/>
		<path class="st1" d="M286.7,162.9c0-7.3,0-8.7-0.1-10.2c-0.1-1.6-0.6-2.5-1.6-2.7c-0.5-0.1-1.2-0.2-1.7-0.2
			c-0.5,0-0.8-0.1-0.8-0.5c0-0.3,0.4-0.4,1.2-0.4c1.8,0,4.9,0.1,6.3,0.1c1.2,0,4.1-0.1,5.9-0.1c0.6,0,1,0.1,1,0.4
			c0,0.4-0.3,0.5-0.8,0.5s-0.9,0-1.4,0.1c-1.3,0.2-1.7,1.1-1.8,2.7c-0.1,1.5-0.1,2.9-0.1,10.2v8.5c0,4.7,0,8.5,0.2,10.6
			c0.1,1.3,0.5,2.2,1.9,2.4c0.7,0.1,1.7,0.2,2.5,0.2c0.5,0,0.8,0.1,0.8,0.4c0,0.3-0.4,0.5-0.9,0.5c-3.2,0-6.2-0.1-7.5-0.1
			c-1.1,0-4.1,0.1-6.1,0.1c-0.6,0-1-0.1-1-0.5c0-0.2,0.2-0.4,0.8-0.4c0.7,0,1.3-0.1,1.7-0.2c1-0.2,1.3-1,1.4-2.4
			c0.2-2,0.2-5.8,0.2-10.5V162.9z"/>
		<path class="st1" d="M305.7,162.9c0-7.3,0-8.7-0.1-10.2c-0.1-1.6-0.6-2.5-1.6-2.7c-0.5-0.1-1.2-0.2-1.7-0.2
			c-0.5,0-0.8-0.1-0.8-0.5c0-0.3,0.4-0.4,1.2-0.4c1.8,0,4.9,0.1,6.3,0.1c1.2,0,4.1-0.1,5.9-0.1c0.6,0,1,0.1,1,0.4
			c0,0.4-0.3,0.5-0.8,0.5s-0.9,0-1.4,0.1c-1.3,0.2-1.7,1.1-1.8,2.7c-0.1,1.5-0.1,2.9-0.1,10.2v8.5c0,4.7,0,8.5,0.2,10.6
			c0.1,1.3,0.5,2.2,1.9,2.4c0.7,0.1,1.7,0.2,2.5,0.2c0.5,0,0.8,0.1,0.8,0.4c0,0.3-0.4,0.5-0.9,0.5c-3.2,0-6.2-0.1-7.5-0.1
			c-1.1,0-4.1,0.1-6.1,0.1c-0.6,0-1-0.1-1-0.5c0-0.2,0.2-0.4,0.8-0.4c0.7,0,1.3-0.1,1.7-0.2c1-0.2,1.3-1,1.4-2.4
			c0.2-2,0.2-5.8,0.2-10.5V162.9z"/>
		<path class="st1" d="M324.6,162.9c0-7.3,0-8.7-0.1-10.2c-0.1-1.6-0.6-2.5-1.6-2.7c-0.5-0.1-1.2-0.2-1.7-0.2
			c-0.5,0-0.8-0.1-0.8-0.5c0-0.3,0.4-0.4,1.2-0.4c1.8,0,4.9,0.1,6.3,0.1c1.2,0,4.1-0.1,5.9-0.1c0.6,0,1,0.1,1,0.4
			c0,0.4-0.3,0.5-0.8,0.5s-0.9,0-1.4,0.1c-1.3,0.2-1.7,1.1-1.8,2.7c-0.1,1.5-0.1,2.9-0.1,10.2v8.5c0,4.7,0,8.5,0.2,10.6
			c0.1,1.3,0.5,2.2,1.9,2.4c0.7,0.1,1.7,0.2,2.5,0.2c0.5,0,0.8,0.1,0.8,0.4c0,0.3-0.4,0.5-0.9,0.5c-3.2,0-6.2-0.1-7.5-0.1
			c-1.1,0-4.1,0.1-6.1,0.1c-0.6,0-1-0.1-1-0.5c0-0.2,0.2-0.4,0.8-0.4c0.7,0,1.3-0.1,1.7-0.2c1-0.2,1.3-1,1.4-2.4
			c0.2-2,0.2-5.8,0.2-10.5V162.9z"/>
	</g>
	<g class="st0">
		<path class="st1" d="M31.9,220.2c0,1.5,0,2.6,0.1,3.3s0.2,1.1,0.4,1.3c0.1,0.1,0.2,0.2,0.3,0.2s0.3,0.1,0.4,0.1
			c0.2,0,0.4,0.1,0.7,0.1c0.3,0,0.6,0,1,0c0.5,0,1,0,1.4-0.1c0.4-0.1,0.7-0.2,1-0.5c0.1-0.2,0.2-0.4,0.3-0.6s0.2-0.4,0.2-0.6
			c0-0.2,0.1-0.3,0.2-0.3c0.1,0,0.1,0.1,0.1,0.3c0,0.1,0,0.2,0,0.3c0,0.2,0,0.3-0.1,0.5c0,0.2-0.1,0.4-0.1,0.6
			c0,0.2-0.1,0.4-0.1,0.5c0,0.1-0.1,0.2-0.1,0.3s-0.1,0.1-0.2,0.2c-0.1,0-0.2,0.1-0.4,0.1c-0.2,0-0.4,0-0.6,0c-0.7,0-1.3,0-1.9,0
			c-0.5,0-1,0-1.4,0c-0.4,0-0.8,0-1.1,0c-0.3,0-0.6,0-0.9,0c0,0-0.1,0-0.3,0c-0.2,0-0.3,0-0.5,0c-0.2,0-0.4,0-0.6,0s-0.4,0-0.5,0
			c-0.2,0-0.3-0.1-0.3-0.2c0-0.1,0.1-0.1,0.2-0.1c0.1,0,0.2,0,0.3,0c0.1,0,0.2,0,0.3-0.1c0.2,0,0.3-0.2,0.4-0.4
			c0.1-0.2,0.1-0.4,0.2-0.7c0.1-0.4,0.1-1,0.1-1.8c0-0.8,0-1.6,0-2.6v-3.5c0-0.8,0-1.4,0-1.9c0-0.5,0-0.9,0-1.2c0-0.3,0-0.5,0-0.7
			s0-0.3,0-0.5c0-0.3-0.1-0.6-0.2-0.8c-0.1-0.2-0.3-0.3-0.7-0.4c-0.1,0-0.2,0-0.3,0c-0.1,0-0.3,0-0.3,0c-0.1,0-0.2,0-0.2-0.1
			c0-0.1,0.1-0.2,0.3-0.2c0.2,0,0.5,0,0.7,0s0.5,0,0.7,0s0.4,0,0.6,0c0.2,0,0.2,0,0.3,0s0.1,0,0.3,0c0.2,0,0.4,0,0.6,0
			c0.2,0,0.5,0,0.7,0s0.4,0,0.6,0c0.2,0,0.3,0.1,0.3,0.2c0,0.1-0.1,0.1-0.2,0.1c-0.1,0-0.2,0-0.3,0s-0.2,0-0.4,0
			c-0.3,0.1-0.5,0.2-0.6,0.3c-0.1,0.2-0.2,0.4-0.2,0.8c0,0.2,0,0.3,0,0.5s0,0.4,0,0.7c0,0.3,0,0.7,0,1.2c0,0.5,0,1.1,0,1.9V220.2z"
			/>
	</g>
	<g class="st0">
		<path class="st1" d="M43.1,211.4c0.1-0.3,0.2-0.5,0.3-0.6s0.1-0.1,0.2-0.1c0.1,0,0.1,0,0.2,0.1c0.1,0.1,0.1,0.3,0.3,0.6
			c0.1,0.1,0.2,0.4,0.4,0.9c0.2,0.5,0.4,1.1,0.7,1.8c0.3,0.7,0.6,1.5,0.9,2.4c0.3,0.9,0.7,1.7,1,2.6c0.3,0.8,0.6,1.6,0.9,2.4
			c0.3,0.8,0.5,1.4,0.7,1.9c0.2,0.4,0.3,0.8,0.5,1.1s0.3,0.5,0.5,0.7c0.1,0.2,0.3,0.3,0.4,0.3s0.2,0.1,0.4,0.1
			c0.1,0.1,0.3,0.1,0.4,0.1c0.1,0,0.3,0,0.4,0c0.1,0,0.2,0,0.2,0.1c0,0.1,0,0.1-0.1,0.1c-0.1,0-0.2,0-0.3,0c-0.1,0-0.2,0-0.4,0
			c-0.2,0-0.4,0-0.7,0c-0.3,0-0.6,0-0.9,0c-0.3,0-0.7,0-1,0c-0.2,0-0.3,0-0.4,0c-0.1,0-0.2,0-0.2-0.1c0-0.1,0-0.1,0.1-0.1
			c0.1,0,0.1-0.1,0.2-0.2c0-0.1,0-0.2,0-0.4l-1.9-4.9c0-0.1-0.1-0.1-0.2-0.1h-4.3c-0.1,0-0.2,0.1-0.2,0.2l-1.2,3.5
			c-0.2,0.5-0.3,1-0.3,1.3c0,0.2,0.1,0.3,0.2,0.4c0.2,0.1,0.3,0.1,0.5,0.1h0.2c0.1,0,0.2,0,0.2,0.1c0,0.1-0.1,0.2-0.3,0.2
			c-0.1,0-0.3,0-0.4,0s-0.3,0-0.5,0c-0.1,0-0.3,0-0.4,0c-0.1,0-0.2,0-0.3,0s-0.2,0-0.3,0s-0.3,0-0.5,0c-0.2,0-0.4,0-0.7,0
			s-0.5,0-0.7,0c-0.3,0-0.4-0.1-0.4-0.2c0-0.1,0.1-0.1,0.2-0.1c0.1,0,0.2,0,0.3,0c0.1,0,0.2,0,0.3,0c0.5-0.1,0.8-0.3,1-0.6
			s0.4-0.8,0.6-1.3L43.1,211.4z M45.2,219.3c0.1,0,0.1,0,0.1-0.1l-1.9-5.4c-0.1-0.3-0.2-0.3-0.3,0l-1.8,5.4c0,0.1,0,0.1,0.1,0.1
			H45.2z"/>
		<path class="st1" d="M61,223.5c0.2-0.5,0.4-1,0.7-1.7c0.3-0.7,0.5-1.3,0.8-2.1s0.6-1.5,0.9-2.3c0.3-0.8,0.6-1.5,0.8-2.2
			c0.3-0.7,0.5-1.3,0.6-1.8c0.2-0.5,0.3-0.9,0.4-1.1c0.1-0.1,0.1-0.3,0.1-0.4c0-0.1,0-0.2,0-0.3c0-0.1,0-0.2,0-0.2
			c0-0.1-0.1-0.2-0.2-0.2c-0.1,0-0.2-0.1-0.4-0.1c-0.1,0-0.3,0-0.4,0c-0.1,0-0.2,0-0.2-0.1c0-0.1,0.1-0.2,0.4-0.2c0.4,0,0.8,0,1.2,0
			c0.4,0,0.6,0,0.8,0c0,0,0.1,0,0.2,0c0.1,0,0.2,0,0.4,0s0.3,0,0.5,0s0.3,0,0.5,0c0.2,0,0.3,0,0.3,0.1c0,0.1-0.1,0.1-0.2,0.1
			c-0.1,0-0.2,0-0.4,0c-0.2,0-0.4,0.1-0.6,0.2c-0.1,0-0.1,0.1-0.2,0.2c-0.1,0.1-0.2,0.2-0.2,0.3c-0.1,0.1-0.2,0.3-0.3,0.5
			s-0.2,0.5-0.4,0.8c-0.1,0.1-0.2,0.4-0.3,0.7c-0.1,0.3-0.3,0.8-0.5,1.3c-0.2,0.5-0.4,1-0.7,1.6c-0.2,0.6-0.5,1.2-0.7,1.8
			c-0.6,1.5-1.1,2.7-1.6,3.8c-0.4,1-0.8,1.8-1,2.3c-0.3,0.6-0.5,1-0.6,1.2c-0.1,0.2-0.2,0.3-0.3,0.3c-0.1,0-0.2-0.1-0.3-0.3
			c-0.1-0.2-0.2-0.5-0.4-1L55,212.8c-0.1-0.3-0.2-0.5-0.3-0.7c-0.1-0.2-0.2-0.3-0.3-0.4c-0.1-0.1-0.2-0.2-0.4-0.3
			c-0.1-0.1-0.3-0.1-0.5-0.2c-0.1,0-0.3-0.1-0.4-0.1s-0.3,0-0.3,0c-0.1,0-0.2,0-0.2-0.1c0-0.1,0.2-0.1,0.5-0.1c0.2,0,0.5,0,0.7,0
			c0.3,0,0.5,0,0.7,0c0.2,0,0.4,0,0.6,0s0.3,0,0.3,0c0.1,0,0.3,0,0.7,0c0.4,0,0.8,0,1.1,0c0.4,0,0.5,0,0.5,0.1
			c0,0.1-0.1,0.1-0.2,0.1c-0.1,0-0.2,0-0.4,0c-0.2,0-0.3,0-0.4,0.1c-0.1,0.1-0.2,0.1-0.2,0.2s0,0.1,0,0.2c0,0.1,0.1,0.3,0.2,0.6
			c0.1,0.3,0.2,0.6,0.4,1L61,223.5z"/>
		<path class="st1" d="M69.5,216.6c0-0.8,0-1.4,0-1.9c0-0.5,0-0.9,0-1.2c0-0.3,0-0.5,0-0.7s0-0.3,0-0.5c0-0.3-0.1-0.6-0.2-0.8
			c-0.1-0.2-0.3-0.3-0.7-0.4c-0.1,0-0.2,0-0.3,0c-0.1,0-0.3,0-0.3,0c-0.1,0-0.2,0-0.2-0.1c0-0.1,0.1-0.2,0.3-0.2c0.2,0,0.5,0,0.7,0
			s0.5,0,0.7,0l0.8,0c0,0,0.3,0,0.7,0c0.4,0,0.9,0,1.5,0c0.5,0,1.1,0,1.5,0c0.5,0,0.8,0,0.9,0c0.4,0,0.7-0.1,0.9-0.1
			c0.1,0,0.1,0,0.1-0.1c0,0,0.1,0,0.1,0s0.1,0.1,0.1,0.2c0,0.1,0,0.2-0.1,0.3c0,0.1-0.1,0.3-0.1,0.6c0,0.1,0,0.1,0,0.3
			c0,0.1,0,0.2,0,0.4c0,0.1,0,0.3,0,0.4c0,0.1,0,0.2,0,0.3c0,0.1,0,0.1-0.1,0.2c0,0,0,0.1-0.1,0.1c-0.1,0-0.2-0.1-0.2-0.3
			c0-0.1,0-0.2,0-0.3s0-0.3-0.1-0.4c-0.1-0.2-0.2-0.3-0.4-0.4c-0.2-0.1-0.5-0.2-1.1-0.3c-0.1,0-0.3,0-0.5,0c-0.3,0-0.6,0-0.9,0
			c-0.3,0-0.6,0-0.9,0c-0.3,0-0.4,0-0.5,0c-0.1,0-0.1,0.1-0.1,0.2v5.5c0,0.1,0,0.2,0.1,0.2c0.1,0,0.2,0,0.5,0s0.6,0,1,0
			c0.4,0,0.7,0,1,0s0.5,0,0.7,0c0.2,0,0.4-0.1,0.6-0.1c0.1,0,0.3-0.1,0.4-0.2c0.1-0.2,0.2-0.3,0.3-0.3c0.1,0,0.1,0.1,0.1,0.2
			c0,0.1,0,0.2-0.1,0.4c0,0.2-0.1,0.4-0.1,0.8c0,0.1,0,0.2,0,0.3c0,0.1,0,0.3,0,0.4s0,0.2,0,0.3c0,0.1,0,0.2,0,0.2
			c0,0.1,0,0.2,0,0.2c0,0.1-0.1,0.1-0.1,0.1c-0.1,0-0.1-0.1-0.1-0.2c0-0.1,0-0.2,0-0.3c0-0.1,0-0.2-0.1-0.3c0-0.1-0.1-0.3-0.3-0.4
			s-0.4-0.2-0.8-0.3c-0.1,0-0.3,0-0.6,0c-0.3,0-0.6,0-0.9,0s-0.6,0-0.8,0s-0.4,0-0.5,0c-0.1,0-0.1,0-0.1,0.1v1.8c0,0.2,0,0.4,0,0.8
			s0,0.7,0,1c0,0.4,0,0.7,0,1c0,0.3,0,0.5,0,0.6c0,0.3,0,0.6,0.1,0.8s0.2,0.4,0.3,0.5c0.2,0.1,0.4,0.2,0.7,0.2s0.7,0.1,1.2,0.1
			c0.3,0,0.6,0,1,0c0.4,0,0.7-0.1,1-0.2c0.3-0.1,0.5-0.3,0.6-0.5s0.2-0.5,0.3-0.9c0-0.2,0.1-0.3,0.2-0.3c0.1,0,0.1,0,0.1,0.1
			s0,0.1,0,0.2c0,0,0,0.1,0,0.3c0,0.2,0,0.4-0.1,0.6c0,0.2-0.1,0.4-0.1,0.6c0,0.2-0.1,0.4-0.1,0.5c0,0.1-0.1,0.2-0.1,0.3
			s-0.1,0.1-0.2,0.1s-0.2,0.1-0.3,0.1c-0.1,0-0.3,0-0.5,0c-0.8,0-1.4,0-2,0c-0.6,0-1,0-1.4,0c-0.4,0-0.7,0-1,0c-0.3,0-0.5,0-0.6,0
			c0,0-0.1,0-0.3,0s-0.3,0-0.5,0c-0.2,0-0.4,0-0.6,0c-0.2,0-0.4,0-0.5,0c-0.2,0-0.3-0.1-0.3-0.2c0-0.1,0.1-0.1,0.2-0.1
			c0.1,0,0.2,0,0.3,0c0.1,0,0.2,0,0.3-0.1c0.2,0,0.3-0.2,0.4-0.4c0.1-0.2,0.1-0.4,0.2-0.7c0.1-0.4,0.1-1,0.1-1.8c0-0.8,0-1.6,0-2.6
			V216.6z"/>
		<path class="st1" d="M80.3,223.2c0,0.4,0,0.8,0.1,1c0,0.3,0.1,0.5,0.1,0.7s0.1,0.3,0.2,0.4c0.1,0.1,0.2,0.2,0.3,0.2
			c0.2,0.1,0.4,0.1,0.6,0.1c0.2,0,0.3,0,0.4,0c0.1,0,0.2,0,0.2,0.1c0,0.1-0.1,0.2-0.4,0.2c-0.6,0-1,0-1.4,0c-0.4,0-0.6,0-0.7,0
			c-0.1,0-0.3,0-0.7,0c-0.4,0-0.8,0-1.2,0c-0.2,0-0.3-0.1-0.3-0.2c0-0.1,0.1-0.1,0.2-0.1c0.1,0,0.2,0,0.4,0c0.2,0,0.3,0,0.5-0.1
			c0.3-0.1,0.4-0.3,0.5-0.6c0.1-0.4,0.1-1,0.1-1.9l0-11.4c0-0.4,0-0.6,0-0.8c0-0.1,0.1-0.2,0.2-0.2c0.1,0,0.2,0.1,0.3,0.2
			c0.1,0.2,0.3,0.3,0.4,0.4c0.1,0.1,0.3,0.3,0.7,0.7c0.4,0.4,0.9,0.9,1.4,1.6c0.6,0.6,1.2,1.3,2,2.1c0.7,0.8,1.5,1.6,2.2,2.4
			c0.5,0.5,1,1.1,1.5,1.6c0.5,0.5,1,1.1,1.4,1.5c0.4,0.5,0.8,0.9,1.2,1.3s0.6,0.6,0.7,0.8l-0.2-10.2c0-0.7-0.1-1.1-0.2-1.4
			c-0.1-0.3-0.3-0.4-0.6-0.5c-0.2,0-0.4-0.1-0.6-0.1c-0.2,0-0.3,0-0.4,0c-0.1,0-0.2,0-0.2-0.1c0-0.1,0.1-0.1,0.4-0.1
			c0.2,0,0.4,0,0.7,0s0.4,0,0.6,0c0.2,0,0.4,0,0.5,0c0.1,0,0.2,0,0.3,0c0.1,0,0.3,0,0.6,0c0.3,0,0.7,0,1.1,0c0.2,0,0.4,0,0.4,0.1
			c0,0.1-0.1,0.1-0.2,0.1c-0.1,0-0.1,0-0.2,0c-0.1,0-0.2,0-0.3,0c-0.3,0.1-0.5,0.2-0.6,0.5s-0.1,0.7-0.1,1.3l0,11.7
			c0,0.3,0,0.6,0,0.8s0,0.3,0,0.4c0,0.1,0,0.2-0.1,0.2c0,0,0,0-0.1,0s-0.1,0-0.1-0.1c-0.1,0-0.1-0.1-0.2-0.2
			c-0.1-0.1-0.2-0.2-0.4-0.4c-0.2-0.2-0.4-0.4-0.6-0.6c-0.1-0.1-0.3-0.3-0.6-0.6c-0.4-0.4-0.8-0.8-1.3-1.3c-0.5-0.5-1.1-1.1-1.6-1.7
			c-0.6-0.6-1.1-1.2-1.7-1.8c-0.6-0.6-1.2-1.2-1.7-1.8c-0.6-0.6-1.1-1.2-1.5-1.7s-0.9-1-1.2-1.3c-0.3-0.4-0.6-0.7-0.8-0.8
			L80.3,223.2z"/>
		<path class="st1" d="M106.1,220.9c0-0.4,0-0.7,0-1s-0.1-0.4-0.1-0.6c-0.1-0.1-0.1-0.2-0.3-0.3c-0.1-0.1-0.3-0.1-0.5-0.2
			c-0.1,0-0.2,0-0.3,0c-0.1,0-0.3,0-0.3,0c-0.1,0-0.2,0-0.2-0.1c0-0.1,0.1-0.2,0.3-0.2c0.2,0,0.5,0,0.7,0c0.3,0,0.5,0,0.7,0
			c0.2,0,0.4,0,0.6,0s0.2,0,0.3,0c0,0,0.1,0,0.3,0c0.2,0,0.3,0,0.5,0c0.2,0,0.4,0,0.6,0c0.2,0,0.4,0,0.5,0c0.2,0,0.3,0.1,0.3,0.2
			c0,0.1-0.1,0.1-0.2,0.1c-0.1,0-0.1,0-0.2,0c-0.1,0-0.2,0-0.3,0c-0.3,0.1-0.4,0.2-0.5,0.3c-0.1,0.2-0.2,0.4-0.2,0.8
			c0,0.3,0,0.6,0,1s0,0.7,0,1.1v2.2c0,0.2,0,0.4,0,0.5c0,0.1,0,0.2,0,0.3c0,0.1,0,0.1-0.1,0.2s-0.1,0.1-0.1,0.1
			c-0.3,0.2-0.7,0.3-1,0.4c-0.4,0.1-0.7,0.2-1.1,0.3c-0.4,0.1-0.7,0.1-1.1,0.2c-0.4,0-0.7,0-1,0c-0.4,0-0.8,0-1.4-0.1
			c-0.5,0-1.1-0.1-1.7-0.3s-1.2-0.4-1.8-0.6c-0.6-0.3-1.2-0.7-1.7-1.1c-0.3-0.3-0.6-0.6-0.9-1s-0.5-0.8-0.8-1.3s-0.4-1-0.5-1.6
			c-0.1-0.6-0.2-1.2-0.2-1.8c0-0.8,0.1-1.5,0.3-2.2c0.2-0.7,0.4-1.3,0.7-1.8c0.3-0.6,0.7-1,1.1-1.5c0.4-0.4,0.8-0.8,1.3-1
			c0.5-0.3,0.9-0.5,1.4-0.7c0.5-0.2,0.9-0.3,1.4-0.4c0.5-0.1,0.9-0.1,1.3-0.2c0.4,0,0.8,0,1.2,0c0.3,0,0.6,0,1,0
			c0.3,0,0.6,0.1,0.9,0.1s0.5,0.1,0.7,0.1c0.2,0,0.4,0.1,0.5,0.1c0.2,0.1,0.5,0.1,0.8,0.1c0.3,0,0.6,0.1,0.8,0.1
			c0.1,0,0.2,0,0.2,0.1c0,0,0,0.1,0,0.1c0,0.1,0,0.2,0,0.3c0,0.1,0,0.3,0,0.5s0,0.5-0.1,0.8s0,0.7,0,1.2c0,0.2,0,0.3,0,0.3
			c0,0.1-0.1,0.1-0.1,0.1c-0.1,0-0.1-0.1-0.1-0.3c0-0.1-0.1-0.3-0.1-0.6c-0.1-0.2-0.2-0.5-0.3-0.7c-0.1-0.2-0.3-0.4-0.6-0.6
			c-0.3-0.2-0.6-0.4-1-0.5s-0.9-0.3-1.4-0.4c-0.5-0.1-1.1-0.1-1.7-0.1c-0.3,0-0.6,0-1,0c-0.3,0-0.7,0.1-1,0.2
			c-0.4,0.1-0.7,0.2-1.1,0.4c-0.4,0.2-0.8,0.4-1.1,0.7c-0.6,0.5-1.1,1.1-1.4,2c-0.4,0.9-0.5,1.9-0.5,3.1c0,0.7,0.1,1.4,0.2,2
			c0.2,0.6,0.3,1.1,0.6,1.6s0.5,0.9,0.7,1.2c0.2,0.3,0.5,0.6,0.6,0.8c0.8,0.8,1.6,1.3,2.5,1.6s1.8,0.5,2.7,0.5c0.2,0,0.4,0,0.6,0
			c0.2,0,0.4,0,0.6-0.1c0.2,0,0.4-0.1,0.6-0.1c0.2-0.1,0.3-0.1,0.5-0.2c0.3-0.1,0.4-0.4,0.4-0.7V220.9z"/>
		<path class="st1" d="M114.8,211.4c0.1-0.3,0.2-0.5,0.3-0.6s0.1-0.1,0.2-0.1c0.1,0,0.1,0,0.2,0.1c0.1,0.1,0.1,0.3,0.3,0.6
			c0.1,0.1,0.2,0.4,0.4,0.9c0.2,0.5,0.4,1.1,0.7,1.8c0.3,0.7,0.6,1.5,0.9,2.4c0.3,0.9,0.7,1.7,1,2.6c0.3,0.8,0.6,1.6,0.9,2.4
			c0.3,0.8,0.5,1.4,0.7,1.9c0.2,0.4,0.3,0.8,0.5,1.1s0.3,0.5,0.5,0.7c0.1,0.2,0.3,0.3,0.4,0.3s0.2,0.1,0.4,0.1
			c0.1,0.1,0.3,0.1,0.4,0.1c0.1,0,0.3,0,0.4,0c0.1,0,0.2,0,0.2,0.1c0,0.1,0,0.1-0.1,0.1c-0.1,0-0.2,0-0.3,0c-0.1,0-0.2,0-0.4,0
			c-0.2,0-0.4,0-0.7,0c-0.3,0-0.6,0-0.9,0c-0.3,0-0.7,0-1,0c-0.2,0-0.3,0-0.4,0c-0.1,0-0.2,0-0.2-0.1c0-0.1,0-0.1,0.1-0.1
			c0.1,0,0.1-0.1,0.2-0.2c0-0.1,0-0.2,0-0.4l-1.9-4.9c0-0.1-0.1-0.1-0.2-0.1h-4.3c-0.1,0-0.2,0.1-0.2,0.2l-1.2,3.5
			c-0.2,0.5-0.3,1-0.3,1.3c0,0.2,0.1,0.3,0.2,0.4c0.2,0.1,0.3,0.1,0.5,0.1h0.2c0.1,0,0.2,0,0.2,0.1c0,0.1-0.1,0.2-0.3,0.2
			c-0.1,0-0.3,0-0.4,0s-0.3,0-0.5,0c-0.1,0-0.3,0-0.4,0c-0.1,0-0.2,0-0.3,0s-0.2,0-0.3,0s-0.3,0-0.5,0c-0.2,0-0.4,0-0.7,0
			s-0.5,0-0.7,0c-0.3,0-0.4-0.1-0.4-0.2c0-0.1,0.1-0.1,0.2-0.1c0.1,0,0.2,0,0.3,0c0.1,0,0.2,0,0.3,0c0.5-0.1,0.8-0.3,1-0.6
			s0.4-0.8,0.6-1.3L114.8,211.4z M116.8,219.3c0.1,0,0.1,0,0.1-0.1l-1.9-5.4c-0.1-0.3-0.2-0.3-0.3,0l-1.8,5.4c0,0.1,0,0.1,0.1,0.1
			H116.8z"/>
		<path class="st1" d="M124.4,223.2c0,0.4,0,0.8,0.1,1c0,0.3,0.1,0.5,0.1,0.7s0.1,0.3,0.2,0.4c0.1,0.1,0.2,0.2,0.3,0.2
			c0.2,0.1,0.4,0.1,0.6,0.1c0.2,0,0.3,0,0.4,0c0.1,0,0.2,0,0.2,0.1c0,0.1-0.1,0.2-0.4,0.2c-0.6,0-1,0-1.4,0c-0.4,0-0.6,0-0.7,0
			c-0.1,0-0.3,0-0.7,0c-0.4,0-0.8,0-1.2,0c-0.2,0-0.3-0.1-0.3-0.2c0-0.1,0.1-0.1,0.2-0.1c0.1,0,0.2,0,0.4,0c0.2,0,0.3,0,0.5-0.1
			c0.3-0.1,0.4-0.3,0.5-0.6c0.1-0.4,0.1-1,0.1-1.9l0-11.4c0-0.4,0-0.6,0-0.8c0-0.1,0.1-0.2,0.2-0.2c0.1,0,0.2,0.1,0.3,0.2
			c0.1,0.2,0.3,0.3,0.4,0.4c0.1,0.1,0.3,0.3,0.7,0.7c0.4,0.4,0.9,0.9,1.4,1.6c0.6,0.6,1.2,1.3,2,2.1c0.7,0.8,1.5,1.6,2.2,2.4
			c0.5,0.5,1,1.1,1.5,1.6c0.5,0.5,1,1.1,1.4,1.5c0.4,0.5,0.8,0.9,1.2,1.3s0.6,0.6,0.7,0.8l-0.2-10.2c0-0.7-0.1-1.1-0.2-1.4
			c-0.1-0.3-0.3-0.4-0.6-0.5c-0.2,0-0.4-0.1-0.6-0.1c-0.2,0-0.3,0-0.4,0c-0.1,0-0.2,0-0.2-0.1c0-0.1,0.1-0.1,0.4-0.1
			c0.2,0,0.4,0,0.7,0s0.4,0,0.6,0c0.2,0,0.4,0,0.5,0c0.1,0,0.2,0,0.3,0c0.1,0,0.3,0,0.6,0c0.3,0,0.7,0,1.1,0c0.2,0,0.4,0,0.4,0.1
			c0,0.1-0.1,0.1-0.2,0.1c-0.1,0-0.1,0-0.2,0c-0.1,0-0.2,0-0.3,0c-0.3,0.1-0.5,0.2-0.6,0.5s-0.1,0.7-0.1,1.3l0,11.7
			c0,0.3,0,0.6,0,0.8s0,0.3,0,0.4c0,0.1,0,0.2-0.1,0.2c0,0,0,0-0.1,0s-0.1,0-0.1-0.1c-0.1,0-0.1-0.1-0.2-0.2
			c-0.1-0.1-0.2-0.2-0.4-0.4c-0.2-0.2-0.4-0.4-0.6-0.6c-0.1-0.1-0.3-0.3-0.6-0.6c-0.4-0.4-0.8-0.8-1.3-1.3c-0.5-0.5-1.1-1.1-1.6-1.7
			c-0.6-0.6-1.1-1.2-1.7-1.8c-0.6-0.6-1.2-1.2-1.7-1.8c-0.6-0.6-1.1-1.2-1.5-1.7s-0.9-1-1.2-1.3c-0.3-0.4-0.6-0.7-0.8-0.8
			L124.4,223.2z"/>
	</g>
	<g class="st0">
		<path class="st1" d="M146.3,225.1c0.5,0,1,0,1.3-0.1c0.4,0,0.7-0.1,0.9-0.2c0.2-0.1,0.4-0.2,0.6-0.3c0.1-0.1,0.3-0.3,0.4-0.4
			c0.1-0.1,0.2-0.3,0.2-0.5c0.1-0.2,0.1-0.4,0.1-0.5c0-0.2,0.1-0.3,0.2-0.3c0.1,0,0.1,0,0.1,0.1s0,0.2,0,0.4c0,0.2,0,0.3,0,0.5
			c0,0.2-0.1,0.4-0.1,0.6s-0.1,0.4-0.1,0.6c0,0.2-0.1,0.4-0.1,0.5c0,0.1-0.1,0.2-0.1,0.3s-0.1,0.1-0.1,0.2c0,0-0.1,0.1-0.1,0.1
			s-0.1,0-0.3,0c-1.7,0-3.4,0-5,0s-3.4,0-5.2,0c-0.2,0-0.4-0.1-0.4-0.2c0-0.1,0-0.1,0-0.2c0-0.1,0.1-0.2,0.2-0.4
			c1.5-2.3,3-4.5,4.5-6.7c1.5-2.2,2.9-4.5,4.3-6.8h-4.3c-0.3,0-0.5,0-0.8,0c-0.3,0-0.5,0-0.8,0.1c-0.3,0-0.5,0.1-0.7,0.1
			c-0.2,0.1-0.4,0.1-0.6,0.2c-0.4,0.2-0.6,0.4-0.8,0.8c-0.2,0.3-0.3,0.6-0.3,0.8c0,0.1-0.1,0.2-0.1,0.3s-0.1,0.1-0.1,0.1
			c-0.1,0-0.1-0.1-0.1-0.3c0-0.1,0-0.2,0-0.4s0.1-0.5,0.1-0.8s0.1-0.6,0.1-0.8c0-0.3,0.1-0.5,0.1-0.6c0-0.3,0.1-0.4,0.2-0.4
			s0.2,0,0.3,0.1c0.1,0,0.3,0.1,0.5,0.1c0.9,0,1.7,0.1,2.2,0.1c0.5,0,1,0,1.3,0h5.6c0.3,0,0.4,0.1,0.4,0.2c0,0,0,0.1,0,0.1
			c0,0,0,0.1-0.1,0.1c-1.5,2.3-2.9,4.6-4.4,6.9c-1.5,2.3-3,4.6-4.5,6.9H146.3z"/>
	</g>
	<g class="st0">
		<path class="st1" d="M155.3,211.4c0.1-0.3,0.2-0.5,0.3-0.6s0.1-0.1,0.2-0.1c0.1,0,0.1,0,0.2,0.1c0.1,0.1,0.1,0.3,0.3,0.6
			c0.1,0.1,0.2,0.4,0.4,0.9c0.2,0.5,0.4,1.1,0.7,1.8c0.3,0.7,0.6,1.5,0.9,2.4c0.3,0.9,0.7,1.7,1,2.6c0.3,0.8,0.6,1.6,0.9,2.4
			c0.3,0.8,0.5,1.4,0.7,1.9c0.2,0.4,0.3,0.8,0.5,1.1s0.3,0.5,0.5,0.7c0.1,0.2,0.3,0.3,0.4,0.3s0.2,0.1,0.4,0.1
			c0.1,0.1,0.3,0.1,0.4,0.1c0.1,0,0.3,0,0.4,0c0.1,0,0.2,0,0.2,0.1c0,0.1,0,0.1-0.1,0.1c-0.1,0-0.2,0-0.3,0c-0.1,0-0.2,0-0.4,0
			c-0.2,0-0.4,0-0.7,0c-0.3,0-0.6,0-0.9,0c-0.3,0-0.7,0-1,0c-0.2,0-0.3,0-0.4,0c-0.1,0-0.2,0-0.2-0.1c0-0.1,0-0.1,0.1-0.1
			c0.1,0,0.1-0.1,0.2-0.2c0-0.1,0-0.2,0-0.4l-1.9-4.9c0-0.1-0.1-0.1-0.2-0.1h-4.3c-0.1,0-0.2,0.1-0.2,0.2l-1.2,3.5
			c-0.2,0.5-0.3,1-0.3,1.3c0,0.2,0.1,0.3,0.2,0.4c0.2,0.1,0.3,0.1,0.5,0.1h0.2c0.1,0,0.2,0,0.2,0.1c0,0.1-0.1,0.2-0.3,0.2
			c-0.1,0-0.3,0-0.4,0s-0.3,0-0.5,0c-0.1,0-0.3,0-0.4,0c-0.1,0-0.2,0-0.3,0s-0.2,0-0.3,0s-0.3,0-0.5,0c-0.2,0-0.4,0-0.7,0
			s-0.5,0-0.7,0c-0.3,0-0.4-0.1-0.4-0.2c0-0.1,0.1-0.1,0.2-0.1c0.1,0,0.2,0,0.3,0c0.1,0,0.2,0,0.3,0c0.5-0.1,0.8-0.3,1-0.6
			s0.4-0.8,0.6-1.3L155.3,211.4z M157.3,219.3c0.1,0,0.1,0,0.1-0.1l-1.9-5.4c-0.1-0.3-0.2-0.3-0.3,0l-1.8,5.4c0,0.1,0,0.1,0.1,0.1
			H157.3z"/>
		<path class="st1" d="M168.9,216.6c0-0.8,0-1.4,0-1.9c0-0.5,0-0.9,0-1.2c0-0.3,0-0.5,0-0.7s0-0.3,0-0.5c0-0.3-0.1-0.6-0.2-0.8
			c-0.1-0.2-0.3-0.3-0.7-0.4c-0.1,0-0.2,0-0.3,0c-0.1,0-0.3,0-0.3,0c-0.1,0-0.2,0-0.2-0.1c0-0.1,0.1-0.2,0.3-0.2c0.2,0,0.5,0,0.7,0
			s0.5,0,0.7,0s0.4,0,0.6,0c0.2,0,0.2,0,0.3,0c0.1,0,0.2,0,0.3,0c0.2,0,0.4,0,0.6,0c0.2,0,0.5,0,0.8,0s0.6,0,0.9,0
			c0.5,0,1.1,0,1.7,0c0.7,0,1.4,0.1,2.1,0.2c0.7,0.1,1.5,0.4,2.2,0.7c0.7,0.3,1.4,0.8,2,1.4c0.3,0.3,0.5,0.6,0.7,0.9
			c0.2,0.3,0.4,0.7,0.6,1.1s0.3,0.9,0.4,1.4s0.2,1.1,0.2,1.7c0,0.6-0.1,1.2-0.2,1.8c-0.1,0.6-0.3,1.1-0.5,1.5
			c-0.2,0.5-0.4,0.9-0.7,1.3c-0.3,0.4-0.5,0.7-0.8,1c-0.2,0.2-0.5,0.5-0.8,0.7c-0.3,0.3-0.8,0.5-1.2,0.7s-1.1,0.4-1.7,0.6
			c-0.7,0.2-1.4,0.2-2.3,0.2c-0.4,0-0.9,0-1.4,0c-0.5,0-1-0.1-1.4-0.1c-0.4,0-0.8-0.1-1.1-0.1c-0.3,0-0.5,0-0.5,0c0,0-0.1,0-0.3,0
			s-0.3,0-0.5,0c-0.2,0-0.4,0-0.6,0c-0.2,0-0.4,0-0.5,0c-0.2,0-0.3-0.1-0.3-0.2c0-0.1,0.1-0.1,0.2-0.1c0.1,0,0.2,0,0.3,0
			c0.1,0,0.2,0,0.3-0.1c0.2,0,0.3-0.2,0.4-0.4c0.1-0.2,0.1-0.4,0.2-0.7c0.1-0.4,0.1-1,0.1-1.8c0-0.8,0-1.6,0-2.6V216.6z
			 M170.5,218.8c0,0.5,0,1,0,1.5s0,0.9,0,1.3c0,0.4,0,0.7,0,1s0,0.4,0,0.5c0,0.1,0,0.3,0,0.4c0,0.2,0,0.3,0,0.4c0,0.1,0,0.3,0.1,0.4
			c0,0.1,0.1,0.2,0.1,0.3c0.1,0.1,0.2,0.2,0.3,0.3c0.1,0.1,0.3,0.2,0.6,0.3c0.3,0.1,0.6,0.1,1,0.2c0.4,0,0.9,0.1,1.5,0.1
			c0.9,0,1.8-0.2,2.6-0.5s1.5-0.8,2.1-1.4c0.3-0.3,0.5-0.6,0.7-0.9s0.4-0.7,0.5-1.2c0.1-0.4,0.2-0.9,0.3-1.3
			c0.1-0.5,0.1-0.9,0.1-1.4c0-0.6-0.1-1.2-0.2-1.7c-0.1-0.5-0.3-1-0.5-1.4s-0.4-0.8-0.6-1.1c-0.2-0.3-0.4-0.6-0.6-0.8
			c-0.5-0.5-1-0.9-1.5-1.2s-1.1-0.5-1.6-0.7c-0.5-0.2-1.1-0.3-1.7-0.3c-0.6,0-1.2-0.1-1.8-0.1c-0.1,0-0.2,0-0.3,0s-0.3,0-0.4,0
			c-0.1,0-0.2,0-0.3,0c-0.1,0-0.2,0-0.2,0c-0.2,0.1-0.2,0.2-0.2,0.4c0,0.2,0,0.4,0,0.7s0,0.7,0,1.1c0,0.4,0,0.8,0,1.2s0,0.8,0,1.2
			V218.8z"/>
		<path class="st1" d="M185.2,216.6c0-0.8,0-1.4,0-1.9c0-0.5,0-0.9,0-1.2c0-0.3,0-0.5,0-0.7s0-0.3,0-0.5c0-0.3-0.1-0.6-0.2-0.8
			s-0.3-0.3-0.7-0.4c-0.1,0-0.2,0-0.3,0c-0.1,0-0.3,0-0.3,0c-0.1,0-0.2,0-0.2-0.1c0-0.1,0.1-0.2,0.3-0.2c0.2,0,0.5,0,0.7,0
			s0.5,0,0.7,0l0.8,0c0,0,0.3,0,0.7,0c0.4,0,0.9,0,1.5,0c0.5,0,1.1,0,1.5,0c0.5,0,0.8,0,0.9,0c0.4,0,0.7-0.1,0.9-0.1
			c0.1,0,0.1,0,0.1-0.1c0,0,0.1,0,0.1,0c0.1,0,0.1,0.1,0.1,0.2c0,0.1,0,0.2-0.1,0.3c0,0.1-0.1,0.3-0.1,0.6c0,0.1,0,0.1,0,0.3
			s0,0.2,0,0.4c0,0.1,0,0.3,0,0.4c0,0.1,0,0.2,0,0.3c0,0.1,0,0.1,0,0.2s0,0.1-0.1,0.1c-0.1,0-0.2-0.1-0.2-0.3c0-0.1,0-0.2,0-0.3
			c0-0.1,0-0.3-0.1-0.4c-0.1-0.2-0.2-0.3-0.4-0.4c-0.2-0.1-0.5-0.2-1.1-0.3c-0.1,0-0.3,0-0.5,0c-0.3,0-0.6,0-0.9,0s-0.6,0-0.9,0
			c-0.3,0-0.4,0-0.5,0c-0.1,0-0.1,0.1-0.1,0.2v5.5c0,0.1,0,0.2,0.1,0.2c0.1,0,0.2,0,0.5,0s0.6,0,1,0c0.4,0,0.7,0,1,0
			c0.3,0,0.5,0,0.7,0c0.2,0,0.4-0.1,0.6-0.1c0.1,0,0.3-0.1,0.4-0.2c0.1-0.2,0.2-0.3,0.3-0.3c0.1,0,0.1,0.1,0.1,0.2
			c0,0.1,0,0.2-0.1,0.4c0,0.2-0.1,0.4-0.1,0.8c0,0.1,0,0.2,0,0.3c0,0.1,0,0.3,0,0.4s0,0.2,0,0.3c0,0.1,0,0.2,0,0.2
			c0,0.1,0,0.2,0,0.2c0,0.1-0.1,0.1-0.1,0.1c-0.1,0-0.1-0.1-0.1-0.2c0-0.1,0-0.2,0-0.3c0-0.1,0-0.2-0.1-0.3c0-0.1-0.1-0.3-0.3-0.4
			c-0.1-0.1-0.4-0.2-0.8-0.3c-0.1,0-0.3,0-0.6,0c-0.3,0-0.6,0-0.9,0s-0.6,0-0.8,0s-0.4,0-0.5,0c-0.1,0-0.1,0-0.1,0.1v1.8
			c0,0.2,0,0.4,0,0.8s0,0.7,0,1c0,0.4,0,0.7,0,1c0,0.3,0,0.5,0,0.6c0,0.3,0,0.6,0.1,0.8c0.1,0.2,0.2,0.4,0.3,0.5
			c0.2,0.1,0.4,0.2,0.7,0.2s0.7,0.1,1.2,0.1c0.3,0,0.6,0,1,0c0.4,0,0.7-0.1,1-0.2c0.3-0.1,0.5-0.3,0.6-0.5c0.1-0.2,0.2-0.5,0.3-0.9
			c0-0.2,0.1-0.3,0.2-0.3c0.1,0,0.1,0,0.1,0.1s0,0.1,0,0.2c0,0,0,0.1,0,0.3c0,0.2,0,0.4-0.1,0.6c0,0.2-0.1,0.4-0.1,0.6
			c0,0.2-0.1,0.4-0.1,0.5c0,0.1-0.1,0.2-0.1,0.3s-0.1,0.1-0.2,0.1s-0.2,0.1-0.3,0.1c-0.1,0-0.3,0-0.5,0c-0.8,0-1.4,0-2,0
			c-0.6,0-1,0-1.4,0c-0.4,0-0.7,0-1,0c-0.3,0-0.5,0-0.6,0c0,0-0.1,0-0.3,0s-0.3,0-0.5,0c-0.2,0-0.4,0-0.6,0c-0.2,0-0.4,0-0.5,0
			c-0.2,0-0.3-0.1-0.3-0.2c0-0.1,0.1-0.1,0.2-0.1c0.1,0,0.2,0,0.3,0c0.1,0,0.2,0,0.3-0.1c0.2,0,0.3-0.2,0.4-0.4
			c0.1-0.2,0.1-0.4,0.2-0.7c0.1-0.4,0.1-1,0.1-1.8c0-0.8,0-1.6,0-2.6V216.6z"/>
	</g>
	<g class="st0">
		<path class="st1" d="M201.5,220.2c0,1.5,0,2.6,0.1,3.3c0.1,0.7,0.2,1.1,0.4,1.3c0.1,0.1,0.2,0.2,0.3,0.2s0.3,0.1,0.4,0.1
			c0.2,0,0.4,0.1,0.7,0.1c0.3,0,0.6,0,1,0c0.5,0,1,0,1.4-0.1c0.4-0.1,0.7-0.2,1-0.5c0.1-0.2,0.2-0.4,0.3-0.6
			c0.1-0.2,0.2-0.4,0.2-0.6c0-0.2,0.1-0.3,0.2-0.3c0.1,0,0.1,0.1,0.1,0.3c0,0.1,0,0.2,0,0.3c0,0.2,0,0.3-0.1,0.5
			c0,0.2-0.1,0.4-0.1,0.6c0,0.2-0.1,0.4-0.1,0.5c0,0.1-0.1,0.2-0.1,0.3s-0.1,0.1-0.2,0.2c-0.1,0-0.2,0.1-0.3,0.1c-0.2,0-0.4,0-0.6,0
			c-0.7,0-1.3,0-1.9,0c-0.5,0-1,0-1.4,0c-0.4,0-0.8,0-1.1,0c-0.3,0-0.6,0-0.9,0c0,0-0.1,0-0.3,0c-0.2,0-0.3,0-0.5,0
			c-0.2,0-0.4,0-0.6,0c-0.2,0-0.4,0-0.5,0c-0.2,0-0.3-0.1-0.3-0.2c0-0.1,0.1-0.1,0.2-0.1c0.1,0,0.2,0,0.3,0c0.1,0,0.2,0,0.3-0.1
			c0.2,0,0.3-0.2,0.4-0.4c0.1-0.2,0.1-0.4,0.2-0.7c0.1-0.4,0.1-1,0.1-1.8c0-0.8,0-1.6,0-2.6v-3.5c0-0.8,0-1.4,0-1.9
			c0-0.5,0-0.9,0-1.2c0-0.3,0-0.5,0-0.7s0-0.3,0-0.5c0-0.3-0.1-0.6-0.2-0.8c-0.1-0.2-0.3-0.3-0.7-0.4c-0.1,0-0.2,0-0.3,0
			s-0.3,0-0.3,0c-0.1,0-0.2,0-0.2-0.1c0-0.1,0.1-0.2,0.3-0.2c0.2,0,0.5,0,0.7,0s0.5,0,0.7,0s0.4,0,0.6,0s0.2,0,0.3,0
			c0,0,0.1,0,0.3,0s0.4,0,0.6,0s0.5,0,0.7,0c0.2,0,0.4,0,0.6,0c0.2,0,0.3,0.1,0.3,0.2c0,0.1-0.1,0.1-0.2,0.1c-0.1,0-0.2,0-0.3,0
			c-0.1,0-0.2,0-0.4,0c-0.3,0.1-0.5,0.2-0.6,0.3s-0.2,0.4-0.2,0.8c0,0.2,0,0.3,0,0.5s0,0.4,0,0.7c0,0.3,0,0.7,0,1.2
			c0,0.5,0,1.1,0,1.9V220.2z"/>
	</g>
	<g class="st0">
		<path class="st1" d="M207.1,216.7c0.1-0.6,0.3-1.2,0.6-1.8c0.3-0.6,0.6-1.1,1-1.7c0.4-0.5,0.9-1,1.5-1.4c0.6-0.4,1.3-0.7,2-0.9
			c0.7-0.2,1.6-0.3,2.5-0.3c1.1,0,2.2,0.2,3.1,0.5c1,0.3,1.8,0.8,2.5,1.5c0.7,0.6,1.2,1.4,1.6,2.4s0.6,2,0.6,3.1
			c0,1.1-0.2,2.2-0.6,3.2c-0.4,1-0.9,1.9-1.6,2.6c-0.7,0.7-1.5,1.3-2.5,1.8c-1,0.4-2.1,0.6-3.3,0.6c-1.4,0-2.5-0.2-3.5-0.7
			c-1-0.5-1.8-1.1-2.4-1.9c-0.6-0.8-1.1-1.6-1.4-2.5c-0.3-0.9-0.4-1.8-0.4-2.7C206.9,217.9,207,217.3,207.1,216.7z M209.3,221
			c0.3,0.9,0.8,1.8,1.4,2.4c0.6,0.7,1.3,1.2,2,1.5s1.6,0.5,2.5,0.5c0.5,0,1-0.1,1.6-0.2c0.6-0.2,1.2-0.5,1.8-1
			c0.6-0.5,1.1-1.2,1.5-2.1c0.4-0.9,0.6-2.1,0.6-3.5c0-1.2-0.2-2.3-0.5-3.2s-0.8-1.7-1.3-2.3c-0.6-0.6-1.2-1.1-1.9-1.4
			c-0.7-0.3-1.5-0.5-2.3-0.5c-0.8,0-1.6,0.1-2.3,0.4c-0.7,0.3-1.3,0.7-1.8,1.2s-0.9,1.2-1.2,2.1c-0.3,0.8-0.4,1.8-0.4,2.9
			C208.8,219,209,220,209.3,221z"/>
		<path class="st1" d="M225.5,226.1c-0.5-0.1-0.9-0.2-1.3-0.4c-0.1-0.1-0.2-0.1-0.3-0.2c0-0.1,0-0.3,0-0.5c0-0.5,0-0.9,0-1.3
			c0-0.4,0-0.6,0.1-0.8c0-0.2,0.1-0.3,0.2-0.3c0.1,0,0.1,0.1,0.1,0.2c0,0.1,0,0.2,0,0.3c0,0.1,0,0.3,0,0.4c0.1,0.4,0.2,0.7,0.4,0.9
			c0.2,0.3,0.4,0.5,0.7,0.6c0.3,0.2,0.6,0.3,0.9,0.3c0.3,0.1,0.6,0.1,1,0.1c0.5,0,0.9-0.1,1.3-0.2c0.4-0.2,0.7-0.4,0.9-0.6
			c0.2-0.2,0.4-0.5,0.5-0.8c0.1-0.3,0.2-0.6,0.2-1c0-0.3,0-0.7-0.1-0.9s-0.2-0.6-0.4-0.8c-0.2-0.3-0.4-0.6-0.7-0.8
			c-0.3-0.3-0.7-0.6-1.1-1l-0.9-0.7c-0.5-0.4-1-0.8-1.3-1.2c-0.3-0.4-0.6-0.7-0.8-1.1c-0.2-0.4-0.3-0.7-0.4-1
			c-0.1-0.3-0.1-0.7-0.1-1c0-0.5,0.1-1,0.3-1.5c0.2-0.4,0.5-0.8,0.8-1.1c0.4-0.3,0.8-0.6,1.3-0.7c0.5-0.2,1.1-0.3,1.7-0.3
			c0.4,0,0.7,0,1,0c0.3,0,0.6,0.1,0.8,0.1c0.2,0,0.3,0.1,0.4,0.1c0.1,0,0.2,0,0.3,0c0.1,0,0.2,0,0.2,0.1c0,0.1,0,0.2,0,0.6
			c0,0.3,0,0.8,0,1.5c0,0.3,0,0.5-0.1,0.5c-0.1,0-0.1,0-0.1-0.1c0,0,0-0.1,0-0.2c0-0.1,0-0.3-0.1-0.5c0-0.2-0.1-0.4-0.2-0.5
			c0-0.1-0.1-0.1-0.2-0.3c-0.1-0.1-0.2-0.2-0.4-0.4c-0.2-0.1-0.4-0.2-0.8-0.3c-0.3-0.1-0.7-0.1-1.1-0.1c-0.7,0-1.3,0.2-1.7,0.6
			s-0.7,1-0.7,1.7c0,0.3,0,0.5,0.1,0.8c0.1,0.2,0.2,0.5,0.4,0.7c0.2,0.3,0.4,0.5,0.7,0.8c0.3,0.3,0.7,0.6,1.2,1l0.6,0.4
			c0.6,0.5,1.1,0.9,1.4,1.3s0.7,0.8,0.9,1.1s0.4,0.7,0.4,1.1s0.1,0.7,0.1,1.1c0,0.2,0,0.4-0.1,0.7c0,0.3-0.1,0.6-0.3,0.9
			s-0.3,0.6-0.5,0.9s-0.5,0.6-0.8,0.8c-0.4,0.3-0.9,0.5-1.4,0.6c-0.5,0.1-1.1,0.2-1.6,0.2C226.4,226.2,226,226.2,225.5,226.1z"/>
		<path class="st1" d="M242.3,211.4c0.1-0.3,0.2-0.5,0.3-0.6c0.1-0.1,0.1-0.1,0.2-0.1s0.1,0,0.2,0.1c0.1,0.1,0.1,0.3,0.3,0.6
			c0.1,0.1,0.2,0.4,0.4,0.9c0.2,0.5,0.4,1.1,0.7,1.8c0.3,0.7,0.6,1.5,0.9,2.4c0.3,0.9,0.7,1.7,1,2.6c0.3,0.8,0.6,1.6,0.9,2.4
			c0.3,0.8,0.5,1.4,0.8,1.9c0.2,0.4,0.3,0.8,0.5,1.1c0.2,0.3,0.3,0.5,0.5,0.7s0.3,0.3,0.4,0.3c0.1,0.1,0.2,0.1,0.3,0.1
			c0.1,0.1,0.3,0.1,0.4,0.1c0.1,0,0.3,0,0.4,0c0.1,0,0.2,0,0.2,0.1c0,0.1,0,0.1-0.1,0.1c-0.1,0-0.2,0-0.3,0c-0.1,0-0.2,0-0.4,0
			c-0.2,0-0.4,0-0.7,0c-0.3,0-0.6,0-0.9,0c-0.3,0-0.7,0-1,0c-0.2,0-0.3,0-0.4,0c-0.1,0-0.2,0-0.2-0.1c0-0.1,0-0.1,0.1-0.1
			c0.1,0,0.1-0.1,0.2-0.2c0-0.1,0-0.2,0-0.4l-1.9-4.9c0-0.1-0.1-0.1-0.2-0.1h-4.3c-0.1,0-0.2,0.1-0.2,0.2l-1.2,3.5
			c-0.2,0.5-0.3,1-0.3,1.3c0,0.2,0.1,0.3,0.2,0.4c0.2,0.1,0.3,0.1,0.5,0.1h0.2c0.1,0,0.2,0,0.2,0.1c0,0.1-0.1,0.2-0.3,0.2
			c-0.1,0-0.3,0-0.4,0c-0.2,0-0.3,0-0.5,0c-0.1,0-0.3,0-0.4,0c-0.1,0-0.2,0-0.3,0c-0.1,0-0.2,0-0.3,0s-0.3,0-0.5,0
			c-0.2,0-0.4,0-0.7,0c-0.2,0-0.5,0-0.7,0c-0.3,0-0.4-0.1-0.4-0.2c0-0.1,0.1-0.1,0.2-0.1c0.1,0,0.2,0,0.3,0c0.1,0,0.2,0,0.3,0
			c0.5-0.1,0.8-0.3,1-0.6c0.2-0.3,0.4-0.8,0.6-1.3L242.3,211.4z M244.3,219.3c0.1,0,0.1,0,0.1-0.1l-1.9-5.4c-0.1-0.3-0.2-0.3-0.3,0
			l-1.8,5.4c0,0.1,0,0.1,0.1,0.1H244.3z"/>
	</g>
	<g class="st0">
		<path class="st1" d="M253,220.2c0,1.5,0,2.6,0.1,3.3c0.1,0.7,0.2,1.1,0.4,1.3c0.1,0.1,0.2,0.2,0.3,0.2s0.3,0.1,0.4,0.1
			c0.2,0,0.4,0.1,0.7,0.1c0.3,0,0.6,0,1,0c0.5,0,1,0,1.4-0.1c0.4-0.1,0.7-0.2,1-0.5c0.1-0.2,0.2-0.4,0.3-0.6
			c0.1-0.2,0.2-0.4,0.2-0.6c0-0.2,0.1-0.3,0.2-0.3c0.1,0,0.1,0.1,0.1,0.3c0,0.1,0,0.2,0,0.3c0,0.2,0,0.3-0.1,0.5
			c0,0.2-0.1,0.4-0.1,0.6c0,0.2-0.1,0.4-0.1,0.5c0,0.1-0.1,0.2-0.1,0.3s-0.1,0.1-0.2,0.2c-0.1,0-0.2,0.1-0.3,0.1c-0.2,0-0.4,0-0.6,0
			c-0.7,0-1.3,0-1.9,0c-0.5,0-1,0-1.4,0c-0.4,0-0.8,0-1.1,0c-0.3,0-0.6,0-0.9,0c0,0-0.1,0-0.3,0c-0.2,0-0.3,0-0.5,0
			c-0.2,0-0.4,0-0.6,0c-0.2,0-0.4,0-0.5,0c-0.2,0-0.3-0.1-0.3-0.2c0-0.1,0.1-0.1,0.2-0.1c0.1,0,0.2,0,0.3,0c0.1,0,0.2,0,0.3-0.1
			c0.2,0,0.3-0.2,0.4-0.4c0.1-0.2,0.1-0.4,0.2-0.7c0.1-0.4,0.1-1,0.1-1.8c0-0.8,0-1.6,0-2.6v-3.5c0-0.8,0-1.4,0-1.9
			c0-0.5,0-0.9,0-1.2c0-0.3,0-0.5,0-0.7s0-0.3,0-0.5c0-0.3-0.1-0.6-0.2-0.8c-0.1-0.2-0.3-0.3-0.7-0.4c-0.1,0-0.2,0-0.3,0
			s-0.3,0-0.3,0c-0.1,0-0.2,0-0.2-0.1c0-0.1,0.1-0.2,0.3-0.2c0.2,0,0.5,0,0.7,0s0.5,0,0.7,0s0.4,0,0.6,0s0.2,0,0.3,0
			c0,0,0.1,0,0.3,0s0.4,0,0.6,0s0.5,0,0.7,0c0.2,0,0.4,0,0.6,0c0.2,0,0.3,0.1,0.3,0.2c0,0.1-0.1,0.1-0.2,0.1c-0.1,0-0.2,0-0.3,0
			c-0.1,0-0.2,0-0.4,0c-0.3,0.1-0.5,0.2-0.6,0.3s-0.2,0.4-0.2,0.8c0,0.2,0,0.3,0,0.5s0,0.4,0,0.7c0,0.3,0,0.7,0,1.2
			c0,0.5,0,1.1,0,1.9V220.2z"/>
	</g>
	<g class="st0">
		<path class="st1" d="M259.9,216.6c0-0.8,0-1.4,0-1.9c0-0.5,0-0.9,0-1.2c0-0.3,0-0.5,0-0.7s0-0.3,0-0.5c0-0.3-0.1-0.6-0.2-0.8
			s-0.3-0.3-0.7-0.4c-0.1,0-0.2,0-0.3,0s-0.3,0-0.3,0c-0.1,0-0.2,0-0.2-0.1c0-0.1,0.1-0.2,0.3-0.2c0.2,0,0.5,0,0.7,0s0.5,0,0.7,0
			s0.4,0,0.6,0c0.2,0,0.3,0,0.3,0s0.1,0,0.3,0c0.2,0,0.3,0,0.5,0s0.4,0,0.6,0c0.2,0,0.4,0,0.5,0c0.2,0,0.3,0.1,0.3,0.2
			c0,0.1-0.1,0.1-0.2,0.1c-0.1,0-0.1,0-0.2,0s-0.2,0-0.3,0c-0.3,0-0.4,0.2-0.5,0.3c-0.1,0.2-0.2,0.5-0.2,0.8c0,0.2,0,0.3,0,0.5
			c0,0.2,0,0.4,0,0.7c0,0.3,0,0.7,0,1.2c0,0.5,0,1.1,0,1.9v2.8c0,0.7,0,1.3,0.1,1.9s0.2,1,0.3,1.4c0.1,0.4,0.3,0.7,0.5,1
			c0.2,0.3,0.4,0.5,0.6,0.7c0.5,0.5,1,0.8,1.4,0.9s1,0.2,1.6,0.2c0.6,0,1.2-0.1,1.8-0.4s1-0.6,1.4-1c0.5-0.6,0.8-1.3,0.9-2.1
			c0.2-0.8,0.2-1.8,0.2-2.8v-2.5c0-0.8,0-1.4,0-1.9c0-0.5,0-0.9,0-1.2c0-0.3,0-0.5,0-0.7s0-0.3,0-0.5c0-0.3-0.1-0.6-0.2-0.8
			c-0.1-0.2-0.3-0.3-0.7-0.4c-0.1,0-0.2,0-0.3,0s-0.3,0-0.3,0c-0.1,0-0.2,0-0.2-0.1c0-0.1,0.1-0.2,0.3-0.2c0.2,0,0.5,0,0.7,0
			c0.2,0,0.5,0,0.7,0c0.2,0,0.4,0,0.5,0c0.1,0,0.2,0,0.2,0c0,0,0.1,0,0.2,0c0.1,0,0.3,0,0.4,0c0.2,0,0.3,0,0.5,0c0.2,0,0.3,0,0.5,0
			c0.2,0,0.3,0.1,0.3,0.2c0,0.1-0.1,0.1-0.2,0.1c-0.1,0-0.1,0-0.2,0c-0.1,0-0.2,0-0.3,0c-0.3,0.1-0.4,0.2-0.5,0.4
			c-0.1,0.2-0.2,0.4-0.2,0.8c0,0.2,0,0.3,0,0.5s0,0.4,0,0.7c0,0.3,0,0.7,0,1.2c0,0.5,0,1.1,0,1.9v2.1c0,0.5,0,1.1-0.1,1.6
			s-0.1,1.1-0.3,1.6c-0.1,0.5-0.3,1-0.6,1.5c-0.2,0.5-0.6,0.9-1,1.2c-0.4,0.3-0.7,0.6-1.1,0.8c-0.4,0.2-0.7,0.3-1.1,0.5
			s-0.7,0.2-1,0.2c-0.3,0-0.6,0-0.9,0c-0.2,0-0.4,0-0.7,0c-0.3,0-0.7-0.1-1-0.2s-0.8-0.2-1.2-0.4c-0.4-0.2-0.8-0.5-1.1-0.8
			c-0.2-0.2-0.5-0.5-0.7-0.8c-0.2-0.3-0.4-0.7-0.6-1.1c-0.2-0.4-0.3-0.9-0.4-1.4c-0.1-0.5-0.1-1.2-0.1-1.9V216.6z"/>
	</g>
	<g class="st0">
		<path class="st1" d="M290.2,223.4c0,0.2,0,0.4,0.1,0.6s0.1,0.4,0.2,0.6c0.1,0.2,0.2,0.4,0.3,0.5c0.1,0.2,0.3,0.3,0.5,0.3
			c0.3,0.1,0.6,0.1,0.8,0.2c0.2,0,0.4,0,0.5,0s0.2,0,0.2,0.1c0,0.1,0,0.1-0.1,0.1c-0.1,0-0.2,0-0.3,0c-0.1,0-0.3,0-0.6,0s-0.6,0-1,0
			c-0.3,0-0.7,0-1,0c-0.3,0-0.6,0-0.8,0c-0.2,0-0.4-0.1-0.4-0.1c-0.1,0-0.1-0.1-0.1-0.1c0-0.1,0-0.1,0.1-0.1c0.1,0,0.1-0.1,0.1-0.2
			c0-0.1,0-0.3,0-0.5l-1-10.3h-0.1l-4.9,10.4c-0.2,0.4-0.4,0.7-0.4,0.9c-0.1,0.1-0.1,0.2-0.2,0.2c-0.1,0-0.1-0.1-0.2-0.2
			c-0.1-0.1-0.2-0.4-0.4-0.7c-0.1-0.2-0.3-0.6-0.6-1.1c-0.2-0.5-0.5-1-0.8-1.5c-0.3-0.5-0.5-1-0.7-1.3c-0.2-0.4-0.3-0.6-0.3-0.7
			c0-0.1-0.1-0.2-0.2-0.5c-0.1-0.3-0.3-0.6-0.5-1c-0.2-0.4-0.4-0.8-0.6-1.3s-0.4-0.9-0.6-1.3c-0.2-0.4-0.3-0.7-0.5-1
			s-0.2-0.5-0.3-0.6h-0.1l-0.8,9.3c0,0.2,0,0.3,0,0.5c0,0.2,0,0.3,0,0.5c0,0.1,0,0.3,0.2,0.4c0.1,0.1,0.2,0.2,0.4,0.2
			c0.2,0,0.3,0.1,0.5,0.1c0.1,0,0.2,0,0.3,0c0.1,0,0.2,0,0.2,0.1c0,0.1-0.1,0.2-0.4,0.2c-0.2,0-0.4,0-0.6,0c-0.2,0-0.4,0-0.6,0
			c-0.2,0-0.3,0-0.5,0c-0.1,0-0.2,0-0.2,0s-0.1,0-0.3,0s-0.3,0-0.4,0c-0.2,0-0.3,0-0.5,0c-0.2,0-0.3,0-0.5,0c-0.2,0-0.3-0.1-0.3-0.2
			c0-0.1,0.1-0.1,0.2-0.1c0.1,0,0.2,0,0.2,0c0.1,0,0.2,0,0.3,0c0.3-0.1,0.5-0.3,0.6-0.6s0.1-0.7,0.2-1.1l1.4-13
			c0-0.2,0.1-0.4,0.2-0.4c0.1,0,0.2,0.1,0.3,0.3l6.1,12.6l5.9-12.5c0.1-0.2,0.2-0.3,0.3-0.3c0.1,0,0.2,0.2,0.2,0.5L290.2,223.4z"/>
		<path class="st1" d="M294.8,223.2c0,0.4,0,0.8,0.1,1c0,0.3,0.1,0.5,0.1,0.7s0.1,0.3,0.2,0.4c0.1,0.1,0.2,0.2,0.3,0.2
			c0.2,0.1,0.4,0.1,0.6,0.1c0.2,0,0.3,0,0.4,0c0.1,0,0.2,0,0.2,0.1c0,0.1-0.1,0.2-0.4,0.2c-0.6,0-1,0-1.4,0c-0.4,0-0.6,0-0.7,0
			c-0.1,0-0.3,0-0.7,0c-0.4,0-0.8,0-1.2,0c-0.2,0-0.3-0.1-0.3-0.2c0-0.1,0.1-0.1,0.2-0.1c0.1,0,0.2,0,0.4,0c0.2,0,0.3,0,0.5-0.1
			c0.3-0.1,0.4-0.3,0.5-0.6c0.1-0.4,0.1-1,0.1-1.9l0-11.4c0-0.4,0-0.6,0-0.8c0-0.1,0.1-0.2,0.2-0.2c0.1,0,0.2,0.1,0.3,0.2
			c0.1,0.2,0.3,0.3,0.4,0.4c0.1,0.1,0.3,0.3,0.7,0.7c0.4,0.4,0.9,0.9,1.4,1.6s1.2,1.3,2,2.1c0.7,0.8,1.5,1.6,2.2,2.4
			c0.5,0.5,1,1.1,1.5,1.6c0.5,0.5,1,1.1,1.4,1.5c0.4,0.5,0.8,0.9,1.2,1.3c0.3,0.4,0.6,0.6,0.7,0.8l-0.2-10.2c0-0.7-0.1-1.1-0.2-1.4
			c-0.1-0.3-0.3-0.4-0.6-0.5c-0.2,0-0.4-0.1-0.6-0.1c-0.2,0-0.3,0-0.4,0c-0.1,0-0.2,0-0.2-0.1c0-0.1,0.1-0.1,0.4-0.1
			c0.2,0,0.4,0,0.7,0s0.4,0,0.6,0c0.2,0,0.4,0,0.5,0s0.2,0,0.3,0c0.1,0,0.3,0,0.6,0c0.3,0,0.7,0,1.1,0c0.2,0,0.4,0,0.4,0.1
			c0,0.1-0.1,0.1-0.2,0.1c-0.1,0-0.1,0-0.2,0c-0.1,0-0.2,0-0.3,0c-0.3,0.1-0.5,0.2-0.6,0.5s-0.1,0.7-0.1,1.3l0,11.7
			c0,0.3,0,0.6,0,0.8c0,0.2,0,0.3,0,0.4c0,0.1,0,0.2-0.1,0.2c0,0,0,0-0.1,0c0,0-0.1,0-0.1-0.1s-0.1-0.1-0.2-0.2
			c-0.1-0.1-0.2-0.2-0.4-0.4c-0.2-0.2-0.4-0.4-0.6-0.6c-0.1-0.1-0.3-0.3-0.6-0.6c-0.4-0.4-0.8-0.8-1.3-1.3c-0.5-0.5-1.1-1.1-1.6-1.7
			c-0.6-0.6-1.1-1.2-1.7-1.8c-0.6-0.6-1.2-1.2-1.7-1.8c-0.6-0.6-1.1-1.2-1.5-1.7c-0.5-0.5-0.9-1-1.2-1.3c-0.3-0.4-0.6-0.7-0.8-0.8
			L294.8,223.2z"/>
		<path class="st1" d="M309.2,216.7c0.1-0.6,0.3-1.2,0.6-1.8c0.3-0.6,0.6-1.1,1-1.7c0.4-0.5,0.9-1,1.5-1.4c0.6-0.4,1.3-0.7,2-0.9
			c0.7-0.2,1.6-0.3,2.5-0.3c1.1,0,2.2,0.2,3.1,0.5c1,0.3,1.8,0.8,2.5,1.5c0.7,0.6,1.2,1.4,1.6,2.4c0.4,0.9,0.6,2,0.6,3.1
			c0,1.1-0.2,2.2-0.6,3.2c-0.4,1-0.9,1.9-1.6,2.6s-1.5,1.3-2.5,1.8s-2.1,0.6-3.3,0.6c-1.4,0-2.5-0.2-3.5-0.7c-1-0.5-1.8-1.1-2.4-1.9
			c-0.6-0.8-1.1-1.6-1.4-2.5c-0.3-0.9-0.4-1.8-0.4-2.7C309,217.9,309,217.3,309.2,216.7z M311.3,221c0.3,0.9,0.8,1.8,1.4,2.4
			c0.6,0.7,1.3,1.2,2,1.5s1.6,0.5,2.5,0.5c0.5,0,1-0.1,1.6-0.2c0.6-0.2,1.2-0.5,1.8-1s1.1-1.2,1.5-2.1c0.4-0.9,0.6-2.1,0.6-3.5
			c0-1.2-0.2-2.3-0.5-3.2c-0.3-0.9-0.8-1.7-1.3-2.3c-0.6-0.6-1.2-1.1-1.9-1.4c-0.7-0.3-1.5-0.5-2.3-0.5c-0.8,0-1.6,0.1-2.3,0.4
			c-0.7,0.3-1.3,0.7-1.8,1.2c-0.5,0.6-0.9,1.2-1.2,2.1c-0.3,0.8-0.4,1.8-0.4,2.9C310.9,219,311,220,311.3,221z"/>
		<path class="st1" d="M327.5,226.1c-0.5-0.1-0.9-0.2-1.3-0.4c-0.1-0.1-0.2-0.1-0.3-0.2c0-0.1,0-0.3,0-0.5c0-0.5,0-0.9,0-1.3
			c0-0.4,0-0.6,0.1-0.8c0-0.2,0.1-0.3,0.2-0.3c0.1,0,0.1,0.1,0.1,0.2c0,0.1,0,0.2,0,0.3c0,0.1,0,0.3,0,0.4c0.1,0.4,0.2,0.7,0.4,0.9
			c0.2,0.3,0.4,0.5,0.7,0.6c0.3,0.2,0.6,0.3,0.9,0.3c0.3,0.1,0.6,0.1,1,0.1c0.5,0,0.9-0.1,1.3-0.2c0.4-0.2,0.7-0.4,0.9-0.6
			c0.2-0.2,0.4-0.5,0.5-0.8c0.1-0.3,0.2-0.6,0.2-1c0-0.3,0-0.7-0.1-0.9s-0.2-0.6-0.4-0.8c-0.2-0.3-0.4-0.6-0.7-0.8
			c-0.3-0.3-0.7-0.6-1.1-1l-0.9-0.7c-0.5-0.4-1-0.8-1.3-1.2c-0.3-0.4-0.6-0.7-0.8-1.1s-0.3-0.7-0.4-1c-0.1-0.3-0.1-0.7-0.1-1
			c0-0.5,0.1-1,0.3-1.5s0.5-0.8,0.8-1.1c0.4-0.3,0.8-0.6,1.3-0.7c0.5-0.2,1.1-0.3,1.7-0.3c0.4,0,0.7,0,1,0c0.3,0,0.6,0.1,0.8,0.1
			c0.2,0,0.3,0.1,0.4,0.1c0.1,0,0.2,0,0.3,0c0.1,0,0.2,0,0.2,0.1c0,0.1,0,0.2,0,0.6s0,0.8,0,1.5c0,0.3,0,0.5-0.1,0.5
			c-0.1,0-0.1,0-0.1-0.1c0,0,0-0.1,0-0.2c0-0.1,0-0.3-0.1-0.5s-0.1-0.4-0.2-0.5c0-0.1-0.1-0.1-0.2-0.3s-0.2-0.2-0.4-0.4
			c-0.2-0.1-0.4-0.2-0.7-0.3c-0.3-0.1-0.7-0.1-1.1-0.1c-0.7,0-1.3,0.2-1.7,0.6s-0.7,1-0.7,1.7c0,0.3,0,0.5,0.1,0.8
			c0.1,0.2,0.2,0.5,0.4,0.7c0.2,0.3,0.4,0.5,0.7,0.8s0.7,0.6,1.2,1l0.6,0.4c0.6,0.5,1.1,0.9,1.4,1.3c0.4,0.4,0.7,0.8,0.9,1.1
			c0.2,0.4,0.4,0.7,0.4,1.1s0.1,0.7,0.1,1.1c0,0.2,0,0.4-0.1,0.7c0,0.3-0.1,0.6-0.3,0.9c-0.1,0.3-0.3,0.6-0.5,0.9s-0.5,0.6-0.8,0.8
			c-0.4,0.3-0.9,0.5-1.4,0.6c-0.5,0.1-1.1,0.2-1.6,0.2C328.4,226.2,328,226.2,327.5,226.1z"/>
	</g>
	<line class="st2" x1="26.3" y1="199.2" x2="335.7" y2="199.2"/>
	<line class="st2" x1="130" y1="137.7" x2="335.7" y2="137.7"/>
	<g class="st0">
		<path class="st1" d="M34.2,130.2v2.5h-2.7v5.9h-2.7v-5.9h-2.7v-2.5H34.2z"/>
		<path class="st1" d="M33.6,138.6v-5.9h-1.7v-2.5h8.9v2.5h-4.5v1h2.9v1.5h-2.9v1h5.2v2.5H33.6z"/>
		<path class="st1" d="M40.7,138.6l2.8-8.4h4.2l2.8,8.4h-3.2l-0.5-1.5h-2.5l-0.5,1.5H40.7z M45.6,132.1l-1.2,3.3h2.3L45.6,132.1z"/>
		<path class="st1" d="M52.8,134.3c0,0.5,0.1,0.8,0.3,1s0.4,0.4,0.6,0.6c0.2,0.1,0.6,0.2,1.1,0.3c0.5,0,0.9-0.1,1.1-0.2
			c0.2-0.1,0.5-0.3,0.7-0.5l1.6,1.8c-0.5,0.4-1,0.8-1.4,0.9c-0.5,0.2-1.2,0.3-2.1,0.3c-0.9,0-1.5-0.2-2-0.4
			c-0.4-0.2-0.9-0.5-1.3-0.8c-0.4-0.3-0.8-0.8-1-1.3c-0.2-0.5-0.4-1.1-0.4-1.8c0-0.7,0.1-1.3,0.4-1.8c0.2-0.5,0.6-0.9,1-1.3
			c0.4-0.3,0.9-0.6,1.3-0.8c0.4-0.2,1.1-0.3,2-0.4c0.9,0,1.6,0.2,2.1,0.3s0.9,0.5,1.4,0.9l-1.6,1.8c-0.3-0.2-0.5-0.4-0.7-0.5
			c-0.2-0.1-0.6-0.2-1.1-0.2c-0.5,0.1-0.8,0.2-1.1,0.3c-0.2,0.1-0.4,0.3-0.6,0.6S52.8,133.9,52.8,134.3z"/>
		<path class="st1" d="M63.5,133.1v-2.9h2.7v8.4h-2.7v-3h-2.2v3h-2.7v-5.9h-1.7v-2.5h4.5v2.9H63.5z"/>
		<path class="st1" d="M66.8,138.6v-5.9h-1.7v-2.5H74v2.5h-4.5v1h2.9v1.5h-2.9v1h5.2v2.5H66.8z"/>
		<path class="st1" d="M74.7,138.6v-8.4h5.5c0.7,0.1,1.2,0.2,1.7,0.5c0.4,0.3,0.8,0.7,1,1.2c0.2,0.7,0.2,1.3,0,1.7
			c-0.1,0.4-0.4,0.7-0.7,1s-0.8,0.5-1.5,0.6l0.6,0.8h4.5v2.5h-5.3l-2.7-2.8v2.8H74.7z M77.8,132.3v1.5h2.1c0.1,0,0.2,0,0.4-0.1
			s0.2-0.3,0.2-0.6c0-0.3-0.1-0.5-0.2-0.6c-0.1-0.1-0.3-0.2-0.3-0.2H77.8z"/>
		<path class="st1" d="M94.3,135.1l-0.9,3.6h-2.7l-2.6-8.4h2.7l1.2,3.6l1-3.6h2.5l1.2,3.6l0.8-3.6h2.7l-2.1,8.4h-2.7L94.3,135.1z"/>
		<path class="st1" d="M98.9,138.6l2.8-8.4h4.2l2.8,8.4h-3.2l-0.5-1.5h-2.5l-0.5,1.5H98.9z M103.8,132.1l-1.2,3.3h2.3L103.8,132.1z"
			/>
		<path class="st1" d="M108.5,138.6v-8.4h5.5c0.7,0.1,1.2,0.2,1.7,0.5c0.4,0.3,0.8,0.7,1,1.2c0.2,0.7,0.2,1.3,0,1.7
			c-0.1,0.4-0.4,0.7-0.7,1s-0.8,0.5-1.5,0.6l0.6,0.8h4.5v2.5h-5.3l-2.7-2.8v2.8H108.5z M111.6,132.3v1.5h2.1c0.1,0,0.2,0,0.4-0.1
			s0.2-0.3,0.2-0.6c0-0.3-0.1-0.5-0.2-0.6c-0.1-0.1-0.3-0.2-0.3-0.2H111.6z"/>
		<path class="st1" d="M124.7,132.7h-2.6c-1,0-1.1,0.2-0.4,0.8c1.3,1.1,1.9,2.2,1.8,3.2c0,1-0.6,1.7-1.8,1.9h-7.3v-2.5h4.6
			c1.1,0,1.2-0.3,0.4-0.9c-1.3-1.2-1.9-2.4-1.7-3.4c0.2-1,0.8-1.6,1.9-1.6h5.2V132.7z"/>
	</g>
</g>
</svg>
