<?xml version="1.0" encoding="utf-8"?>
<!-- Generator: Adobe Illustrator 22.1.0, SVG Export Plug-In . SVG Version: 6.00 Build 0)  -->
<svg version="1.1" id="Capa_1" xmlns="http://www.w3.org/2000/svg" xmlns:xlink="http://www.w3.org/1999/xlink" x="0px" y="0px"
	 viewBox="0 0 359.5 359.5" style="enable-background:new 0 0 359.5 359.5;" xml:space="preserve">
<style type="text/css">
	.st0{enable-background:new    ;}
	.st1{fill:#FFFFFF;}
	.st2{fill:none;stroke:#FFFFFF;stroke-width:2;stroke-miterlimit:10;}
</style>
<title>episode-V-featured</title>
<g id="Episodio_V">
	<g class="st0">
		<path class="st1" d="M36.2,163.1c0-7.3,0-8.7-0.1-10.2c-0.1-1.6-0.5-2.4-2.1-2.7c-0.4-0.1-1.2-0.1-1.9-0.1c-0.5,0-0.8-0.1-0.8-0.4
			s0.3-0.4,1.1-0.4c1.3,0,2.7,0,3.9,0c1.3,0,2.4,0.1,3,0.1c1.5,0,11.1,0,12.1,0c0.9-0.1,1.7-0.2,2.1-0.3c0.2,0,0.5-0.2,0.8-0.2
			c0.2,0,0.3,0.2,0.3,0.4c0,0.3-0.2,0.9-0.4,3.1c0,0.5-0.1,2.6-0.2,3.2c0,0.2-0.1,0.5-0.5,0.5s-0.4-0.2-0.4-0.7c0-0.3,0-1.2-0.3-1.7
			c-0.3-0.9-0.8-1.4-3.2-1.7c-0.8-0.1-5.9-0.2-6.8-0.2c-0.2,0-0.3,0.1-0.3,0.5v12.2c0,0.3,0,0.5,0.3,0.5c1.1,0,6.6,0,7.7-0.1
			c1.2-0.1,1.9-0.2,2.3-0.7c0.3-0.4,0.5-0.6,0.8-0.6c0.2,0,0.3,0.1,0.3,0.4s-0.2,1.1-0.4,3.5c0,1-0.2,2.9-0.2,3.2
			c0,0.4,0,0.9-0.4,0.9c-0.3,0-0.4-0.2-0.4-0.4c0-0.5,0-1.1-0.2-1.7c-0.2-1-0.9-1.7-2.7-1.9c-0.9-0.1-5.7-0.1-6.8-0.1
			c-0.2,0-0.3,0.2-0.3,0.5v3.8c0,1.6,0,6.1,0,7.5c0.1,3.3,0.9,4.1,5.8,4.1c1.3,0,3.3,0,4.5-0.6c1.3-0.6,1.8-1.6,2.2-3.6
			c0.1-0.5,0.2-0.7,0.5-0.7c0.4,0,0.4,0.4,0.4,0.9c0,1.1-0.4,4.4-0.6,5.4c-0.3,1.3-0.8,1.3-2.6,1.3c-3.6,0-6.3-0.1-8.3-0.1
			c-2.1-0.1-3.6-0.1-5-0.1c-0.5,0-1.6,0-2.7,0c-1.1,0-2.4,0.1-3.3,0.1c-0.6,0-1-0.1-1-0.5c0-0.2,0.2-0.4,0.8-0.4
			c0.7,0,1.3-0.1,1.7-0.2c1-0.2,1.2-1.3,1.4-2.7c0.2-2,0.2-5.8,0.2-10.3V163.1z"/>
		<path class="st1" d="M65.2,163.1c0-7.3,0-8.7-0.1-10.2c-0.1-1.6-0.5-2.4-2.1-2.7c-0.4-0.1-1.2-0.1-1.9-0.1c-0.5,0-0.8-0.1-0.8-0.4
			s0.3-0.4,1.1-0.4c2.6,0,5.6,0.1,6.9,0.1c2,0,4.8-0.1,7-0.1c6,0,8.2,2,9,2.7c1.1,1,2.4,3.2,2.4,5.7c0,6.8-5,11.7-11.9,11.7
			c-0.2,0-0.8,0-1,0c-0.2,0-0.6-0.1-0.6-0.4c0-0.4,0.3-0.5,1.4-0.5c2.7,0,6.5-3,6.5-8c0-1.6-0.1-4.8-2.8-7.2
			c-1.7-1.6-3.7-1.9-4.8-1.9c-0.7,0-1.4,0-1.9,0.2c-0.2,0.1-0.4,0.4-0.4,0.9v19.3c0,4.4,0,8.2,0.2,10.3c0.1,1.3,0.4,2.4,1.9,2.6
			c0.7,0.1,1.7,0.2,2.5,0.2c0.5,0,0.8,0.1,0.8,0.4c0,0.3-0.4,0.5-0.9,0.5c-3.2,0-6.2-0.1-7.5-0.1c-1.1,0-4.1,0.1-6.1,0.1
			c-0.6,0-1-0.1-1-0.5c0-0.2,0.2-0.4,0.8-0.4c0.7,0,1.3-0.1,1.7-0.2c1-0.2,1.2-1.3,1.4-2.7c0.2-2,0.2-5.8,0.2-10.3V163.1z"/>
		<path class="st1" d="M95.4,163.1c0-7.3,0-8.7-0.1-10.2c-0.1-1.6-0.6-2.5-1.6-2.7c-0.5-0.1-1.2-0.2-1.7-0.2c-0.5,0-0.8-0.1-0.8-0.5
			c0-0.3,0.4-0.4,1.2-0.4c1.8,0,4.9,0.1,6.3,0.1c1.2,0,4.1-0.1,5.9-0.1c0.6,0,1,0.1,1,0.4c0,0.4-0.3,0.5-0.8,0.5
			c-0.5,0-0.9,0-1.4,0.1c-1.3,0.2-1.7,1.1-1.8,2.7c-0.1,1.5-0.1,2.9-0.1,10.2v8.5c0,4.7,0,8.5,0.2,10.6c0.1,1.3,0.5,2.2,1.9,2.4
			c0.7,0.1,1.7,0.2,2.5,0.2c0.5,0,0.8,0.1,0.8,0.4c0,0.3-0.4,0.5-0.9,0.5c-3.2,0-6.2-0.1-7.5-0.1c-1.1,0-4.1,0.1-6.1,0.1
			c-0.6,0-1-0.1-1-0.5c0-0.2,0.2-0.4,0.8-0.4c0.7,0,1.3-0.1,1.7-0.2c1-0.2,1.3-1,1.4-2.4c0.2-2,0.2-5.8,0.2-10.5V163.1z"/>
		<path class="st1" d="M113.2,184.9c-0.8-0.3-0.9-0.6-0.9-1.6c0-2.7,0.2-5.5,0.2-6.3c0-0.7,0.2-1.3,0.6-1.3c0.4,0,0.5,0.4,0.5,0.8
			c0,0.6,0.2,1.6,0.4,2.5c1.1,3.6,3.9,4.9,6.9,4.9c4.3,0,6.5-2.9,6.5-5.5c0-2.4-0.7-4.6-4.7-7.7l-2.2-1.7c-5.3-4.1-7.1-7.5-7.1-11.4
			c0-5.3,4.4-9.1,11.1-9.1c3.1,0,5.2,0.5,6.4,0.8c0.4,0.1,0.7,0.2,0.7,0.6c0,0.6-0.2,2-0.2,5.8c0,1.1-0.1,1.4-0.5,1.4
			c-0.3,0-0.5-0.3-0.5-0.9c0-0.4-0.2-1.9-1.3-3.2c-0.7-0.9-2.1-2.4-5.3-2.4c-3.6,0-5.7,2.1-5.7,5c0,2.2,1.1,3.9,5.1,6.9l1.4,1
			c5.8,4.4,7.9,7.7,7.9,12.3c0,2.8-1.1,6.1-4.5,8.4c-2.4,1.5-5.1,2-7.7,2C117.4,186.2,115.2,185.9,113.2,184.9z"/>
	</g>
	<g class="st0">
		<path class="st1" d="M136.7,167.3c0-8.2,5.4-18.9,19.9-18.9c12,0,19.5,7,19.5,18c0,11-7.7,19.8-20,19.8
			C142.3,186.2,136.7,175.8,136.7,167.3z M169.3,168.2c0-10.8-6.2-17.5-14.1-17.5c-5.5,0-11.9,3.1-11.9,15.1c0,10,5.5,18,14.8,18
			C161.5,183.8,169.3,182.1,169.3,168.2z"/>
		<path class="st1" d="M184.3,163.1c0-7.3,0-8.7-0.1-10.2c-0.1-1.6-0.5-2.4-2.1-2.7c-0.4-0.1-1.2-0.1-1.9-0.1
			c-0.5,0-0.8-0.1-0.8-0.4s0.3-0.4,1.1-0.4c2.6,0,5.6,0.1,6.9,0.1c1.5,0,4.5-0.1,7.4-0.1c6,0,14.1,0,19.3,5.5
			c2.4,2.5,4.7,6.5,4.7,12.2c0,6.1-2.6,10.7-5.3,13.5c-2.2,2.3-7.2,5.7-16.2,5.7c-1.7,0-3.7-0.1-5.5-0.3s-3.5-0.3-4.7-0.3
			c-0.5,0-1.6,0-2.7,0c-1.1,0-2.4,0.1-3.3,0.1c-0.6,0-1-0.1-1-0.5c0-0.2,0.2-0.4,0.8-0.4c0.7,0,1.3-0.1,1.7-0.2
			c1-0.2,1.2-1.3,1.4-2.7c0.2-2,0.2-5.8,0.2-10.3V163.1z M190.3,168.4c0,5.1,0,8.8,0.1,9.7c0,1.2,0.1,3.1,0.5,3.7
			c0.6,0.9,2.5,1.9,6.3,1.9c4.9,0,8.2-1,11.1-3.5c3.1-2.7,4-7,4-12c0-6.1-2.6-10.1-4.6-12.1c-4.4-4.2-9.9-4.8-13.7-4.8
			c-1,0-2.7,0.1-3.1,0.3c-0.4,0.2-0.6,0.4-0.6,1c0,1.6,0,5.8,0,9.6V168.4z"/>
		<path class="st1" d="M227,163.1c0-7.3,0-8.7-0.1-10.2c-0.1-1.6-0.6-2.5-1.6-2.7c-0.5-0.1-1.2-0.2-1.7-0.2c-0.5,0-0.8-0.1-0.8-0.5
			c0-0.3,0.4-0.4,1.2-0.4c1.8,0,4.9,0.1,6.3,0.1c1.2,0,4-0.1,5.9-0.1c0.6,0,1,0.1,1,0.4c0,0.4-0.3,0.5-0.8,0.5c-0.5,0-0.9,0-1.4,0.1
			c-1.3,0.2-1.7,1.1-1.8,2.7c-0.1,1.5-0.1,2.9-0.1,10.2v8.5c0,4.7,0,8.5,0.2,10.6c0.1,1.3,0.5,2.2,1.9,2.4c0.7,0.1,1.7,0.2,2.5,0.2
			c0.5,0,0.8,0.1,0.8,0.4c0,0.3-0.4,0.5-0.9,0.5c-3.2,0-6.2-0.1-7.5-0.1c-1.1,0-4.1,0.1-6.1,0.1c-0.6,0-1-0.1-1-0.5
			c0-0.2,0.2-0.4,0.8-0.4c0.7,0,1.3-0.1,1.7-0.2c1-0.2,1.3-1,1.4-2.4c0.2-2,0.2-5.8,0.2-10.5V163.1z"/>
	</g>
	<g class="st0">
		<path class="st1" d="M242.2,167.3c0-8.2,5.4-18.9,19.9-18.9c12,0,19.5,7,19.5,18c0,11-7.7,19.8-20,19.8
			C247.8,186.2,242.2,175.8,242.2,167.3z M274.9,168.2c0-10.8-6.2-17.5-14.1-17.5c-5.5,0-11.9,3.1-11.9,15.1c0,10,5.5,18,14.8,18
			C267.1,183.8,274.9,182.1,274.9,168.2z"/>
		<path class="st1" d="M299.4,153.8c-1.1-2.7-1.9-3.2-3.7-3.7c-0.7-0.2-1.5-0.2-1.9-0.2c-0.4,0-0.6-0.1-0.6-0.4
			c0-0.4,0.5-0.4,1.3-0.4c2.6,0,5.3,0.1,7,0.1c1.2,0,3.5-0.1,5.9-0.1c0.6,0,1.1,0.1,1.1,0.4s-0.3,0.4-0.7,0.4c-0.8,0-1.5,0-1.9,0.3
			c-0.3,0.2-0.5,0.6-0.5,1c0,0.6,0.4,2,1.1,3.7l8.3,21.9h0.2c2.1-5.3,8.3-20.8,9.5-24c0.2-0.6,0.4-1.3,0.4-1.8
			c0-0.4-0.2-0.8-0.6-0.9c-0.6-0.2-1.3-0.2-1.9-0.2c-0.4,0-0.8,0-0.8-0.4c0-0.4,0.4-0.5,1.3-0.5c2.4,0,4.4,0.1,5.1,0.1
			c0.8,0,3.1-0.1,4.5-0.1c0.6,0,1,0.1,1,0.4s-0.3,0.4-0.8,0.4c-0.5,0-1.5,0-2.4,0.6c-0.6,0.4-1.3,1.3-2.7,4.3
			c-1.9,4.5-3.2,7.1-5.8,13.1c-3.1,7-5.4,12.3-6.4,14.7c-1.3,2.8-1.5,3.6-2.2,3.6c-0.6,0-0.9-0.7-1.8-2.9L299.4,153.8z"/>
	</g>
	<g class="st0">
		<path class="st1" d="M27.5,217.4c0-0.7,0-1.3,0-1.8s0-0.8,0-1.1c0-0.3,0-0.5,0-0.7c0-0.2,0-0.3,0-0.5c0-0.3-0.1-0.6-0.2-0.7
			s-0.3-0.3-0.6-0.3c-0.1,0-0.2,0-0.3,0c-0.1,0-0.2,0-0.3,0c-0.1,0-0.1,0-0.1-0.1c0-0.1,0.1-0.1,0.3-0.1c0.2,0,0.4,0,0.7,0
			c0.2,0,0.5,0,0.7,0l0.8,0c0,0,0.3,0,0.7,0c0.4,0,0.9,0,1.4,0c0.5,0,1,0,1.4,0s0.7,0,0.8,0c0.4,0,0.6-0.1,0.8-0.1
			c0,0,0.1,0,0.1-0.1c0,0,0.1,0,0.1,0c0,0,0.1,0.1,0.1,0.2c0,0.1,0,0.2-0.1,0.3c0,0.1-0.1,0.3-0.1,0.6c0,0,0,0.1,0,0.2s0,0.2,0,0.4
			c0,0.1,0,0.3,0,0.4c0,0.1,0,0.2,0,0.3c0,0,0,0.1,0,0.1c0,0,0,0.1-0.1,0.1c-0.1,0-0.1-0.1-0.1-0.2c0-0.1,0-0.2,0-0.3
			c0-0.1,0-0.3-0.1-0.4c-0.1-0.1-0.2-0.3-0.3-0.4c-0.2-0.1-0.5-0.2-1-0.3c-0.1,0-0.2,0-0.5,0c-0.3,0-0.5,0-0.8,0c-0.3,0-0.6,0-0.8,0
			c-0.2,0-0.4,0-0.4,0c-0.1,0-0.1,0.1-0.1,0.2v5.2c0,0.1,0,0.2,0.1,0.2c0.1,0,0.2,0,0.5,0c0.3,0,0.6,0,0.9,0c0.3,0,0.7,0,1,0
			c0.3,0,0.5,0,0.6,0c0.2,0,0.4,0,0.5-0.1c0.1,0,0.2-0.1,0.3-0.2c0.1-0.2,0.2-0.2,0.3-0.2c0.1,0,0.1,0.1,0.1,0.2
			c0,0.1,0,0.2-0.1,0.3c0,0.2-0.1,0.4-0.1,0.7c0,0.1,0,0.2,0,0.3c0,0.1,0,0.2,0,0.4c0,0.1,0,0.2,0,0.3c0,0.1,0,0.2,0,0.2
			c0,0.1,0,0.2,0,0.2c0,0.1,0,0.1-0.1,0.1c-0.1,0-0.1-0.1-0.1-0.2c0-0.1,0-0.2,0-0.3s0-0.2-0.1-0.3c0-0.1-0.1-0.3-0.2-0.4
			s-0.4-0.2-0.7-0.3c-0.1,0-0.3,0-0.6,0c-0.3,0-0.5,0-0.8,0c-0.3,0-0.5,0-0.8,0c-0.2,0-0.4,0-0.5,0c-0.1,0-0.1,0-0.1,0.1v1.6
			c0,0.2,0,0.4,0,0.7s0,0.6,0,1c0,0.3,0,0.6,0,0.9c0,0.3,0,0.5,0,0.6c0,0.3,0,0.6,0.1,0.8s0.2,0.4,0.3,0.5c0.2,0.1,0.4,0.2,0.6,0.2
			c0.3,0,0.6,0.1,1.1,0.1c0.2,0,0.5,0,0.9,0c0.3,0,0.6-0.1,0.9-0.2c0.2-0.1,0.4-0.3,0.6-0.5c0.1-0.2,0.2-0.5,0.3-0.9
			c0-0.2,0.1-0.3,0.2-0.3c0.1,0,0.1,0,0.1,0.1c0,0.1,0,0.1,0,0.2c0,0,0,0.1,0,0.3c0,0.2,0,0.3-0.1,0.5s0,0.4-0.1,0.6
			c0,0.2,0,0.3-0.1,0.4c0,0.1-0.1,0.2-0.1,0.3c0,0.1-0.1,0.1-0.2,0.1c-0.1,0-0.2,0-0.3,0.1c-0.1,0-0.3,0-0.4,0c-0.7,0-1.3,0-1.8,0
			c-0.5,0-1,0-1.3,0c-0.4,0-0.7,0-0.9,0c-0.2,0-0.4,0-0.6,0c0,0-0.1,0-0.2,0c-0.1,0-0.3,0-0.5,0c-0.2,0-0.4,0-0.6,0s-0.4,0-0.5,0
			c-0.2,0-0.3,0-0.3-0.1c0-0.1,0-0.1,0.1-0.1c0.1,0,0.2,0,0.3,0c0.1,0,0.2,0,0.3-0.1c0.2,0,0.3-0.1,0.4-0.3c0.1-0.2,0.1-0.4,0.2-0.7
			c0-0.4,0.1-1,0.1-1.7c0-0.7,0-1.5,0-2.4V217.4z"/>
		<path class="st1" d="M38.6,220.7c0,1.4,0,2.4,0.1,3s0.2,1.1,0.3,1.2c0.1,0.1,0.2,0.1,0.3,0.2c0.1,0.1,0.2,0.1,0.4,0.1
			c0.2,0,0.4,0.1,0.6,0.1c0.3,0,0.6,0,0.9,0c0.5,0,0.9,0,1.3-0.1c0.4,0,0.7-0.2,0.9-0.5c0.1-0.2,0.2-0.3,0.3-0.5
			c0.1-0.2,0.1-0.4,0.2-0.6c0-0.2,0.1-0.2,0.2-0.2c0.1,0,0.1,0.1,0.1,0.3c0,0,0,0.1,0,0.3c0,0.2,0,0.3-0.1,0.5
			c0,0.2-0.1,0.4-0.1,0.6c0,0.2-0.1,0.4-0.1,0.5c0,0.1-0.1,0.2-0.1,0.3s-0.1,0.1-0.2,0.1s-0.2,0.1-0.3,0.1c-0.1,0-0.3,0-0.6,0
			c-0.7,0-1.3,0-1.8,0c-0.5,0-0.9,0-1.3,0c-0.4,0-0.7,0-1,0c-0.3,0-0.6,0-0.9,0c0,0-0.1,0-0.3,0c-0.1,0-0.3,0-0.5,0
			c-0.2,0-0.4,0-0.6,0c-0.2,0-0.4,0-0.5,0c-0.2,0-0.3,0-0.3-0.1c0-0.1,0-0.1,0.1-0.1c0.1,0,0.2,0,0.3,0c0.1,0,0.2,0,0.3-0.1
			c0.2,0,0.3-0.1,0.4-0.3c0.1-0.2,0.1-0.4,0.2-0.7c0-0.4,0.1-1,0.1-1.7c0-0.7,0-1.5,0-2.4v-3.3c0-0.7,0-1.3,0-1.8s0-0.8,0-1.1
			c0-0.3,0-0.5,0-0.7c0-0.2,0-0.3,0-0.5c0-0.3-0.1-0.6-0.2-0.7s-0.3-0.3-0.6-0.3c-0.1,0-0.2,0-0.3,0c-0.1,0-0.2,0-0.3,0
			c-0.1,0-0.1,0-0.1-0.1c0-0.1,0.1-0.1,0.3-0.1c0.2,0,0.4,0,0.7,0c0.2,0,0.5,0,0.7,0c0.2,0,0.4,0,0.5,0c0.1,0,0.2,0,0.3,0
			s0.1,0,0.3,0c0.2,0,0.3,0,0.6,0c0.2,0,0.4,0,0.6,0c0.2,0,0.4,0,0.5,0c0.2,0,0.3,0,0.3,0.1c0,0.1,0,0.1-0.1,0.1c-0.1,0-0.2,0-0.3,0
			c-0.1,0-0.2,0-0.3,0c-0.3,0.1-0.5,0.2-0.6,0.3c-0.1,0.2-0.2,0.4-0.2,0.7c0,0.1,0,0.3,0,0.5c0,0.2,0,0.4,0,0.7c0,0.3,0,0.6,0,1.1
			s0,1.1,0,1.8V220.7z"/>
	</g>
	<g class="st0">
		<path class="st1" d="M53.1,225.9c-1-0.3-1.8-0.8-2.6-1.5c-0.4-0.4-0.8-0.8-1.1-1.3s-0.5-0.9-0.7-1.4c-0.2-0.5-0.3-1-0.4-1.4
			c-0.1-0.5-0.1-0.9-0.1-1.4c0-0.3,0-0.7,0.1-1.1c0.1-0.4,0.2-0.9,0.3-1.3c0.2-0.5,0.4-0.9,0.6-1.4c0.3-0.5,0.6-0.9,1-1.3
			c0.3-0.3,0.6-0.5,1-0.8c0.4-0.2,0.8-0.5,1.2-0.6c0.5-0.2,1-0.3,1.6-0.4c0.6-0.1,1.2-0.2,2-0.2c0.4,0,0.8,0,1.3,0
			c0.5,0,1,0.1,1.4,0.2c0.4,0.1,0.7,0.1,1,0.2s0.6,0.1,0.9,0.1c0.1,0,0.2,0,0.2,0.1c0,0,0,0.1,0,0.1c0,0.1,0,0.2,0,0.3
			s0,0.4-0.1,0.7c0,0.1,0,0.3,0,0.5c0,0.2,0,0.4,0,0.6c0,0.2,0,0.4,0,0.5c0,0.1,0,0.3,0,0.3c0,0.3-0.1,0.4-0.2,0.4
			c-0.1,0-0.1-0.1-0.1-0.4c0-0.4-0.1-0.7-0.2-1.1c-0.1-0.3-0.3-0.6-0.6-0.8c-0.3-0.3-0.8-0.5-1.5-0.7c-0.7-0.2-1.4-0.3-2.2-0.3
			c-0.6,0-1.2,0-1.6,0.1c-0.5,0.1-0.9,0.2-1.2,0.3c-0.3,0.1-0.6,0.3-0.9,0.4s-0.4,0.3-0.6,0.5c-0.7,0.7-1.1,1.4-1.4,2.2
			c-0.2,0.8-0.3,1.7-0.3,2.7c0,0.9,0.2,1.8,0.5,2.6c0.3,0.8,0.8,1.5,1.4,2.2c0.6,0.6,1.3,1.1,2.1,1.5c0.8,0.4,1.7,0.6,2.7,0.6
			c0.7,0,1.3-0.1,1.9-0.2c0.5-0.1,1-0.4,1.4-0.8c0.2-0.2,0.4-0.5,0.5-0.8c0.1-0.3,0.2-0.6,0.2-0.8c0-0.2,0.1-0.3,0.2-0.3
			c0,0,0.1,0,0.1,0.1c0,0.1,0,0.1,0,0.2c0,0,0,0.2,0,0.3c0,0.2-0.1,0.4-0.1,0.7s-0.1,0.5-0.1,0.8c0,0.3-0.1,0.5-0.1,0.6
			c-0.1,0.2-0.1,0.3-0.2,0.3c0,0.1-0.2,0.1-0.3,0.2c-0.2,0.1-0.4,0.1-0.7,0.2c-0.3,0.1-0.5,0.1-0.8,0.1c-0.3,0-0.6,0.1-0.9,0.1
			s-0.6,0-0.9,0C55.3,226.4,54.1,226.2,53.1,225.9z"/>
	</g>
	<g class="st0">
		<path class="st1" d="M61.5,217.4c0.1-0.6,0.3-1.1,0.6-1.7c0.3-0.5,0.6-1.1,1-1.6c0.4-0.5,0.9-0.9,1.4-1.3c0.5-0.4,1.2-0.7,1.9-0.9
			s1.5-0.3,2.3-0.3c1,0,2,0.2,2.9,0.5c0.9,0.3,1.7,0.8,2.3,1.4c0.7,0.6,1.2,1.3,1.5,2.2s0.6,1.8,0.6,2.9c0,1-0.2,2-0.5,3
			c-0.4,0.9-0.9,1.7-1.5,2.4c-0.6,0.7-1.4,1.2-2.4,1.6c-0.9,0.4-1.9,0.6-3.1,0.6c-1.3,0-2.4-0.2-3.3-0.7c-0.9-0.4-1.7-1-2.3-1.7
			c-0.6-0.7-1-1.5-1.3-2.4c-0.3-0.9-0.4-1.7-0.4-2.6C61.3,218.5,61.3,218,61.5,217.4z M63.5,221.5c0.3,0.9,0.7,1.6,1.3,2.3
			c0.5,0.6,1.2,1.1,1.9,1.4c0.7,0.3,1.5,0.5,2.4,0.5c0.4,0,0.9-0.1,1.5-0.2c0.6-0.2,1.1-0.5,1.7-0.9c0.5-0.5,1-1.1,1.4-2
			c0.4-0.8,0.6-1.9,0.6-3.3c0-1.1-0.2-2.1-0.5-3s-0.7-1.6-1.3-2.2c-0.5-0.6-1.1-1-1.8-1.3c-0.7-0.3-1.4-0.4-2.1-0.4
			c-0.8,0-1.5,0.1-2.2,0.4c-0.7,0.3-1.2,0.6-1.7,1.2s-0.9,1.2-1.1,1.9c-0.3,0.8-0.4,1.7-0.4,2.7C63,219.6,63.2,220.6,63.5,221.5z"/>
		<path class="st1" d="M76.7,217.4c0.1-0.6,0.3-1.1,0.6-1.7c0.3-0.5,0.6-1.1,1-1.6c0.4-0.5,0.9-0.9,1.4-1.3c0.5-0.4,1.2-0.7,1.9-0.9
			s1.5-0.3,2.3-0.3c1,0,2,0.2,2.9,0.5c0.9,0.3,1.7,0.8,2.3,1.4c0.7,0.6,1.2,1.3,1.5,2.2s0.6,1.8,0.6,2.9c0,1-0.2,2-0.5,3
			c-0.4,0.9-0.9,1.7-1.5,2.4c-0.6,0.7-1.4,1.2-2.4,1.6c-0.9,0.4-1.9,0.6-3.1,0.6c-1.3,0-2.4-0.2-3.3-0.7c-0.9-0.4-1.7-1-2.3-1.7
			c-0.6-0.7-1-1.5-1.3-2.4c-0.3-0.9-0.4-1.7-0.4-2.6C76.5,218.5,76.6,218,76.7,217.4z M78.7,221.5c0.3,0.9,0.7,1.6,1.3,2.3
			c0.5,0.6,1.2,1.1,1.9,1.4c0.7,0.3,1.5,0.5,2.4,0.5c0.4,0,0.9-0.1,1.5-0.2c0.6-0.2,1.1-0.5,1.7-0.9c0.5-0.5,1-1.1,1.4-2
			c0.4-0.8,0.6-1.9,0.6-3.3c0-1.1-0.2-2.1-0.5-3s-0.7-1.6-1.3-2.2c-0.5-0.6-1.1-1-1.8-1.3c-0.7-0.3-1.4-0.4-2.1-0.4
			c-0.8,0-1.5,0.1-2.2,0.4c-0.7,0.3-1.2,0.6-1.7,1.2s-0.9,1.2-1.1,1.9c-0.3,0.8-0.4,1.7-0.4,2.7C78.3,219.6,78.4,220.6,78.7,221.5z"
			/>
		<path class="st1" d="M93.9,217.4c0-0.7,0-1.3,0-1.8s0-0.8,0-1.1c0-0.3,0-0.5,0-0.7c0-0.2,0-0.3,0-0.5c0-0.3-0.1-0.6-0.2-0.7
			s-0.3-0.3-0.6-0.3c-0.1,0-0.2,0-0.3,0c-0.1,0-0.2,0-0.3,0c-0.1,0-0.1,0-0.1-0.1c0-0.1,0.1-0.1,0.3-0.1c0.2,0,0.4,0,0.7,0
			c0.2,0,0.5,0,0.7,0c0.2,0,0.4,0,0.5,0c0.1,0,0.2,0,0.3,0c0,0,0.2,0,0.3,0s0.4,0,0.6,0c0.2,0,0.5,0,0.7,0c0.2,0,0.4,0,0.6,0
			c0.6,0,1.2,0,1.8,0.1c0.6,0.1,1.1,0.3,1.6,0.7c0.1,0.1,0.2,0.2,0.4,0.4c0.1,0.2,0.3,0.3,0.4,0.6s0.2,0.5,0.3,0.7
			c0.1,0.3,0.1,0.6,0.1,0.9c0,0.7-0.2,1.4-0.5,2.1c-0.3,0.7-0.9,1.4-1.8,2.2c0.8,1,1.5,1.9,2.1,2.7s1.2,1.5,1.8,2.1
			c0.5,0.5,1,0.9,1.3,1c0.4,0.2,0.7,0.3,0.9,0.3c0.2,0,0.3,0,0.4,0c0.1,0,0.2,0,0.3,0c0.1,0,0.2,0,0.2,0.1c0,0.1,0,0.1-0.1,0.1
			c-0.1,0-0.2,0-0.4,0h-1.3c-0.5,0-0.9,0-1.2-0.1s-0.5-0.1-0.8-0.3c-0.4-0.2-0.8-0.5-1.2-1c-0.4-0.5-0.8-1-1.4-1.7
			c-0.2-0.3-0.4-0.5-0.6-0.8c-0.2-0.3-0.4-0.5-0.6-0.8c-0.2-0.2-0.3-0.5-0.5-0.7c-0.2-0.2-0.3-0.4-0.4-0.5c-0.1-0.1-0.2-0.1-0.2-0.1
			l-2.3,0c-0.1,0-0.1,0-0.1,0.1v0.4c0,0.9,0,1.7,0,2.4c0,0.7,0,1.3,0.1,1.7c0,0.3,0.1,0.5,0.2,0.7c0.1,0.2,0.3,0.3,0.6,0.3
			c0.1,0,0.3,0,0.5,0.1c0.2,0,0.3,0,0.4,0c0.1,0,0.1,0,0.1,0.1c0,0.1-0.1,0.1-0.3,0.1c-0.3,0-0.5,0-0.8,0c-0.3,0-0.5,0-0.7,0
			c-0.2,0-0.4,0-0.5,0c-0.1,0-0.2,0-0.3,0c-0.3,0-0.5,0-0.7,0c-0.2,0-0.4,0-0.6,0c-0.2,0-0.4,0-0.5,0c-0.2,0-0.3,0-0.3-0.1
			c0-0.1,0-0.1,0.1-0.1c0.1,0,0.2,0,0.3,0c0.1,0,0.2,0,0.3-0.1c0.2,0,0.3-0.1,0.4-0.3c0.1-0.2,0.1-0.4,0.2-0.7c0-0.4,0.1-1,0.1-1.7
			c0-0.7,0-1.5,0-2.4V217.4z M95.4,219c0,0.1,0,0.2,0.1,0.2c0.1,0.1,0.4,0.2,0.8,0.2s0.8,0.1,1.2,0.1c0.2,0,0.5,0,0.7-0.1
			c0.2,0,0.5-0.1,0.7-0.3c0.3-0.2,0.6-0.6,0.8-1.1c0.2-0.5,0.3-1.1,0.3-1.8c0-1.2-0.3-2.1-0.9-2.7c-0.6-0.7-1.4-1-2.4-1
			c-0.3,0-0.5,0-0.8,0c-0.2,0-0.4,0-0.5,0.1c-0.1,0-0.1,0.1-0.1,0.2V219z"/>
		<path class="st1" d="M106.1,217.4c0-0.7,0-1.3,0-1.8s0-0.8,0-1.1c0-0.3,0-0.5,0-0.7c0-0.2,0-0.3,0-0.5c0-0.3-0.1-0.6-0.2-0.7
			s-0.3-0.3-0.6-0.3c-0.1,0-0.2,0-0.3,0c-0.1,0-0.2,0-0.3,0c-0.1,0-0.1,0-0.1-0.1c0-0.1,0.1-0.1,0.3-0.1c0.2,0,0.4,0,0.7,0
			c0.2,0,0.5,0,0.7,0c0.2,0,0.4,0,0.5,0c0.1,0,0.2,0,0.3,0c0,0,0.2,0,0.3,0c0.2,0,0.4,0,0.6,0c0.2,0,0.5,0,0.8,0c0.3,0,0.6,0,0.8,0
			c0.5,0,1,0,1.6,0c0.6,0,1.3,0.1,2,0.2c0.7,0.1,1.4,0.3,2,0.6c0.7,0.3,1.3,0.7,1.9,1.3c0.2,0.2,0.5,0.5,0.7,0.8
			c0.2,0.3,0.4,0.7,0.6,1.1c0.2,0.4,0.3,0.8,0.4,1.3c0.1,0.5,0.1,1,0.1,1.6c0,0.6-0.1,1.1-0.2,1.7s-0.3,1-0.4,1.4s-0.4,0.8-0.6,1.2
			s-0.5,0.7-0.8,1c-0.2,0.2-0.5,0.4-0.8,0.7c-0.3,0.2-0.7,0.5-1.2,0.7c-0.5,0.2-1,0.4-1.6,0.5c-0.6,0.1-1.3,0.2-2.1,0.2
			c-0.4,0-0.8,0-1.3,0c-0.5,0-0.9,0-1.3-0.1c-0.4,0-0.8,0-1-0.1c-0.3,0-0.5,0-0.5,0c0,0-0.1,0-0.2,0c-0.1,0-0.3,0-0.5,0
			c-0.2,0-0.4,0-0.6,0s-0.4,0-0.5,0c-0.2,0-0.3,0-0.3-0.1c0-0.1,0-0.1,0.1-0.1c0.1,0,0.2,0,0.3,0c0.1,0,0.2,0,0.3-0.1
			c0.2,0,0.3-0.1,0.4-0.3c0.1-0.2,0.1-0.4,0.2-0.7c0-0.4,0.1-1,0.1-1.7c0-0.7,0-1.5,0-2.4V217.4z M107.7,219.4c0,0.5,0,1,0,1.4
			c0,0.4,0,0.9,0,1.2c0,0.4,0,0.7,0,0.9c0,0.2,0,0.4,0,0.5c0,0.1,0,0.2,0,0.4c0,0.1,0,0.3,0,0.4c0,0.1,0,0.3,0.1,0.4
			s0.1,0.2,0.1,0.2c0.1,0.1,0.2,0.2,0.3,0.3c0.1,0.1,0.3,0.2,0.6,0.2c0.2,0.1,0.6,0.1,0.9,0.2s0.8,0.1,1.4,0.1
			c0.9,0,1.7-0.1,2.5-0.4c0.8-0.3,1.4-0.7,2-1.3c0.2-0.2,0.4-0.5,0.6-0.9s0.3-0.7,0.5-1.1s0.2-0.8,0.3-1.2c0.1-0.4,0.1-0.9,0.1-1.3
			c0-0.6-0.1-1.1-0.2-1.6c-0.1-0.5-0.3-0.9-0.4-1.3c-0.2-0.4-0.4-0.7-0.6-1s-0.4-0.5-0.6-0.7c-0.4-0.5-0.9-0.8-1.4-1.1
			c-0.5-0.3-1-0.5-1.5-0.6c-0.5-0.1-1-0.2-1.6-0.3c-0.5,0-1.1-0.1-1.7-0.1c-0.1,0-0.2,0-0.3,0c-0.1,0-0.2,0-0.4,0
			c-0.1,0-0.2,0-0.3,0c-0.1,0-0.2,0-0.2,0c-0.1,0.1-0.2,0.2-0.2,0.4c0,0.2,0,0.4,0,0.7c0,0.3,0,0.6,0,1c0,0.4,0,0.7,0,1.1
			c0,0.4,0,0.8,0,1.1V219.4z"/>
		<path class="st1" d="M123,220.7c0,0.9,0,1.7,0,2.4s0,1.3,0.1,1.7c0,0.3,0.1,0.5,0.2,0.7c0.1,0.2,0.3,0.3,0.6,0.3
			c0.1,0,0.3,0,0.5,0.1c0.2,0,0.3,0,0.4,0c0.1,0,0.1,0,0.1,0.1c0,0.1-0.1,0.1-0.3,0.1c-0.3,0-0.5,0-0.8,0c-0.3,0-0.5,0-0.7,0
			c-0.2,0-0.4,0-0.5,0c-0.1,0-0.2,0-0.3,0s-0.1,0-0.3,0c-0.1,0-0.3,0-0.5,0c-0.2,0-0.4,0-0.6,0c-0.2,0-0.4,0-0.5,0
			c-0.2,0-0.3,0-0.3-0.1c0-0.1,0-0.1,0.1-0.1c0.1,0,0.2,0,0.3,0c0.1,0,0.2,0,0.3-0.1c0.2,0,0.3-0.1,0.4-0.3c0.1-0.2,0.1-0.4,0.2-0.7
			c0-0.4,0.1-1,0.1-1.7c0-0.7,0-1.5,0-2.4v-3.3c0-0.7,0-1.3,0-1.8s0-0.8,0-1.1c0-0.3,0-0.5,0-0.7c0-0.2,0-0.3,0-0.5
			c0-0.6-0.2-1-0.6-1c-0.1,0-0.2,0-0.3-0.1c-0.1,0-0.2,0-0.3,0c-0.1,0-0.1,0-0.1-0.1c0-0.1,0.1-0.1,0.3-0.1c0.1,0,0.3,0,0.5,0
			c0.2,0,0.4,0,0.6,0c0.2,0,0.4,0,0.5,0c0.1,0,0.2,0,0.3,0s0.1,0,0.3,0c0.1,0,0.3,0,0.5,0c0.2,0,0.4,0,0.6,0c0.2,0,0.4,0,0.5,0
			c0.2,0,0.3,0,0.3,0.1c0,0.1,0,0.1-0.1,0.1c-0.1,0-0.1,0-0.2,0c-0.1,0-0.2,0-0.3,0c-0.2,0.1-0.4,0.2-0.5,0.3
			c-0.1,0.2-0.2,0.4-0.2,0.7c0,0.1,0,0.3,0,0.5c0,0.2,0,0.4,0,0.7c0,0.3,0,0.6,0,1.1s0,1.1,0,1.8V220.7z"/>
		<path class="st1" d="M128.2,223.6c0,0.4,0,0.7,0.1,1c0,0.3,0.1,0.5,0.1,0.6c0.1,0.2,0.1,0.3,0.2,0.4c0.1,0.1,0.2,0.1,0.3,0.2
			c0.2,0.1,0.4,0.1,0.5,0.1c0.2,0,0.3,0,0.4,0c0.1,0,0.1,0,0.1,0.1c0,0.1-0.1,0.1-0.3,0.1c-0.5,0-1,0-1.3,0s-0.6,0-0.7,0
			c-0.1,0-0.3,0-0.6,0c-0.3,0-0.7,0-1.2,0c-0.2,0-0.3,0-0.3-0.1c0-0.1,0-0.1,0.1-0.1c0.1,0,0.2,0,0.3,0c0.1,0,0.3,0,0.4-0.1
			c0.2-0.1,0.4-0.3,0.5-0.6c0.1-0.3,0.1-0.9,0.1-1.8l0-10.7c0-0.4,0-0.6,0-0.7s0.1-0.2,0.2-0.2s0.2,0.1,0.3,0.2
			c0.1,0.1,0.2,0.3,0.3,0.4c0.1,0.1,0.3,0.3,0.6,0.7c0.4,0.4,0.8,0.9,1.4,1.5c0.5,0.6,1.2,1.2,1.8,2s1.4,1.5,2.1,2.3
			c0.5,0.5,0.9,1,1.4,1.5c0.5,0.5,0.9,1,1.3,1.4c0.4,0.4,0.8,0.8,1.1,1.2s0.5,0.6,0.7,0.7l-0.2-9.5c0-0.6-0.1-1-0.2-1.3
			c-0.1-0.2-0.3-0.4-0.6-0.5c-0.2,0-0.4-0.1-0.5-0.1c-0.2,0-0.3,0-0.4,0c-0.1,0-0.1,0-0.1-0.1s0.1-0.1,0.4-0.1c0.2,0,0.4,0,0.6,0
			c0.2,0,0.4,0,0.6,0c0.2,0,0.3,0,0.5,0s0.2,0,0.3,0c0.1,0,0.3,0,0.6,0c0.3,0,0.6,0,1,0c0.2,0,0.3,0,0.3,0.1s-0.1,0.1-0.2,0.1
			c-0.1,0-0.1,0-0.2,0c-0.1,0-0.2,0-0.3,0c-0.3,0.1-0.5,0.2-0.6,0.5s-0.1,0.6-0.1,1.2l0,11c0,0.3,0,0.6,0,0.7c0,0.2,0,0.3,0,0.4
			s0,0.1,0,0.2c0,0,0,0-0.1,0c0,0-0.1,0-0.1,0c-0.1,0-0.1-0.1-0.2-0.2s-0.2-0.2-0.4-0.4c-0.2-0.2-0.4-0.4-0.6-0.6
			c0,0-0.2-0.2-0.6-0.6c-0.3-0.3-0.7-0.7-1.2-1.2c-0.5-0.5-1-1-1.5-1.6c-0.5-0.6-1.1-1.1-1.6-1.7c-0.5-0.6-1.1-1.2-1.6-1.7
			c-0.5-0.6-1-1.1-1.4-1.6c-0.4-0.5-0.8-0.9-1.1-1.3s-0.6-0.6-0.7-0.8L128.2,223.6z"/>
		<path class="st1" d="M146.3,212.4c0.1-0.3,0.2-0.5,0.2-0.6c0-0.1,0.1-0.1,0.2-0.1s0.1,0,0.2,0.1c0,0.1,0.1,0.3,0.2,0.6
			c0,0.1,0.2,0.4,0.3,0.9c0.2,0.5,0.4,1.1,0.7,1.7c0.3,0.7,0.5,1.4,0.9,2.2s0.6,1.6,0.9,2.4c0.3,0.8,0.6,1.5,0.9,2.3
			c0.3,0.7,0.5,1.3,0.7,1.8c0.2,0.4,0.3,0.7,0.5,1c0.2,0.3,0.3,0.5,0.4,0.6s0.3,0.3,0.4,0.3c0.1,0.1,0.2,0.1,0.3,0.1
			c0.1,0.1,0.3,0.1,0.4,0.1c0.1,0,0.2,0,0.3,0c0.1,0,0.2,0,0.2,0.1c0,0.1,0,0.1-0.1,0.1s-0.2,0-0.3,0c-0.1,0-0.2,0-0.4,0
			c-0.2,0-0.4,0-0.7,0c-0.3,0-0.6,0-0.9,0c-0.3,0-0.6,0-1,0c-0.2,0-0.3,0-0.4,0c-0.1,0-0.1,0-0.1-0.1s0-0.1,0.1-0.1
			c0.1,0,0.1-0.1,0.1-0.2c0-0.1,0-0.2,0-0.3l-1.7-4.6c0-0.1-0.1-0.1-0.2-0.1h-4c-0.1,0-0.1,0-0.2,0.1l-1.1,3.3
			c-0.2,0.5-0.3,0.9-0.3,1.3c0,0.2,0.1,0.3,0.2,0.4c0.2,0.1,0.3,0.1,0.5,0.1h0.2c0.1,0,0.2,0,0.2,0.1c0,0.1-0.1,0.1-0.3,0.1
			c-0.1,0-0.2,0-0.4,0c-0.1,0-0.3,0-0.4,0c-0.1,0-0.3,0-0.4,0c-0.1,0-0.2,0-0.3,0s-0.1,0-0.3,0c-0.1,0-0.3,0-0.5,0
			c-0.2,0-0.4,0-0.6,0c-0.2,0-0.4,0-0.7,0c-0.2,0-0.4,0-0.4-0.1c0-0.1,0.1-0.1,0.2-0.1c0.1,0,0.1,0,0.3,0s0.2,0,0.3,0
			c0.4-0.1,0.8-0.3,1-0.6c0.2-0.3,0.4-0.7,0.6-1.2L146.3,212.4z M148.2,219.9c0.1,0,0.1,0,0.1-0.1l-1.8-5c-0.1-0.3-0.2-0.3-0.3,0
			l-1.6,5c0,0.1,0,0.1,0.1,0.1H148.2z"/>
		<path class="st1" d="M154.8,217.4c0-0.7,0-1.3,0-1.8s0-0.8,0-1.1c0-0.3,0-0.5,0-0.7c0-0.2,0-0.3,0-0.5c0-0.3-0.1-0.6-0.2-0.7
			s-0.3-0.3-0.6-0.3c-0.1,0-0.2,0-0.3,0c-0.1,0-0.2,0-0.3,0c-0.1,0-0.1,0-0.1-0.1c0-0.1,0.1-0.1,0.3-0.1c0.2,0,0.4,0,0.7,0
			c0.2,0,0.5,0,0.7,0c0.2,0,0.4,0,0.5,0c0.1,0,0.2,0,0.3,0c0,0,0.2,0,0.3,0c0.2,0,0.4,0,0.6,0c0.2,0,0.5,0,0.8,0c0.3,0,0.6,0,0.8,0
			c0.5,0,1,0,1.6,0c0.6,0,1.3,0.1,2,0.2c0.7,0.1,1.4,0.3,2,0.6c0.7,0.3,1.3,0.7,1.9,1.3c0.2,0.2,0.5,0.5,0.7,0.8
			c0.2,0.3,0.4,0.7,0.6,1.1c0.2,0.4,0.3,0.8,0.4,1.3c0.1,0.5,0.1,1,0.1,1.6c0,0.6-0.1,1.1-0.2,1.7s-0.3,1-0.4,1.4s-0.4,0.8-0.6,1.2
			s-0.5,0.7-0.8,1c-0.2,0.2-0.5,0.4-0.8,0.7c-0.3,0.2-0.7,0.5-1.2,0.7c-0.5,0.2-1,0.4-1.6,0.5c-0.6,0.1-1.3,0.2-2.1,0.2
			c-0.4,0-0.8,0-1.3,0c-0.5,0-0.9,0-1.3-0.1c-0.4,0-0.8,0-1-0.1c-0.3,0-0.5,0-0.5,0c0,0-0.1,0-0.2,0c-0.1,0-0.3,0-0.5,0
			c-0.2,0-0.4,0-0.6,0s-0.4,0-0.5,0c-0.2,0-0.3,0-0.3-0.1c0-0.1,0-0.1,0.1-0.1c0.1,0,0.2,0,0.3,0c0.1,0,0.2,0,0.3-0.1
			c0.2,0,0.3-0.1,0.4-0.3c0.1-0.2,0.1-0.4,0.2-0.7c0-0.4,0.1-1,0.1-1.7c0-0.7,0-1.5,0-2.4V217.4z M156.4,219.4c0,0.5,0,1,0,1.4
			c0,0.4,0,0.9,0,1.2c0,0.4,0,0.7,0,0.9c0,0.2,0,0.4,0,0.5c0,0.1,0,0.2,0,0.4c0,0.1,0,0.3,0,0.4c0,0.1,0,0.3,0.1,0.4
			s0.1,0.2,0.1,0.2c0.1,0.1,0.2,0.2,0.3,0.3c0.1,0.1,0.3,0.2,0.6,0.2c0.2,0.1,0.6,0.1,0.9,0.2s0.8,0.1,1.4,0.1
			c0.9,0,1.7-0.1,2.5-0.4c0.8-0.3,1.4-0.7,2-1.3c0.2-0.2,0.4-0.5,0.6-0.9s0.3-0.7,0.5-1.1s0.2-0.8,0.3-1.2c0.1-0.4,0.1-0.9,0.1-1.3
			c0-0.6-0.1-1.1-0.2-1.6c-0.1-0.5-0.3-0.9-0.4-1.3c-0.2-0.4-0.4-0.7-0.6-1s-0.4-0.5-0.6-0.7c-0.4-0.5-0.9-0.8-1.4-1.1
			c-0.5-0.3-1-0.5-1.5-0.6c-0.5-0.1-1-0.2-1.6-0.3c-0.5,0-1.1-0.1-1.7-0.1c-0.1,0-0.2,0-0.3,0c-0.1,0-0.2,0-0.4,0
			c-0.1,0-0.2,0-0.3,0c-0.1,0-0.2,0-0.2,0c-0.1,0.1-0.2,0.2-0.2,0.4c0,0.2,0,0.4,0,0.7c0,0.3,0,0.6,0,1c0,0.4,0,0.7,0,1.1
			c0,0.4,0,0.8,0,1.1V219.4z"/>
		<path class="st1" d="M168.1,217.4c0.1-0.6,0.3-1.1,0.6-1.7c0.3-0.5,0.6-1.1,1-1.6c0.4-0.5,0.9-0.9,1.4-1.3
			c0.5-0.4,1.2-0.7,1.9-0.9s1.5-0.3,2.3-0.3c1,0,2,0.2,2.9,0.5c0.9,0.3,1.7,0.8,2.3,1.4c0.7,0.6,1.2,1.3,1.5,2.2s0.6,1.8,0.6,2.9
			c0,1-0.2,2-0.5,3c-0.4,0.9-0.9,1.7-1.5,2.4c-0.6,0.7-1.4,1.2-2.4,1.6c-0.9,0.4-1.9,0.6-3.1,0.6c-1.3,0-2.4-0.2-3.3-0.7
			c-0.9-0.4-1.7-1-2.3-1.7c-0.6-0.7-1-1.5-1.3-2.4c-0.3-0.9-0.4-1.7-0.4-2.6C167.9,218.5,168,218,168.1,217.4z M170.2,221.5
			c0.3,0.9,0.7,1.6,1.3,2.3c0.5,0.6,1.2,1.1,1.9,1.4c0.7,0.3,1.5,0.5,2.4,0.5c0.4,0,0.9-0.1,1.5-0.2c0.6-0.2,1.1-0.5,1.7-0.9
			c0.5-0.5,1-1.1,1.4-2c0.4-0.8,0.6-1.9,0.6-3.3c0-1.1-0.2-2.1-0.5-3s-0.7-1.6-1.3-2.2c-0.5-0.6-1.1-1-1.8-1.3
			c-0.7-0.3-1.4-0.4-2.1-0.4c-0.8,0-1.5,0.1-2.2,0.4c-0.7,0.3-1.2,0.6-1.7,1.2s-0.9,1.2-1.1,1.9c-0.3,0.8-0.4,1.7-0.4,2.7
			C169.7,219.6,169.9,220.6,170.2,221.5z"/>
		<path class="st1" d="M185.3,217.4c0-0.7,0-1.3,0-1.8s0-0.8,0-1.1c0-0.3,0-0.5,0-0.7c0-0.2,0-0.3,0-0.5c0-0.3-0.1-0.6-0.2-0.7
			s-0.3-0.3-0.6-0.3c-0.1,0-0.2,0-0.3,0c-0.1,0-0.2,0-0.3,0c-0.1,0-0.1,0-0.1-0.1c0-0.1,0.1-0.1,0.3-0.1c0.2,0,0.4,0,0.7,0
			c0.2,0,0.5,0,0.7,0c0.2,0,0.4,0,0.5,0s0.2,0,0.3,0c0,0,0.2,0,0.3,0s0.4,0,0.6,0c0.2,0,0.5,0,0.7,0c0.2,0,0.4,0,0.6,0
			c0.6,0,1.2,0,1.8,0.1c0.6,0.1,1.1,0.3,1.6,0.7c0.1,0.1,0.2,0.2,0.4,0.4c0.2,0.2,0.3,0.3,0.4,0.6s0.2,0.5,0.3,0.7s0.1,0.6,0.1,0.9
			c0,0.7-0.2,1.4-0.5,2.1c-0.3,0.7-0.9,1.4-1.8,2.2c0.8,1,1.5,1.9,2.1,2.7s1.2,1.5,1.8,2.1c0.5,0.5,1,0.9,1.3,1s0.7,0.3,0.9,0.3
			c0.2,0,0.3,0,0.4,0s0.2,0,0.3,0c0.1,0,0.2,0,0.2,0.1c0,0.1,0,0.1-0.1,0.1s-0.2,0-0.4,0h-1.3c-0.5,0-0.9,0-1.2-0.1
			c-0.3,0-0.5-0.1-0.8-0.3c-0.4-0.2-0.8-0.5-1.2-1c-0.4-0.5-0.8-1-1.4-1.7c-0.2-0.3-0.4-0.5-0.6-0.8c-0.2-0.3-0.4-0.5-0.6-0.8
			c-0.2-0.2-0.3-0.5-0.5-0.7c-0.2-0.2-0.3-0.4-0.4-0.5c-0.1-0.1-0.2-0.1-0.2-0.1l-2.3,0c-0.1,0-0.1,0-0.1,0.1v0.4c0,0.9,0,1.7,0,2.4
			c0,0.7,0,1.3,0.1,1.7c0,0.3,0.1,0.5,0.2,0.7c0.1,0.2,0.3,0.3,0.6,0.3c0.1,0,0.3,0,0.5,0.1c0.2,0,0.3,0,0.4,0c0.1,0,0.2,0,0.2,0.1
			c0,0.1-0.1,0.1-0.3,0.1c-0.3,0-0.5,0-0.8,0c-0.3,0-0.5,0-0.7,0c-0.2,0-0.4,0-0.5,0c-0.1,0-0.2,0-0.3,0c-0.3,0-0.5,0-0.7,0
			c-0.2,0-0.4,0-0.6,0c-0.2,0-0.4,0-0.5,0c-0.2,0-0.3,0-0.3-0.1c0-0.1,0-0.1,0.1-0.1c0.1,0,0.2,0,0.3,0c0.1,0,0.2,0,0.3-0.1
			c0.2,0,0.3-0.1,0.4-0.3c0.1-0.2,0.1-0.4,0.2-0.7c0-0.4,0.1-1,0.1-1.7c0-0.7,0-1.5,0-2.4V217.4z M186.8,219c0,0.1,0,0.2,0.1,0.2
			c0.1,0.1,0.4,0.2,0.8,0.2c0.4,0.1,0.8,0.1,1.2,0.1c0.2,0,0.5,0,0.7-0.1c0.2,0,0.5-0.1,0.7-0.3c0.3-0.2,0.6-0.6,0.8-1.1
			c0.2-0.5,0.3-1.1,0.3-1.8c0-1.2-0.3-2.1-0.9-2.7c-0.6-0.7-1.4-1-2.4-1c-0.3,0-0.5,0-0.8,0c-0.2,0-0.4,0-0.5,0.1
			c-0.1,0-0.1,0.1-0.1,0.2V219z"/>
	</g>
	<g class="st0">
		<path class="st1" d="M204.5,225.9c-1-0.3-1.8-0.8-2.6-1.5c-0.4-0.4-0.8-0.8-1.1-1.3s-0.5-0.9-0.7-1.4s-0.3-1-0.4-1.4
			c-0.1-0.5-0.1-0.9-0.1-1.4c0-0.3,0-0.7,0.1-1.1c0.1-0.4,0.2-0.9,0.3-1.3c0.2-0.5,0.4-0.9,0.6-1.4s0.6-0.9,1-1.3
			c0.3-0.3,0.6-0.5,1-0.8c0.4-0.2,0.8-0.5,1.2-0.6c0.5-0.2,1-0.3,1.6-0.4c0.6-0.1,1.2-0.2,2-0.2c0.4,0,0.8,0,1.3,0s1,0.1,1.4,0.2
			c0.4,0.1,0.7,0.1,1,0.2s0.6,0.1,0.9,0.1c0.1,0,0.2,0,0.2,0.1c0,0,0,0.1,0,0.1c0,0.1,0,0.2,0,0.3s0,0.4-0.1,0.7c0,0.1,0,0.3,0,0.5
			c0,0.2,0,0.4,0,0.6c0,0.2,0,0.4,0,0.5c0,0.1,0,0.3,0,0.3c0,0.3-0.1,0.4-0.2,0.4s-0.1-0.1-0.1-0.4c0-0.4-0.1-0.7-0.2-1.1
			c-0.1-0.3-0.3-0.6-0.6-0.8c-0.3-0.3-0.8-0.5-1.5-0.7c-0.7-0.2-1.4-0.3-2.2-0.3c-0.6,0-1.2,0-1.6,0.1c-0.5,0.1-0.9,0.2-1.2,0.3
			c-0.3,0.1-0.6,0.3-0.9,0.4c-0.2,0.2-0.4,0.3-0.6,0.5c-0.7,0.7-1.1,1.4-1.4,2.2s-0.3,1.7-0.3,2.7c0,0.9,0.2,1.8,0.5,2.6
			c0.3,0.8,0.8,1.5,1.4,2.2c0.6,0.6,1.3,1.1,2.1,1.5c0.8,0.4,1.7,0.6,2.7,0.6c0.7,0,1.3-0.1,1.9-0.2c0.5-0.1,1-0.4,1.4-0.8
			c0.2-0.2,0.4-0.5,0.5-0.8c0.1-0.3,0.2-0.6,0.2-0.8c0-0.2,0.1-0.3,0.2-0.3c0,0,0.1,0,0.1,0.1c0,0.1,0,0.1,0,0.2c0,0,0,0.2,0,0.3
			c0,0.2-0.1,0.4-0.1,0.7c0,0.2-0.1,0.5-0.1,0.8c0,0.3-0.1,0.5-0.1,0.6c-0.1,0.2-0.1,0.3-0.2,0.3c0,0.1-0.2,0.1-0.3,0.2
			c-0.2,0.1-0.4,0.1-0.7,0.2c-0.3,0.1-0.5,0.1-0.8,0.1c-0.3,0-0.6,0.1-0.9,0.1c-0.3,0-0.6,0-0.9,0
			C206.7,226.4,205.5,226.2,204.5,225.9z"/>
	</g>
	<g class="st0">
		<path class="st1" d="M212.8,217.4c0.1-0.6,0.3-1.1,0.6-1.7c0.3-0.5,0.6-1.1,1-1.6c0.4-0.5,0.9-0.9,1.4-1.3s1.2-0.7,1.9-0.9
			s1.5-0.3,2.3-0.3c1,0,2,0.2,2.9,0.5c0.9,0.3,1.7,0.8,2.3,1.4c0.7,0.6,1.2,1.3,1.5,2.2s0.6,1.8,0.6,2.9c0,1-0.2,2-0.5,3
			s-0.9,1.7-1.5,2.4c-0.6,0.7-1.4,1.2-2.4,1.6c-0.9,0.4-1.9,0.6-3.1,0.6c-1.3,0-2.4-0.2-3.3-0.7c-0.9-0.4-1.7-1-2.3-1.7
			c-0.6-0.7-1-1.5-1.3-2.4s-0.4-1.7-0.4-2.6C212.6,218.5,212.7,218,212.8,217.4z M214.9,221.5c0.3,0.9,0.7,1.6,1.3,2.3
			c0.5,0.6,1.2,1.1,1.9,1.4c0.7,0.3,1.5,0.5,2.4,0.5c0.4,0,0.9-0.1,1.5-0.2c0.6-0.2,1.1-0.5,1.7-0.9c0.5-0.5,1-1.1,1.4-2
			c0.4-0.8,0.6-1.9,0.6-3.3c0-1.1-0.2-2.1-0.5-3c-0.3-0.9-0.7-1.6-1.3-2.2c-0.5-0.6-1.1-1-1.8-1.3c-0.7-0.3-1.4-0.4-2.1-0.4
			c-0.8,0-1.5,0.1-2.2,0.4c-0.7,0.3-1.2,0.6-1.7,1.2s-0.9,1.2-1.1,1.9s-0.4,1.7-0.4,2.7C214.4,219.6,214.6,220.6,214.9,221.5z"/>
		<path class="st1" d="M230.5,223.6c0,0.4,0,0.7,0.1,1c0,0.3,0.1,0.5,0.1,0.6c0.1,0.2,0.1,0.3,0.2,0.4s0.2,0.1,0.3,0.2
			c0.2,0.1,0.4,0.1,0.5,0.1c0.2,0,0.3,0,0.4,0c0.1,0,0.1,0,0.1,0.1c0,0.1-0.1,0.1-0.3,0.1c-0.5,0-1,0-1.3,0c-0.3,0-0.6,0-0.7,0
			c-0.1,0-0.3,0-0.6,0s-0.7,0-1.2,0c-0.2,0-0.3,0-0.3-0.1c0-0.1,0-0.1,0.1-0.1c0.1,0,0.2,0,0.3,0c0.1,0,0.3,0,0.4-0.1
			c0.2-0.1,0.4-0.3,0.5-0.6c0.1-0.3,0.1-0.9,0.1-1.8l0-10.7c0-0.4,0-0.6,0-0.7s0.1-0.2,0.2-0.2c0.1,0,0.2,0.1,0.3,0.2
			c0.1,0.1,0.2,0.3,0.3,0.4c0.1,0.1,0.3,0.3,0.6,0.7c0.4,0.4,0.8,0.9,1.4,1.5c0.5,0.6,1.2,1.2,1.8,2s1.4,1.5,2.1,2.3
			c0.5,0.5,0.9,1,1.4,1.5c0.5,0.5,0.9,1,1.3,1.4c0.4,0.4,0.8,0.8,1.1,1.2s0.5,0.6,0.7,0.7l-0.2-9.5c0-0.6-0.1-1-0.2-1.3
			c-0.1-0.2-0.3-0.4-0.6-0.5c-0.2,0-0.4-0.1-0.5-0.1c-0.2,0-0.3,0-0.4,0c-0.1,0-0.1,0-0.1-0.1s0.1-0.1,0.4-0.1c0.2,0,0.4,0,0.6,0
			c0.2,0,0.4,0,0.6,0c0.2,0,0.3,0,0.5,0s0.2,0,0.3,0c0.1,0,0.3,0,0.6,0s0.6,0,1,0c0.2,0,0.3,0,0.3,0.1s-0.1,0.1-0.2,0.1
			c0,0-0.1,0-0.2,0c-0.1,0-0.2,0-0.3,0c-0.3,0.1-0.5,0.2-0.6,0.5c-0.1,0.2-0.1,0.6-0.1,1.2l0,11c0,0.3,0,0.6,0,0.7s0,0.3,0,0.4
			c0,0.1,0,0.1,0,0.2c0,0,0,0-0.1,0c0,0-0.1,0-0.1,0c-0.1,0-0.1-0.1-0.2-0.2s-0.2-0.2-0.4-0.4c-0.2-0.2-0.4-0.4-0.6-0.6
			c0,0-0.2-0.2-0.6-0.6c-0.3-0.3-0.7-0.7-1.2-1.2c-0.5-0.5-1-1-1.5-1.6s-1.1-1.1-1.6-1.7c-0.5-0.6-1.1-1.2-1.6-1.7
			c-0.5-0.6-1-1.1-1.4-1.6c-0.4-0.5-0.8-0.9-1.1-1.3s-0.6-0.6-0.7-0.8L230.5,223.6z"/>
		<path class="st1" d="M249.8,220.7c0,0.9,0,1.7,0,2.4c0,0.7,0,1.3,0.1,1.7c0,0.3,0.1,0.5,0.2,0.7c0.1,0.2,0.3,0.3,0.6,0.3
			c0.1,0,0.3,0,0.5,0.1c0.2,0,0.3,0,0.4,0c0.1,0,0.1,0,0.1,0.1c0,0.1-0.1,0.1-0.3,0.1c-0.3,0-0.5,0-0.8,0c-0.3,0-0.5,0-0.7,0
			c-0.2,0-0.4,0-0.5,0c-0.1,0-0.2,0-0.3,0s-0.1,0-0.3,0c-0.1,0-0.3,0-0.5,0c-0.2,0-0.4,0-0.6,0c-0.2,0-0.4,0-0.5,0
			c-0.2,0-0.3,0-0.3-0.1c0-0.1,0-0.1,0.1-0.1c0.1,0,0.2,0,0.3,0c0.1,0,0.2,0,0.3-0.1c0.2,0,0.3-0.1,0.4-0.3c0.1-0.2,0.1-0.4,0.2-0.7
			c0-0.4,0.1-1,0.1-1.7c0-0.7,0-1.5,0-2.4v-7.9l-2.8,0c-0.3,0-0.5,0-0.7,0c-0.2,0-0.4,0.1-0.5,0.1c-0.1,0-0.3,0.1-0.4,0.2
			c-0.1,0.1-0.2,0.2-0.3,0.3c-0.1,0.2-0.2,0.3-0.2,0.4c0,0.1-0.1,0.2-0.1,0.2c0,0.1-0.1,0.2-0.2,0.2c-0.1,0-0.1-0.1-0.1-0.2
			c0,0,0-0.2,0.1-0.4c0-0.2,0.1-0.4,0.1-0.6c0-0.2,0.1-0.4,0.1-0.6c0-0.2,0.1-0.3,0.1-0.3c0-0.1,0.1-0.1,0.1-0.2s0.1-0.1,0.1-0.1
			c0.1,0,0.2,0,0.3,0.1c0.1,0.1,0.3,0.1,0.6,0.1c0.3,0,0.6,0,0.9,0.1c0.3,0,0.5,0,0.6,0h7c0.3,0,0.6,0,0.8,0c0.2,0,0.4,0,0.6-0.1
			c0.1,0,0.2,0,0.3-0.1c0.1,0,0.1,0,0.2,0c0,0,0.1,0,0.1,0.1c0,0,0,0.1,0,0.2c0,0.1,0,0.3,0,0.5c0,0.2,0,0.4,0,0.6
			c0,0.2,0,0.4,0,0.6c0,0.2,0,0.3,0,0.3c0,0.2,0,0.2-0.1,0.2c0,0-0.1,0-0.1-0.1c0,0,0-0.1,0-0.3l0-0.2c0-0.1-0.1-0.3-0.1-0.4
			c-0.1-0.1-0.2-0.2-0.4-0.3c-0.2-0.1-0.4-0.2-0.7-0.2c-0.3-0.1-0.7-0.1-1.1-0.1l-2.4,0V220.7z"/>
	</g>
	<g class="st0">
		<path class="st1" d="M256.9,217.4c0-0.7,0-1.3,0-1.8s0-0.8,0-1.1c0-0.3,0-0.5,0-0.7c0-0.2,0-0.3,0-0.5c0-0.3-0.1-0.6-0.2-0.7
			s-0.3-0.3-0.6-0.3c-0.1,0-0.2,0-0.3,0c-0.1,0-0.2,0-0.3,0c-0.1,0-0.1,0-0.1-0.1c0-0.1,0.1-0.1,0.3-0.1c0.2,0,0.4,0,0.7,0
			c0.2,0,0.5,0,0.7,0c0.2,0,0.4,0,0.5,0c0.1,0,0.2,0,0.3,0c0,0,0.2,0,0.3,0s0.4,0,0.6,0c0.2,0,0.5,0,0.7,0c0.2,0,0.4,0,0.6,0
			c0.6,0,1.2,0,1.8,0.1c0.6,0.1,1.1,0.3,1.6,0.7c0.1,0.1,0.2,0.2,0.4,0.4s0.3,0.3,0.4,0.6s0.2,0.5,0.3,0.7c0.1,0.3,0.1,0.6,0.1,0.9
			c0,0.7-0.2,1.4-0.5,2.1s-0.9,1.4-1.8,2.2c0.8,1,1.5,1.9,2.1,2.7s1.2,1.5,1.8,2.1c0.5,0.5,1,0.9,1.3,1c0.4,0.2,0.7,0.3,0.9,0.3
			c0.2,0,0.3,0,0.4,0c0.1,0,0.2,0,0.3,0c0.1,0,0.2,0,0.2,0.1c0,0.1,0,0.1-0.1,0.1c-0.1,0-0.2,0-0.4,0h-1.3c-0.5,0-0.9,0-1.2-0.1
			c-0.3,0-0.5-0.1-0.8-0.3c-0.4-0.2-0.8-0.5-1.2-1s-0.8-1-1.4-1.7c-0.2-0.3-0.4-0.5-0.6-0.8c-0.2-0.3-0.4-0.5-0.6-0.8
			c-0.2-0.2-0.3-0.5-0.5-0.7c-0.2-0.2-0.3-0.4-0.4-0.5c-0.1-0.1-0.2-0.1-0.2-0.1l-2.3,0c-0.1,0-0.1,0-0.1,0.1v0.4c0,0.9,0,1.7,0,2.4
			s0,1.3,0.1,1.7c0,0.3,0.1,0.5,0.2,0.7c0.1,0.2,0.3,0.3,0.6,0.3c0.1,0,0.3,0,0.5,0.1c0.2,0,0.3,0,0.4,0c0.1,0,0.1,0,0.1,0.1
			c0,0.1-0.1,0.1-0.3,0.1c-0.3,0-0.5,0-0.8,0c-0.3,0-0.5,0-0.7,0c-0.2,0-0.4,0-0.5,0c-0.1,0-0.2,0-0.3,0c-0.3,0-0.5,0-0.7,0
			c-0.2,0-0.4,0-0.6,0c-0.2,0-0.4,0-0.5,0c-0.2,0-0.3,0-0.3-0.1c0-0.1,0-0.1,0.1-0.1c0.1,0,0.2,0,0.3,0c0.1,0,0.2,0,0.3-0.1
			c0.2,0,0.3-0.1,0.4-0.3c0.1-0.2,0.1-0.4,0.2-0.7c0-0.4,0.1-1,0.1-1.7s0-1.5,0-2.4V217.4z M258.4,219c0,0.1,0,0.2,0.1,0.2
			c0.1,0.1,0.4,0.2,0.8,0.2c0.4,0.1,0.8,0.1,1.2,0.1c0.2,0,0.5,0,0.7-0.1c0.2,0,0.5-0.1,0.7-0.3c0.3-0.2,0.6-0.6,0.8-1.1
			c0.2-0.5,0.3-1.1,0.3-1.8c0-1.2-0.3-2.1-0.9-2.7c-0.6-0.7-1.4-1-2.4-1c-0.3,0-0.5,0-0.8,0c-0.2,0-0.4,0-0.5,0.1
			c-0.1,0-0.1,0.1-0.1,0.2V219z"/>
	</g>
	<g class="st0">
		<path class="st1" d="M271.9,212.4c0.1-0.3,0.2-0.5,0.2-0.6s0.1-0.1,0.2-0.1s0.1,0,0.2,0.1c0,0.1,0.1,0.3,0.2,0.6
			c0,0.1,0.2,0.4,0.3,0.9c0.2,0.5,0.4,1.1,0.7,1.7c0.3,0.7,0.5,1.4,0.9,2.2s0.6,1.6,0.9,2.4c0.3,0.8,0.6,1.5,0.9,2.3
			c0.3,0.7,0.5,1.3,0.7,1.8c0.2,0.4,0.3,0.7,0.5,1c0.2,0.3,0.3,0.5,0.4,0.6s0.3,0.3,0.4,0.3c0.1,0.1,0.2,0.1,0.3,0.1
			c0.1,0.1,0.3,0.1,0.4,0.1c0.1,0,0.2,0,0.3,0c0.1,0,0.2,0,0.2,0.1c0,0.1,0,0.1-0.1,0.1c-0.1,0-0.2,0-0.3,0c-0.1,0-0.2,0-0.4,0
			c-0.2,0-0.4,0-0.7,0c-0.3,0-0.6,0-0.9,0c-0.3,0-0.6,0-1,0c-0.2,0-0.3,0-0.4,0c-0.1,0-0.1,0-0.1-0.1s0-0.1,0.1-0.1
			c0.1,0,0.1-0.1,0.1-0.2s0-0.2,0-0.3l-1.7-4.6c0-0.1-0.1-0.1-0.2-0.1h-4c-0.1,0-0.2,0-0.2,0.1l-1.1,3.3c-0.2,0.5-0.3,0.9-0.3,1.3
			c0,0.2,0.1,0.3,0.2,0.4c0.2,0.1,0.3,0.1,0.5,0.1h0.2c0.1,0,0.2,0,0.2,0.1c0,0.1-0.1,0.1-0.3,0.1c-0.1,0-0.2,0-0.4,0
			c-0.1,0-0.3,0-0.4,0c-0.1,0-0.3,0-0.4,0c-0.1,0-0.2,0-0.3,0s-0.1,0-0.3,0c-0.1,0-0.3,0-0.5,0c-0.2,0-0.4,0-0.6,0
			c-0.2,0-0.4,0-0.7,0c-0.2,0-0.4,0-0.4-0.1c0-0.1,0.1-0.1,0.2-0.1c0.1,0,0.1,0,0.3,0s0.2,0,0.3,0c0.4-0.1,0.8-0.3,1-0.6
			s0.4-0.7,0.6-1.2L271.9,212.4z M273.8,219.9c0.1,0,0.1,0,0.1-0.1l-1.8-5c-0.1-0.3-0.2-0.3-0.3,0l-1.6,5c0,0.1,0,0.1,0.1,0.1H273.8
			z"/>
	</g>
	<g class="st0">
		<path class="st1" d="M283.1,212.4c0.1-0.3,0.2-0.5,0.2-0.6s0.1-0.1,0.2-0.1s0.1,0,0.2,0.1c0,0.1,0.1,0.3,0.2,0.6
			c0,0.1,0.2,0.4,0.3,0.9c0.2,0.5,0.4,1.1,0.7,1.7c0.3,0.7,0.5,1.4,0.9,2.2s0.6,1.6,0.9,2.4c0.3,0.8,0.6,1.5,0.9,2.3
			c0.3,0.7,0.5,1.3,0.7,1.8c0.2,0.4,0.3,0.7,0.5,1c0.2,0.3,0.3,0.5,0.4,0.6s0.3,0.3,0.4,0.3c0.1,0.1,0.2,0.1,0.3,0.1
			c0.1,0.1,0.3,0.1,0.4,0.1c0.1,0,0.2,0,0.3,0c0.1,0,0.2,0,0.2,0.1c0,0.1,0,0.1-0.1,0.1c-0.1,0-0.2,0-0.3,0c-0.1,0-0.2,0-0.4,0
			c-0.2,0-0.4,0-0.7,0c-0.3,0-0.6,0-0.9,0c-0.3,0-0.6,0-1,0c-0.2,0-0.3,0-0.4,0c-0.1,0-0.1,0-0.1-0.1s0-0.1,0.1-0.1
			c0.1,0,0.1-0.1,0.1-0.2s0-0.2,0-0.3l-1.7-4.6c0-0.1-0.1-0.1-0.2-0.1h-4c-0.1,0-0.2,0-0.2,0.1l-1.1,3.3c-0.2,0.5-0.3,0.9-0.3,1.3
			c0,0.2,0.1,0.3,0.2,0.4c0.2,0.1,0.3,0.1,0.5,0.1h0.2c0.1,0,0.2,0,0.2,0.1c0,0.1-0.1,0.1-0.3,0.1c-0.1,0-0.2,0-0.4,0
			c-0.1,0-0.3,0-0.4,0c-0.1,0-0.3,0-0.4,0c-0.1,0-0.2,0-0.3,0s-0.1,0-0.3,0c-0.1,0-0.3,0-0.5,0c-0.2,0-0.4,0-0.6,0
			c-0.2,0-0.4,0-0.7,0c-0.2,0-0.4,0-0.4-0.1c0-0.1,0.1-0.1,0.2-0.1c0.1,0,0.1,0,0.3,0s0.2,0,0.3,0c0.4-0.1,0.8-0.3,1-0.6
			s0.4-0.7,0.6-1.2L283.1,212.4z M285.1,219.9c0.1,0,0.1,0,0.1-0.1l-1.8-5c-0.1-0.3-0.2-0.3-0.3,0l-1.6,5c0,0.1,0,0.1,0.1,0.1H285.1
			z"/>
	</g>
	<g class="st0">
		<path class="st1" d="M294.3,220.7c0,0.9,0,1.7,0,2.4c0,0.7,0,1.3,0.1,1.7c0,0.3,0.1,0.5,0.2,0.7c0.1,0.2,0.3,0.3,0.6,0.3
			c0.1,0,0.3,0,0.5,0.1c0.2,0,0.3,0,0.4,0c0.1,0,0.1,0,0.1,0.1c0,0.1-0.1,0.1-0.3,0.1c-0.3,0-0.5,0-0.8,0c-0.3,0-0.5,0-0.7,0
			c-0.2,0-0.4,0-0.5,0c-0.1,0-0.2,0-0.3,0s-0.1,0-0.3,0c-0.1,0-0.3,0-0.5,0c-0.2,0-0.4,0-0.6,0c-0.2,0-0.4,0-0.5,0
			c-0.2,0-0.3,0-0.3-0.1c0-0.1,0-0.1,0.1-0.1c0.1,0,0.2,0,0.3,0c0.1,0,0.2,0,0.3-0.1c0.2,0,0.3-0.1,0.4-0.3c0.1-0.2,0.1-0.4,0.2-0.7
			c0-0.4,0.1-1,0.1-1.7c0-0.7,0-1.5,0-2.4v-7.9l-2.8,0c-0.3,0-0.5,0-0.7,0c-0.2,0-0.4,0.1-0.5,0.1c-0.1,0-0.3,0.1-0.4,0.2
			c-0.1,0.1-0.2,0.2-0.3,0.3c-0.1,0.2-0.2,0.3-0.2,0.4c0,0.1-0.1,0.2-0.1,0.2c0,0.1-0.1,0.2-0.2,0.2c-0.1,0-0.1-0.1-0.1-0.2
			c0,0,0-0.2,0.1-0.4c0-0.2,0.1-0.4,0.1-0.6c0-0.2,0.1-0.4,0.1-0.6c0-0.2,0.1-0.3,0.1-0.3c0-0.1,0.1-0.1,0.1-0.2s0.1-0.1,0.1-0.1
			c0.1,0,0.2,0,0.3,0.1c0.1,0.1,0.3,0.1,0.6,0.1c0.3,0,0.6,0,0.9,0.1c0.3,0,0.5,0,0.6,0h7c0.3,0,0.6,0,0.8,0c0.2,0,0.4,0,0.6-0.1
			c0.1,0,0.2,0,0.3-0.1c0.1,0,0.1,0,0.2,0c0,0,0.1,0,0.1,0.1c0,0,0,0.1,0,0.2c0,0.1,0,0.3,0,0.5c0,0.2,0,0.4,0,0.6
			c0,0.2,0,0.4,0,0.6c0,0.2,0,0.3,0,0.3c0,0.2,0,0.2-0.1,0.2c0,0-0.1,0-0.1-0.1c0,0,0-0.1,0-0.3l0-0.2c0-0.1-0.1-0.3-0.1-0.4
			c-0.1-0.1-0.2-0.2-0.4-0.3c-0.2-0.1-0.4-0.2-0.7-0.2c-0.3-0.1-0.7-0.1-1.1-0.1l-2.4,0V220.7z"/>
	</g>
	<g class="st0">
		<path class="st1" d="M303.2,212.4c0.1-0.3,0.2-0.5,0.2-0.6s0.1-0.1,0.2-0.1s0.1,0,0.2,0.1c0,0.1,0.1,0.3,0.2,0.6
			c0,0.1,0.2,0.4,0.3,0.9c0.2,0.5,0.4,1.1,0.7,1.7c0.3,0.7,0.5,1.4,0.9,2.2s0.6,1.6,0.9,2.4c0.3,0.8,0.6,1.5,0.9,2.3
			c0.3,0.7,0.5,1.3,0.7,1.8c0.2,0.4,0.3,0.7,0.5,1c0.2,0.3,0.3,0.5,0.4,0.6s0.3,0.3,0.4,0.3c0.1,0.1,0.2,0.1,0.3,0.1
			c0.1,0.1,0.3,0.1,0.4,0.1c0.1,0,0.2,0,0.3,0c0.1,0,0.2,0,0.2,0.1c0,0.1,0,0.1-0.1,0.1c-0.1,0-0.2,0-0.3,0c-0.1,0-0.2,0-0.4,0
			c-0.2,0-0.4,0-0.7,0c-0.3,0-0.6,0-0.9,0c-0.3,0-0.6,0-1,0c-0.2,0-0.3,0-0.4,0c-0.1,0-0.1,0-0.1-0.1s0-0.1,0.1-0.1
			c0.1,0,0.1-0.1,0.1-0.2s0-0.2,0-0.3l-1.7-4.6c0-0.1-0.1-0.1-0.2-0.1h-4c-0.1,0-0.2,0-0.2,0.1l-1.1,3.3c-0.2,0.5-0.3,0.9-0.3,1.3
			c0,0.2,0.1,0.3,0.2,0.4c0.2,0.1,0.3,0.1,0.5,0.1h0.2c0.1,0,0.2,0,0.2,0.1c0,0.1-0.1,0.1-0.3,0.1c-0.1,0-0.2,0-0.4,0
			c-0.1,0-0.3,0-0.4,0c-0.1,0-0.3,0-0.4,0c-0.1,0-0.2,0-0.3,0s-0.1,0-0.3,0c-0.1,0-0.3,0-0.5,0c-0.2,0-0.4,0-0.6,0
			c-0.2,0-0.4,0-0.7,0c-0.2,0-0.4,0-0.4-0.1c0-0.1,0.1-0.1,0.2-0.1c0.1,0,0.1,0,0.3,0s0.2,0,0.3,0c0.4-0.1,0.8-0.3,1-0.6
			s0.4-0.7,0.6-1.2L303.2,212.4z M305.2,219.9c0.1,0,0.1,0,0.1-0.1l-1.8-5c-0.1-0.3-0.2-0.3-0.3,0l-1.6,5c0,0.1,0,0.1,0.1,0.1H305.2
			z"/>
		<path class="st1" d="M314.5,225.9c-1-0.3-1.8-0.8-2.6-1.5c-0.4-0.4-0.8-0.8-1.1-1.3s-0.5-0.9-0.7-1.4s-0.3-1-0.4-1.4
			c-0.1-0.5-0.1-0.9-0.1-1.4c0-0.3,0-0.7,0.1-1.1c0.1-0.4,0.2-0.9,0.3-1.3c0.2-0.5,0.4-0.9,0.6-1.4s0.6-0.9,1-1.3
			c0.3-0.3,0.6-0.5,1-0.8c0.4-0.2,0.8-0.5,1.2-0.6c0.5-0.2,1-0.3,1.6-0.4c0.6-0.1,1.2-0.2,2-0.2c0.4,0,0.8,0,1.3,0s1,0.1,1.4,0.2
			c0.4,0.1,0.7,0.1,1,0.2s0.6,0.1,0.9,0.1c0.1,0,0.2,0,0.2,0.1c0,0,0,0.1,0,0.1c0,0.1,0,0.2,0,0.3s0,0.4-0.1,0.7c0,0.1,0,0.3,0,0.5
			c0,0.2,0,0.4,0,0.6c0,0.2,0,0.4,0,0.5c0,0.1,0,0.3,0,0.3c0,0.3-0.1,0.4-0.2,0.4s-0.1-0.1-0.1-0.4c0-0.4-0.1-0.7-0.2-1.1
			c-0.1-0.3-0.3-0.6-0.6-0.8c-0.3-0.3-0.8-0.5-1.5-0.7c-0.7-0.2-1.4-0.3-2.2-0.3c-0.6,0-1.2,0-1.6,0.1c-0.5,0.1-0.9,0.2-1.2,0.3
			c-0.3,0.1-0.6,0.3-0.9,0.4c-0.2,0.2-0.4,0.3-0.6,0.5c-0.7,0.7-1.1,1.4-1.4,2.2s-0.3,1.7-0.3,2.7c0,0.9,0.2,1.8,0.5,2.6
			c0.3,0.8,0.8,1.5,1.4,2.2c0.6,0.6,1.3,1.1,2.1,1.5c0.8,0.4,1.7,0.6,2.7,0.6c0.7,0,1.3-0.1,1.9-0.2c0.5-0.1,1-0.4,1.4-0.8
			c0.2-0.2,0.4-0.5,0.5-0.8c0.1-0.3,0.2-0.6,0.2-0.8c0-0.2,0.1-0.3,0.2-0.3c0,0,0.1,0,0.1,0.1c0,0.1,0,0.1,0,0.2c0,0,0,0.2,0,0.3
			c0,0.2-0.1,0.4-0.1,0.7c0,0.2-0.1,0.5-0.1,0.8c0,0.3-0.1,0.5-0.1,0.6c-0.1,0.2-0.1,0.3-0.2,0.3c0,0.1-0.2,0.1-0.3,0.2
			c-0.2,0.1-0.4,0.1-0.7,0.2c-0.3,0.1-0.5,0.1-0.8,0.1c-0.3,0-0.6,0.1-0.9,0.1c-0.3,0-0.6,0-0.9,0
			C316.7,226.4,315.5,226.2,314.5,225.9z"/>
		<path class="st1" d="M327.6,212.4c0.1-0.3,0.2-0.5,0.2-0.6s0.1-0.1,0.2-0.1s0.1,0,0.2,0.1c0,0.1,0.1,0.3,0.2,0.6
			c0,0.1,0.2,0.4,0.3,0.9c0.2,0.5,0.4,1.1,0.7,1.7c0.3,0.7,0.5,1.4,0.9,2.2s0.6,1.6,0.9,2.4c0.3,0.8,0.6,1.5,0.9,2.3
			c0.3,0.7,0.5,1.3,0.7,1.8c0.2,0.4,0.3,0.7,0.5,1c0.2,0.3,0.3,0.5,0.4,0.6s0.3,0.3,0.4,0.3c0.1,0.1,0.2,0.1,0.3,0.1
			c0.1,0.1,0.3,0.1,0.4,0.1c0.1,0,0.2,0,0.3,0c0.1,0,0.2,0,0.2,0.1c0,0.1,0,0.1-0.1,0.1c-0.1,0-0.2,0-0.3,0c-0.1,0-0.2,0-0.4,0
			c-0.2,0-0.4,0-0.7,0c-0.3,0-0.6,0-0.9,0c-0.3,0-0.6,0-1,0c-0.2,0-0.3,0-0.4,0c-0.1,0-0.1,0-0.1-0.1s0-0.1,0.1-0.1
			c0.1,0,0.1-0.1,0.1-0.2s0-0.2,0-0.3l-1.7-4.6c0-0.1-0.1-0.1-0.2-0.1h-4c-0.1,0-0.2,0-0.2,0.1l-1.1,3.3c-0.2,0.5-0.3,0.9-0.3,1.3
			c0,0.2,0.1,0.3,0.2,0.4c0.2,0.1,0.3,0.1,0.5,0.1h0.2c0.1,0,0.2,0,0.2,0.1c0,0.1-0.1,0.1-0.3,0.1c-0.1,0-0.2,0-0.4,0
			c-0.1,0-0.3,0-0.4,0c-0.1,0-0.3,0-0.4,0c-0.1,0-0.2,0-0.3,0s-0.1,0-0.3,0c-0.1,0-0.3,0-0.5,0c-0.2,0-0.4,0-0.6,0
			c-0.2,0-0.4,0-0.7,0c-0.2,0-0.4,0-0.4-0.1c0-0.1,0.1-0.1,0.2-0.1c0.1,0,0.1,0,0.3,0s0.2,0,0.3,0c0.4-0.1,0.8-0.3,1-0.6
			s0.4-0.7,0.6-1.2L327.6,212.4z M329.6,219.9c0.1,0,0.1,0,0.1-0.1l-1.8-5c-0.1-0.3-0.2-0.3-0.3,0l-1.6,5c0,0.1,0,0.1,0.1,0.1H329.6
			z"/>
	</g>
	<line class="st2" x1="24.7" y1="199.4" x2="334.1" y2="199.4"/>
	<line class="st2" x1="128.4" y1="137.8" x2="334.1" y2="137.8"/>
	<g class="st0">
		<path class="st1" d="M32.7,130.4v2.5H30v5.9h-2.7v-5.9h-2.7v-2.5H32.7z"/>
		<path class="st1" d="M32.1,138.8v-5.9h-1.7v-2.5h8.9v2.5h-4.5v1h2.9v1.5h-2.9v1H40v2.5H32.1z"/>
		<path class="st1" d="M39.2,138.8l2.8-8.4h4.2l2.8,8.4h-3.2l-0.5-1.5h-2.5l-0.5,1.5H39.2z M44,132.3l-1.2,3.3h2.3L44,132.3z"/>
		<path class="st1" d="M51.2,134.5c0,0.5,0.1,0.8,0.3,1s0.4,0.4,0.6,0.6c0.2,0.1,0.6,0.2,1.1,0.3c0.5,0,0.9-0.1,1.1-0.2
			c0.2-0.1,0.5-0.3,0.7-0.5l1.6,1.8c-0.5,0.4-1,0.8-1.4,0.9c-0.5,0.2-1.2,0.3-2.1,0.3c-0.9,0-1.5-0.2-2-0.4
			c-0.4-0.2-0.9-0.5-1.3-0.8c-0.4-0.3-0.8-0.8-1-1.3c-0.2-0.5-0.4-1.1-0.4-1.8c0-0.7,0.1-1.3,0.4-1.8c0.2-0.5,0.6-0.9,1-1.3
			c0.4-0.3,0.9-0.6,1.3-0.8c0.4-0.2,1.1-0.3,2-0.4c0.9,0,1.6,0.2,2.1,0.3s0.9,0.5,1.4,0.9l-1.6,1.8c-0.3-0.2-0.5-0.4-0.7-0.5
			c-0.2-0.1-0.6-0.2-1.1-0.2c-0.5,0.1-0.8,0.2-1.1,0.3c-0.2,0.1-0.4,0.3-0.6,0.6S51.3,134,51.2,134.5z"/>
		<path class="st1" d="M62,133.3v-2.9h2.7v8.4H62v-3h-2.2v3H57v-5.9h-1.7v-2.5h4.5v2.9H62z"/>
		<path class="st1" d="M65.3,138.8v-5.9h-1.7v-2.5h8.9v2.5H68v1h2.9v1.5H68v1h5.2v2.5H65.3z"/>
		<path class="st1" d="M73.2,138.8v-8.4h5.5c0.7,0.1,1.2,0.2,1.7,0.5c0.4,0.3,0.8,0.7,1,1.2c0.2,0.7,0.2,1.3,0,1.7
			c-0.1,0.4-0.4,0.7-0.7,1s-0.8,0.5-1.5,0.6l0.6,0.8h4.5v2.5h-5.3l-2.7-2.8v2.8H73.2z M76.2,132.5v1.5h2.1c0.1,0,0.2,0,0.4-0.1
			s0.2-0.3,0.2-0.6c0-0.3-0.1-0.5-0.2-0.6c-0.1-0.1-0.3-0.2-0.3-0.2H76.2z"/>
		<path class="st1" d="M92.7,135.2l-0.9,3.6h-2.7l-2.6-8.4h2.7l1.2,3.6l1-3.6h2.5l1.2,3.6l0.8-3.6h2.7l-2.1,8.4h-2.7L92.7,135.2z"/>
		<path class="st1" d="M97.4,138.8l2.8-8.4h4.2l2.8,8.4h-3.2l-0.5-1.5h-2.5l-0.5,1.5H97.4z M102.2,132.3l-1.2,3.3h2.3L102.2,132.3z"
			/>
		<path class="st1" d="M107,138.8v-8.4h5.5c0.7,0.1,1.2,0.2,1.7,0.5c0.4,0.3,0.8,0.7,1,1.2c0.2,0.7,0.2,1.3,0,1.7
			c-0.1,0.4-0.4,0.7-0.7,1s-0.8,0.5-1.5,0.6l0.6,0.8h4.5v2.5h-5.3L110,136v2.8H107z M110,132.5v1.5h2.1c0.1,0,0.2,0,0.4-0.1
			s0.2-0.3,0.2-0.6c0-0.3-0.1-0.5-0.2-0.6c-0.1-0.1-0.3-0.2-0.3-0.2H110z"/>
		<path class="st1" d="M123.2,132.9h-2.6c-1,0-1.1,0.2-0.4,0.8c1.3,1.1,1.9,2.2,1.8,3.2c0,1-0.6,1.7-1.8,1.9h-7.3v-2.5h4.6
			c1.1,0,1.2-0.3,0.4-0.9c-1.3-1.2-1.9-2.4-1.7-3.4c0.2-1,0.8-1.6,1.9-1.6h5.2V132.9z"/>
	</g>
</g>
</svg>
