<?xml version="1.0" encoding="utf-8"?>
<!-- Generator: Adobe Illustrator 22.1.0, SVG Export Plug-In . SVG Version: 6.00 Build 0)  -->
<svg version="1.1" id="Capa_1" xmlns="http://www.w3.org/2000/svg" xmlns:xlink="http://www.w3.org/1999/xlink" x="0px" y="0px"
	 viewBox="0 0 359.5 359.5" style="enable-background:new 0 0 359.5 359.5;" xml:space="preserve">
<style type="text/css">
	.st0{enable-background:new    ;}
	.st1{fill:#FFFFFF;}
	.st2{fill:none;stroke:#FFFFFF;stroke-width:2;stroke-miterlimit:10;}
</style>
<title>episode-VI-featured</title>
<g id="Episodio_VI">
	<g class="st0">
		<path class="st1" d="M31.8,161.3c0-7.3,0-8.7-0.1-10.2c-0.1-1.6-0.5-2.4-2.1-2.7c-0.4-0.1-1.2-0.1-1.9-0.1c-0.5,0-0.8-0.1-0.8-0.4
			s0.3-0.4,1.1-0.4c1.3,0,2.7,0,3.9,0c1.3,0,2.4,0.1,3,0.1c1.5,0,11.1,0,12.1,0c0.9-0.1,1.7-0.2,2.1-0.3c0.2,0,0.5-0.2,0.8-0.2
			c0.2,0,0.3,0.2,0.3,0.4c0,0.3-0.2,0.9-0.4,3.1c0,0.5-0.1,2.6-0.2,3.2c0,0.2-0.1,0.5-0.5,0.5s-0.4-0.2-0.4-0.7c0-0.3,0-1.2-0.3-1.7
			c-0.3-0.9-0.8-1.4-3.2-1.7c-0.8-0.1-5.9-0.2-6.8-0.2c-0.2,0-0.3,0.1-0.3,0.5v12.2c0,0.3,0,0.5,0.3,0.5c1.1,0,6.6,0,7.7-0.1
			c1.2-0.1,1.9-0.2,2.3-0.7c0.3-0.4,0.5-0.6,0.8-0.6c0.2,0,0.3,0.1,0.3,0.4s-0.2,1.1-0.4,3.5c0,1-0.2,2.9-0.2,3.2
			c0,0.4,0,0.9-0.4,0.9c-0.3,0-0.4-0.2-0.4-0.4c0-0.5,0-1.1-0.2-1.7c-0.2-1-0.9-1.7-2.7-1.9c-0.9-0.1-5.7-0.1-6.8-0.1
			c-0.2,0-0.3,0.2-0.3,0.5v3.8c0,1.6,0,6.1,0,7.5c0.1,3.3,0.9,4.1,5.8,4.1c1.3,0,3.3,0,4.5-0.6c1.3-0.6,1.8-1.6,2.2-3.6
			c0.1-0.5,0.2-0.7,0.5-0.7c0.4,0,0.4,0.4,0.4,0.9c0,1.1-0.4,4.4-0.6,5.4c-0.3,1.3-0.8,1.3-2.6,1.3c-3.6,0-6.3-0.1-8.3-0.1
			c-2.1-0.1-3.6-0.1-5-0.1c-0.5,0-1.6,0-2.7,0c-1.1,0-2.4,0.1-3.3,0.1c-0.6,0-1-0.1-1-0.5c0-0.2,0.2-0.4,0.8-0.4
			c0.7,0,1.3-0.1,1.7-0.2c1-0.2,1.2-1.3,1.4-2.7c0.2-2,0.2-5.8,0.2-10.3V161.3z"/>
		<path class="st1" d="M59.9,161.3c0-7.3,0-8.7-0.1-10.2c-0.1-1.6-0.5-2.4-2.1-2.7c-0.4-0.1-1.2-0.1-1.9-0.1c-0.5,0-0.8-0.1-0.8-0.4
			s0.3-0.4,1.1-0.4c2.6,0,5.6,0.1,6.9,0.1c2,0,4.8-0.1,7-0.1c6,0,8.2,2,9,2.7c1.1,1,2.4,3.2,2.4,5.7c0,6.8-5,11.7-11.9,11.7
			c-0.2,0-0.8,0-1,0c-0.2,0-0.6-0.1-0.6-0.4c0-0.4,0.3-0.5,1.4-0.5c2.7,0,6.5-3,6.5-8c0-1.6-0.1-4.8-2.8-7.2
			c-1.7-1.6-3.7-1.9-4.8-1.9c-0.7,0-1.4,0-1.9,0.2c-0.2,0.1-0.4,0.4-0.4,0.9v19.3c0,4.4,0,8.2,0.2,10.3c0.1,1.3,0.4,2.4,1.9,2.6
			c0.7,0.1,1.7,0.2,2.5,0.2c0.5,0,0.8,0.1,0.8,0.4c0,0.3-0.4,0.5-0.9,0.5c-3.2,0-6.2-0.1-7.5-0.1c-1.1,0-4.1,0.1-6.1,0.1
			c-0.6,0-1-0.1-1-0.5c0-0.2,0.2-0.4,0.8-0.4c0.7,0,1.3-0.1,1.7-0.2c1-0.2,1.2-1.3,1.4-2.7c0.2-2,0.2-5.8,0.2-10.3V161.3z"/>
		<path class="st1" d="M89.1,161.3c0-7.3,0-8.7-0.1-10.2c-0.1-1.6-0.6-2.5-1.6-2.7c-0.5-0.1-1.2-0.2-1.7-0.2c-0.5,0-0.8-0.1-0.8-0.5
			c0-0.3,0.4-0.4,1.2-0.4c1.8,0,4.9,0.1,6.3,0.1c1.2,0,4.1-0.1,5.9-0.1c0.6,0,1,0.1,1,0.4c0,0.4-0.3,0.5-0.8,0.5
			c-0.5,0-0.9,0-1.4,0.1c-1.3,0.2-1.7,1.1-1.8,2.7c-0.1,1.5-0.1,2.9-0.1,10.2v8.5c0,4.7,0,8.5,0.2,10.6c0.1,1.3,0.5,2.2,1.9,2.4
			c0.7,0.1,1.7,0.2,2.5,0.2c0.5,0,0.8,0.1,0.8,0.4c0,0.3-0.4,0.5-0.9,0.5c-3.2,0-6.2-0.1-7.5-0.1c-1.1,0-4.1,0.1-6.1,0.1
			c-0.6,0-1-0.1-1-0.5c0-0.2,0.2-0.4,0.8-0.4c0.7,0,1.3-0.1,1.7-0.2c1-0.2,1.3-1,1.4-2.4c0.2-2,0.2-5.8,0.2-10.5V161.3z"/>
		<path class="st1" d="M105.8,183.1c-0.8-0.3-0.9-0.6-0.9-1.6c0-2.7,0.2-5.5,0.2-6.3c0-0.7,0.2-1.3,0.6-1.3c0.4,0,0.5,0.4,0.5,0.8
			c0,0.6,0.2,1.6,0.4,2.5c1.1,3.6,3.9,4.9,6.9,4.9c4.3,0,6.5-2.9,6.5-5.5c0-2.4-0.7-4.6-4.7-7.7l-2.2-1.7c-5.3-4.1-7.1-7.5-7.1-11.4
			c0-5.3,4.4-9.1,11.1-9.1c3.1,0,5.2,0.5,6.4,0.8c0.4,0.1,0.7,0.2,0.7,0.6c0,0.6-0.2,2-0.2,5.8c0,1.1-0.1,1.4-0.5,1.4
			c-0.3,0-0.5-0.3-0.5-0.9c0-0.4-0.2-1.9-1.3-3.2c-0.7-0.9-2.1-2.4-5.3-2.4c-3.6,0-5.7,2.1-5.7,5c0,2.2,1.1,3.9,5.1,6.9l1.4,1
			c5.8,4.4,7.9,7.7,7.9,12.3c0,2.8-1.1,6.1-4.5,8.4c-2.4,1.5-5.1,2-7.7,2C110,184.4,107.9,184.1,105.8,183.1z"/>
	</g>
	<g class="st0">
		<path class="st1" d="M128.7,165.5c0-8.2,5.4-18.9,19.9-18.9c12,0,19.5,7,19.5,18c0,11-7.7,19.8-20,19.8
			C134.3,184.4,128.7,174,128.7,165.5z M161.3,166.4c0-10.8-6.2-17.5-14.1-17.5c-5.5,0-11.9,3.1-11.9,15.1c0,10,5.5,18,14.8,18
			C153.5,182,161.3,180.3,161.3,166.4z"/>
		<path class="st1" d="M175.3,161.3c0-7.3,0-8.7-0.1-10.2c-0.1-1.6-0.5-2.4-2.1-2.7c-0.4-0.1-1.2-0.1-1.9-0.1
			c-0.5,0-0.8-0.1-0.8-0.4s0.3-0.4,1.1-0.4c2.6,0,5.6,0.1,6.9,0.1c1.5,0,4.5-0.1,7.4-0.1c6,0,14.1,0,19.3,5.5
			c2.4,2.5,4.7,6.5,4.7,12.2c0,6.1-2.6,10.7-5.3,13.5c-2.2,2.3-7.2,5.7-16.2,5.7c-1.7,0-3.7-0.1-5.5-0.3c-1.8-0.1-3.5-0.3-4.7-0.3
			c-0.5,0-1.6,0-2.7,0c-1.1,0-2.4,0.1-3.3,0.1c-0.6,0-1-0.1-1-0.5c0-0.2,0.2-0.4,0.8-0.4c0.7,0,1.3-0.1,1.7-0.2
			c1-0.2,1.2-1.3,1.4-2.7c0.2-2,0.2-5.8,0.2-10.3V161.3z M181.3,166.6c0,5.1,0,8.8,0.1,9.7c0,1.2,0.1,3.1,0.5,3.7
			c0.6,0.9,2.5,1.9,6.3,1.9c4.9,0,8.2-1,11.1-3.5c3.1-2.7,4.1-7,4.1-12c0-6.1-2.6-10.1-4.6-12.1c-4.4-4.2-9.9-4.8-13.7-4.8
			c-1,0-2.7,0.1-3.1,0.3c-0.4,0.2-0.6,0.4-0.6,1c0,1.6,0,5.8,0,9.6V166.6z"/>
		<path class="st1" d="M217.1,161.3c0-7.3,0-8.7-0.1-10.2c-0.1-1.6-0.6-2.5-1.6-2.7c-0.5-0.1-1.2-0.2-1.7-0.2
			c-0.5,0-0.8-0.1-0.8-0.5c0-0.3,0.4-0.4,1.2-0.4c1.8,0,4.9,0.1,6.3,0.1c1.2,0,4.1-0.1,5.9-0.1c0.6,0,1,0.1,1,0.4
			c0,0.4-0.3,0.5-0.8,0.5s-0.9,0-1.4,0.1c-1.3,0.2-1.7,1.1-1.8,2.7c-0.1,1.5-0.1,2.9-0.1,10.2v8.5c0,4.7,0,8.5,0.2,10.6
			c0.1,1.3,0.5,2.2,1.9,2.4c0.7,0.1,1.7,0.2,2.5,0.2c0.5,0,0.8,0.1,0.8,0.4c0,0.3-0.4,0.5-0.9,0.5c-3.2,0-6.2-0.1-7.5-0.1
			c-1.1,0-4.1,0.1-6.1,0.1c-0.6,0-1-0.1-1-0.5c0-0.2,0.2-0.4,0.8-0.4c0.7,0,1.3-0.1,1.7-0.2c1-0.2,1.3-1,1.4-2.4
			c0.2-2,0.2-5.8,0.2-10.5V161.3z"/>
	</g>
	<g class="st0">
		<path class="st1" d="M231.5,165.5c0-8.2,5.4-18.9,19.9-18.9c12,0,19.5,7,19.5,18c0,11-7.7,19.8-20,19.8
			C237.1,184.4,231.5,174,231.5,165.5z M264.1,166.4c0-10.8-6.2-17.5-14.1-17.5c-5.5,0-11.9,3.1-11.9,15.1c0,10,5.5,18,14.8,18
			C256.3,182,264.1,180.3,264.1,166.4z"/>
		<path class="st1" d="M286.6,152c-1.1-2.7-1.9-3.2-3.7-3.7c-0.7-0.2-1.5-0.2-1.9-0.2c-0.4,0-0.6-0.1-0.6-0.4c0-0.4,0.5-0.4,1.3-0.4
			c2.6,0,5.3,0.1,7,0.1c1.2,0,3.5-0.1,5.9-0.1c0.6,0,1.1,0.1,1.1,0.4s-0.3,0.4-0.7,0.4c-0.8,0-1.5,0-1.9,0.3c-0.3,0.2-0.5,0.6-0.5,1
			c0,0.6,0.4,2,1.1,3.7l8.3,21.9h0.2c2.1-5.3,8.3-20.8,9.5-24c0.2-0.6,0.4-1.3,0.4-1.8c0-0.4-0.2-0.8-0.6-0.9
			c-0.6-0.2-1.3-0.2-1.9-0.2c-0.4,0-0.8,0-0.8-0.4c0-0.4,0.4-0.5,1.3-0.5c2.4,0,4.4,0.1,5.1,0.1c0.8,0,3.1-0.1,4.5-0.1
			c0.6,0,1,0.1,1,0.4s-0.3,0.4-0.8,0.4c-0.5,0-1.5,0-2.4,0.6c-0.6,0.4-1.3,1.3-2.7,4.3c-1.9,4.5-3.2,7.1-5.8,13.1
			c-3.1,7-5.4,12.3-6.4,14.7c-1.3,2.8-1.5,3.6-2.2,3.6c-0.6,0-0.9-0.7-1.8-2.9L286.6,152z"/>
		<path class="st1" d="M323.6,161.3c0-7.3,0-8.7-0.1-10.2c-0.1-1.6-0.6-2.5-1.6-2.7c-0.5-0.1-1.2-0.2-1.7-0.2
			c-0.5,0-0.8-0.1-0.8-0.5c0-0.3,0.4-0.4,1.2-0.4c1.8,0,4.9,0.1,6.3,0.1c1.2,0,4.1-0.1,5.9-0.1c0.6,0,1,0.1,1,0.4
			c0,0.4-0.3,0.5-0.8,0.5c-0.5,0-0.9,0-1.4,0.1c-1.3,0.2-1.7,1.1-1.8,2.7c-0.1,1.5-0.1,2.9-0.1,10.2v8.5c0,4.7,0,8.5,0.2,10.6
			c0.1,1.3,0.5,2.2,1.9,2.4c0.7,0.1,1.7,0.2,2.5,0.2c0.5,0,0.8,0.1,0.8,0.4c0,0.3-0.4,0.5-0.9,0.5c-3.2,0-6.2-0.1-7.5-0.1
			c-1.1,0-4.1,0.1-6.1,0.1c-0.6,0-1-0.1-1-0.5c0-0.2,0.2-0.4,0.8-0.4c0.7,0,1.3-0.1,1.7-0.2c1-0.2,1.3-1,1.4-2.4
			c0.2-2,0.2-5.8,0.2-10.5V161.3z"/>
	</g>
	<g class="st0">
		<path class="st1" d="M31.8,216.3c0-0.9,0-1.6,0-2.2s0-1,0-1.3c0-0.3,0-0.6,0-0.8c0-0.2,0-0.4,0-0.6c0-0.4-0.1-0.7-0.2-0.9
			c-0.1-0.2-0.4-0.3-0.8-0.4c-0.1,0-0.2,0-0.4-0.1c-0.2,0-0.3,0-0.4,0c-0.1,0-0.2,0-0.2-0.1c0-0.1,0.1-0.2,0.4-0.2
			c0.3,0,0.5,0,0.8,0s0.6,0,0.8,0l0.9,0c0,0,0.3,0,0.8,0c0.5,0,1.1,0,1.7,0c0.6,0,1.2,0,1.7,0c0.5,0,0.9,0,1,0c0.4,0,0.8-0.1,1-0.1
			c0.1,0,0.1,0,0.2-0.1s0.1,0,0.2,0c0.1,0,0.1,0.1,0.1,0.2c0,0.1,0,0.2-0.1,0.4c0,0.2-0.1,0.4-0.1,0.7c0,0.1,0,0.2,0,0.3
			c0,0.1,0,0.3,0,0.4c0,0.2,0,0.3,0,0.5c0,0.1,0,0.2,0,0.3c0,0.1,0,0.1-0.1,0.2c0,0.1-0.1,0.1-0.1,0.1c-0.1,0-0.2-0.1-0.2-0.3
			c0-0.1,0-0.2,0-0.4c0-0.2-0.1-0.3-0.1-0.5c-0.1-0.2-0.2-0.3-0.4-0.5s-0.6-0.2-1.2-0.3c-0.1,0-0.3,0-0.6,0s-0.7,0-1,0
			c-0.3,0-0.7,0-1,0c-0.3,0-0.5,0-0.5,0c-0.1,0-0.1,0.1-0.1,0.2v6.3c0,0.2,0,0.2,0.1,0.2c0.1,0,0.3,0,0.6,0c0.3,0,0.7,0,1.1,0
			c0.4,0,0.8,0,1.2,0c0.4,0,0.6,0,0.8,0c0.3,0,0.5-0.1,0.7-0.1c0.2,0,0.3-0.1,0.4-0.2c0.2-0.2,0.3-0.3,0.3-0.3
			c0.1,0,0.1,0.1,0.1,0.2c0,0.1,0,0.2-0.1,0.4c0,0.2-0.1,0.5-0.1,0.9c0,0.1,0,0.3,0,0.4c0,0.1,0,0.3,0,0.4c0,0.1,0,0.3,0,0.4
			c0,0.1,0,0.2,0,0.2c0,0.1,0,0.2,0,0.3c0,0.1-0.1,0.1-0.1,0.1c-0.1,0-0.2-0.1-0.2-0.2c0-0.1,0-0.2,0-0.4c0-0.1,0-0.2-0.1-0.4
			c0-0.2-0.1-0.3-0.3-0.5c-0.2-0.2-0.4-0.3-0.9-0.3c-0.2,0-0.4,0-0.7,0c-0.3,0-0.7,0-1,0c-0.3,0-0.7,0-1,0c-0.3,0-0.5,0-0.6,0
			c-0.1,0-0.2,0.1-0.2,0.2v2c0,0.2,0,0.5,0,0.9s0,0.8,0,1.2s0,0.8,0,1.1s0,0.6,0,0.7c0,0.4,0.1,0.7,0.1,1s0.2,0.4,0.4,0.6
			c0.2,0.1,0.5,0.2,0.8,0.3s0.8,0.1,1.3,0.1c0.3,0,0.7,0,1.1,0s0.8-0.1,1.1-0.2c0.3-0.1,0.5-0.3,0.7-0.6c0.2-0.3,0.3-0.6,0.3-1.1
			c0-0.2,0.1-0.3,0.2-0.3c0.1,0,0.1,0,0.1,0.1c0,0.1,0,0.2,0,0.2c0,0,0,0.2,0,0.4c0,0.2,0,0.4-0.1,0.6c0,0.2-0.1,0.5-0.1,0.7
			c0,0.2-0.1,0.4-0.1,0.5c0,0.2-0.1,0.3-0.1,0.3c0,0.1-0.1,0.1-0.2,0.2c-0.1,0-0.2,0.1-0.3,0.1s-0.3,0-0.5,0c-0.9,0-1.6,0-2.2,0
			c-0.6,0-1.2,0-1.6,0c-0.4,0-0.8,0-1.1-0.1c-0.3,0-0.5,0-0.7,0c0,0-0.1,0-0.3,0s-0.4,0-0.6,0c-0.2,0-0.5,0-0.7,0
			c-0.2,0-0.4,0-0.6,0c-0.2,0-0.4-0.1-0.4-0.2c0-0.1,0.1-0.1,0.2-0.1c0.1,0,0.2,0,0.3,0c0.1,0,0.2,0,0.3-0.1c0.2,0,0.4-0.2,0.5-0.4
			s0.1-0.5,0.2-0.8c0.1-0.5,0.1-1.2,0.1-2c0-0.9,0-1.8,0-2.9V216.3z"/>
		<path class="st1" d="M45.4,220.3c0,1.7,0,2.9,0.1,3.7c0.1,0.8,0.2,1.3,0.4,1.5c0.1,0.1,0.2,0.2,0.3,0.2c0.1,0.1,0.3,0.1,0.5,0.2
			c0.2,0,0.5,0.1,0.8,0.1c0.3,0,0.7,0,1.1,0c0.6,0,1.2,0,1.6-0.1c0.5-0.1,0.9-0.3,1.1-0.6c0.2-0.2,0.3-0.4,0.4-0.7
			c0.1-0.3,0.2-0.5,0.2-0.7c0-0.2,0.1-0.3,0.2-0.3c0.1,0,0.1,0.1,0.1,0.3c0,0.1,0,0.2,0,0.4c0,0.2,0,0.4-0.1,0.6
			c0,0.2-0.1,0.5-0.1,0.7c0,0.2-0.1,0.4-0.1,0.6c0,0.1-0.1,0.2-0.1,0.3s-0.1,0.1-0.2,0.2c-0.1,0-0.2,0.1-0.4,0.1c-0.2,0-0.4,0-0.7,0
			c-0.8,0-1.5,0-2.1,0c-0.6,0-1.2,0-1.6,0c-0.5,0-0.9,0-1.3-0.1c-0.4,0-0.7,0-1,0c0,0-0.2,0-0.3,0c-0.2,0-0.4,0-0.6,0
			c-0.2,0-0.5,0-0.7,0c-0.2,0-0.4,0-0.6,0c-0.2,0-0.4-0.1-0.4-0.2c0-0.1,0.1-0.1,0.2-0.1c0.1,0,0.2,0,0.3,0c0.1,0,0.2,0,0.3-0.1
			c0.2,0,0.4-0.2,0.5-0.4s0.1-0.5,0.2-0.8c0.1-0.5,0.1-1.2,0.1-2c0-0.9,0-1.8,0-2.9v-4c0-0.9,0-1.6,0-2.2s0-1,0-1.3
			c0-0.3,0-0.6,0-0.8c0-0.2,0-0.4,0-0.6c0-0.4-0.1-0.7-0.2-0.9c-0.1-0.2-0.4-0.3-0.8-0.4c-0.1,0-0.2,0-0.4-0.1c-0.2,0-0.3,0-0.4,0
			c-0.1,0-0.2,0-0.2-0.1c0-0.1,0.1-0.2,0.4-0.2c0.3,0,0.5,0,0.8,0s0.6,0,0.8,0c0.3,0,0.5,0,0.6,0c0.2,0,0.3,0,0.3,0c0,0,0.1,0,0.3,0
			c0.2,0,0.4,0,0.7,0s0.5,0,0.8,0c0.3,0,0.5,0,0.6,0c0.2,0,0.4,0.1,0.4,0.2c0,0.1-0.1,0.1-0.2,0.1c-0.1,0-0.2,0-0.3,0
			c-0.1,0-0.3,0-0.4,0.1c-0.3,0.1-0.6,0.2-0.7,0.4c-0.1,0.2-0.2,0.5-0.2,0.9c0,0.2,0,0.4,0,0.6c0,0.2,0,0.5,0,0.8c0,0.3,0,0.8,0,1.3
			s0,1.3,0,2.2V220.3z"/>
		<path class="st1" d="M59.8,216.3c0-0.9,0-1.6,0-2.2s0-1,0-1.3c0-0.3,0-0.6,0-0.8c0-0.2,0-0.4,0-0.6c0-0.4-0.1-0.7-0.2-0.9
			c-0.1-0.2-0.4-0.3-0.8-0.4c-0.1,0-0.2,0-0.4-0.1c-0.2,0-0.3,0-0.4,0c-0.1,0-0.2,0-0.2-0.1c0-0.1,0.1-0.2,0.4-0.2
			c0.3,0,0.5,0,0.8,0s0.6,0,0.8,0c0.3,0,0.5,0,0.6,0c0.2,0,0.3,0,0.3,0c0.1,0,0.2,0,0.4,0c0.2,0,0.5,0,0.8,0c0.3,0,0.6,0,0.8,0
			s0.5,0,0.7,0c0.7,0,1.5,0.1,2.2,0.2s1.4,0.4,2,0.8c0.1,0.1,0.3,0.3,0.5,0.4c0.2,0.2,0.4,0.4,0.5,0.7c0.2,0.3,0.3,0.6,0.4,0.9
			c0.1,0.3,0.2,0.7,0.2,1.1c0,0.9-0.2,1.7-0.6,2.6c-0.4,0.9-1.1,1.8-2.1,2.7c0.9,1.2,1.8,2.3,2.6,3.3c0.8,1,1.5,1.8,2.2,2.6
			c0.6,0.7,1.2,1.1,1.6,1.3s0.9,0.3,1.1,0.4c0.2,0,0.4,0,0.5,0.1c0.2,0,0.3,0,0.3,0c0.1,0,0.2,0,0.2,0.1c0,0.1,0,0.1-0.1,0.1
			c-0.1,0-0.2,0-0.4,0h-1.6c-0.6,0-1.1,0-1.5-0.1c-0.3-0.1-0.7-0.2-1-0.3c-0.5-0.3-1-0.7-1.4-1.2s-1-1.3-1.7-2.1
			c-0.2-0.3-0.5-0.6-0.7-1c-0.2-0.3-0.5-0.7-0.7-1s-0.4-0.6-0.6-0.8c-0.2-0.3-0.3-0.5-0.4-0.6c-0.1-0.1-0.2-0.1-0.3-0.1l-2.8,0
			c-0.1,0-0.2,0.1-0.2,0.2v0.5c0,1.1,0,2.1,0,2.9c0,0.9,0,1.5,0.1,2c0,0.3,0.1,0.6,0.2,0.8c0.1,0.2,0.3,0.4,0.7,0.4
			c0.2,0,0.4,0.1,0.6,0.1c0.2,0,0.4,0,0.5,0c0.1,0,0.2,0,0.2,0.1c0,0.1-0.1,0.2-0.4,0.2c-0.3,0-0.6,0-1,0s-0.6,0-0.9,0
			c-0.3,0-0.5,0-0.7,0c-0.2,0-0.3,0-0.3,0c-0.3,0-0.6,0-0.8,0c-0.2,0-0.5,0-0.7,0s-0.4,0-0.6,0c-0.2,0-0.4-0.1-0.4-0.2
			c0-0.1,0.1-0.1,0.2-0.1c0.1,0,0.2,0,0.3,0c0.1,0,0.2,0,0.3-0.1c0.2,0,0.4-0.2,0.5-0.4s0.1-0.5,0.2-0.8c0.1-0.5,0.1-1.2,0.1-2
			c0-0.9,0-1.8,0-2.9V216.3z M61.6,218.3c0,0.1,0.1,0.2,0.2,0.3c0.2,0.1,0.5,0.2,0.9,0.3s0.9,0.1,1.4,0.1c0.3,0,0.6,0,0.9-0.1
			c0.3-0.1,0.6-0.2,0.8-0.4c0.4-0.3,0.7-0.7,1-1.3s0.4-1.3,0.4-2.2c0-1.4-0.3-2.5-1-3.3c-0.7-0.8-1.7-1.2-2.9-1.2
			c-0.3,0-0.7,0-0.9,0s-0.5,0.1-0.6,0.1c-0.1,0-0.2,0.1-0.2,0.3V218.3z"/>
		<path class="st1" d="M74.7,216.3c0-0.9,0-1.6,0-2.2s0-1,0-1.3c0-0.3,0-0.6,0-0.8c0-0.2,0-0.4,0-0.6c0-0.4-0.1-0.7-0.2-0.9
			c-0.1-0.2-0.4-0.3-0.8-0.4c-0.1,0-0.2,0-0.4-0.1c-0.2,0-0.3,0-0.4,0c-0.1,0-0.2,0-0.2-0.1c0-0.1,0.1-0.2,0.4-0.2
			c0.3,0,0.5,0,0.8,0s0.6,0,0.8,0l0.9,0c0,0,0.3,0,0.8,0c0.5,0,1.1,0,1.7,0c0.6,0,1.2,0,1.7,0c0.5,0,0.9,0,1,0c0.4,0,0.8-0.1,1-0.1
			c0.1,0,0.1,0,0.2-0.1s0.1,0,0.2,0c0.1,0,0.1,0.1,0.1,0.2c0,0.1,0,0.2-0.1,0.4c0,0.2-0.1,0.4-0.1,0.7c0,0.1,0,0.2,0,0.3
			c0,0.1,0,0.3,0,0.4c0,0.2,0,0.3,0,0.5c0,0.1,0,0.2,0,0.3c0,0.1,0,0.1-0.1,0.2c0,0.1-0.1,0.1-0.1,0.1c-0.1,0-0.2-0.1-0.2-0.3
			c0-0.1,0-0.2,0-0.4c0-0.2-0.1-0.3-0.1-0.5c-0.1-0.2-0.2-0.3-0.4-0.5s-0.6-0.2-1.2-0.3c-0.1,0-0.3,0-0.6,0s-0.7,0-1,0
			c-0.3,0-0.7,0-1,0c-0.3,0-0.5,0-0.5,0c-0.1,0-0.1,0.1-0.1,0.2v6.3c0,0.2,0,0.2,0.1,0.2c0.1,0,0.3,0,0.6,0c0.3,0,0.7,0,1.1,0
			c0.4,0,0.8,0,1.2,0c0.4,0,0.6,0,0.8,0c0.3,0,0.5-0.1,0.7-0.1c0.2,0,0.3-0.1,0.4-0.2c0.2-0.2,0.3-0.3,0.3-0.3
			c0.1,0,0.1,0.1,0.1,0.2c0,0.1,0,0.2-0.1,0.4c0,0.2-0.1,0.5-0.1,0.9c0,0.1,0,0.3,0,0.4c0,0.1,0,0.3,0,0.4c0,0.1,0,0.3,0,0.4
			c0,0.1,0,0.2,0,0.2c0,0.1,0,0.2,0,0.3c0,0.1-0.1,0.1-0.1,0.1c-0.1,0-0.2-0.1-0.2-0.2c0-0.1,0-0.2,0-0.4c0-0.1,0-0.2-0.1-0.4
			c0-0.2-0.1-0.3-0.3-0.5c-0.2-0.2-0.4-0.3-0.9-0.3c-0.2,0-0.4,0-0.7,0c-0.3,0-0.7,0-1,0c-0.3,0-0.7,0-1,0c-0.3,0-0.5,0-0.6,0
			c-0.1,0-0.2,0.1-0.2,0.2v2c0,0.2,0,0.5,0,0.9s0,0.8,0,1.2s0,0.8,0,1.1s0,0.6,0,0.7c0,0.4,0.1,0.7,0.1,1s0.2,0.4,0.4,0.6
			c0.2,0.1,0.5,0.2,0.8,0.3s0.8,0.1,1.3,0.1c0.3,0,0.7,0,1.1,0s0.8-0.1,1.1-0.2c0.3-0.1,0.5-0.3,0.7-0.6c0.2-0.3,0.3-0.6,0.3-1.1
			c0-0.2,0.1-0.3,0.2-0.3c0.1,0,0.1,0,0.1,0.1c0,0.1,0,0.2,0,0.2c0,0,0,0.2,0,0.4c0,0.2,0,0.4-0.1,0.6c0,0.2-0.1,0.5-0.1,0.7
			c0,0.2-0.1,0.4-0.1,0.5c0,0.2-0.1,0.3-0.1,0.3c0,0.1-0.1,0.1-0.2,0.2c-0.1,0-0.2,0.1-0.3,0.1s-0.3,0-0.5,0c-0.9,0-1.6,0-2.2,0
			c-0.6,0-1.2,0-1.6,0c-0.4,0-0.8,0-1.1-0.1c-0.3,0-0.5,0-0.7,0c0,0-0.1,0-0.3,0s-0.4,0-0.6,0c-0.2,0-0.5,0-0.7,0
			c-0.2,0-0.4,0-0.6,0c-0.2,0-0.4-0.1-0.4-0.2c0-0.1,0.1-0.1,0.2-0.1c0.1,0,0.2,0,0.3,0c0.1,0,0.2,0,0.3-0.1c0.2,0,0.4-0.2,0.5-0.4
			s0.1-0.5,0.2-0.8c0.1-0.5,0.1-1.2,0.1-2c0-0.9,0-1.8,0-2.9V216.3z"/>
	</g>
	<g class="st0">
		<path class="st1" d="M91.2,220.3c0,1.1,0,2.1,0,2.9c0,0.9,0,1.5,0.1,2c0,0.3,0.1,0.6,0.2,0.8c0.1,0.2,0.3,0.4,0.7,0.4
			c0.2,0,0.4,0.1,0.6,0.1c0.2,0,0.4,0,0.5,0c0.1,0,0.2,0,0.2,0.1c0,0.1-0.1,0.2-0.4,0.2c-0.3,0-0.6,0-1,0s-0.6,0-0.9,0
			c-0.3,0-0.5,0-0.7,0c-0.2,0-0.3,0-0.3,0c0,0-0.1,0-0.3,0c-0.2,0-0.4,0-0.6,0c-0.2,0-0.5,0-0.7,0c-0.2,0-0.4,0-0.6,0
			c-0.2,0-0.4-0.1-0.4-0.2c0-0.1,0.1-0.1,0.2-0.1c0.1,0,0.2,0,0.3,0c0.1,0,0.2,0,0.3-0.1c0.2,0,0.4-0.2,0.5-0.4
			c0.1-0.2,0.1-0.5,0.2-0.8c0.1-0.5,0.1-1.2,0.1-2c0-0.9,0-1.8,0-2.9v-9.6l-3.4,0c-0.3,0-0.6,0-0.9,0c-0.3,0-0.5,0.1-0.6,0.1
			c-0.2,0.1-0.3,0.1-0.5,0.2c-0.1,0.1-0.2,0.2-0.3,0.3c-0.1,0.2-0.2,0.3-0.3,0.4c-0.1,0.1-0.1,0.2-0.1,0.3c-0.1,0.2-0.1,0.2-0.2,0.2
			c-0.1,0-0.1-0.1-0.1-0.2c0-0.1,0-0.2,0.1-0.4c0-0.2,0.1-0.5,0.2-0.8c0.1-0.3,0.1-0.5,0.2-0.8c0.1-0.2,0.1-0.4,0.1-0.4
			c0-0.1,0.1-0.2,0.1-0.3c0-0.1,0.1-0.2,0.1-0.2c0.1,0,0.2,0,0.3,0.1c0.1,0.1,0.4,0.1,0.7,0.2c0.3,0,0.7,0.1,1,0.1
			c0.4,0,0.6,0,0.8,0h8.5c0.4,0,0.7,0,0.9,0c0.3,0,0.5,0,0.7-0.1c0.2,0,0.3-0.1,0.4-0.1c0.1,0,0.2,0,0.2,0c0.1,0,0.1,0,0.1,0.1
			c0,0.1,0,0.1,0,0.2c0,0.2,0,0.4,0,0.6s0,0.5,0,0.8c0,0.3,0,0.5,0,0.7c0,0.2,0,0.3,0,0.4c0,0.2-0.1,0.3-0.2,0.3
			c-0.1,0-0.1,0-0.1-0.1c0,0,0-0.2-0.1-0.3l0-0.2c0-0.2-0.1-0.3-0.2-0.5c-0.1-0.2-0.2-0.3-0.4-0.4c-0.2-0.1-0.5-0.2-0.8-0.3
			c-0.4-0.1-0.8-0.1-1.4-0.1l-2.9,0V220.3z"/>
	</g>
	<g class="st0">
		<path class="st1" d="M96.7,216.3c0.2-0.7,0.4-1.4,0.7-2c0.3-0.7,0.7-1.3,1.2-1.9s1.1-1.1,1.7-1.6c0.7-0.5,1.4-0.8,2.3-1.1
			c0.9-0.3,1.8-0.4,2.8-0.4c1.3,0,2.5,0.2,3.6,0.6c1.1,0.4,2,1,2.8,1.7c0.8,0.7,1.4,1.6,1.9,2.7c0.5,1.1,0.7,2.2,0.7,3.6
			c0,1.3-0.2,2.5-0.6,3.6c-0.4,1.1-1,2.1-1.8,3c-0.8,0.8-1.7,1.5-2.9,2c-1.1,0.5-2.4,0.7-3.7,0.7c-1.6,0-2.9-0.3-4-0.8
			s-2-1.3-2.7-2.1c-0.7-0.9-1.2-1.8-1.6-2.9s-0.5-2.1-0.5-3.1C96.5,217.6,96.6,217,96.7,216.3z M99.2,221.2c0.4,1.1,0.9,2,1.5,2.8
			c0.7,0.8,1.4,1.3,2.3,1.8c0.9,0.4,1.8,0.6,2.9,0.6c0.5,0,1.1-0.1,1.8-0.3c0.7-0.2,1.4-0.6,2.1-1.1s1.2-1.4,1.7-2.4
			c0.5-1,0.7-2.4,0.7-4c0-1.4-0.2-2.6-0.6-3.6s-0.9-1.9-1.5-2.6c-0.6-0.7-1.4-1.2-2.2-1.6c-0.8-0.4-1.7-0.5-2.6-0.5
			c-1,0-1.8,0.2-2.7,0.5c-0.8,0.3-1.5,0.8-2.1,1.4s-1.1,1.4-1.4,2.3c-0.3,0.9-0.5,2-0.5,3.3C98.7,218.9,98.8,220.1,99.2,221.2z"/>
		<path class="st1" d="M117.6,216.3c0-0.9,0-1.6,0-2.2s0-1,0-1.3c0-0.3,0-0.6,0-0.8c0-0.2,0-0.4,0-0.6c0-0.4-0.1-0.7-0.2-0.9
			c-0.1-0.2-0.4-0.3-0.8-0.4c-0.1,0-0.2,0-0.4-0.1c-0.2,0-0.3,0-0.4,0c-0.1,0-0.2,0-0.2-0.1c0-0.1,0.1-0.2,0.4-0.2
			c0.3,0,0.5,0,0.8,0s0.6,0,0.8,0c0.3,0,0.5,0,0.6,0c0.2,0,0.3,0,0.3,0c0.1,0,0.2,0,0.4,0c0.2,0,0.5,0,0.8,0c0.3,0,0.6,0,0.8,0
			s0.5,0,0.7,0c0.7,0,1.5,0.1,2.2,0.2s1.4,0.4,2,0.8c0.1,0.1,0.3,0.3,0.5,0.4c0.2,0.2,0.4,0.4,0.5,0.7c0.2,0.3,0.3,0.6,0.4,0.9
			c0.1,0.3,0.2,0.7,0.2,1.1c0,0.9-0.2,1.7-0.6,2.6c-0.4,0.9-1.1,1.8-2.1,2.7c0.9,1.2,1.8,2.3,2.6,3.3c0.8,1,1.5,1.8,2.2,2.6
			c0.6,0.7,1.2,1.1,1.6,1.3s0.9,0.3,1.1,0.4c0.2,0,0.4,0,0.5,0.1c0.2,0,0.3,0,0.3,0c0.1,0,0.2,0,0.2,0.1c0,0.1,0,0.1-0.1,0.1
			c-0.1,0-0.2,0-0.4,0h-1.6c-0.6,0-1.1,0-1.5-0.1c-0.3-0.1-0.7-0.2-1-0.3c-0.5-0.3-1-0.7-1.4-1.2s-1-1.3-1.7-2.1
			c-0.2-0.3-0.5-0.6-0.7-1c-0.2-0.3-0.5-0.7-0.7-1s-0.4-0.6-0.6-0.8c-0.2-0.3-0.3-0.5-0.4-0.6c-0.1-0.1-0.2-0.1-0.3-0.1l-2.8,0
			c-0.1,0-0.2,0.1-0.2,0.2v0.5c0,1.1,0,2.1,0,2.9c0,0.9,0,1.5,0.1,2c0,0.3,0.1,0.6,0.2,0.8c0.1,0.2,0.3,0.4,0.7,0.4
			c0.2,0,0.4,0.1,0.6,0.1c0.2,0,0.4,0,0.5,0c0.1,0,0.2,0,0.2,0.1c0,0.1-0.1,0.2-0.4,0.2c-0.3,0-0.6,0-1,0s-0.6,0-0.9,0
			c-0.3,0-0.5,0-0.7,0c-0.2,0-0.3,0-0.3,0c-0.3,0-0.6,0-0.8,0c-0.2,0-0.5,0-0.7,0s-0.4,0-0.6,0c-0.2,0-0.4-0.1-0.4-0.2
			c0-0.1,0.1-0.1,0.2-0.1c0.1,0,0.2,0,0.3,0c0.1,0,0.2,0,0.3-0.1c0.2,0,0.4-0.2,0.5-0.4s0.1-0.5,0.2-0.8c0.1-0.5,0.1-1.2,0.1-2
			c0-0.9,0-1.8,0-2.9V216.3z M119.5,218.3c0,0.1,0.1,0.2,0.2,0.3c0.2,0.1,0.5,0.2,0.9,0.3s0.9,0.1,1.4,0.1c0.3,0,0.6,0,0.9-0.1
			c0.3-0.1,0.6-0.2,0.8-0.4c0.4-0.3,0.7-0.7,1-1.3s0.4-1.3,0.4-2.2c0-1.4-0.3-2.5-1-3.3c-0.7-0.8-1.7-1.2-2.9-1.2
			c-0.3,0-0.7,0-0.9,0s-0.5,0.1-0.6,0.1c-0.1,0-0.2,0.1-0.2,0.3V218.3z"/>
		<path class="st1" d="M133.2,223.8c0,0.5,0,0.9,0.1,1.2s0.1,0.6,0.2,0.8s0.2,0.4,0.3,0.5c0.1,0.1,0.2,0.2,0.4,0.2
			c0.2,0.1,0.4,0.1,0.6,0.1c0.2,0,0.4,0,0.5,0c0.1,0,0.2,0,0.2,0.1c0,0.1-0.1,0.2-0.4,0.2c-0.7,0-1.2,0-1.6,0s-0.7,0-0.8,0
			s-0.4,0-0.8,0c-0.4,0-0.9,0-1.4,0c-0.2,0-0.4-0.1-0.4-0.2c0-0.1,0.1-0.1,0.2-0.1c0.1,0,0.2,0,0.4,0c0.2,0,0.4-0.1,0.5-0.1
			c0.3-0.1,0.5-0.3,0.6-0.7s0.1-1.1,0.1-2.2l0-13.1c0-0.4,0-0.7,0.1-0.9c0-0.2,0.1-0.2,0.2-0.2c0.1,0,0.2,0.1,0.4,0.3
			c0.2,0.2,0.3,0.3,0.4,0.5c0.1,0.1,0.4,0.4,0.8,0.9c0.4,0.5,1,1.1,1.7,1.8s1.4,1.5,2.2,2.4c0.8,0.9,1.7,1.8,2.6,2.8
			c0.6,0.6,1.1,1.2,1.7,1.8c0.6,0.6,1.1,1.2,1.6,1.8c0.5,0.5,0.9,1,1.3,1.4c0.4,0.4,0.7,0.7,0.8,0.9l-0.3-11.6
			c0-0.7-0.1-1.3-0.2-1.6c-0.1-0.3-0.3-0.5-0.7-0.6c-0.2,0-0.4-0.1-0.6-0.1c-0.2,0-0.4,0-0.5,0c-0.1,0-0.2-0.1-0.2-0.2
			c0-0.1,0.2-0.2,0.5-0.2c0.3,0,0.5,0,0.8,0s0.5,0,0.7,0s0.4,0,0.6,0c0.2,0,0.3,0,0.3,0c0.1,0,0.4,0,0.7,0c0.3,0,0.8,0,1.2,0
			c0.3,0,0.4,0.1,0.4,0.2c0,0.1-0.1,0.2-0.3,0.2c-0.1,0-0.1,0-0.2,0c-0.1,0-0.2,0-0.3,0.1c-0.4,0.1-0.6,0.3-0.7,0.6
			c-0.1,0.3-0.1,0.8-0.1,1.5l0,13.3c0,0.4,0,0.7,0,0.9c0,0.2,0,0.4,0,0.5c0,0.1,0,0.2-0.1,0.2c0,0-0.1,0-0.1,0c0,0-0.1,0-0.2-0.1
			s-0.2-0.1-0.3-0.2c-0.1-0.1-0.3-0.3-0.5-0.4c-0.2-0.2-0.4-0.4-0.7-0.7c-0.1-0.1-0.3-0.3-0.7-0.7c-0.4-0.4-0.9-0.9-1.5-1.5
			c-0.6-0.6-1.2-1.2-1.9-1.9c-0.7-0.7-1.3-1.4-1.9-2c-0.7-0.7-1.3-1.4-1.9-2.1c-0.6-0.7-1.2-1.3-1.7-1.9c-0.5-0.6-1-1.1-1.4-1.5
			c-0.4-0.4-0.7-0.8-0.9-1L133.2,223.8z"/>
		<path class="st1" d="M149.5,216.3c0.2-0.7,0.4-1.4,0.7-2c0.3-0.7,0.7-1.3,1.2-1.9s1.1-1.1,1.7-1.6c0.7-0.5,1.4-0.8,2.3-1.1
			c0.9-0.3,1.8-0.4,2.8-0.4c1.3,0,2.5,0.2,3.6,0.6c1.1,0.4,2,1,2.8,1.7c0.8,0.7,1.4,1.6,1.9,2.7c0.5,1.1,0.7,2.2,0.7,3.6
			c0,1.3-0.2,2.5-0.6,3.6c-0.4,1.1-1,2.1-1.8,3c-0.8,0.8-1.7,1.5-2.9,2c-1.1,0.5-2.4,0.7-3.7,0.7c-1.6,0-2.9-0.3-4-0.8
			s-2-1.3-2.7-2.1c-0.7-0.9-1.2-1.8-1.6-2.9s-0.5-2.1-0.5-3.1C149.2,217.6,149.3,217,149.5,216.3z M152,221.2c0.4,1.1,0.9,2,1.5,2.8
			c0.7,0.8,1.4,1.3,2.3,1.8c0.9,0.4,1.8,0.6,2.9,0.6c0.5,0,1.1-0.1,1.8-0.3c0.7-0.2,1.4-0.6,2.1-1.1s1.2-1.4,1.7-2.4
			c0.5-1,0.7-2.4,0.7-4c0-1.4-0.2-2.6-0.6-3.6s-0.9-1.9-1.5-2.6c-0.6-0.7-1.4-1.2-2.2-1.6c-0.8-0.4-1.7-0.5-2.6-0.5
			c-1,0-1.8,0.2-2.7,0.5c-0.8,0.3-1.5,0.8-2.1,1.4s-1.1,1.4-1.4,2.3c-0.3,0.9-0.5,2-0.5,3.3C151.4,218.9,151.6,220.1,152,221.2z"/>
		<path class="st1" d="M175.5,216.3c0-0.9,0-1.6,0-2.2s0-1,0-1.3c0-0.3,0-0.6,0-0.8c0-0.2,0-0.4,0-0.6c0-0.4-0.1-0.7-0.2-0.9
			c-0.1-0.2-0.4-0.3-0.8-0.4c-0.1,0-0.2,0-0.4-0.1c-0.2,0-0.3,0-0.4,0c-0.1,0-0.2,0-0.2-0.1c0-0.1,0.1-0.2,0.4-0.2
			c0.3,0,0.5,0,0.8,0s0.6,0,0.8,0c0.3,0,0.5,0,0.6,0c0.2,0,0.3,0,0.3,0c0.1,0,0.2,0,0.4,0c0.2,0,0.4,0,0.7,0c0.3,0,0.6,0,0.9,0
			c0.3,0,0.7,0,1,0c0.6,0,1.2,0,2,0c0.8,0,1.6,0.1,2.4,0.2c0.8,0.2,1.7,0.4,2.5,0.8c0.8,0.4,1.6,0.9,2.3,1.6c0.3,0.3,0.6,0.6,0.8,1
			s0.5,0.8,0.7,1.3s0.4,1,0.5,1.6c0.1,0.6,0.2,1.2,0.2,1.9c0,0.7-0.1,1.4-0.2,2c-0.1,0.6-0.3,1.2-0.5,1.8c-0.2,0.5-0.5,1-0.8,1.5
			s-0.6,0.8-0.9,1.2c-0.2,0.3-0.6,0.5-0.9,0.8c-0.4,0.3-0.9,0.6-1.4,0.9s-1.2,0.5-2,0.7c-0.7,0.2-1.6,0.3-2.6,0.3c-0.5,0-1,0-1.6,0
			c-0.6,0-1.1-0.1-1.6-0.1c-0.5,0-0.9-0.1-1.3-0.1c-0.3,0-0.6,0-0.6,0c0,0-0.1,0-0.3,0s-0.4,0-0.6,0c-0.2,0-0.5,0-0.7,0
			c-0.2,0-0.4,0-0.6,0c-0.2,0-0.4-0.1-0.4-0.2c0-0.1,0.1-0.1,0.2-0.1c0.1,0,0.2,0,0.3,0c0.1,0,0.2,0,0.3-0.1c0.2,0,0.4-0.2,0.5-0.4
			s0.1-0.5,0.2-0.8c0.1-0.5,0.1-1.2,0.1-2c0-0.9,0-1.8,0-2.9V216.3z M177.4,218.7c0,0.6,0,1.2,0,1.7s0,1,0,1.5c0,0.4,0,0.8,0,1.1
			c0,0.3,0,0.5,0,0.6c0,0.1,0,0.3,0,0.5c0,0.2,0,0.3,0,0.5s0,0.3,0.1,0.5c0,0.1,0.1,0.2,0.1,0.3c0.1,0.1,0.2,0.2,0.4,0.3
			c0.2,0.1,0.4,0.2,0.7,0.3c0.3,0.1,0.7,0.2,1.1,0.2c0.5,0.1,1,0.1,1.7,0.1c1.1,0,2.1-0.2,3-0.5c0.9-0.4,1.7-0.9,2.4-1.6
			c0.3-0.3,0.5-0.6,0.8-1c0.2-0.4,0.4-0.9,0.6-1.3s0.3-1,0.4-1.5s0.1-1,0.1-1.6c0-0.7-0.1-1.4-0.2-2c-0.1-0.6-0.3-1.1-0.5-1.6
			c-0.2-0.5-0.5-0.9-0.7-1.3c-0.3-0.4-0.5-0.7-0.7-0.9c-0.5-0.6-1.1-1-1.7-1.4c-0.6-0.3-1.2-0.6-1.8-0.8c-0.6-0.2-1.3-0.3-1.9-0.4
			c-0.7-0.1-1.3-0.1-2-0.1c-0.1,0-0.3,0-0.4,0c-0.1,0-0.3,0-0.4,0c-0.2,0-0.3,0-0.4,0.1c-0.1,0-0.2,0-0.2,0.1
			c-0.2,0.1-0.3,0.2-0.3,0.5c0,0.2,0,0.5,0,0.8c0,0.4,0,0.8,0,1.2c0,0.4,0,0.9,0,1.4c0,0.5,0,0.9,0,1.4V218.7z"/>
		<path class="st1" d="M194.1,216.3c0-0.9,0-1.6,0-2.2s0-1,0-1.3c0-0.3,0-0.6,0-0.8c0-0.2,0-0.4,0-0.6c0-0.4-0.1-0.7-0.2-0.9
			c-0.1-0.2-0.4-0.3-0.8-0.4c-0.1,0-0.2,0-0.4-0.1c-0.2,0-0.3,0-0.4,0c-0.1,0-0.2,0-0.2-0.1c0-0.1,0.1-0.2,0.4-0.2
			c0.3,0,0.5,0,0.8,0c0.3,0,0.6,0,0.8,0l0.9,0c0,0,0.3,0,0.8,0c0.5,0,1.1,0,1.7,0c0.6,0,1.2,0,1.7,0c0.5,0,0.9,0,1,0
			c0.4,0,0.8-0.1,1-0.1c0.1,0,0.1,0,0.2-0.1c0,0,0.1,0,0.2,0c0.1,0,0.1,0.1,0.1,0.2c0,0.1,0,0.2-0.1,0.4s-0.1,0.4-0.1,0.7
			c0,0.1,0,0.2,0,0.3c0,0.1,0,0.3,0,0.4c0,0.2,0,0.3,0,0.5c0,0.1,0,0.2,0,0.3c0,0.1,0,0.1-0.1,0.2c0,0.1-0.1,0.1-0.1,0.1
			c-0.1,0-0.2-0.1-0.2-0.3c0-0.1,0-0.2,0-0.4c0-0.2-0.1-0.3-0.1-0.5c-0.1-0.2-0.2-0.3-0.4-0.5s-0.6-0.2-1.2-0.3c-0.1,0-0.3,0-0.6,0
			c-0.3,0-0.7,0-1,0c-0.3,0-0.7,0-1,0c-0.3,0-0.5,0-0.5,0c-0.1,0-0.1,0.1-0.1,0.2v6.3c0,0.2,0,0.2,0.1,0.2c0.1,0,0.3,0,0.6,0
			c0.3,0,0.7,0,1.1,0c0.4,0,0.8,0,1.2,0s0.6,0,0.8,0c0.3,0,0.5-0.1,0.7-0.1c0.2,0,0.3-0.1,0.4-0.2c0.2-0.2,0.3-0.3,0.3-0.3
			c0.1,0,0.1,0.1,0.1,0.2c0,0.1,0,0.2-0.1,0.4c0,0.2-0.1,0.5-0.1,0.9c0,0.1,0,0.3,0,0.4s0,0.3,0,0.4c0,0.1,0,0.3,0,0.4
			c0,0.1,0,0.2,0,0.2c0,0.1,0,0.2,0,0.3c0,0.1-0.1,0.1-0.1,0.1c-0.1,0-0.2-0.1-0.2-0.2c0-0.1,0-0.2,0-0.4c0-0.1,0-0.2-0.1-0.4
			c0-0.2-0.1-0.3-0.3-0.5c-0.2-0.2-0.4-0.3-0.9-0.3c-0.2,0-0.4,0-0.7,0c-0.3,0-0.7,0-1,0c-0.3,0-0.7,0-1,0s-0.5,0-0.6,0
			c-0.1,0-0.2,0.1-0.2,0.2v2c0,0.2,0,0.5,0,0.9s0,0.8,0,1.2s0,0.8,0,1.1s0,0.6,0,0.7c0,0.4,0.1,0.7,0.1,1s0.2,0.4,0.4,0.6
			c0.2,0.1,0.5,0.2,0.8,0.3s0.8,0.1,1.3,0.1c0.3,0,0.7,0,1.1,0c0.4,0,0.8-0.1,1.1-0.2c0.3-0.1,0.5-0.3,0.7-0.6
			c0.2-0.3,0.3-0.6,0.3-1.1c0-0.2,0.1-0.3,0.2-0.3c0.1,0,0.1,0,0.1,0.1s0,0.2,0,0.2c0,0,0,0.2,0,0.4c0,0.2,0,0.4-0.1,0.6
			c0,0.2-0.1,0.5-0.1,0.7c0,0.2-0.1,0.4-0.1,0.5c0,0.2-0.1,0.3-0.1,0.3c0,0.1-0.1,0.1-0.2,0.2c-0.1,0-0.2,0.1-0.3,0.1s-0.3,0-0.5,0
			c-0.9,0-1.6,0-2.2,0c-0.6,0-1.2,0-1.6,0c-0.4,0-0.8,0-1.1-0.1c-0.3,0-0.5,0-0.7,0c0,0-0.1,0-0.3,0s-0.4,0-0.6,0
			c-0.2,0-0.5,0-0.7,0c-0.2,0-0.4,0-0.6,0c-0.2,0-0.4-0.1-0.4-0.2c0-0.1,0.1-0.1,0.2-0.1c0.1,0,0.2,0,0.3,0c0.1,0,0.2,0,0.3-0.1
			c0.2,0,0.4-0.2,0.5-0.4c0.1-0.2,0.1-0.5,0.2-0.8c0.1-0.5,0.1-1.2,0.1-2c0-0.9,0-1.8,0-2.9V216.3z"/>
		<path class="st1" d="M207.7,220.3c0,1.7,0,2.9,0.1,3.7c0.1,0.8,0.2,1.3,0.4,1.5c0.1,0.1,0.2,0.2,0.3,0.2c0.1,0.1,0.3,0.1,0.5,0.2
			s0.5,0.1,0.8,0.1c0.3,0,0.7,0,1.1,0c0.6,0,1.2,0,1.6-0.1c0.5-0.1,0.9-0.3,1.1-0.6c0.2-0.2,0.3-0.4,0.4-0.7
			c0.1-0.3,0.2-0.5,0.2-0.7c0-0.2,0.1-0.3,0.2-0.3c0.1,0,0.1,0.1,0.1,0.3c0,0.1,0,0.2,0,0.4c0,0.2,0,0.4-0.1,0.6
			c0,0.2-0.1,0.5-0.1,0.7s-0.1,0.4-0.1,0.6c0,0.1-0.1,0.2-0.1,0.3s-0.1,0.1-0.2,0.2c-0.1,0-0.2,0.1-0.4,0.1c-0.2,0-0.4,0-0.7,0
			c-0.8,0-1.5,0-2.1,0c-0.6,0-1.2,0-1.6,0c-0.5,0-0.9,0-1.3-0.1c-0.4,0-0.7,0-1,0c0,0-0.2,0-0.3,0c-0.2,0-0.4,0-0.6,0
			c-0.2,0-0.5,0-0.7,0c-0.2,0-0.4,0-0.6,0c-0.2,0-0.4-0.1-0.4-0.2c0-0.1,0.1-0.1,0.2-0.1c0.1,0,0.2,0,0.3,0c0.1,0,0.2,0,0.3-0.1
			c0.2,0,0.4-0.2,0.5-0.4c0.1-0.2,0.1-0.5,0.2-0.8c0.1-0.5,0.1-1.2,0.1-2c0-0.9,0-1.8,0-2.9v-4c0-0.9,0-1.6,0-2.2s0-1,0-1.3
			c0-0.3,0-0.6,0-0.8s0-0.4,0-0.6c0-0.4-0.1-0.7-0.2-0.9c-0.1-0.2-0.4-0.3-0.8-0.4c-0.1,0-0.2,0-0.4-0.1c-0.2,0-0.3,0-0.4,0
			c-0.1,0-0.2,0-0.2-0.1c0-0.1,0.1-0.2,0.4-0.2c0.3,0,0.5,0,0.8,0c0.3,0,0.6,0,0.8,0c0.2,0,0.5,0,0.6,0c0.2,0,0.3,0,0.3,0
			c0,0,0.1,0,0.3,0c0.2,0,0.4,0,0.7,0c0.3,0,0.5,0,0.8,0s0.5,0,0.6,0c0.2,0,0.4,0.1,0.4,0.2c0,0.1-0.1,0.1-0.2,0.1
			c-0.1,0-0.2,0-0.3,0c-0.1,0-0.3,0-0.4,0.1c-0.3,0.1-0.6,0.2-0.7,0.4c-0.1,0.2-0.2,0.5-0.2,0.9c0,0.2,0,0.4,0,0.6s0,0.5,0,0.8
			c0,0.3,0,0.8,0,1.3s0,1.3,0,2.2V220.3z"/>
		<path class="st1" d="M222.1,216.3c0-0.9,0-1.6,0-2.2s0-1,0-1.3c0-0.3,0-0.6,0-0.8s0-0.4,0-0.6c0-0.4-0.1-0.7-0.2-0.9
			c-0.1-0.2-0.4-0.3-0.8-0.4c-0.1,0-0.2,0-0.4-0.1c-0.2,0-0.3,0-0.4,0c-0.1,0-0.2,0-0.2-0.1c0-0.1,0.1-0.2,0.4-0.2
			c0.3,0,0.5,0,0.8,0c0.3,0,0.5,0,0.8,0c0.3,0,0.5,0,0.6,0c0.2,0,0.3,0,0.3,0c0.3,0,0.7,0,1.2,0s1.1,0,1.6,0c0.7,0,1.3,0.1,1.8,0.2
			c0.5,0.1,0.9,0.2,1.2,0.4c0.3,0.1,0.6,0.3,0.8,0.4c0.2,0.1,0.3,0.3,0.4,0.4c0.3,0.2,0.5,0.6,0.8,1.1c0.3,0.5,0.4,1,0.4,1.6
			c0,0.8-0.1,1.5-0.4,2.2c-0.3,0.7-0.7,1.2-1.2,1.7s-1.1,0.8-1.8,1.1c-0.7,0.3-1.4,0.4-2.2,0.4c-0.1,0-0.1,0-0.3,0
			c-0.1,0-0.2,0-0.2,0c-0.1,0-0.1,0-0.2,0c-0.1,0-0.1-0.1-0.1-0.1c0-0.1,0-0.1,0.1-0.2c0.1,0,0.2,0,0.5,0c0.5,0,1.1-0.1,1.5-0.3
			c0.5-0.2,0.9-0.5,1.3-0.8c0.3-0.3,0.6-0.7,0.8-1.2c0.2-0.4,0.3-0.9,0.3-1.5c0-0.2,0-0.4,0-0.7c0-0.3-0.1-0.6-0.2-0.9
			c-0.1-0.3-0.2-0.6-0.4-1s-0.4-0.7-0.7-1s-0.6-0.5-0.9-0.7c-0.3-0.2-0.6-0.3-0.9-0.3c-0.3-0.1-0.5-0.1-0.8-0.1s-0.4,0-0.5,0
			c-0.2,0-0.4,0-0.6,0c-0.2,0-0.3,0.1-0.4,0.1c-0.1,0-0.2,0.2-0.2,0.4v9.4c0,1.1,0,2.1,0,2.9c0,0.9,0,1.5,0.1,2
			c0,0.3,0.1,0.6,0.2,0.8s0.3,0.4,0.7,0.4c0.2,0,0.4,0.1,0.6,0.1c0.2,0,0.4,0,0.5,0c0.1,0,0.2,0,0.2,0.1c0,0.1-0.1,0.2-0.4,0.2
			c-0.3,0-0.6,0-1,0c-0.3,0-0.6,0-0.9,0s-0.5,0-0.7,0c-0.2,0-0.3,0-0.3,0c0,0-0.1,0-0.3,0c-0.2,0-0.4,0-0.6,0c-0.2,0-0.5,0-0.7,0
			s-0.4,0-0.6,0c-0.2,0-0.4-0.1-0.4-0.2c0-0.1,0.1-0.1,0.2-0.1c0.1,0,0.2,0,0.3,0c0.1,0,0.2,0,0.3-0.1c0.2,0,0.4-0.2,0.5-0.4
			c0.1-0.2,0.1-0.5,0.2-0.8c0.1-0.5,0.1-1.2,0.1-2c0-0.9,0-1.8,0-2.9V216.3z"/>
	</g>
	<g class="st0">
		<path class="st1" d="M234.4,216.3c0-0.9,0-1.6,0-2.2s0-1,0-1.3c0-0.3,0-0.6,0-0.8c0-0.2,0-0.4,0-0.6c0-0.4-0.1-0.7-0.2-0.9
			c-0.1-0.2-0.4-0.3-0.8-0.4c-0.1,0-0.2,0-0.4-0.1c-0.2,0-0.3,0-0.4,0c-0.1,0-0.2,0-0.2-0.1c0-0.1,0.1-0.2,0.4-0.2
			c0.3,0,0.5,0,0.8,0c0.3,0,0.6,0,0.8,0s0.5,0,0.6,0c0.2,0,0.3,0,0.3,0c0.1,0,0.2,0,0.4,0c0.2,0,0.5,0,0.8,0c0.3,0,0.6,0,0.8,0
			s0.5,0,0.7,0c0.7,0,1.5,0.1,2.2,0.2c0.7,0.1,1.4,0.4,2,0.8c0.1,0.1,0.3,0.3,0.5,0.4c0.2,0.2,0.4,0.4,0.5,0.7
			c0.2,0.3,0.3,0.6,0.4,0.9s0.2,0.7,0.2,1.1c0,0.9-0.2,1.7-0.6,2.6c-0.4,0.9-1.1,1.8-2.1,2.7c0.9,1.2,1.8,2.3,2.6,3.3
			c0.8,1,1.5,1.8,2.2,2.6c0.6,0.7,1.2,1.1,1.6,1.3s0.9,0.3,1.1,0.4c0.2,0,0.4,0,0.5,0.1s0.3,0,0.3,0c0.1,0,0.2,0,0.2,0.1
			c0,0.1,0,0.1-0.1,0.1s-0.2,0-0.4,0h-1.6c-0.6,0-1.1,0-1.5-0.1c-0.3-0.1-0.7-0.2-1-0.3c-0.5-0.3-1-0.7-1.4-1.2
			c-0.5-0.6-1-1.3-1.7-2.1c-0.2-0.3-0.5-0.6-0.7-1s-0.5-0.7-0.7-1c-0.2-0.3-0.4-0.6-0.6-0.8c-0.2-0.3-0.3-0.5-0.4-0.6
			c-0.1-0.1-0.2-0.1-0.3-0.1l-2.8,0c-0.1,0-0.2,0.1-0.2,0.2v0.5c0,1.1,0,2.1,0,2.9c0,0.9,0,1.5,0.1,2c0,0.3,0.1,0.6,0.2,0.8
			s0.3,0.4,0.7,0.4c0.2,0,0.4,0.1,0.6,0.1c0.2,0,0.4,0,0.5,0c0.1,0,0.2,0,0.2,0.1c0,0.1-0.1,0.2-0.4,0.2c-0.3,0-0.6,0-1,0
			c-0.3,0-0.6,0-0.9,0s-0.5,0-0.7,0c-0.2,0-0.3,0-0.3,0c-0.3,0-0.6,0-0.8,0s-0.5,0-0.7,0s-0.4,0-0.6,0c-0.2,0-0.4-0.1-0.4-0.2
			c0-0.1,0.1-0.1,0.2-0.1c0.1,0,0.2,0,0.3,0c0.1,0,0.2,0,0.3-0.1c0.2,0,0.4-0.2,0.5-0.4c0.1-0.2,0.1-0.5,0.2-0.8
			c0.1-0.5,0.1-1.2,0.1-2c0-0.9,0-1.8,0-2.9V216.3z M236.3,218.3c0,0.1,0.1,0.2,0.2,0.3c0.2,0.1,0.5,0.2,0.9,0.3
			c0.5,0.1,0.9,0.1,1.4,0.1c0.3,0,0.6,0,0.9-0.1c0.3-0.1,0.6-0.2,0.8-0.4c0.4-0.3,0.7-0.7,1-1.3s0.4-1.3,0.4-2.2
			c0-1.4-0.3-2.5-1-3.3c-0.7-0.8-1.7-1.2-2.9-1.2c-0.3,0-0.7,0-0.9,0s-0.5,0.1-0.6,0.1c-0.1,0-0.2,0.1-0.2,0.3V218.3z"/>
	</g>
	<g class="st0">
		<path class="st1" d="M247.3,216.3c0.2-0.7,0.4-1.4,0.7-2c0.3-0.7,0.7-1.3,1.2-1.9s1.1-1.1,1.7-1.6c0.7-0.5,1.4-0.8,2.3-1.1
			c0.8-0.3,1.8-0.4,2.8-0.4c1.3,0,2.5,0.2,3.6,0.6c1.1,0.4,2,1,2.8,1.7c0.8,0.7,1.4,1.6,1.9,2.7c0.5,1.1,0.7,2.2,0.7,3.6
			c0,1.3-0.2,2.5-0.6,3.6c-0.4,1.1-1,2.1-1.8,3s-1.7,1.5-2.9,2c-1.1,0.5-2.4,0.7-3.7,0.7c-1.6,0-2.9-0.3-4-0.8s-2-1.3-2.7-2.1
			c-0.7-0.9-1.2-1.8-1.6-2.9s-0.5-2.1-0.5-3.1C247.1,217.6,247.2,217,247.3,216.3z M249.8,221.2c0.4,1.1,0.9,2,1.5,2.8
			c0.7,0.8,1.4,1.3,2.3,1.8s1.8,0.6,2.9,0.6c0.5,0,1.1-0.1,1.8-0.3c0.7-0.2,1.4-0.6,2.1-1.1c0.7-0.6,1.2-1.4,1.7-2.4
			c0.5-1,0.7-2.4,0.7-4c0-1.4-0.2-2.6-0.6-3.6c-0.4-1-0.9-1.9-1.5-2.6s-1.4-1.2-2.2-1.6c-0.8-0.4-1.7-0.5-2.6-0.5
			c-1,0-1.8,0.2-2.7,0.5c-0.8,0.3-1.5,0.8-2.1,1.4c-0.6,0.6-1.1,1.4-1.4,2.3c-0.3,0.9-0.5,2-0.5,3.3
			C249.2,218.9,249.4,220.1,249.8,221.2z"/>
		<path class="st1" d="M268.2,216.3c0-0.9,0-1.6,0-2.2s0-1,0-1.3c0-0.3,0-0.6,0-0.8s0-0.4,0-0.6c0-0.4-0.1-0.7-0.2-0.9
			c-0.1-0.2-0.4-0.3-0.8-0.4c-0.1,0-0.2,0-0.4-0.1c-0.2,0-0.3,0-0.4,0c-0.1,0-0.2,0-0.2-0.1c0-0.1,0.1-0.2,0.4-0.2
			c0.3,0,0.5,0,0.8,0c0.3,0,0.6,0,0.8,0l0.9,0c0.1,0,0.2,0,0.5,0c0.3,0,0.6,0,1,0c0.4,0,0.8,0,1.3,0s0.9,0,1.2,0c0.4,0,0.7,0,1,0
			c0.3,0,0.5,0,0.6,0c0.2,0,0.4,0,0.6,0c0.2,0,0.3,0,0.4-0.1c0.1,0,0.1-0.1,0.2-0.1s0.1,0,0.1,0c0.1,0,0.1,0.1,0.1,0.2
			c0,0.1,0,0.2-0.1,0.4s-0.1,0.4-0.1,0.7c0,0.1,0,0.2,0,0.3c0,0.1,0,0.3,0,0.4c0,0.2,0,0.3,0,0.5c0,0.1,0,0.2,0,0.3
			c0,0.1,0,0.1-0.1,0.2c0,0.1-0.1,0.1-0.1,0.1c-0.1,0-0.2-0.1-0.2-0.3c0-0.1,0-0.2,0-0.4c0-0.2-0.1-0.3-0.2-0.5
			c-0.1-0.2-0.2-0.3-0.5-0.5c-0.3-0.2-0.6-0.2-1-0.3l-3.5-0.1c-0.1,0-0.2,0.1-0.2,0.3v6.3c0,0.1,0.1,0.2,0.2,0.2l2.9,0
			c0.2,0,0.4,0,0.5,0c0.2,0,0.3,0,0.5,0c0.3,0,0.5-0.1,0.6-0.1c0.2,0,0.3-0.1,0.4-0.3c0-0.1,0.1-0.1,0.1-0.2s0.1-0.1,0.1-0.1
			c0.1,0,0.1,0.1,0.1,0.2c0,0.1,0,0.2-0.1,0.4c0,0.2-0.1,0.5-0.1,0.9c0,0.1,0,0.3,0,0.4c0,0.2,0,0.3,0,0.5c0,0.2,0,0.3,0,0.4
			c0,0.1,0,0.2,0,0.3c0,0.1,0,0.2,0,0.3c0,0.1-0.1,0.1-0.1,0.1c-0.1,0-0.2-0.1-0.2-0.2c0-0.1,0-0.3,0-0.4c0-0.1,0-0.3-0.1-0.4
			c-0.1-0.2-0.2-0.3-0.4-0.5c-0.2-0.2-0.5-0.3-0.8-0.3c-0.1,0-0.4,0-0.7,0s-0.7,0-1.1,0c-0.4,0-0.7,0-1,0c-0.3,0-0.5,0-0.6,0
			c-0.1,0-0.2,0.1-0.2,0.2v1.9c0,1.1,0,2.1,0,2.9c0,0.9,0,1.5,0.1,2c0,0.3,0.1,0.6,0.2,0.8s0.3,0.4,0.7,0.4c0.2,0,0.4,0.1,0.6,0.1
			c0.2,0,0.4,0,0.5,0c0.1,0,0.2,0,0.2,0.1c0,0.1-0.1,0.2-0.4,0.2c-0.3,0-0.6,0-1,0c-0.3,0-0.6,0-0.9,0s-0.5,0-0.7,0
			c-0.2,0-0.3,0-0.3,0c0,0-0.1,0-0.3,0c-0.2,0-0.4,0-0.6,0c-0.2,0-0.5,0-0.7,0s-0.4,0-0.6,0c-0.2,0-0.4-0.1-0.4-0.2
			c0-0.1,0.1-0.1,0.2-0.1c0.1,0,0.2,0,0.3,0c0.1,0,0.2,0,0.3-0.1c0.2,0,0.4-0.2,0.5-0.4c0.1-0.2,0.1-0.5,0.2-0.8
			c0.1-0.5,0.1-1.2,0.1-2c0-0.9,0-1.8,0-2.9V216.3z"/>
		<path class="st1" d="M279.4,216.3c0-0.9,0-1.6,0-2.2s0-1,0-1.3c0-0.3,0-0.6,0-0.8c0-0.2,0-0.4,0-0.6c0-0.4-0.1-0.7-0.2-0.9
			c-0.1-0.2-0.4-0.3-0.8-0.4c-0.1,0-0.2,0-0.4-0.1c-0.2,0-0.3,0-0.4,0c-0.1,0-0.2,0-0.2-0.1c0-0.1,0.1-0.2,0.4-0.2
			c0.3,0,0.5,0,0.8,0c0.3,0,0.6,0,0.8,0l0.9,0c0,0,0.3,0,0.8,0c0.5,0,1.1,0,1.7,0c0.6,0,1.2,0,1.7,0c0.5,0,0.9,0,1,0
			c0.4,0,0.8-0.1,1-0.1c0.1,0,0.1,0,0.2-0.1c0,0,0.1,0,0.2,0c0.1,0,0.1,0.1,0.1,0.2c0,0.1,0,0.2-0.1,0.4s-0.1,0.4-0.1,0.7
			c0,0.1,0,0.2,0,0.3c0,0.1,0,0.3,0,0.4c0,0.2,0,0.3,0,0.5c0,0.1,0,0.2,0,0.3c0,0.1,0,0.1-0.1,0.2c0,0.1-0.1,0.1-0.1,0.1
			c-0.1,0-0.2-0.1-0.2-0.3c0-0.1,0-0.2,0-0.4c0-0.2-0.1-0.3-0.1-0.5c-0.1-0.2-0.2-0.3-0.4-0.5s-0.6-0.2-1.2-0.3c-0.1,0-0.3,0-0.6,0
			c-0.3,0-0.7,0-1,0c-0.3,0-0.7,0-1,0c-0.3,0-0.5,0-0.5,0c-0.1,0-0.1,0.1-0.1,0.2v6.3c0,0.2,0,0.2,0.1,0.2c0.1,0,0.3,0,0.6,0
			c0.3,0,0.7,0,1.1,0c0.4,0,0.8,0,1.2,0s0.6,0,0.8,0c0.3,0,0.5-0.1,0.7-0.1c0.2,0,0.3-0.1,0.4-0.2c0.2-0.2,0.3-0.3,0.3-0.3
			c0.1,0,0.1,0.1,0.1,0.2c0,0.1,0,0.2-0.1,0.4c0,0.2-0.1,0.5-0.1,0.9c0,0.1,0,0.3,0,0.4s0,0.3,0,0.4c0,0.1,0,0.3,0,0.4
			c0,0.1,0,0.2,0,0.2c0,0.1,0,0.2,0,0.3c0,0.1-0.1,0.1-0.1,0.1c-0.1,0-0.2-0.1-0.2-0.2c0-0.1,0-0.2,0-0.4c0-0.1,0-0.2-0.1-0.4
			c0-0.2-0.1-0.3-0.3-0.5c-0.2-0.2-0.4-0.3-0.9-0.3c-0.2,0-0.4,0-0.7,0c-0.3,0-0.7,0-1,0c-0.3,0-0.7,0-1,0s-0.5,0-0.6,0
			c-0.1,0-0.2,0.1-0.2,0.2v2c0,0.2,0,0.5,0,0.9s0,0.8,0,1.2s0,0.8,0,1.1s0,0.6,0,0.7c0,0.4,0.1,0.7,0.1,1s0.2,0.4,0.4,0.6
			c0.2,0.1,0.5,0.2,0.8,0.3s0.8,0.1,1.3,0.1c0.3,0,0.7,0,1.1,0c0.4,0,0.8-0.1,1.1-0.2c0.3-0.1,0.5-0.3,0.7-0.6
			c0.2-0.3,0.3-0.6,0.3-1.1c0-0.2,0.1-0.3,0.2-0.3c0.1,0,0.1,0,0.1,0.1s0,0.2,0,0.2c0,0,0,0.2,0,0.4c0,0.2,0,0.4-0.1,0.6
			c0,0.2-0.1,0.5-0.1,0.7c0,0.2-0.1,0.4-0.1,0.5c0,0.2-0.1,0.3-0.1,0.3c0,0.1-0.1,0.1-0.2,0.2c-0.1,0-0.2,0.1-0.3,0.1s-0.3,0-0.5,0
			c-0.9,0-1.6,0-2.2,0c-0.6,0-1.2,0-1.6,0c-0.4,0-0.8,0-1.1-0.1c-0.3,0-0.5,0-0.7,0c0,0-0.1,0-0.3,0s-0.4,0-0.6,0
			c-0.2,0-0.5,0-0.7,0c-0.2,0-0.4,0-0.6,0c-0.2,0-0.4-0.1-0.4-0.2c0-0.1,0.1-0.1,0.2-0.1c0.1,0,0.2,0,0.3,0c0.1,0,0.2,0,0.3-0.1
			c0.2,0,0.4-0.2,0.5-0.4c0.1-0.2,0.1-0.5,0.2-0.8c0.1-0.5,0.1-1.2,0.1-2c0-0.9,0-1.8,0-2.9V216.3z"/>
		<path class="st1" d="M291.1,227.1c-0.5-0.1-1-0.3-1.5-0.5c-0.2-0.1-0.3-0.2-0.3-0.3c0-0.1,0-0.3,0-0.6c0-0.6,0-1.1,0-1.5
			c0-0.4,0.1-0.7,0.1-0.9c0-0.2,0.1-0.4,0.2-0.4s0.2,0.1,0.2,0.3c0,0.1,0,0.2,0,0.4s0,0.3,0.1,0.5c0.1,0.4,0.2,0.8,0.5,1.1
			s0.5,0.5,0.8,0.7c0.3,0.2,0.6,0.3,1,0.4c0.4,0.1,0.7,0.1,1.1,0.1c0.5,0,1-0.1,1.4-0.3c0.4-0.2,0.7-0.4,1-0.7
			c0.3-0.3,0.5-0.6,0.6-1c0.1-0.4,0.2-0.7,0.2-1.1c0-0.4,0-0.8-0.1-1.1c-0.1-0.3-0.2-0.6-0.4-1c-0.2-0.3-0.5-0.6-0.8-1
			c-0.3-0.3-0.7-0.7-1.2-1.1l-1-0.8c-0.6-0.5-1.1-1-1.5-1.4c-0.4-0.4-0.7-0.8-0.9-1.2c-0.2-0.4-0.4-0.8-0.5-1.2
			c-0.1-0.4-0.1-0.8-0.1-1.2c0-0.6,0.1-1.2,0.3-1.7c0.2-0.5,0.5-0.9,0.9-1.3s0.9-0.6,1.5-0.8s1.2-0.3,2-0.3c0.4,0,0.8,0,1.2,0.1
			s0.7,0.1,0.9,0.2c0.2,0,0.4,0.1,0.5,0.1c0.1,0,0.2,0,0.3,0c0.2,0,0.2,0.1,0.2,0.2c0,0.1,0,0.3,0,0.7c0,0.4,0,1,0,1.7
			c0,0.3-0.1,0.5-0.2,0.5c-0.1,0-0.1,0-0.1-0.1c0-0.1,0-0.1,0-0.2c0-0.1,0-0.3-0.1-0.6c-0.1-0.3-0.1-0.4-0.2-0.6
			c0-0.1-0.1-0.2-0.2-0.3s-0.3-0.3-0.5-0.4c-0.2-0.1-0.5-0.3-0.9-0.4c-0.3-0.1-0.8-0.1-1.3-0.1c-0.8,0-1.5,0.2-2,0.7
			c-0.5,0.5-0.8,1.1-0.8,1.9c0,0.3,0,0.6,0.1,0.9c0.1,0.3,0.2,0.6,0.4,0.9s0.5,0.6,0.9,0.9c0.4,0.3,0.8,0.7,1.4,1.1l0.6,0.5
			c0.7,0.5,1.2,1,1.7,1.5c0.4,0.5,0.8,0.9,1,1.3c0.3,0.4,0.4,0.8,0.5,1.3c0.1,0.4,0.1,0.9,0.1,1.3c0,0.2,0,0.5-0.1,0.8
			c-0.1,0.3-0.2,0.7-0.3,1s-0.3,0.7-0.6,1c-0.2,0.3-0.6,0.6-1,0.9c-0.5,0.3-1,0.6-1.6,0.7c-0.6,0.1-1.2,0.2-1.8,0.2
			C292.1,227.2,291.6,227.2,291.1,227.1z"/>
		<path class="st1" d="M299.4,216.3c0.2-0.7,0.4-1.4,0.7-2c0.3-0.7,0.7-1.3,1.2-1.9s1.1-1.1,1.7-1.6c0.7-0.5,1.4-0.8,2.3-1.1
			s1.8-0.4,2.8-0.4c1.3,0,2.5,0.2,3.6,0.6s2,1,2.8,1.7s1.4,1.6,1.9,2.7c0.5,1.1,0.7,2.2,0.7,3.6c0,1.3-0.2,2.5-0.6,3.6
			c-0.4,1.1-1,2.1-1.8,3c-0.8,0.8-1.7,1.5-2.9,2c-1.1,0.5-2.4,0.7-3.7,0.7c-1.6,0-2.9-0.3-4-0.8s-2-1.3-2.7-2.1
			c-0.7-0.9-1.2-1.8-1.6-2.9s-0.5-2.1-0.5-3.1C299.2,217.6,299.3,217,299.4,216.3z M301.9,221.2c0.4,1.1,0.9,2,1.5,2.8
			c0.7,0.8,1.4,1.3,2.3,1.8c0.9,0.4,1.8,0.6,2.9,0.6c0.5,0,1.1-0.1,1.8-0.3c0.7-0.2,1.4-0.6,2.1-1.1c0.7-0.6,1.2-1.4,1.7-2.4
			c0.5-1,0.7-2.4,0.7-4c0-1.4-0.2-2.6-0.6-3.6c-0.4-1-0.9-1.9-1.5-2.6c-0.6-0.7-1.4-1.2-2.2-1.6c-0.8-0.4-1.7-0.5-2.6-0.5
			c-1,0-1.8,0.2-2.7,0.5s-1.5,0.8-2.1,1.4c-0.6,0.6-1.1,1.4-1.4,2.3c-0.3,0.9-0.5,2-0.5,3.3C301.3,218.9,301.5,220.1,301.9,221.2z"
			/>
		<path class="st1" d="M320.3,216.3c0-0.9,0-1.6,0-2.2s0-1,0-1.3c0-0.3,0-0.6,0-0.8c0-0.2,0-0.4,0-0.6c0-0.4-0.1-0.7-0.2-0.9
			c-0.1-0.2-0.4-0.3-0.8-0.4c-0.1,0-0.2,0-0.4-0.1c-0.2,0-0.3,0-0.4,0c-0.1,0-0.2,0-0.2-0.1c0-0.1,0.1-0.2,0.4-0.2
			c0.3,0,0.5,0,0.8,0c0.3,0,0.6,0,0.8,0s0.5,0,0.6,0c0.2,0,0.3,0,0.3,0c0.1,0,0.2,0,0.4,0c0.2,0,0.5,0,0.8,0c0.3,0,0.6,0,0.8,0
			s0.5,0,0.7,0c0.7,0,1.5,0.1,2.2,0.2c0.7,0.1,1.4,0.4,2,0.8c0.1,0.1,0.3,0.3,0.5,0.4c0.2,0.2,0.4,0.4,0.5,0.7
			c0.2,0.3,0.3,0.6,0.4,0.9s0.2,0.7,0.2,1.1c0,0.9-0.2,1.7-0.6,2.6c-0.4,0.9-1.1,1.8-2.1,2.7c0.9,1.2,1.8,2.3,2.6,3.3
			c0.8,1,1.5,1.8,2.2,2.6c0.6,0.7,1.2,1.1,1.6,1.3s0.9,0.3,1.1,0.4c0.2,0,0.4,0,0.5,0.1s0.3,0,0.3,0c0.1,0,0.2,0,0.2,0.1
			c0,0.1,0,0.1-0.1,0.1s-0.2,0-0.4,0h-1.6c-0.6,0-1.1,0-1.5-0.1c-0.3-0.1-0.7-0.2-1-0.3c-0.5-0.3-1-0.7-1.4-1.2
			c-0.5-0.6-1-1.3-1.7-2.1c-0.2-0.3-0.5-0.6-0.7-1s-0.5-0.7-0.7-1c-0.2-0.3-0.4-0.6-0.6-0.8c-0.2-0.3-0.3-0.5-0.4-0.6
			c-0.1-0.1-0.2-0.1-0.3-0.1l-2.8,0c-0.1,0-0.2,0.1-0.2,0.2v0.5c0,1.1,0,2.1,0,2.9c0,0.9,0,1.5,0.1,2c0,0.3,0.1,0.6,0.2,0.8
			s0.3,0.4,0.7,0.4c0.2,0,0.4,0.1,0.6,0.1c0.2,0,0.4,0,0.5,0c0.1,0,0.2,0,0.2,0.1c0,0.1-0.1,0.2-0.4,0.2c-0.3,0-0.6,0-1,0
			c-0.3,0-0.6,0-0.9,0s-0.5,0-0.7,0c-0.2,0-0.3,0-0.3,0c-0.3,0-0.6,0-0.8,0s-0.5,0-0.7,0s-0.4,0-0.6,0c-0.2,0-0.4-0.1-0.4-0.2
			c0-0.1,0.1-0.1,0.2-0.1c0.1,0,0.2,0,0.3,0c0.1,0,0.2,0,0.3-0.1c0.2,0,0.4-0.2,0.5-0.4c0.1-0.2,0.1-0.5,0.2-0.8
			c0.1-0.5,0.1-1.2,0.1-2c0-0.9,0-1.8,0-2.9V216.3z M322.2,218.3c0,0.1,0.1,0.2,0.2,0.3c0.2,0.1,0.5,0.2,0.9,0.3
			c0.5,0.1,0.9,0.1,1.4,0.1c0.3,0,0.6,0,0.9-0.1c0.3-0.1,0.6-0.2,0.8-0.4c0.4-0.3,0.7-0.7,1-1.3s0.4-1.3,0.4-2.2
			c0-1.4-0.3-2.5-1-3.3c-0.7-0.8-1.7-1.2-2.9-1.2c-0.3,0-0.7,0-0.9,0s-0.5,0.1-0.6,0.1c-0.1,0-0.2,0.1-0.2,0.3V218.3z"/>
	</g>
	<line class="st2" x1="25.9" y1="197.6" x2="335.3" y2="197.6"/>
	<line class="st2" x1="129.6" y1="136" x2="335.3" y2="136"/>
	<g class="st0">
		<path class="st1" d="M33.9,128.6v2.5h-2.7v5.9h-2.7v-5.9h-2.7v-2.5H33.9z"/>
		<path class="st1" d="M33.3,137v-5.9h-1.7v-2.5h8.9v2.5H36v1h2.9v1.5H36v1h5.2v2.5H33.3z"/>
		<path class="st1" d="M40.4,137l2.8-8.4h4.2l2.8,8.4h-3.2l-0.5-1.5h-2.5l-0.5,1.5H40.4z M45.2,130.5l-1.2,3.3h2.3L45.2,130.5z"/>
		<path class="st1" d="M52.4,132.7c0,0.5,0.1,0.8,0.3,1s0.4,0.4,0.6,0.6c0.2,0.1,0.6,0.2,1.1,0.3c0.5,0,0.9-0.1,1.1-0.2
			c0.2-0.1,0.5-0.3,0.7-0.5l1.6,1.8c-0.5,0.4-1,0.8-1.4,0.9c-0.5,0.2-1.2,0.3-2.1,0.3c-0.9,0-1.5-0.2-2-0.4
			c-0.4-0.2-0.9-0.5-1.3-0.8c-0.4-0.3-0.8-0.8-1-1.3c-0.2-0.5-0.4-1.1-0.4-1.8c0-0.7,0.1-1.3,0.4-1.8c0.2-0.5,0.6-0.9,1-1.3
			c0.4-0.3,0.9-0.6,1.3-0.8c0.4-0.2,1.1-0.3,2-0.4c0.9,0,1.6,0.2,2.1,0.3s0.9,0.5,1.4,0.9l-1.6,1.8c-0.3-0.2-0.5-0.4-0.7-0.5
			c-0.2-0.1-0.6-0.2-1.1-0.2c-0.5,0.1-0.8,0.2-1.1,0.3c-0.2,0.1-0.4,0.3-0.6,0.6S52.5,132.2,52.4,132.7z"/>
		<path class="st1" d="M63.2,131.5v-2.9h2.7v8.4h-2.7v-3H61v3h-2.7v-5.9h-1.7v-2.5H61v2.9H63.2z"/>
		<path class="st1" d="M66.5,137v-5.9h-1.7v-2.5h8.9v2.5h-4.5v1h2.9v1.5h-2.9v1h5.2v2.5H66.5z"/>
		<path class="st1" d="M74.4,137v-8.4h5.5c0.7,0.1,1.2,0.2,1.7,0.5c0.4,0.3,0.8,0.7,1,1.2c0.2,0.7,0.2,1.3,0,1.7
			c-0.1,0.4-0.4,0.7-0.7,1s-0.8,0.5-1.5,0.6l0.6,0.8h4.5v2.5h-5.3l-2.7-2.8v2.8H74.4z M77.4,130.7v1.5h2.1c0.1,0,0.2,0,0.4-0.1
			s0.2-0.3,0.2-0.6c0-0.3-0.1-0.5-0.2-0.6c-0.1-0.1-0.3-0.2-0.3-0.2H77.4z"/>
		<path class="st1" d="M93.9,133.4L93,137h-2.7l-2.6-8.4h2.7l1.2,3.6l1-3.6h2.5l1.2,3.6l0.8-3.6h2.7l-2.1,8.4H95L93.9,133.4z"/>
		<path class="st1" d="M98.6,137l2.8-8.4h4.2l2.8,8.4h-3.2l-0.5-1.5h-2.5l-0.5,1.5H98.6z M103.4,130.5l-1.2,3.3h2.3L103.4,130.5z"/>
		<path class="st1" d="M108.2,137v-8.4h5.5c0.7,0.1,1.2,0.2,1.7,0.5c0.4,0.3,0.8,0.7,1,1.2c0.2,0.7,0.2,1.3,0,1.7
			c-0.1,0.4-0.4,0.7-0.7,1s-0.8,0.5-1.5,0.6l0.6,0.8h4.5v2.5h-5.3l-2.7-2.8v2.8H108.2z M111.2,130.7v1.5h2.1c0.1,0,0.2,0,0.4-0.1
			s0.2-0.3,0.2-0.6c0-0.3-0.1-0.5-0.2-0.6c-0.1-0.1-0.3-0.2-0.3-0.2H111.2z"/>
		<path class="st1" d="M124.4,131.1h-2.6c-1,0-1.1,0.2-0.4,0.8c1.3,1.1,1.9,2.2,1.8,3.2c0,1-0.6,1.7-1.8,1.9H114v-2.5h4.6
			c1.1,0,1.2-0.3,0.4-0.9c-1.3-1.2-1.9-2.4-1.7-3.4c0.2-1,0.8-1.6,1.9-1.6h5.2V131.1z"/>
	</g>
</g>
</svg>
