<?xml version="1.0" encoding="utf-8"?>
<!-- Generator: Adobe Illustrator 22.1.0, SVG Export Plug-In . SVG Version: 6.00 Build 0)  -->
<svg version="1.1" id="Capa_1" xmlns="http://www.w3.org/2000/svg" xmlns:xlink="http://www.w3.org/1999/xlink" x="0px" y="0px"
	 viewBox="0 0 359.5 359.5" style="enable-background:new 0 0 359.5 359.5;" xml:space="preserve">
<style type="text/css">
	.st0{enable-background:new    ;}
	.st1{fill:#FFFFFF;}
	.st2{fill:none;stroke:#FFFFFF;stroke-width:2;stroke-miterlimit:10;}
</style>
<title>episodio-IV-featured</title>
<g id="Episodio_IV">
	<g class="st0">
		<path class="st1" d="M37,159.9c0-7.3,0-8.7-0.1-10.2c-0.1-1.6-0.5-2.4-2.1-2.7c-0.4-0.1-1.2-0.1-1.9-0.1c-0.5,0-0.8-0.1-0.8-0.4
			s0.3-0.4,1.1-0.4c1.3,0,2.7,0,3.9,0c1.3,0,2.4,0.1,3,0.1c1.5,0,11.1,0,12.1,0c0.9-0.1,1.7-0.2,2.1-0.3c0.2,0,0.5-0.2,0.8-0.2
			c0.2,0,0.3,0.2,0.3,0.4c0,0.3-0.2,0.9-0.4,3.1c0,0.5-0.1,2.6-0.2,3.2c0,0.2-0.1,0.5-0.5,0.5s-0.4-0.2-0.4-0.7c0-0.3,0-1.2-0.3-1.7
			c-0.3-0.9-0.8-1.4-3.2-1.7c-0.8-0.1-5.9-0.2-6.8-0.2c-0.2,0-0.3,0.1-0.3,0.5v12.2c0,0.3,0,0.5,0.3,0.5c1.1,0,6.6,0,7.7-0.1
			c1.2-0.1,1.9-0.2,2.3-0.7c0.3-0.4,0.5-0.6,0.8-0.6c0.2,0,0.3,0.1,0.3,0.4s-0.2,1.1-0.4,3.5c0,1-0.2,2.9-0.2,3.2
			c0,0.4,0,0.9-0.4,0.9c-0.3,0-0.4-0.2-0.4-0.4c0-0.5,0-1.1-0.2-1.7c-0.2-1-0.9-1.7-2.7-1.9c-0.9-0.1-5.7-0.1-6.8-0.1
			c-0.2,0-0.3,0.2-0.3,0.5v3.8c0,1.6,0,6.1,0,7.5c0.1,3.3,0.9,4.1,5.8,4.1c1.3,0,3.3,0,4.5-0.6c1.3-0.6,1.8-1.6,2.2-3.6
			c0.1-0.5,0.2-0.7,0.5-0.7c0.4,0,0.4,0.4,0.4,0.9c0,1.1-0.4,4.4-0.6,5.4c-0.3,1.3-0.8,1.3-2.6,1.3c-3.6,0-6.3-0.1-8.3-0.1
			c-2.1-0.1-3.6-0.1-5-0.1c-0.5,0-1.6,0-2.7,0c-1.1,0-2.4,0.1-3.3,0.1c-0.6,0-1-0.1-1-0.5c0-0.2,0.2-0.4,0.8-0.4
			c0.7,0,1.3-0.1,1.7-0.2c1-0.2,1.2-1.3,1.4-2.7c0.2-2,0.2-5.8,0.2-10.3V159.9z"/>
		<path class="st1" d="M64.1,159.9c0-7.3,0-8.7-0.1-10.2c-0.1-1.6-0.5-2.4-2.1-2.7c-0.4-0.1-1.2-0.1-1.9-0.1c-0.5,0-0.8-0.1-0.8-0.4
			s0.3-0.4,1.1-0.4c2.6,0,5.6,0.1,6.9,0.1c2,0,4.8-0.1,7-0.1c6,0,8.2,2,9,2.7c1.1,1,2.4,3.2,2.4,5.7c0,6.8-5,11.7-11.9,11.7
			c-0.2,0-0.8,0-1,0s-0.6-0.1-0.6-0.4c0-0.4,0.3-0.5,1.4-0.5c2.7,0,6.5-3,6.5-8c0-1.6-0.1-4.8-2.8-7.2c-1.7-1.6-3.7-1.9-4.8-1.9
			c-0.7,0-1.4,0-1.9,0.2c-0.2,0.1-0.4,0.4-0.4,0.9v19.3c0,4.4,0,8.2,0.2,10.3c0.1,1.4,0.4,2.4,1.9,2.6c0.7,0.1,1.7,0.2,2.5,0.2
			c0.5,0,0.8,0.1,0.8,0.4c0,0.3-0.4,0.5-0.9,0.5c-3.2,0-6.2-0.1-7.5-0.1c-1.1,0-4.1,0.1-6.1,0.1c-0.6,0-1-0.1-1-0.5
			c0-0.2,0.2-0.4,0.8-0.4c0.7,0,1.3-0.1,1.7-0.2c1-0.2,1.2-1.3,1.4-2.7c0.2-2,0.2-5.8,0.2-10.3V159.9z"/>
		<path class="st1" d="M92.3,159.9c0-7.3,0-8.7-0.1-10.2c-0.1-1.6-0.6-2.5-1.6-2.7c-0.5-0.1-1.2-0.2-1.7-0.2c-0.5,0-0.8-0.1-0.8-0.5
			c0-0.3,0.4-0.4,1.2-0.4c1.8,0,4.9,0.1,6.3,0.1c1.2,0,4.1-0.1,5.9-0.1c0.6,0,1,0.1,1,0.4c0,0.4-0.3,0.5-0.8,0.5
			c-0.5,0-0.9,0-1.4,0.1c-1.3,0.2-1.7,1.1-1.8,2.7c-0.1,1.5-0.1,2.9-0.1,10.2v8.5c0,4.7,0,8.5,0.2,10.6c0.1,1.3,0.5,2.2,1.9,2.4
			c0.7,0.1,1.7,0.2,2.5,0.2c0.5,0,0.8,0.1,0.8,0.4c0,0.3-0.4,0.5-0.9,0.5c-3.2,0-6.2-0.1-7.5-0.1c-1.1,0-4.1,0.1-6.1,0.1
			c-0.6,0-1-0.1-1-0.5c0-0.2,0.2-0.4,0.8-0.4c0.7,0,1.3-0.1,1.7-0.2c1-0.2,1.3-1,1.4-2.4c0.2-2,0.2-5.8,0.2-10.5V159.9z"/>
		<path class="st1" d="M108.1,181.8c-0.8-0.3-0.9-0.6-0.9-1.6c0-2.7,0.2-5.5,0.2-6.3c0-0.7,0.2-1.3,0.6-1.3c0.4,0,0.5,0.4,0.5,0.8
			c0,0.6,0.2,1.6,0.4,2.5c1.1,3.6,3.9,4.9,6.9,4.9c4.3,0,6.5-2.9,6.5-5.5c0-2.4-0.7-4.6-4.7-7.7l-2.2-1.7c-5.3-4.1-7.1-7.5-7.1-11.4
			c0-5.3,4.4-9.1,11.1-9.1c3.1,0,5.2,0.5,6.4,0.8c0.4,0.1,0.7,0.2,0.7,0.6c0,0.6-0.2,2-0.2,5.8c0,1.1-0.1,1.4-0.5,1.4
			c-0.3,0-0.5-0.3-0.5-0.9c0-0.4-0.2-1.9-1.3-3.2c-0.7-0.9-2.1-2.4-5.3-2.4c-3.6,0-5.7,2.1-5.7,5c0,2.2,1.1,3.9,5.1,6.9l1.4,1
			c5.8,4.4,7.9,7.7,7.9,12.3c0,2.8-1.1,6.1-4.5,8.4c-2.4,1.5-5.1,2-7.7,2C112.3,183,110.1,182.7,108.1,181.8z"/>
	</g>
	<g class="st0">
		<path class="st1" d="M129.6,164.1c0-8.2,5.4-18.9,19.9-18.9c12,0,19.5,7,19.5,18c0,11-7.7,19.8-20,19.8
			C135.2,183,129.6,172.7,129.6,164.1z M162.2,165.1c0-10.8-6.2-17.5-14.1-17.5c-5.5,0-11.9,3.1-11.9,15.1c0,10,5.5,18,14.8,18
			C154.4,180.6,162.2,179,162.2,165.1z"/>
		<path class="st1" d="M175.2,159.9c0-7.3,0-8.7-0.1-10.2c-0.1-1.6-0.5-2.4-2.1-2.7c-0.4-0.1-1.2-0.1-1.9-0.1
			c-0.5,0-0.8-0.1-0.8-0.4s0.3-0.4,1.1-0.4c2.6,0,5.6,0.1,6.9,0.1c1.5,0,4.5-0.1,7.4-0.1c6,0,14.1,0,19.3,5.5
			c2.4,2.5,4.7,6.5,4.7,12.2c0,6.1-2.6,10.7-5.3,13.5c-2.2,2.3-7.2,5.7-16.2,5.7c-1.7,0-3.7-0.1-5.5-0.3s-3.5-0.3-4.7-0.3
			c-0.5,0-1.6,0-2.7,0c-1.1,0-2.4,0.1-3.3,0.1c-0.6,0-1-0.1-1-0.5c0-0.2,0.2-0.4,0.8-0.4c0.7,0,1.3-0.1,1.7-0.2
			c1-0.2,1.2-1.3,1.4-2.7c0.2-2,0.2-5.8,0.2-10.3V159.9z M181.3,165.2c0,5.1,0,8.8,0.1,9.7c0,1.2,0.1,3.1,0.5,3.7
			c0.6,0.9,2.5,1.9,6.3,1.9c4.9,0,8.2-1,11.1-3.5c3.1-2.7,4-7,4-12c0-6.1-2.6-10.1-4.6-12.1c-4.4-4.2-9.9-4.8-13.7-4.8
			c-1,0-2.7,0.1-3.1,0.3c-0.4,0.2-0.6,0.4-0.6,1c0,1.6,0,5.8,0,9.6V165.2z"/>
		<path class="st1" d="M216.1,159.9c0-7.3,0-8.7-0.1-10.2c-0.1-1.6-0.6-2.5-1.6-2.7c-0.5-0.1-1.2-0.2-1.7-0.2
			c-0.5,0-0.8-0.1-0.8-0.5c0-0.3,0.4-0.4,1.2-0.4c1.8,0,4.9,0.1,6.3,0.1c1.2,0,4.1-0.1,5.9-0.1c0.6,0,1,0.1,1,0.4
			c0,0.4-0.3,0.5-0.8,0.5s-0.9,0-1.4,0.1c-1.3,0.2-1.7,1.1-1.8,2.7c-0.1,1.5-0.1,2.9-0.1,10.2v8.5c0,4.7,0,8.5,0.2,10.6
			c0.1,1.3,0.5,2.2,1.9,2.4c0.7,0.1,1.7,0.2,2.5,0.2c0.5,0,0.8,0.1,0.8,0.4c0,0.3-0.4,0.5-0.9,0.5c-3.2,0-6.2-0.1-7.5-0.1
			c-1.1,0-4.1,0.1-6.1,0.1c-0.6,0-1-0.1-1-0.5c0-0.2,0.2-0.4,0.8-0.4c0.7,0,1.3-0.1,1.7-0.2c1-0.2,1.3-1,1.4-2.4
			c0.2-2,0.2-5.8,0.2-10.5V159.9z"/>
	</g>
	<g class="st0">
		<path class="st1" d="M229.2,164.1c0-8.2,5.4-18.9,19.9-18.9c12,0,19.5,7,19.5,18c0,11-7.7,19.8-20,19.8
			C234.8,183,229.2,172.7,229.2,164.1z M261.9,165.1c0-10.8-6.2-17.5-14.1-17.5c-5.5,0-11.9,3.1-11.9,15.1c0,10,5.5,18,14.8,18
			C254,180.6,261.9,179,261.9,165.1z"/>
		<path class="st1" d="M286.9,159.9c0-7.3,0-8.7-0.1-10.2c-0.1-1.6-0.6-2.5-1.6-2.7c-0.5-0.1-1.2-0.2-1.7-0.2
			c-0.5,0-0.8-0.1-0.8-0.5c0-0.3,0.4-0.4,1.2-0.4c1.8,0,4.9,0.1,6.3,0.1c1.2,0,4.1-0.1,5.9-0.1c0.6,0,1,0.1,1,0.4
			c0,0.4-0.3,0.5-0.8,0.5s-0.9,0-1.4,0.1c-1.3,0.2-1.7,1.1-1.8,2.7c-0.1,1.5-0.1,2.9-0.1,10.2v8.5c0,4.7,0,8.5,0.2,10.6
			c0.1,1.3,0.5,2.2,1.9,2.4c0.7,0.1,1.7,0.2,2.5,0.2c0.5,0,0.8,0.1,0.8,0.4c0,0.3-0.4,0.5-0.9,0.5c-3.2,0-6.2-0.1-7.5-0.1
			c-1.1,0-4.1,0.1-6.1,0.1c-0.6,0-1-0.1-1-0.5c0-0.2,0.2-0.4,0.8-0.4c0.7,0,1.3-0.1,1.7-0.2c1-0.2,1.3-1,1.4-2.4
			c0.2-2,0.2-5.8,0.2-10.5V159.9z"/>
		<path class="st1" d="M300.9,150.6c-1.1-2.7-1.9-3.2-3.7-3.7c-0.7-0.2-1.5-0.2-1.9-0.2c-0.4,0-0.6-0.1-0.6-0.4
			c0-0.4,0.5-0.4,1.3-0.4c2.6,0,5.3,0.1,7,0.1c1.2,0,3.5-0.1,5.9-0.1c0.6,0,1.1,0.1,1.1,0.4s-0.3,0.4-0.7,0.4c-0.8,0-1.5,0-1.9,0.3
			c-0.3,0.2-0.5,0.6-0.5,1c0,0.6,0.4,2,1.1,3.7l8.3,21.9h0.2c2.1-5.3,8.3-20.8,9.5-24c0.2-0.6,0.4-1.3,0.4-1.8
			c0-0.4-0.2-0.8-0.6-0.9c-0.6-0.2-1.3-0.2-1.9-0.2c-0.4,0-0.8,0-0.8-0.4c0-0.4,0.4-0.5,1.3-0.5c2.4,0,4.4,0.1,5.1,0.1
			c0.8,0,3.1-0.1,4.5-0.1c0.6,0,1,0.1,1,0.4s-0.3,0.4-0.8,0.4c-0.5,0-1.5,0-2.4,0.6c-0.6,0.4-1.3,1.3-2.7,4.3
			c-1.9,4.5-3.2,7.1-5.8,13.1c-3.1,7-5.4,12.3-6.4,14.7c-1.3,2.8-1.5,3.6-2.2,3.6c-0.6,0-0.9-0.7-1.8-2.9L300.9,150.6z"/>
	</g>
	<g class="st0">
		<path class="st1" d="M27.1,217.2c0-0.9,0-1.6,0-2.2c0-0.6,0-1,0-1.4c0-0.4,0-0.6,0-0.9c0-0.2,0-0.4,0-0.6c0-0.4-0.1-0.7-0.2-0.9
			c-0.1-0.2-0.4-0.3-0.8-0.4c-0.1,0-0.2,0-0.4-0.1c-0.2,0-0.3,0-0.4,0c-0.1,0-0.2,0-0.2-0.1c0-0.1,0.1-0.2,0.4-0.2
			c0.3,0,0.5,0,0.8,0c0.3,0,0.6,0,0.8,0s0.5,0,0.7,0c0.2,0,0.3,0,0.4,0c0,0,0.2,0,0.4,0s0.4,0,0.6,0s0.5,0,0.7,0c0.2,0,0.4,0,0.6,0
			c0.2,0,0.4,0.1,0.4,0.2c0,0.1-0.1,0.1-0.2,0.1c-0.1,0-0.2,0-0.2,0c-0.1,0-0.2,0-0.3,0.1c-0.3,0-0.5,0.2-0.6,0.4
			c-0.1,0.2-0.2,0.5-0.2,0.9c0,0.2,0,0.4,0,0.6c0,0.2,0,0.5,0,0.9c0,0.3,0,0.8,0,1.4c0,0.6,0,1.3,0,2.2v3.3c0,0.8,0,1.6,0.1,2.2
			c0.1,0.6,0.2,1.1,0.4,1.6c0.2,0.5,0.3,0.8,0.6,1.2s0.5,0.6,0.7,0.8c0.6,0.5,1.1,0.9,1.7,1.1s1.2,0.2,1.8,0.2
			c0.7,0,1.4-0.2,2.1-0.5c0.7-0.3,1.2-0.7,1.6-1.2c0.5-0.7,0.9-1.5,1.1-2.5c0.2-1,0.3-2.1,0.3-3.3v-2.9c0-0.9,0-1.6,0-2.2
			c0-0.6,0-1,0-1.4c0-0.4,0-0.6,0-0.9c0-0.2,0-0.4,0-0.6c0-0.4-0.1-0.7-0.2-0.9c-0.1-0.2-0.4-0.3-0.8-0.4c-0.1,0-0.2,0-0.4-0.1
			c-0.2,0-0.3,0-0.4,0c-0.1,0-0.2,0-0.2-0.1c0-0.1,0.1-0.2,0.4-0.2c0.3,0,0.5,0,0.8,0c0.3,0,0.5,0,0.8,0s0.4,0,0.6,0s0.3,0,0.3,0
			c0,0,0.1,0,0.3,0s0.3,0,0.5,0c0.2,0,0.4,0,0.6,0c0.2,0,0.4,0,0.6,0c0.2,0,0.4,0.1,0.4,0.2c0,0.1-0.1,0.1-0.2,0.1
			c-0.1,0-0.2,0-0.2,0c-0.1,0-0.2,0-0.3,0.1c-0.3,0.1-0.5,0.2-0.6,0.4c-0.1,0.2-0.2,0.5-0.2,0.9c0,0.2,0,0.4,0,0.6
			c0,0.2,0,0.5,0,0.9c0,0.3,0,0.8,0,1.4c0,0.6,0,1.3,0,2.2v2.5c0,0.6,0,1.3-0.1,1.9c0,0.6-0.1,1.3-0.3,1.9c-0.2,0.6-0.4,1.2-0.7,1.7
			c-0.3,0.5-0.7,1-1.1,1.4c-0.4,0.4-0.8,0.7-1.3,0.9c-0.4,0.2-0.8,0.4-1.3,0.5c-0.4,0.1-0.8,0.2-1.2,0.2c-0.4,0-0.8,0.1-1.1,0.1
			c-0.2,0-0.5,0-0.9,0c-0.4,0-0.8-0.1-1.2-0.2c-0.5-0.1-0.9-0.3-1.4-0.5c-0.5-0.2-0.9-0.5-1.3-0.9c-0.3-0.3-0.5-0.6-0.8-0.9
			c-0.2-0.4-0.5-0.8-0.7-1.3s-0.3-1.1-0.4-1.7c-0.1-0.6-0.2-1.4-0.2-2.2V217.2z"/>
		<path class="st1" d="M46.4,224.9c0,0.5,0,0.9,0.1,1.2s0.1,0.6,0.2,0.8c0.1,0.2,0.2,0.4,0.3,0.5c0.1,0.1,0.2,0.2,0.4,0.2
			c0.2,0.1,0.4,0.1,0.7,0.1c0.2,0,0.4,0,0.5,0c0.1,0,0.2,0,0.2,0.1c0,0.1-0.1,0.2-0.4,0.2c-0.7,0-1.2,0-1.7,0c-0.4,0-0.7,0-0.8,0
			c-0.1,0-0.4,0-0.8,0s-0.9,0-1.4,0c-0.2,0-0.4-0.1-0.4-0.2c0-0.1,0.1-0.1,0.2-0.1c0.1,0,0.2,0,0.4,0s0.4-0.1,0.5-0.1
			c0.3-0.1,0.5-0.3,0.6-0.7c0.1-0.4,0.1-1.2,0.1-2.2l0-13.4c0-0.5,0-0.8,0.1-0.9c0-0.2,0.1-0.2,0.2-0.2c0.1,0,0.2,0.1,0.4,0.3
			c0.2,0.2,0.3,0.3,0.4,0.5c0.1,0.1,0.4,0.4,0.8,0.9c0.4,0.5,1,1.1,1.7,1.8c0.7,0.7,1.5,1.6,2.3,2.5c0.8,0.9,1.7,1.9,2.6,2.8
			c0.6,0.6,1.2,1.3,1.7,1.9c0.6,0.6,1.1,1.2,1.6,1.8c0.5,0.6,1,1.1,1.4,1.5s0.7,0.7,0.9,0.9l-0.3-11.9c0-0.8-0.1-1.3-0.2-1.6
			s-0.4-0.5-0.7-0.6c-0.2,0-0.4-0.1-0.7-0.1c-0.2,0-0.4,0-0.5,0c-0.1,0-0.2-0.1-0.2-0.2s0.2-0.2,0.5-0.2c0.3,0,0.5,0,0.8,0
			c0.3,0,0.5,0,0.7,0s0.4,0,0.6,0c0.2,0,0.3,0,0.3,0c0.1,0,0.4,0,0.7,0c0.4,0,0.8,0,1.3,0c0.3,0,0.4,0.1,0.4,0.2s-0.1,0.2-0.3,0.2
			c-0.1,0-0.1,0-0.2,0c-0.1,0-0.2,0-0.3,0.1c-0.4,0.1-0.6,0.3-0.7,0.6c-0.1,0.3-0.1,0.8-0.1,1.5l0,13.7c0,0.4,0,0.7,0,0.9
			c0,0.2,0,0.4,0,0.5c0,0.1,0,0.2-0.1,0.2c0,0-0.1,0-0.1,0c0,0-0.1,0-0.2-0.1c-0.1,0-0.2-0.1-0.3-0.2c-0.1-0.1-0.3-0.3-0.5-0.5
			c-0.2-0.2-0.4-0.4-0.8-0.8c-0.1-0.1-0.3-0.3-0.7-0.7c-0.4-0.4-0.9-0.9-1.5-1.5c-0.6-0.6-1.2-1.3-1.9-2c-0.7-0.7-1.3-1.4-2-2.1
			c-0.7-0.7-1.4-1.5-2-2.2c-0.6-0.7-1.2-1.4-1.8-2c-0.5-0.6-1-1.1-1.4-1.6c-0.4-0.4-0.7-0.8-0.9-1L46.4,224.9z"/>
		<path class="st1" d="M71.9,224.9c0,0.5,0,0.9,0.1,1.2s0.1,0.6,0.2,0.8c0.1,0.2,0.2,0.4,0.3,0.5c0.1,0.1,0.2,0.2,0.4,0.2
			c0.2,0.1,0.4,0.1,0.7,0.1c0.2,0,0.4,0,0.5,0c0.1,0,0.2,0,0.2,0.1c0,0.1-0.1,0.2-0.4,0.2c-0.7,0-1.2,0-1.7,0c-0.4,0-0.7,0-0.8,0
			c-0.1,0-0.4,0-0.8,0s-0.9,0-1.4,0c-0.2,0-0.4-0.1-0.4-0.2c0-0.1,0.1-0.1,0.2-0.1c0.1,0,0.2,0,0.4,0s0.4-0.1,0.5-0.1
			c0.3-0.1,0.5-0.3,0.6-0.7c0.1-0.4,0.1-1.2,0.1-2.2l0-13.4c0-0.5,0-0.8,0.1-0.9c0-0.2,0.1-0.2,0.2-0.2c0.1,0,0.2,0.1,0.4,0.3
			c0.2,0.2,0.3,0.3,0.4,0.5c0.1,0.1,0.4,0.4,0.8,0.9c0.4,0.5,1,1.1,1.7,1.8c0.7,0.7,1.5,1.6,2.3,2.5c0.8,0.9,1.7,1.9,2.6,2.8
			c0.6,0.6,1.2,1.3,1.7,1.9c0.6,0.6,1.1,1.2,1.6,1.8c0.5,0.6,1,1.1,1.4,1.5s0.7,0.7,0.9,0.9l-0.3-11.9c0-0.8-0.1-1.3-0.2-1.6
			s-0.4-0.5-0.7-0.6c-0.2,0-0.4-0.1-0.7-0.1c-0.2,0-0.4,0-0.5,0c-0.1,0-0.2-0.1-0.2-0.2s0.2-0.2,0.5-0.2c0.3,0,0.5,0,0.8,0
			c0.3,0,0.5,0,0.7,0s0.4,0,0.6,0c0.2,0,0.3,0,0.3,0c0.1,0,0.4,0,0.7,0c0.4,0,0.8,0,1.3,0c0.3,0,0.4,0.1,0.4,0.2s-0.1,0.2-0.3,0.2
			c-0.1,0-0.1,0-0.2,0c-0.1,0-0.2,0-0.3,0.1c-0.4,0.1-0.6,0.3-0.7,0.6c-0.1,0.3-0.1,0.8-0.1,1.5l0,13.7c0,0.4,0,0.7,0,0.9
			c0,0.2,0,0.4,0,0.5c0,0.1,0,0.2-0.1,0.2c0,0-0.1,0-0.1,0c0,0-0.1,0-0.2-0.1c-0.1,0-0.2-0.1-0.3-0.2c-0.1-0.1-0.3-0.3-0.5-0.5
			c-0.2-0.2-0.4-0.4-0.8-0.8c-0.1-0.1-0.3-0.3-0.7-0.7c-0.4-0.4-0.9-0.9-1.5-1.5c-0.6-0.6-1.2-1.3-1.9-2c-0.7-0.7-1.3-1.4-2-2.1
			c-0.7-0.7-1.4-1.5-2-2.2c-0.6-0.7-1.2-1.4-1.8-2c-0.5-0.6-1-1.1-1.4-1.6c-0.4-0.4-0.7-0.8-0.9-1L71.9,224.9z"/>
		<path class="st1" d="M90,217.2c0-0.9,0-1.6,0-2.2c0-0.6,0-1,0-1.4c0-0.4,0-0.6,0-0.9c0-0.2,0-0.4,0-0.6c0-0.4-0.1-0.7-0.2-0.9
			c-0.1-0.2-0.4-0.3-0.8-0.4c-0.1,0-0.2,0-0.4-0.1c-0.2,0-0.3,0-0.4,0c-0.1,0-0.2,0-0.2-0.1c0-0.1,0.1-0.2,0.4-0.2
			c0.3,0,0.5,0,0.8,0c0.3,0,0.6,0,0.8,0s0.5,0,0.7,0c0.2,0,0.3,0,0.4,0c0,0,0.2,0,0.4,0s0.4,0,0.6,0s0.5,0,0.7,0c0.2,0,0.4,0,0.6,0
			c0.2,0,0.4,0.1,0.4,0.2c0,0.1-0.1,0.1-0.2,0.1c-0.1,0-0.2,0-0.2,0c-0.1,0-0.2,0-0.3,0.1c-0.3,0-0.5,0.2-0.6,0.4
			c-0.1,0.2-0.2,0.5-0.2,0.9c0,0.2,0,0.4,0,0.6c0,0.2,0,0.5,0,0.9c0,0.3,0,0.8,0,1.4c0,0.6,0,1.3,0,2.2v3.3c0,0.8,0,1.6,0.1,2.2
			c0.1,0.6,0.2,1.1,0.4,1.6c0.2,0.5,0.3,0.8,0.6,1.2s0.5,0.6,0.7,0.8c0.6,0.5,1.1,0.9,1.7,1.1s1.2,0.2,1.8,0.2
			c0.7,0,1.4-0.2,2.1-0.5c0.7-0.3,1.2-0.7,1.6-1.2c0.5-0.7,0.9-1.5,1.1-2.5c0.2-1,0.3-2.1,0.3-3.3v-2.9c0-0.9,0-1.6,0-2.2
			c0-0.6,0-1,0-1.4c0-0.4,0-0.6,0-0.9c0-0.2,0-0.4,0-0.6c0-0.4-0.1-0.7-0.2-0.9c-0.1-0.2-0.4-0.3-0.8-0.4c-0.1,0-0.2,0-0.4-0.1
			c-0.2,0-0.3,0-0.4,0c-0.1,0-0.2,0-0.2-0.1c0-0.1,0.1-0.2,0.4-0.2c0.3,0,0.5,0,0.8,0c0.3,0,0.5,0,0.8,0s0.4,0,0.6,0s0.3,0,0.3,0
			c0,0,0.1,0,0.3,0s0.3,0,0.5,0c0.2,0,0.4,0,0.6,0c0.2,0,0.4,0,0.6,0c0.2,0,0.4,0.1,0.4,0.2c0,0.1-0.1,0.1-0.2,0.1
			c-0.1,0-0.2,0-0.2,0c-0.1,0-0.2,0-0.3,0.1c-0.3,0.1-0.5,0.2-0.6,0.4c-0.1,0.2-0.2,0.5-0.2,0.9c0,0.2,0,0.4,0,0.6
			c0,0.2,0,0.5,0,0.9c0,0.3,0,0.8,0,1.4c0,0.6,0,1.3,0,2.2v2.5c0,0.6,0,1.3-0.1,1.9c0,0.6-0.1,1.3-0.3,1.9c-0.2,0.6-0.4,1.2-0.7,1.7
			c-0.3,0.5-0.7,1-1.1,1.4c-0.4,0.4-0.8,0.7-1.3,0.9c-0.4,0.2-0.8,0.4-1.3,0.5c-0.4,0.1-0.8,0.2-1.2,0.2c-0.4,0-0.8,0.1-1.1,0.1
			c-0.2,0-0.5,0-0.9,0c-0.4,0-0.8-0.1-1.2-0.2c-0.5-0.1-0.9-0.3-1.4-0.5c-0.5-0.2-0.9-0.5-1.3-0.9c-0.3-0.3-0.5-0.6-0.8-0.9
			c-0.2-0.4-0.5-0.8-0.7-1.3s-0.3-1.1-0.4-1.7c-0.1-0.6-0.2-1.4-0.2-2.2V217.2z"/>
	</g>
	<g class="st0">
		<path class="st1" d="M108.4,217.2c0-0.9,0-1.6,0-2.2c0-0.6,0-1,0-1.4c0-0.4,0-0.6,0-0.9c0-0.2,0-0.4,0-0.6c0-0.4-0.1-0.7-0.2-0.9
			c-0.1-0.2-0.4-0.3-0.8-0.4c-0.1,0-0.2,0-0.4-0.1c-0.2,0-0.3,0-0.4,0c-0.1,0-0.2,0-0.2-0.1c0-0.1,0.1-0.2,0.4-0.2
			c0.3,0,0.5,0,0.8,0s0.6,0,0.8,0l1,0c0,0,0.3,0,0.8,0c0.5,0,1.1,0,1.7,0c0.6,0,1.2,0,1.8,0c0.6,0,0.9,0,1,0c0.5,0,0.8-0.1,1-0.1
			c0.1,0,0.1,0,0.2-0.1s0.1,0,0.2,0s0.1,0.1,0.1,0.2c0,0.1,0,0.2-0.1,0.4c0,0.2-0.1,0.4-0.1,0.7c0,0.1,0,0.2,0,0.3
			c0,0.1,0,0.3,0,0.5c0,0.2,0,0.3,0,0.5c0,0.1,0,0.3,0,0.3s0,0.1-0.1,0.2s-0.1,0.1-0.1,0.1c-0.1,0-0.2-0.1-0.2-0.3
			c0-0.1,0-0.2,0-0.4s-0.1-0.3-0.1-0.5c-0.1-0.2-0.2-0.3-0.4-0.5c-0.2-0.1-0.6-0.2-1.2-0.3c-0.1,0-0.3,0-0.6,0c-0.3,0-0.7,0-1,0
			s-0.7,0-1,0c-0.3,0-0.5,0-0.5,0c-0.1,0-0.1,0.1-0.1,0.2v6.5c0,0.2,0,0.2,0.1,0.2c0.1,0,0.3,0,0.6,0s0.7,0,1.1,0c0.4,0,0.8,0,1.2,0
			c0.4,0,0.6,0,0.8,0c0.3,0,0.5-0.1,0.7-0.1c0.2,0,0.3-0.1,0.4-0.2c0.2-0.2,0.3-0.3,0.4-0.3c0.1,0,0.1,0.1,0.1,0.2
			c0,0.1,0,0.2-0.1,0.4s-0.1,0.5-0.1,0.9c0,0.1,0,0.3,0,0.4c0,0.1,0,0.3,0,0.4c0,0.1,0,0.3,0,0.4c0,0.1,0,0.2,0,0.2
			c0,0.1,0,0.2,0,0.3s-0.1,0.2-0.1,0.2c-0.1,0-0.2-0.1-0.2-0.2c0-0.1,0-0.2,0-0.4s0-0.3-0.1-0.4c0-0.2-0.1-0.3-0.3-0.5
			c-0.2-0.2-0.5-0.3-0.9-0.3c-0.2,0-0.4,0-0.7,0c-0.3,0-0.7,0-1,0c-0.4,0-0.7,0-1,0c-0.3,0-0.5,0-0.6,0c-0.1,0-0.2,0.1-0.2,0.2v2.1
			c0,0.2,0,0.5,0,0.9s0,0.8,0,1.2s0,0.8,0,1.2s0,0.6,0,0.7c0,0.4,0.1,0.7,0.1,1c0.1,0.2,0.2,0.4,0.4,0.6c0.2,0.1,0.5,0.2,0.8,0.3
			s0.8,0.1,1.4,0.1c0.3,0,0.7,0,1.1,0c0.4,0,0.8-0.1,1.1-0.2c0.3-0.1,0.5-0.3,0.7-0.6c0.2-0.3,0.3-0.6,0.4-1.1
			c0-0.2,0.1-0.4,0.2-0.4c0.1,0,0.1,0,0.1,0.1c0,0.1,0,0.2,0,0.2c0,0,0,0.2,0,0.4c0,0.2-0.1,0.4-0.1,0.7c0,0.2-0.1,0.5-0.1,0.7
			c0,0.2-0.1,0.4-0.1,0.5c0,0.2-0.1,0.3-0.1,0.4c0,0.1-0.1,0.1-0.2,0.2s-0.2,0.1-0.4,0.1c-0.1,0-0.3,0-0.6,0c-0.9,0-1.7,0-2.3,0
			c-0.6,0-1.2,0-1.6,0c-0.5,0-0.8-0.1-1.1-0.1s-0.5,0-0.7,0c0,0-0.1,0-0.3,0c-0.2,0-0.4,0-0.6,0c-0.2,0-0.5,0-0.7,0
			c-0.2,0-0.5,0-0.6,0c-0.2,0-0.4-0.1-0.4-0.2c0-0.1,0.1-0.1,0.2-0.1c0.1,0,0.2,0,0.4,0s0.2,0,0.4-0.1c0.2,0,0.4-0.2,0.5-0.4
			s0.2-0.5,0.2-0.9c0.1-0.5,0.1-1.2,0.1-2.1c0-0.9,0-1.9,0-3V217.2z"/>
	</g>
	<g class="st0">
		<path class="st1" d="M126.2,225.2c0.2-0.5,0.5-1.2,0.8-1.9c0.3-0.8,0.6-1.6,1-2.4c0.3-0.9,0.7-1.7,1-2.6c0.4-0.9,0.7-1.7,1-2.5
			s0.5-1.5,0.8-2.1c0.2-0.6,0.4-1.1,0.5-1.3c0.1-0.2,0.1-0.3,0.2-0.5c0-0.2,0.1-0.3,0.1-0.4c0-0.1,0-0.2-0.1-0.3
			c0-0.1-0.1-0.2-0.2-0.2c-0.1,0-0.3-0.1-0.5-0.1c-0.2,0-0.3,0-0.4,0c-0.2,0-0.3,0-0.3-0.1c0-0.1,0.2-0.2,0.5-0.2c0.5,0,0.9,0,1.4,0
			c0.5,0,0.8,0,0.9,0c0,0,0.1,0,0.2,0s0.3,0,0.5,0c0.2,0,0.4,0,0.6,0c0.2,0,0.4,0,0.5,0c0.3,0,0.4,0.1,0.4,0.2s-0.1,0.2-0.3,0.2
			c-0.1,0-0.2,0-0.5,0c-0.2,0-0.4,0.1-0.7,0.2c-0.1,0-0.2,0.1-0.2,0.2c-0.1,0.1-0.2,0.2-0.3,0.4c-0.1,0.2-0.2,0.4-0.3,0.6
			c-0.1,0.3-0.3,0.6-0.4,1c-0.1,0.2-0.2,0.5-0.4,0.9c-0.2,0.4-0.4,0.9-0.6,1.5c-0.2,0.6-0.5,1.2-0.8,1.9c-0.3,0.7-0.6,1.4-0.9,2.1
			c-0.7,1.7-1.3,3.2-1.8,4.4c-0.5,1.2-0.9,2.1-1.2,2.7c-0.3,0.7-0.5,1.2-0.7,1.4s-0.2,0.4-0.3,0.4c-0.1,0-0.3-0.1-0.4-0.3
			c-0.1-0.2-0.3-0.6-0.5-1.1l-5.7-14.3c-0.1-0.3-0.2-0.6-0.4-0.8s-0.2-0.4-0.4-0.5c-0.1-0.1-0.3-0.2-0.4-0.3
			c-0.2-0.1-0.3-0.1-0.5-0.2c-0.2,0-0.3-0.1-0.5-0.1c-0.2,0-0.3,0-0.4,0c-0.1,0-0.2-0.1-0.2-0.2s0.2-0.2,0.6-0.2c0.3,0,0.6,0,0.9,0
			c0.3,0,0.6,0,0.8,0c0.2,0,0.5,0,0.7,0s0.3,0,0.4,0c0.1,0,0.4,0,0.8,0c0.4,0,0.9,0,1.3,0c0.4,0,0.6,0.1,0.6,0.2s-0.1,0.2-0.2,0.2
			c-0.1,0-0.3,0-0.5,0c-0.2,0-0.3,0-0.4,0.1c-0.1,0.1-0.2,0.1-0.2,0.2c0,0.1-0.1,0.2-0.1,0.2c0,0.2,0.1,0.4,0.2,0.7
			c0.1,0.3,0.3,0.7,0.4,1.2L126.2,225.2z"/>
	</g>
	<g class="st0">
		<path class="st1" d="M133.7,217.2c0.2-0.7,0.4-1.4,0.7-2.1c0.3-0.7,0.7-1.3,1.2-1.9c0.5-0.6,1.1-1.2,1.8-1.6
			c0.7-0.5,1.5-0.8,2.3-1.1c0.9-0.3,1.8-0.4,2.9-0.4c1.3,0,2.5,0.2,3.6,0.6s2.1,1,2.9,1.7c0.8,0.8,1.5,1.7,1.9,2.8
			c0.5,1.1,0.7,2.3,0.7,3.7c0,1.3-0.2,2.5-0.7,3.7s-1.1,2.2-1.9,3c-0.8,0.9-1.8,1.6-2.9,2.1c-1.2,0.5-2.4,0.8-3.8,0.8
			c-1.6,0-3-0.3-4.1-0.8c-1.1-0.6-2.1-1.3-2.8-2.2c-0.7-0.9-1.3-1.9-1.6-3c-0.3-1.1-0.5-2.2-0.5-3.2
			C133.5,218.6,133.6,217.9,133.7,217.2z M136.3,222.3c0.4,1.1,0.9,2,1.6,2.8c0.7,0.8,1.5,1.4,2.4,1.8c0.9,0.4,1.9,0.6,2.9,0.6
			c0.5,0,1.2-0.1,1.9-0.3c0.7-0.2,1.4-0.6,2.1-1.2c0.7-0.6,1.3-1.4,1.7-2.4c0.5-1.1,0.7-2.4,0.7-4.1c0-1.4-0.2-2.6-0.6-3.7
			s-0.9-2-1.6-2.7c-0.7-0.7-1.4-1.3-2.3-1.6s-1.7-0.6-2.7-0.6c-1,0-1.9,0.2-2.7,0.5c-0.8,0.3-1.6,0.8-2.2,1.4
			c-0.6,0.6-1.1,1.5-1.4,2.4c-0.3,1-0.5,2.1-0.5,3.4C135.7,219.9,135.9,221.2,136.3,222.3z"/>
		<path class="st1" d="M161,217.2c0-0.9,0-1.6,0-2.2c0-0.6,0-1,0-1.4c0-0.4,0-0.6,0-0.9c0-0.2,0-0.4,0-0.6c0-0.4-0.1-0.7-0.2-0.9
			c-0.1-0.2-0.4-0.3-0.8-0.4c-0.1,0-0.2,0-0.4-0.1c-0.2,0-0.3,0-0.4,0c-0.1,0-0.2,0-0.2-0.1c0-0.1,0.1-0.2,0.4-0.2
			c0.3,0,0.5,0,0.8,0c0.3,0,0.6,0,0.8,0c0.3,0,0.5,0,0.7,0c0.2,0,0.3,0,0.3,0c0.3,0,0.7,0,1.3,0c0.6,0,1.1,0,1.7,0
			c0.7,0,1.4,0.1,1.9,0.2c0.5,0.1,0.9,0.2,1.3,0.4s0.6,0.3,0.8,0.4c0.2,0.1,0.3,0.3,0.4,0.4c0.3,0.2,0.5,0.6,0.8,1.1
			c0.3,0.5,0.4,1,0.4,1.7c0,0.8-0.1,1.6-0.4,2.3c-0.3,0.7-0.7,1.3-1.2,1.8c-0.5,0.5-1.1,0.9-1.8,1.1c-0.7,0.3-1.5,0.4-2.3,0.4
			c-0.1,0-0.1,0-0.3,0c-0.1,0-0.2,0-0.2,0c-0.1,0-0.1,0-0.2,0c-0.1,0-0.1-0.1-0.1-0.1c0-0.1,0-0.2,0.1-0.2c0.1,0,0.3,0,0.5,0
			c0.6,0,1.1-0.1,1.6-0.3c0.5-0.2,0.9-0.5,1.3-0.8s0.6-0.7,0.9-1.2c0.2-0.5,0.3-1,0.3-1.5c0-0.2,0-0.4,0-0.7c0-0.3-0.1-0.6-0.2-0.9
			c-0.1-0.3-0.2-0.7-0.4-1c-0.2-0.3-0.4-0.7-0.7-1s-0.6-0.5-0.9-0.7c-0.3-0.2-0.6-0.3-0.9-0.4s-0.5-0.1-0.8-0.1s-0.4,0-0.6,0
			c-0.2,0-0.4,0-0.6,0c-0.2,0-0.3,0.1-0.4,0.1c-0.1,0-0.2,0.2-0.2,0.4v9.6c0,1.1,0,2.1,0,3c0,0.9,0,1.6,0.1,2.1
			c0,0.3,0.1,0.6,0.2,0.9c0.1,0.2,0.3,0.4,0.7,0.4c0.2,0,0.4,0.1,0.6,0.1c0.2,0,0.4,0,0.5,0c0.1,0,0.2,0,0.2,0.1
			c0,0.1-0.1,0.2-0.4,0.2c-0.3,0-0.7,0-1,0s-0.6,0-0.9,0s-0.5,0-0.7,0c-0.2,0-0.3,0-0.3,0c0,0-0.1,0-0.3,0c-0.2,0-0.4,0-0.6,0
			c-0.2,0-0.5,0-0.7,0c-0.2,0-0.5,0-0.6,0c-0.2,0-0.4-0.1-0.4-0.2c0-0.1,0.1-0.1,0.2-0.1c0.1,0,0.2,0,0.4,0s0.2,0,0.4-0.1
			c0.2,0,0.4-0.2,0.5-0.4s0.2-0.5,0.2-0.9c0.1-0.5,0.1-1.2,0.1-2.1c0-0.9,0-1.9,0-3V217.2z"/>
	</g>
	<g class="st0">
		<path class="st1" d="M175.7,221.3c0,1.7,0,3,0.1,3.8c0.1,0.8,0.2,1.3,0.4,1.5c0.1,0.1,0.2,0.2,0.3,0.2c0.1,0.1,0.3,0.1,0.5,0.2
			c0.2,0,0.5,0.1,0.8,0.1s0.7,0,1.2,0c0.6,0,1.2,0,1.7-0.1c0.5-0.1,0.9-0.3,1.2-0.6c0.2-0.2,0.3-0.4,0.4-0.7
			c0.1-0.3,0.2-0.5,0.2-0.7c0-0.2,0.1-0.3,0.2-0.3c0.1,0,0.1,0.1,0.1,0.4c0,0.1,0,0.2,0,0.4c0,0.2,0,0.4-0.1,0.6
			c0,0.2-0.1,0.5-0.1,0.7s-0.1,0.4-0.1,0.6c0,0.1-0.1,0.2-0.1,0.3c0,0.1-0.1,0.1-0.2,0.2c-0.1,0-0.2,0.1-0.4,0.1c-0.2,0-0.4,0-0.7,0
			c-0.8,0-1.6,0-2.2,0c-0.6,0-1.2,0-1.7,0c-0.5,0-0.9-0.1-1.3-0.1s-0.7,0-1.1,0c0,0-0.2,0-0.3,0c-0.2,0-0.4,0-0.6,0
			c-0.2,0-0.5,0-0.7,0c-0.2,0-0.4,0-0.6,0c-0.2,0-0.4-0.1-0.4-0.2c0-0.1,0.1-0.1,0.2-0.1c0.1,0,0.2,0,0.4,0c0.1,0,0.2,0,0.4-0.1
			c0.2,0,0.4-0.2,0.5-0.4c0.1-0.2,0.2-0.5,0.2-0.9c0.1-0.5,0.1-1.2,0.1-2.1c0-0.9,0-1.9,0-3v-4.1c0-0.9,0-1.6,0-2.2c0-0.6,0-1,0-1.4
			c0-0.4,0-0.6,0-0.9c0-0.2,0-0.4,0-0.6c0-0.4-0.1-0.7-0.2-0.9c-0.1-0.2-0.4-0.3-0.8-0.4c-0.1,0-0.2,0-0.4-0.1c-0.2,0-0.3,0-0.4,0
			c-0.1,0-0.2,0-0.2-0.1c0-0.1,0.1-0.2,0.4-0.2c0.3,0,0.5,0,0.8,0c0.3,0,0.6,0,0.8,0s0.5,0,0.7,0c0.2,0,0.3,0,0.3,0s0.1,0,0.4,0
			s0.4,0,0.7,0c0.3,0,0.5,0,0.8,0c0.3,0,0.5,0,0.7,0c0.2,0,0.4,0.1,0.4,0.2c0,0.1-0.1,0.1-0.2,0.1c-0.1,0-0.2,0-0.3,0
			c-0.1,0-0.3,0-0.4,0.1c-0.3,0.1-0.6,0.2-0.7,0.4c-0.1,0.2-0.2,0.5-0.2,0.9c0,0.2,0,0.4,0,0.6c0,0.2,0,0.5,0,0.9c0,0.3,0,0.8,0,1.4
			c0,0.6,0,1.3,0,2.2V221.3z"/>
	</g>
	<g class="st0">
		<path class="st1" d="M189,211c0.1-0.4,0.2-0.6,0.3-0.7c0.1-0.1,0.1-0.2,0.2-0.2s0.1,0.1,0.2,0.2s0.2,0.3,0.3,0.7
			c0.1,0.1,0.2,0.5,0.4,1.1c0.2,0.6,0.5,1.3,0.8,2.2c0.3,0.8,0.7,1.8,1.1,2.8c0.4,1,0.8,2,1.2,3c0.4,1,0.7,1.9,1.1,2.8
			s0.6,1.6,0.9,2.2c0.2,0.5,0.4,0.9,0.6,1.3c0.2,0.3,0.4,0.6,0.5,0.8c0.2,0.2,0.3,0.3,0.5,0.4c0.1,0.1,0.3,0.1,0.4,0.2
			c0.2,0.1,0.3,0.1,0.5,0.1c0.2,0,0.3,0,0.4,0c0.2,0,0.2,0,0.2,0.1c0,0.1,0,0.1-0.1,0.2c-0.1,0-0.2,0-0.3,0c-0.1,0-0.3,0-0.5,0
			c-0.2,0-0.5,0-0.9,0c-0.3,0-0.7,0-1.1,0s-0.8,0-1.2,0c-0.2,0-0.4,0-0.5,0c-0.1,0-0.2-0.1-0.2-0.1c0-0.1,0.1-0.1,0.2-0.2
			c0.1,0,0.1-0.1,0.2-0.2c0-0.1,0-0.2,0-0.4l-2.2-5.8c0-0.1-0.1-0.1-0.2-0.1h-5c-0.1,0-0.2,0.1-0.2,0.2l-1.4,4.1
			c-0.2,0.6-0.3,1.1-0.3,1.6c0,0.2,0.1,0.4,0.3,0.5c0.2,0.1,0.4,0.2,0.6,0.2h0.2c0.2,0,0.2,0,0.2,0.1c0,0.1-0.1,0.2-0.4,0.2
			c-0.1,0-0.3,0-0.5,0c-0.2,0-0.4,0-0.5,0s-0.3,0-0.5,0s-0.3,0-0.3,0s-0.2,0-0.4,0c-0.2,0-0.4,0-0.6,0c-0.2,0-0.5,0-0.8,0
			c-0.3,0-0.6,0-0.8,0c-0.3,0-0.4-0.1-0.4-0.2c0-0.1,0.1-0.1,0.2-0.1c0.1,0,0.2,0,0.3,0c0.1,0,0.3,0,0.4,0c0.5-0.1,1-0.3,1.2-0.7
			c0.3-0.4,0.5-0.9,0.7-1.5L189,211z M191.4,220.3c0.1,0,0.1-0.1,0.1-0.2l-2.2-6.3c-0.1-0.3-0.2-0.3-0.4,0l-2.1,6.3
			c0,0.1,0,0.2,0.1,0.2H191.4z"/>
		<path class="st1" d="M200.5,224.9c0,0.5,0,0.9,0.1,1.2s0.1,0.6,0.2,0.8c0.1,0.2,0.2,0.4,0.3,0.5c0.1,0.1,0.2,0.2,0.4,0.2
			c0.2,0.1,0.4,0.1,0.7,0.1s0.4,0,0.5,0c0.1,0,0.2,0,0.2,0.1c0,0.1-0.1,0.2-0.4,0.2c-0.7,0-1.2,0-1.7,0c-0.4,0-0.7,0-0.8,0
			c-0.1,0-0.4,0-0.8,0s-0.9,0-1.4,0c-0.2,0-0.4-0.1-0.4-0.2c0-0.1,0.1-0.1,0.2-0.1c0.1,0,0.2,0,0.4,0c0.2,0,0.4-0.1,0.5-0.1
			c0.3-0.1,0.5-0.3,0.6-0.7s0.1-1.2,0.1-2.2l0-13.4c0-0.5,0-0.8,0.1-0.9c0-0.2,0.1-0.2,0.2-0.2s0.2,0.1,0.4,0.3
			c0.2,0.2,0.3,0.3,0.4,0.5c0.1,0.1,0.4,0.4,0.8,0.9s1,1.1,1.7,1.8c0.7,0.7,1.5,1.6,2.3,2.5c0.8,0.9,1.7,1.9,2.6,2.8
			c0.6,0.6,1.2,1.3,1.7,1.9c0.6,0.6,1.1,1.2,1.6,1.8c0.5,0.6,1,1.1,1.4,1.5s0.7,0.7,0.9,0.9l-0.3-11.9c0-0.8-0.1-1.3-0.2-1.6
			c-0.1-0.3-0.4-0.5-0.7-0.6c-0.2,0-0.4-0.1-0.7-0.1c-0.2,0-0.4,0-0.5,0c-0.1,0-0.2-0.1-0.2-0.2s0.2-0.2,0.5-0.2c0.3,0,0.5,0,0.8,0
			c0.3,0,0.5,0,0.7,0c0.2,0,0.4,0,0.6,0s0.3,0,0.3,0c0.1,0,0.4,0,0.7,0s0.8,0,1.3,0c0.3,0,0.4,0.1,0.4,0.2s-0.1,0.2-0.3,0.2
			c-0.1,0-0.1,0-0.2,0c-0.1,0-0.2,0-0.3,0.1c-0.4,0.1-0.6,0.3-0.7,0.6s-0.1,0.8-0.1,1.5l0,13.7c0,0.4,0,0.7,0,0.9c0,0.2,0,0.4,0,0.5
			c0,0.1,0,0.2-0.1,0.2c0,0-0.1,0-0.1,0s-0.1,0-0.2-0.1c-0.1,0-0.2-0.1-0.3-0.2c-0.1-0.1-0.3-0.3-0.5-0.5c-0.2-0.2-0.4-0.4-0.8-0.8
			c-0.1-0.1-0.3-0.3-0.7-0.7s-0.9-0.9-1.5-1.5c-0.6-0.6-1.2-1.3-1.9-2c-0.7-0.7-1.3-1.4-2-2.1c-0.7-0.7-1.4-1.5-2-2.2
			c-0.6-0.7-1.2-1.4-1.8-2c-0.5-0.6-1-1.1-1.4-1.6c-0.4-0.4-0.7-0.8-0.9-1L200.5,224.9z"/>
		<path class="st1" d="M225.4,217.2c0-0.9,0-1.6,0-2.2c0-0.6,0-1,0-1.4c0-0.4,0-0.6,0-0.9c0-0.2,0-0.4,0-0.6c0-0.4-0.1-0.7-0.2-0.9
			c-0.1-0.2-0.4-0.3-0.8-0.4c-0.1,0-0.2,0-0.4-0.1c-0.2,0-0.3,0-0.4,0c-0.1,0-0.2,0-0.2-0.1c0-0.1,0.1-0.2,0.4-0.2
			c0.3,0,0.5,0,0.8,0c0.3,0,0.6,0,0.8,0c0.3,0,0.5,0,0.7,0c0.2,0,0.3,0,0.3,0c0.1,0,0.2,0,0.4,0c0.2,0,0.5,0,0.7,0
			c0.3,0,0.6,0,0.9,0c0.3,0,0.7,0,1.1,0c0.6,0,1.3,0,2,0c0.8,0,1.6,0.1,2.5,0.2c0.9,0.2,1.7,0.4,2.5,0.8s1.6,0.9,2.3,1.6
			c0.3,0.3,0.6,0.7,0.9,1.1s0.5,0.8,0.7,1.3c0.2,0.5,0.4,1,0.5,1.6c0.1,0.6,0.2,1.2,0.2,1.9c0,0.7-0.1,1.4-0.2,2.1
			c-0.1,0.7-0.3,1.3-0.6,1.8c-0.2,0.6-0.5,1.1-0.8,1.5c-0.3,0.5-0.6,0.8-0.9,1.2c-0.2,0.3-0.6,0.6-1,0.9s-0.9,0.6-1.5,0.9
			c-0.6,0.3-1.2,0.5-2,0.7s-1.6,0.3-2.6,0.3c-0.5,0-1,0-1.6,0c-0.6,0-1.1-0.1-1.6-0.1c-0.5,0-1-0.1-1.3-0.1s-0.6,0-0.6,0
			c0,0-0.1,0-0.3,0c-0.2,0-0.4,0-0.6,0c-0.2,0-0.5,0-0.7,0c-0.2,0-0.5,0-0.6,0c-0.2,0-0.4-0.1-0.4-0.2c0-0.1,0.1-0.1,0.2-0.1
			c0.1,0,0.2,0,0.4,0s0.2,0,0.4-0.1c0.2,0,0.4-0.2,0.5-0.4s0.2-0.5,0.2-0.9c0.1-0.5,0.1-1.2,0.1-2.1c0-0.9,0-1.9,0-3V217.2z
			 M227.4,219.7c0,0.6,0,1.2,0,1.8c0,0.6,0,1.1,0,1.5s0,0.8,0,1.1s0,0.5,0,0.6c0,0.1,0,0.3,0,0.5c0,0.2,0,0.4,0,0.5
			c0,0.2,0,0.3,0.1,0.5c0,0.1,0.1,0.2,0.1,0.3c0.1,0.1,0.2,0.2,0.4,0.3c0.2,0.1,0.4,0.2,0.7,0.3s0.7,0.2,1.2,0.2s1.1,0.1,1.7,0.1
			c1.1,0,2.1-0.2,3.1-0.6c1-0.4,1.8-0.9,2.5-1.6c0.3-0.3,0.6-0.7,0.8-1.1c0.2-0.4,0.4-0.9,0.6-1.4s0.3-1,0.4-1.5s0.1-1.1,0.1-1.6
			c0-0.7-0.1-1.4-0.2-2c-0.1-0.6-0.3-1.2-0.5-1.6c-0.2-0.5-0.5-0.9-0.7-1.3c-0.3-0.4-0.5-0.7-0.7-0.9c-0.5-0.6-1.1-1-1.7-1.4
			c-0.6-0.4-1.2-0.6-1.9-0.8c-0.6-0.2-1.3-0.3-2-0.4c-0.7-0.1-1.4-0.1-2.1-0.1c-0.1,0-0.3,0-0.4,0c-0.1,0-0.3,0-0.5,0
			c-0.2,0-0.3,0-0.4,0.1s-0.2,0-0.2,0.1c-0.2,0.1-0.3,0.2-0.3,0.5c0,0.2,0,0.5,0,0.9s0,0.8,0,1.3c0,0.5,0,0.9,0,1.4s0,1,0,1.4V219.7
			z"/>
		<path class="st1" d="M242.3,217.2c0.2-0.7,0.4-1.4,0.7-2.1c0.3-0.7,0.7-1.3,1.2-1.9c0.5-0.6,1.1-1.2,1.8-1.6
			c0.7-0.5,1.5-0.8,2.3-1.1c0.9-0.3,1.8-0.4,2.9-0.4c1.3,0,2.5,0.2,3.6,0.6c1.1,0.4,2.1,1,2.9,1.7c0.8,0.8,1.5,1.7,1.9,2.8
			c0.5,1.1,0.7,2.3,0.7,3.7c0,1.3-0.2,2.5-0.7,3.7s-1.1,2.2-1.9,3s-1.8,1.6-2.9,2.1c-1.2,0.5-2.4,0.8-3.8,0.8c-1.6,0-3-0.3-4.1-0.8
			c-1.1-0.6-2.1-1.3-2.8-2.2c-0.7-0.9-1.3-1.9-1.6-3c-0.3-1.1-0.5-2.2-0.5-3.2C242.1,218.6,242.2,217.9,242.3,217.2z M244.9,222.3
			c0.4,1.1,0.9,2,1.6,2.8c0.7,0.8,1.5,1.4,2.4,1.8c0.9,0.4,1.9,0.6,2.9,0.6c0.5,0,1.2-0.1,1.9-0.3c0.7-0.2,1.4-0.6,2.1-1.2
			c0.7-0.6,1.3-1.4,1.7-2.4s0.7-2.4,0.7-4.1c0-1.4-0.2-2.6-0.6-3.7s-0.9-2-1.6-2.7c-0.7-0.7-1.4-1.3-2.3-1.6
			c-0.9-0.4-1.7-0.6-2.7-0.6c-1,0-1.9,0.2-2.7,0.5s-1.6,0.8-2.2,1.4c-0.6,0.6-1.1,1.5-1.4,2.4c-0.3,1-0.5,2.1-0.5,3.4
			C244.3,219.9,244.5,221.2,244.9,222.3z"/>
		<path class="st1" d="M267.4,227.8c-1.2-0.4-2.3-1.1-3.2-1.9c-0.6-0.5-1-1.1-1.4-1.6c-0.4-0.6-0.7-1.2-0.9-1.8
			c-0.2-0.6-0.4-1.2-0.4-1.8c-0.1-0.6-0.1-1.2-0.1-1.7c0-0.4,0-0.8,0.1-1.4c0.1-0.5,0.2-1.1,0.4-1.6c0.2-0.6,0.5-1.1,0.8-1.7
			c0.3-0.6,0.8-1.1,1.3-1.6c0.3-0.3,0.7-0.7,1.2-1c0.5-0.3,1-0.6,1.5-0.8c0.6-0.2,1.2-0.4,2-0.5c0.7-0.1,1.5-0.2,2.4-0.2
			c0.5,0,1,0,1.6,0.1c0.6,0,1.2,0.1,1.8,0.2c0.5,0.1,0.9,0.1,1.3,0.2s0.8,0.1,1.1,0.1c0.1,0,0.2,0,0.2,0.1c0,0,0.1,0.1,0.1,0.2
			c0,0.1,0,0.2,0,0.4c0,0.2-0.1,0.5-0.1,0.9c0,0.2,0,0.4,0,0.6c0,0.2,0,0.5,0,0.7c0,0.2,0,0.4,0,0.6c0,0.2,0,0.3,0,0.4
			c0,0.3-0.1,0.5-0.2,0.5c-0.1,0-0.2-0.2-0.2-0.5c0-0.5-0.1-0.9-0.3-1.3c-0.2-0.4-0.4-0.8-0.7-1.1c-0.4-0.4-1-0.7-1.9-0.9
			c-0.8-0.3-1.8-0.4-2.8-0.4c-0.8,0-1.5,0.1-2,0.2c-0.6,0.1-1.1,0.2-1.5,0.4c-0.4,0.2-0.8,0.3-1.1,0.5c-0.3,0.2-0.5,0.4-0.7,0.6
			c-0.9,0.8-1.4,1.7-1.7,2.8c-0.3,1-0.4,2.1-0.4,3.3c0,1.1,0.2,2.2,0.6,3.2c0.4,1,1,1.9,1.7,2.7c0.7,0.8,1.6,1.4,2.7,1.9
			c1,0.5,2.2,0.7,3.4,0.7c0.9,0,1.7-0.1,2.3-0.2c0.7-0.1,1.3-0.5,1.7-0.9c0.2-0.3,0.4-0.6,0.6-1c0.1-0.4,0.2-0.7,0.3-0.9
			c0-0.2,0.1-0.4,0.2-0.4c0.1,0,0.1,0,0.1,0.1s0,0.2,0,0.2c0,0,0,0.2,0,0.4c0,0.2-0.1,0.5-0.1,0.8c0,0.3-0.1,0.6-0.2,0.9
			s-0.1,0.6-0.2,0.8c-0.1,0.2-0.1,0.4-0.2,0.4s-0.2,0.2-0.4,0.2c-0.2,0.1-0.5,0.2-0.8,0.2c-0.3,0.1-0.7,0.1-1.1,0.2
			s-0.8,0.1-1.2,0.1s-0.8,0-1.2,0C270.2,228.4,268.7,228.2,267.4,227.8z"/>
		<path class="st1" d="M280.8,217.2c0-0.9,0-1.6,0-2.2c0-0.6,0-1,0-1.4c0-0.4,0-0.6,0-0.9c0-0.2,0-0.4,0-0.6c0-0.4-0.1-0.7-0.2-0.9
			c-0.1-0.2-0.4-0.3-0.8-0.4c-0.1,0-0.2,0-0.4-0.1c-0.2,0-0.3,0-0.4,0c-0.1,0-0.2,0-0.2-0.1c0-0.1,0.1-0.2,0.4-0.2
			c0.3,0,0.5,0,0.8,0s0.6,0,0.8,0l1,0c0,0,0.3,0,0.8,0c0.5,0,1.1,0,1.7,0c0.6,0,1.2,0,1.8,0c0.6,0,0.9,0,1,0c0.5,0,0.8-0.1,1-0.1
			c0.1,0,0.1,0,0.2-0.1s0.1,0,0.2,0s0.1,0.1,0.1,0.2c0,0.1,0,0.2-0.1,0.4c0,0.2-0.1,0.4-0.1,0.7c0,0.1,0,0.2,0,0.3
			c0,0.1,0,0.3,0,0.5c0,0.2,0,0.3,0,0.5c0,0.1,0,0.3,0,0.3s0,0.1-0.1,0.2s-0.1,0.1-0.1,0.1c-0.1,0-0.2-0.1-0.2-0.3
			c0-0.1,0-0.2,0-0.4s-0.1-0.3-0.1-0.5c-0.1-0.2-0.2-0.3-0.4-0.5c-0.2-0.1-0.6-0.2-1.2-0.3c-0.1,0-0.3,0-0.6,0c-0.3,0-0.7,0-1,0
			s-0.7,0-1,0c-0.3,0-0.5,0-0.5,0c-0.1,0-0.1,0.1-0.1,0.2v6.5c0,0.2,0,0.2,0.1,0.2c0.1,0,0.3,0,0.6,0s0.7,0,1.1,0c0.4,0,0.8,0,1.2,0
			c0.4,0,0.6,0,0.8,0c0.3,0,0.5-0.1,0.7-0.1c0.2,0,0.3-0.1,0.4-0.2c0.2-0.2,0.3-0.3,0.4-0.3c0.1,0,0.1,0.1,0.1,0.2
			c0,0.1,0,0.2-0.1,0.4s-0.1,0.5-0.1,0.9c0,0.1,0,0.3,0,0.4c0,0.1,0,0.3,0,0.4c0,0.1,0,0.3,0,0.4c0,0.1,0,0.2,0,0.2
			c0,0.1,0,0.2,0,0.3s-0.1,0.2-0.1,0.2c-0.1,0-0.2-0.1-0.2-0.2c0-0.1,0-0.2,0-0.4s0-0.3-0.1-0.4c0-0.2-0.1-0.3-0.3-0.5
			c-0.2-0.2-0.5-0.3-0.9-0.3c-0.2,0-0.4,0-0.7,0c-0.3,0-0.7,0-1,0c-0.4,0-0.7,0-1,0c-0.3,0-0.5,0-0.6,0c-0.1,0-0.2,0.1-0.2,0.2v2.1
			c0,0.2,0,0.5,0,0.9s0,0.8,0,1.2s0,0.8,0,1.2s0,0.6,0,0.7c0,0.4,0.1,0.7,0.1,1c0.1,0.2,0.2,0.4,0.4,0.6c0.2,0.1,0.5,0.2,0.8,0.3
			s0.8,0.1,1.4,0.1c0.3,0,0.7,0,1.1,0c0.4,0,0.8-0.1,1.1-0.2c0.3-0.1,0.5-0.3,0.7-0.6c0.2-0.3,0.3-0.6,0.4-1.1
			c0-0.2,0.1-0.4,0.2-0.4c0.1,0,0.1,0,0.1,0.1c0,0.1,0,0.2,0,0.2c0,0,0,0.2,0,0.4c0,0.2-0.1,0.4-0.1,0.7c0,0.2-0.1,0.5-0.1,0.7
			c0,0.2-0.1,0.4-0.1,0.5c0,0.2-0.1,0.3-0.1,0.4c0,0.1-0.1,0.1-0.2,0.2s-0.2,0.1-0.4,0.1c-0.1,0-0.3,0-0.6,0c-0.9,0-1.7,0-2.3,0
			c-0.6,0-1.2,0-1.6,0c-0.5,0-0.8-0.1-1.1-0.1s-0.5,0-0.7,0c0,0-0.1,0-0.3,0c-0.2,0-0.4,0-0.6,0c-0.2,0-0.5,0-0.7,0
			c-0.2,0-0.5,0-0.6,0c-0.2,0-0.4-0.1-0.4-0.2c0-0.1,0.1-0.1,0.2-0.1c0.1,0,0.2,0,0.4,0s0.2,0,0.4-0.1c0.2,0,0.4-0.2,0.5-0.4
			s0.2-0.5,0.2-0.9c0.1-0.5,0.1-1.2,0.1-2.1c0-0.9,0-1.9,0-3V217.2z"/>
		<path class="st1" d="M293.6,224.9c0,0.5,0,0.9,0.1,1.2s0.1,0.6,0.2,0.8c0.1,0.2,0.2,0.4,0.3,0.5c0.1,0.1,0.2,0.2,0.4,0.2
			c0.2,0.1,0.4,0.1,0.7,0.1c0.2,0,0.4,0,0.5,0c0.1,0,0.2,0,0.2,0.1c0,0.1-0.1,0.2-0.4,0.2c-0.7,0-1.2,0-1.7,0s-0.7,0-0.8,0
			s-0.4,0-0.8,0s-0.9,0-1.4,0c-0.2,0-0.4-0.1-0.4-0.2c0-0.1,0.1-0.1,0.2-0.1c0.1,0,0.2,0,0.4,0c0.2,0,0.4-0.1,0.5-0.1
			c0.3-0.1,0.5-0.3,0.6-0.7c0.1-0.4,0.1-1.2,0.1-2.2l0-13.4c0-0.5,0-0.8,0.1-0.9c0-0.2,0.1-0.2,0.2-0.2c0.1,0,0.2,0.1,0.4,0.3
			c0.2,0.2,0.3,0.3,0.4,0.5c0.1,0.1,0.4,0.4,0.8,0.9c0.4,0.5,1,1.1,1.7,1.8c0.7,0.7,1.5,1.6,2.3,2.5c0.8,0.9,1.7,1.9,2.6,2.8
			c0.6,0.6,1.2,1.3,1.7,1.9c0.6,0.6,1.1,1.2,1.6,1.8c0.5,0.6,1,1.1,1.4,1.5s0.7,0.7,0.9,0.9l-0.3-11.9c0-0.8-0.1-1.3-0.2-1.6
			c-0.1-0.3-0.4-0.5-0.7-0.6c-0.2,0-0.4-0.1-0.7-0.1c-0.2,0-0.4,0-0.5,0c-0.1,0-0.2-0.1-0.2-0.2s0.2-0.2,0.5-0.2c0.3,0,0.5,0,0.8,0
			c0.3,0,0.5,0,0.7,0c0.2,0,0.4,0,0.6,0c0.2,0,0.3,0,0.3,0c0.1,0,0.4,0,0.7,0c0.4,0,0.8,0,1.3,0c0.3,0,0.4,0.1,0.4,0.2
			s-0.1,0.2-0.3,0.2c-0.1,0-0.1,0-0.2,0c-0.1,0-0.2,0-0.3,0.1c-0.4,0.1-0.6,0.3-0.7,0.6c-0.1,0.3-0.1,0.8-0.1,1.5l0,13.7
			c0,0.4,0,0.7,0,0.9c0,0.2,0,0.4,0,0.5c0,0.1,0,0.2-0.1,0.2c0,0-0.1,0-0.1,0c0,0-0.1,0-0.2-0.1c-0.1,0-0.2-0.1-0.3-0.2
			c-0.1-0.1-0.3-0.3-0.5-0.5c-0.2-0.2-0.4-0.4-0.8-0.8c-0.1-0.1-0.3-0.3-0.7-0.7c-0.4-0.4-0.9-0.9-1.5-1.5c-0.6-0.6-1.2-1.3-1.9-2
			s-1.3-1.4-2-2.1c-0.7-0.7-1.4-1.5-2-2.2c-0.6-0.7-1.2-1.4-1.8-2c-0.5-0.6-1-1.1-1.4-1.6c-0.4-0.4-0.7-0.8-0.9-1L293.6,224.9z"/>
		<path class="st1" d="M317.9,221.3c0,1.1,0,2.1,0,3c0,0.9,0,1.6,0.1,2.1c0,0.3,0.1,0.6,0.2,0.9c0.1,0.2,0.3,0.4,0.7,0.4
			c0.2,0,0.4,0.1,0.6,0.1c0.2,0,0.4,0,0.5,0c0.1,0,0.2,0,0.2,0.1c0,0.1-0.1,0.2-0.4,0.2c-0.3,0-0.7,0-1,0s-0.6,0-0.9,0s-0.5,0-0.7,0
			c-0.2,0-0.3,0-0.3,0c0,0-0.1,0-0.3,0c-0.2,0-0.4,0-0.6,0s-0.5,0-0.7,0c-0.2,0-0.5,0-0.6,0c-0.2,0-0.4-0.1-0.4-0.2
			c0-0.1,0.1-0.1,0.2-0.1c0.1,0,0.2,0,0.4,0s0.2,0,0.4-0.1c0.2,0,0.4-0.2,0.5-0.4s0.2-0.5,0.2-0.9c0.1-0.5,0.1-1.2,0.1-2.1
			c0-0.9,0-1.9,0-3v-9.9l-3.5,0c-0.4,0-0.7,0-0.9,0c-0.3,0-0.5,0.1-0.7,0.1c-0.2,0.1-0.3,0.1-0.5,0.2c-0.1,0.1-0.2,0.2-0.3,0.4
			c-0.1,0.2-0.2,0.4-0.3,0.5c-0.1,0.1-0.1,0.2-0.1,0.3c-0.1,0.2-0.1,0.2-0.2,0.2c-0.1,0-0.1-0.1-0.1-0.2c0-0.1,0-0.2,0.1-0.5
			c0-0.2,0.1-0.5,0.2-0.8s0.1-0.5,0.2-0.8c0.1-0.2,0.1-0.4,0.1-0.4c0-0.1,0.1-0.2,0.1-0.3s0.1-0.2,0.1-0.2c0.1,0,0.2,0,0.3,0.1
			s0.4,0.1,0.7,0.2c0.3,0,0.7,0.1,1.1,0.1s0.6,0,0.8,0h8.8c0.4,0,0.7,0,1,0s0.5,0,0.7-0.1c0.2,0,0.3-0.1,0.4-0.1s0.2,0,0.2,0
			c0.1,0,0.1,0,0.1,0.1s0,0.1,0,0.2c0,0.2,0,0.4,0,0.7c0,0.3,0,0.5,0,0.8c0,0.3,0,0.5,0,0.7c0,0.2,0,0.3,0,0.4
			c0,0.2-0.1,0.3-0.2,0.3c-0.1,0-0.1,0-0.1-0.1s0-0.2-0.1-0.3l0-0.3c0-0.2-0.1-0.3-0.2-0.5c-0.1-0.2-0.2-0.3-0.5-0.4
			c-0.2-0.1-0.5-0.2-0.9-0.3c-0.4-0.1-0.8-0.1-1.4-0.1l-2.9,0V221.3z"/>
		<path class="st1" d="M327,217.2c0-0.9,0-1.6,0-2.2c0-0.6,0-1,0-1.4c0-0.4,0-0.6,0-0.9c0-0.2,0-0.4,0-0.6c0-0.4-0.1-0.7-0.2-0.9
			c-0.1-0.2-0.4-0.3-0.8-0.4c-0.1,0-0.2,0-0.4-0.1c-0.2,0-0.3,0-0.4,0c-0.1,0-0.2,0-0.2-0.1c0-0.1,0.1-0.2,0.4-0.2
			c0.3,0,0.5,0,0.8,0s0.6,0,0.8,0l1,0c0,0,0.3,0,0.8,0c0.5,0,1.1,0,1.7,0c0.6,0,1.2,0,1.8,0c0.6,0,0.9,0,1,0c0.5,0,0.8-0.1,1-0.1
			c0.1,0,0.1,0,0.2-0.1s0.1,0,0.2,0s0.1,0.1,0.1,0.2c0,0.1,0,0.2-0.1,0.4c0,0.2-0.1,0.4-0.1,0.7c0,0.1,0,0.2,0,0.3
			c0,0.1,0,0.3,0,0.5c0,0.2,0,0.3,0,0.5c0,0.1,0,0.3,0,0.3s0,0.1-0.1,0.2s-0.1,0.1-0.1,0.1c-0.1,0-0.2-0.1-0.2-0.3
			c0-0.1,0-0.2,0-0.4s-0.1-0.3-0.1-0.5c-0.1-0.2-0.2-0.3-0.4-0.5c-0.2-0.1-0.6-0.2-1.2-0.3c-0.1,0-0.3,0-0.6,0c-0.3,0-0.7,0-1,0
			s-0.7,0-1,0c-0.3,0-0.5,0-0.5,0c-0.1,0-0.1,0.1-0.1,0.2v6.5c0,0.2,0,0.2,0.1,0.2c0.1,0,0.3,0,0.6,0s0.7,0,1.1,0c0.4,0,0.8,0,1.2,0
			c0.4,0,0.6,0,0.8,0c0.3,0,0.5-0.1,0.7-0.1c0.2,0,0.3-0.1,0.4-0.2c0.2-0.2,0.3-0.3,0.4-0.3c0.1,0,0.1,0.1,0.1,0.2
			c0,0.1,0,0.2-0.1,0.4s-0.1,0.5-0.1,0.9c0,0.1,0,0.3,0,0.4c0,0.1,0,0.3,0,0.4c0,0.1,0,0.3,0,0.4c0,0.1,0,0.2,0,0.2
			c0,0.1,0,0.2,0,0.3S334,221,334,221c-0.1,0-0.2-0.1-0.2-0.2c0-0.1,0-0.2,0-0.4s0-0.3-0.1-0.4c0-0.2-0.1-0.3-0.3-0.5
			c-0.2-0.2-0.5-0.3-0.9-0.3c-0.2,0-0.4,0-0.7,0c-0.3,0-0.7,0-1,0c-0.4,0-0.7,0-1,0c-0.3,0-0.5,0-0.6,0c-0.1,0-0.2,0.1-0.2,0.2v2.1
			c0,0.2,0,0.5,0,0.9s0,0.8,0,1.2s0,0.8,0,1.2s0,0.6,0,0.7c0,0.4,0.1,0.7,0.1,1c0.1,0.2,0.2,0.4,0.4,0.6c0.2,0.1,0.5,0.2,0.8,0.3
			s0.8,0.1,1.4,0.1c0.3,0,0.7,0,1.1,0c0.4,0,0.8-0.1,1.1-0.2c0.3-0.1,0.5-0.3,0.7-0.6c0.2-0.3,0.3-0.6,0.4-1.1
			c0-0.2,0.1-0.4,0.2-0.4c0.1,0,0.1,0,0.1,0.1c0,0.1,0,0.2,0,0.2c0,0,0,0.2,0,0.4c0,0.2-0.1,0.4-0.1,0.7c0,0.2-0.1,0.5-0.1,0.7
			c0,0.2-0.1,0.4-0.1,0.5c0,0.2-0.1,0.3-0.1,0.4c0,0.1-0.1,0.1-0.2,0.2s-0.2,0.1-0.4,0.1c-0.1,0-0.3,0-0.6,0c-0.9,0-1.7,0-2.3,0
			c-0.6,0-1.2,0-1.6,0c-0.5,0-0.8-0.1-1.1-0.1s-0.5,0-0.7,0c0,0-0.1,0-0.3,0c-0.2,0-0.4,0-0.6,0c-0.2,0-0.5,0-0.7,0
			c-0.2,0-0.5,0-0.6,0c-0.2,0-0.4-0.1-0.4-0.2c0-0.1,0.1-0.1,0.2-0.1c0.1,0,0.2,0,0.4,0s0.2,0,0.4-0.1c0.2,0,0.4-0.2,0.5-0.4
			s0.2-0.5,0.2-0.9c0.1-0.5,0.1-1.2,0.1-2.1c0-0.9,0-1.9,0-3V217.2z"/>
	</g>
	<line class="st2" x1="25.8" y1="196.2" x2="335.2" y2="196.2"/>
	<line class="st2" x1="129.5" y1="134.7" x2="335.2" y2="134.7"/>
	<g class="st0">
		<path class="st1" d="M33.7,127.3v2.5h-2.7v5.9h-2.7v-5.9h-2.7v-2.5H33.7z"/>
		<path class="st1" d="M33.1,135.6v-5.9h-1.7v-2.5h8.9v2.5h-4.5v1h2.9v1.5h-2.9v1H41v2.5H33.1z"/>
		<path class="st1" d="M40.2,135.6l2.8-8.4h4.2l2.8,8.4h-3.2l-0.5-1.5h-2.5l-0.5,1.5H40.2z M45.1,129.1l-1.2,3.3h2.3L45.1,129.1z"/>
		<path class="st1" d="M52.3,131.4c0,0.5,0.1,0.8,0.3,1s0.4,0.4,0.6,0.6c0.2,0.1,0.6,0.2,1.1,0.3c0.5,0,0.9-0.1,1.1-0.2
			c0.2-0.1,0.5-0.3,0.7-0.5l1.6,1.8c-0.5,0.4-1,0.8-1.4,0.9c-0.5,0.2-1.2,0.3-2.1,0.3c-0.9,0-1.5-0.2-2-0.4
			c-0.4-0.2-0.9-0.5-1.3-0.8c-0.4-0.3-0.8-0.8-1-1.3c-0.2-0.5-0.4-1.1-0.4-1.8c0-0.7,0.1-1.3,0.4-1.8c0.2-0.5,0.6-0.9,1-1.3
			c0.4-0.3,0.9-0.6,1.3-0.8c0.4-0.2,1.1-0.3,2-0.4c0.9,0,1.6,0.2,2.1,0.3s0.9,0.5,1.4,0.9l-1.6,1.8c-0.3-0.2-0.5-0.4-0.7-0.5
			c-0.2-0.1-0.6-0.2-1.1-0.2c-0.5,0.1-0.8,0.2-1.1,0.3c-0.2,0.1-0.4,0.3-0.6,0.6S52.3,130.9,52.3,131.4z"/>
		<path class="st1" d="M63,130.2v-2.9h2.7v8.4H63v-3h-2.2v3h-2.7v-5.9h-1.7v-2.5h4.5v2.9H63z"/>
		<path class="st1" d="M66.3,135.6v-5.9h-1.7v-2.5h8.9v2.5h-4.5v1H72v1.5h-2.9v1h5.2v2.5H66.3z"/>
		<path class="st1" d="M74.2,135.6v-8.4h5.5c0.7,0.1,1.2,0.2,1.7,0.5c0.4,0.3,0.8,0.7,1,1.2c0.2,0.7,0.2,1.3,0,1.7
			c-0.1,0.4-0.4,0.7-0.7,1s-0.8,0.5-1.5,0.6l0.6,0.8h4.5v2.5h-5.3l-2.7-2.8v2.8H74.2z M77.3,129.4v1.5h2.1c0.1,0,0.2,0,0.4-0.1
			s0.2-0.3,0.2-0.6c0-0.3-0.1-0.5-0.2-0.6c-0.1-0.1-0.3-0.2-0.3-0.2H77.3z"/>
		<path class="st1" d="M93.8,132.1l-0.9,3.6h-2.7l-2.6-8.4h2.7l1.2,3.6l1-3.6H95l1.2,3.6l0.8-3.6h2.7l-2.1,8.4h-2.7L93.8,132.1z"/>
		<path class="st1" d="M98.4,135.6l2.8-8.4h4.2l2.8,8.4H105l-0.5-1.5H102l-0.5,1.5H98.4z M103.3,129.1l-1.2,3.3h2.3L103.3,129.1z"/>
		<path class="st1" d="M108,135.6v-8.4h5.5c0.7,0.1,1.2,0.2,1.7,0.5c0.4,0.3,0.8,0.7,1,1.2c0.2,0.7,0.2,1.3,0,1.7
			c-0.1,0.4-0.4,0.7-0.7,1s-0.8,0.5-1.5,0.6l0.6,0.8h4.5v2.5h-5.3l-2.7-2.8v2.8H108z M111.1,129.4v1.5h2.1c0.1,0,0.2,0,0.4-0.1
			s0.2-0.3,0.2-0.6c0-0.3-0.1-0.5-0.2-0.6c-0.1-0.1-0.3-0.2-0.3-0.2H111.1z"/>
		<path class="st1" d="M124.2,129.8h-2.6c-1,0-1.1,0.2-0.4,0.8c1.3,1.1,1.9,2.2,1.8,3.2c0,1-0.6,1.7-1.8,1.9h-7.3v-2.5h4.6
			c1.1,0,1.2-0.3,0.4-0.9c-1.3-1.2-1.9-2.4-1.7-3.4c0.2-1,0.8-1.6,1.9-1.6h5.2V129.8z"/>
	</g>
</g>
</svg>
