<svg xmlns="http://www.w3.org/2000/svg" viewBox="0 0 549 215.52"><defs><style>.cls-1{fill:#fff;}</style></defs><title>full-flat-logo_1</title><g id="Capa_2" data-name="Capa 2"><g id="home-lx"><g id="full-flat-logo"><path class="cls-1" d="M97,96.3h18.12V44.06h20.25V96.3H202.9l3.52-13.86H223l3.52,13.86h21.1L229,21.68H201.24L188.15,73.91H153.51V65.38H172.7V52.59H153.51V44.06h29.85V21.68H80V44.06H97ZM215.16,38l7.38,29.47H207.16Z"/><path class="cls-1" d="M260.72,91.69a32.12,32.12,0,0,0,16.43,4.61H299V73.91H284.41a59,59,0,0,1-8-.55A25.09,25.09,0,0,1,271.12,72a8.77,8.77,0,0,1-4.33-3.81c-1.19-1.89-1.84-5.06-2-9.45q.27-6.81,2-9.5a10,10,0,0,1,3.9-3.77,18.09,18.09,0,0,1,5-1.23,70.83,70.83,0,0,1,8.69-.15h18.34V96.3h18.12V69.65H335.8V96.3h18.12V21.68H335.8V47.26H320.87V21.68H277.15a34.16,34.16,0,0,0-12.39,2,28.8,28.8,0,0,0-10.3,6.7,31.42,31.42,0,0,0-7,11.39,44.93,44.93,0,0,0-2.54,15.62c0,8.31,1.42,15.48,4.24,21.22A30,30,0,0,0,260.72,91.69Z"/><path class="cls-1" d="M454,73.91l-4.17-7.3a23.51,23.51,0,0,0,10-5.77,20,20,0,0,0,4.87-9c.93-3.57.88-8.68-.16-15.27a22.11,22.11,0,0,0-6.33-10.32c-2.89-2.61-6.57-3.49-11.06-4.55h-36.7V73.91H376.3V65.38h19.19V52.59H376.3V44.06h28.79V21.68H358.18V96.3h72.49V71.1l18,25.2h21.44V73.91Zm-6.53-21.43A4.05,4.05,0,0,1,445,53.66H430.67V40.86H445a2.73,2.73,0,0,1,2.3.85c.91.91,1.43,2.56,1.56,5.41C448.81,50.11,448.35,51.75,447.47,52.48Z"/><polygon class="cls-1" points="181.28 104.83 173.13 136.98 160.91 104.83 134.64 104.83 124.19 136.98 112.15 104.83 83.57 104.83 110.32 179.45 138.9 179.45 148.14 147.91 159.27 179.45 187.85 179.45 209.86 104.83 181.28 104.83"/><path class="cls-1" d="M392.77,118.43c-2.11,9.21,3.89,19.4,18,30.4,8.55,5.7,7.09,8.23-4.38,8.23H365.28l-6.56-7.31c6.81-1.37,12-3.36,15.69-5.76a19.68,19.68,0,0,0,7.66-9c1.46-3.57,1.37-8.68-.25-15.27a23.44,23.44,0,0,0-10-10.32c-4.54-2.62-10.34-3.49-17.39-4.55H296.89v74.62h31.44v-25.2l28.56,25.2H434.6c12.65-2.14,19.1-7.59,19.34-16.8s-6.2-18.53-19.34-28.28c-7.33-5.16-5.79-7.16,4.62-7.16h21.3V104.83H412.71C401.52,104.83,394.88,109.23,392.77,118.43ZM355,135.63a8.37,8.37,0,0,1-3.83,1.18H328.33V124h22.79a5.94,5.94,0,0,1,3.61.85c1.44.91,2.26,2.56,2.47,5.41C357.12,133.26,356.39,134.9,355,135.63Z"/><path class="cls-1" d="M225.55,104.83l-28.88,74.62h31.5l5.53-13.86h26.08l5.54,13.86h31.57l-27.74-74.62Zm9.3,45.83,12.59-29.47,11.62,29.47Z"/><path class="cls-1" d="M126.57,191.7H91.07v6h6.44V212h6.6V197.74h5.06V212H133.6l1.27-3.65h6l1.28,3.65h7.68l-6.79-20.29Zm1.71,14.3V206h-12.5v-2.33h7v-3.54h-7v-2.34H131Zm6.86-1.76,2.91-8,2.69,8Z"/><path class="cls-1" d="M181.45,198.7h-5.31v-7H165.32v.4l-.14-.06a17.91,17.91,0,0,0-5-.79,13.37,13.37,0,0,0-4.76.92,16.09,16.09,0,0,0-3.2,2,8.64,8.64,0,0,0-2.48,3.12,11,11,0,0,0,0,8.67,8.64,8.64,0,0,0,2.48,3.12,16,16,0,0,0,3.2,2,13.37,13.37,0,0,0,4.76.92,18.35,18.35,0,0,0,5-.78,10.49,10.49,0,0,0,3.45-2.25l-4-4.44a8.7,8.7,0,0,1-1.8,1.21,7.72,7.72,0,0,1-2.58.47,7.21,7.21,0,0,1-2.6-.71,4.72,4.72,0,0,1-1.48-1.34,4.75,4.75,0,0,1,0-5.06,4.69,4.69,0,0,1,1.48-1.33,7.18,7.18,0,0,1,2.6-.72,7.67,7.67,0,0,1,2.58.48,8,8,0,0,1,1.8,1.21l.89-1h4V212h6.61v-7.3h5.31V212h6.61V191.7h-6.61Z"/><rect class="cls-1" x="189.18" y="191.7" width="6.61" height="20.29"/><path class="cls-1" d="M230.51,206a20.07,20.07,0,0,1-3,0,5.9,5.9,0,0,1-2-.56,4.75,4.75,0,0,1-1.54-1.15,4.34,4.34,0,0,1-.79-2.45,5.14,5.14,0,0,1,.79-2.58,5.5,5.5,0,0,1,1.43-1.38A6.22,6.22,0,0,1,228,197a7.67,7.67,0,0,1,2.58.48,8,8,0,0,1,1.8,1.21l4-4.44a10.18,10.18,0,0,0-3.45-2.25,17.84,17.84,0,0,0-5-.79,13.42,13.42,0,0,0-4.76.92q-.54.26-1.08.57v-1H209.84v7.59l-6-7.59h-6.61V212h6.61V204.4l6,7.59h6.6V197.74h.85a10.1,10.1,0,0,0-.71,3.81,10.56,10.56,0,0,0,1.49,5.75,9.29,9.29,0,0,0,4.09,3.52A13.93,13.93,0,0,0,228,212h8.73V201.85h-6.17Z"/><path class="cls-1" d="M268.13,193a8.8,8.8,0,0,0-4-1.26H246.66v6h4.22V212h7.33v-6.7h6.35a7.89,7.89,0,0,0,4.05-1.67,6,6,0,0,0,1.86-2.28,10,10,0,0,0,.45-2.11,10.42,10.42,0,0,0-.51-3.37A5.68,5.68,0,0,0,268.13,193Zm-3.92,7.24a1.66,1.66,0,0,1-.88.3h-5.12v-3.74h5.1a1.49,1.49,0,0,1,.84.37,2,2,0,0,1,.57,1.54C264.7,199.49,264.53,200,264.21,200.2Z"/><path class="cls-1" d="M289.15,192.75a15.15,15.15,0,0,0-6.29-1.2,16.12,16.12,0,0,0-4.9.68,10,10,0,0,0-3.66,2,8.54,8.54,0,0,0-2.26,3.25,12.11,12.11,0,0,0-.77,4.48,11.13,11.13,0,0,0,1.35,5.68,8.49,8.49,0,0,0,4,3.52,15.15,15.15,0,0,0,6.27,1.19,15.38,15.38,0,0,0,6.29-1.18,8.7,8.7,0,0,0,4-3.53,12.28,12.28,0,0,0,0-11.35A8.78,8.78,0,0,0,289.15,192.75ZM287,204.37a3.18,3.18,0,0,1-1.23,1.74,4.93,4.93,0,0,1-3,.75c-1.72,0-2.88-.48-3.46-1.44a6.4,6.4,0,0,1-.88-3.4q0-4.87,4.34-4.87c1.84,0,3,.49,3.61,1.46a7.15,7.15,0,0,1,.94,3.41A12.07,12.07,0,0,1,287,204.37Z"/><path class="cls-1" d="M328.14,191.7H314.26v2.73a6,6,0,0,0-1.49-1.44,8.46,8.46,0,0,0-4-1.29H295.54V212h7.34v-6.7l6.43,6.7h18V197.74h5.06V212H339v-8.37h7v-3.54h-7v-2.34h10.79v-6H328.14Zm-19.26,8.5a1.71,1.71,0,0,1-.89.3h-5.11v-3.74H308a1.49,1.49,0,0,1,.83.37,2,2,0,0,1,.57,1.54C309.36,199.49,309.2,200,308.88,200.2Zm2.37,5.75L309.73,204a9.47,9.47,0,0,0,3.63-1.54,5.3,5.3,0,0,0,1.77-2.45,5.9,5.9,0,0,0,.2-2.28h5.37V206Z"/><path class="cls-1" d="M368.2,192.75a15.1,15.1,0,0,0-6.28-1.2,16.19,16.19,0,0,0-4.91.68,9.83,9.83,0,0,0-3.65,2,8.43,8.43,0,0,0-2.26,3.25,11.91,11.91,0,0,0-.78,4.48,11.13,11.13,0,0,0,1.35,5.68,8.49,8.49,0,0,0,4,3.52,15.17,15.17,0,0,0,6.28,1.19,15.45,15.45,0,0,0,6.29-1.18,8.73,8.73,0,0,0,4-3.53,12.28,12.28,0,0,0,0-11.35A8.78,8.78,0,0,0,368.2,192.75Zm-2.1,11.62a3.25,3.25,0,0,1-1.24,1.74,4.93,4.93,0,0,1-3,.75c-1.72,0-2.87-.48-3.46-1.44a6.4,6.4,0,0,1-.88-3.4q0-4.87,4.34-4.87c1.84,0,3,.49,3.62,1.46a7.26,7.26,0,0,1,.94,3.41A13.83,13.83,0,0,1,366.1,204.37Z"/><polygon class="cls-1" points="381.2 191.7 374.59 191.7 374.59 211.99 392.19 211.99 392.19 205.95 381.2 205.95 381.2 191.7"/><rect class="cls-1" x="392.75" y="191.7" width="6.61" height="20.29"/><path class="cls-1" d="M422,196.29a8.78,8.78,0,0,0-4-3.54,15.15,15.15,0,0,0-6.29-1.2,16.12,16.12,0,0,0-4.9.68,10,10,0,0,0-3.66,2,8.54,8.54,0,0,0-2.26,3.25,12.11,12.11,0,0,0-.77,4.48,11.13,11.13,0,0,0,1.35,5.68,8.49,8.49,0,0,0,4,3.52,15.15,15.15,0,0,0,6.27,1.19,15.38,15.38,0,0,0,6.29-1.18,8.7,8.7,0,0,0,4-3.53,12.28,12.28,0,0,0,0-11.35Zm-6.14,8.08a3.18,3.18,0,0,1-1.23,1.74,4.93,4.93,0,0,1-3,.75c-1.72,0-2.88-.48-3.46-1.44a6.4,6.4,0,0,1-.88-3.4q0-4.87,4.34-4.87c1.84,0,3,.49,3.61,1.46a7.27,7.27,0,0,1,.95,3.41A12.82,12.82,0,0,1,415.83,204.37Z"/><path class="cls-1" d="M522.35,0H26.65A26.69,26.69,0,0,0,0,26.65V175.11a26.69,26.69,0,0,0,26.65,26.65H80V191.1H26.65a16,16,0,0,1-16-16V26.65a16,16,0,0,1,16-16h495.7a16,16,0,0,1,16,16V175.11a16,16,0,0,1-16,16H432.8v10.66h89.55A26.69,26.69,0,0,0,549,175.11V26.65A26.69,26.69,0,0,0,522.35,0Z"/><g id="phrase"><g id="left"><path class="cls-1" d="M25.57,215.29,21.74,207v6.62a2,2,0,0,0,.2,1.14,1.09,1.09,0,0,0,.85.31h.35v.27H19.7V215h.35a1,1,0,0,0,.89-.38,2.36,2.36,0,0,0,.16-1.07v-6.48a2.25,2.25,0,0,0-.15-1,.79.79,0,0,0-.37-.35,2,2,0,0,0-.88-.14v-.27h2.8l3.6,7.75,3.53-7.75h2.81v.27H32.1a1,1,0,0,0-.9.38,2.15,2.15,0,0,0-.16,1.06v6.48a2,2,0,0,0,.2,1.14,1.11,1.11,0,0,0,.86.31h.34v.27H28.23V215h.35a1,1,0,0,0,.89-.38,2.23,2.23,0,0,0,.16-1.07V207l-3.82,8.34Z"/><path class="cls-1" d="M39.6,212H35.77l-.68,1.56a2.6,2.6,0,0,0-.24.87.49.49,0,0,0,.21.39A1.87,1.87,0,0,0,36,215v.27H32.87V215a1.76,1.76,0,0,0,.81-.29,4.61,4.61,0,0,0,.82-1.42L38,205.15h.25l3.45,8.24a3.59,3.59,0,0,0,.76,1.29,1.57,1.57,0,0,0,.95.34v.27H39.49V215a1.5,1.5,0,0,0,.8-.2.5.5,0,0,0,.2-.41,3,3,0,0,0-.29-1Zm-.2-.54-1.68-4-1.73,4Z"/><path class="cls-1" d="M49.32,205.38h3.46v.27h-.19a1.39,1.39,0,0,0-.56.17,2.14,2.14,0,0,0-.66.48,6.48,6.48,0,0,0-.74,1l-2.39,3.76v2.49a1.92,1.92,0,0,0,.21,1.14,1.12,1.12,0,0,0,.87.31h.33v.27H45.44V215h.35a1,1,0,0,0,.89-.38,2.36,2.36,0,0,0,.16-1.07v-2.35l-2.72-4.15a8.69,8.69,0,0,0-.65-.91,2.77,2.77,0,0,0-.72-.44.94.94,0,0,0-.42-.07v-.27h4.24v.27h-.22a1.23,1.23,0,0,0-.63.16.51.51,0,0,0-.29.48,2.36,2.36,0,0,0,.44,1l2.07,3.19,2-3.05a2.26,2.26,0,0,0,.43-1,.66.66,0,0,0-.1-.37.68.68,0,0,0-.3-.25,1.54,1.54,0,0,0-.6-.09Z"/><path class="cls-1" d="M62.31,215.29,58.48,207v6.62a2,2,0,0,0,.2,1.14,1.09,1.09,0,0,0,.85.31h.35v.27H56.43V215h.36a1,1,0,0,0,.89-.38,2.36,2.36,0,0,0,.16-1.07v-6.48a2.25,2.25,0,0,0-.15-1,.79.79,0,0,0-.37-.35,2,2,0,0,0-.89-.14v-.27h2.81l3.6,7.75,3.53-7.75h2.81v.27h-.34a1,1,0,0,0-.9.38,2.15,2.15,0,0,0-.16,1.06v6.48a2,2,0,0,0,.2,1.14,1.11,1.11,0,0,0,.86.31h.34v.27H65V215h.35a1,1,0,0,0,.89-.38,2.23,2.23,0,0,0,.16-1.07V207l-3.82,8.34Z"/><path class="cls-1" d="M76.63,205.38h3.45v.27h-.19a1.36,1.36,0,0,0-.55.17,2.18,2.18,0,0,0-.67.48,6.56,6.56,0,0,0-.73,1l-2.39,3.76v2.49a1.94,1.94,0,0,0,.2,1.14,1.16,1.16,0,0,0,.88.31H77v.27H72.74V215h.35a1,1,0,0,0,.89-.38,2.23,2.23,0,0,0,.16-1.07v-2.35l-2.72-4.15a8.69,8.69,0,0,0-.65-.91,2.51,2.51,0,0,0-.71-.44,1,1,0,0,0-.43-.07v-.27h4.24v.27h-.22a1.23,1.23,0,0,0-.63.16.53.53,0,0,0-.29.48,2.29,2.29,0,0,0,.45,1l2.07,3.19,1.94-3.05a2.31,2.31,0,0,0,.44-1,.67.67,0,0,0-.41-.62,1.49,1.49,0,0,0-.59-.09Z"/></g><g id="right"><path class="cls-1" d="M440.81,210.23a3.25,3.25,0,0,1,1.54.7,2.2,2.2,0,0,1,.71,1.65,2.46,2.46,0,0,1-.47,1.41,2.7,2.7,0,0,1-1.28,1,7.65,7.65,0,0,1-2.49.31h-4.68V215h.37a1,1,0,0,0,.9-.4,2.33,2.33,0,0,0,.16-1.09v-6.4a2,2,0,0,0-.21-1.16,1.05,1.05,0,0,0-.85-.32h-.37v-.27h4.28a8.44,8.44,0,0,1,1.93.17,3.12,3.12,0,0,1,1.67.93,2.27,2.27,0,0,1,.58,1.54,2.12,2.12,0,0,1-.46,1.34A2.63,2.63,0,0,1,440.81,210.23Zm-3.83-.4a4.72,4.72,0,0,0,.62.08c.23,0,.48,0,.76,0a4.33,4.33,0,0,0,1.6-.23,1.76,1.76,0,0,0,.83-.71,2,2,0,0,0,.28-1,1.9,1.9,0,0,0-.71-1.48,3.06,3.06,0,0,0-2.07-.61A4.85,4.85,0,0,0,437,206Zm0,4.74a7.4,7.4,0,0,0,1.67.2,3,3,0,0,0,2-.6,1.88,1.88,0,0,0,.69-1.47,2.12,2.12,0,0,0-.31-1.11,2.06,2.06,0,0,0-1-.84,4.37,4.37,0,0,0-1.76-.31l-.77,0a3.14,3.14,0,0,0-.52,0Z"/><path class="cls-1" d="M447,205.92v3.91h2.18a1.8,1.8,0,0,0,1.14-.25,1.68,1.68,0,0,0,.42-1.19H451v3.45h-.27a3.55,3.55,0,0,0-.21-.92.9.9,0,0,0-.43-.41,2.32,2.32,0,0,0-.92-.14H447v3.26a2.92,2.92,0,0,0,.06.8.43.43,0,0,0,.21.23,1.13,1.13,0,0,0,.55.09h1.68a4.42,4.42,0,0,0,1.22-.12,1.86,1.86,0,0,0,.74-.46,5.47,5.47,0,0,0,.92-1.37h.3l-.86,2.49h-7.64V215h.35a1.42,1.42,0,0,0,.67-.17.68.68,0,0,0,.32-.35,3.82,3.82,0,0,0,.08-1V207.1a2.1,2.1,0,0,0-.19-1.16,1.11,1.11,0,0,0-.88-.29h-.35v-.27h7.64l.11,2.17h-.28a3.9,3.9,0,0,0-.34-1.08,1.19,1.19,0,0,0-.56-.44,3.05,3.05,0,0,0-1-.11Z"/><path class="cls-1" d="M470.5,205.38v.27a1.18,1.18,0,0,0-.63.14,1.37,1.37,0,0,0-.46.51,9.51,9.51,0,0,0-.46,1.23l-2.76,8h-.29l-2.26-6.33-2.25,6.33h-.26l-2.94-8.23q-.33-.92-.42-1.08a1,1,0,0,0-.4-.42,1.44,1.44,0,0,0-.68-.13v-.27h3.67v.27h-.18a.92.92,0,0,0-.59.17.53.53,0,0,0-.2.43,4.67,4.67,0,0,0,.32,1.17l2,5.56,1.64-4.72-.29-.84-.23-.66a4,4,0,0,0-.35-.65.84.84,0,0,0-.23-.23,1.18,1.18,0,0,0-.37-.19,1.59,1.59,0,0,0-.44,0v-.27h3.86v.27H465a.91.91,0,0,0-.6.17.62.62,0,0,0-.19.48,4.67,4.67,0,0,0,.33,1.3l1.9,5.38,1.89-5.45a4.84,4.84,0,0,0,.32-1.26.56.56,0,0,0-.11-.32.6.6,0,0,0-.27-.2,2,2,0,0,0-.72-.1v-.27Z"/><path class="cls-1" d="M475.24,215v.27H471V215h.35a1,1,0,0,0,.89-.36,2.19,2.19,0,0,0,.18-1.13v-6.4a3,3,0,0,0-.1-1,.66.66,0,0,0-.3-.32,1.45,1.45,0,0,0-.67-.17H471v-.27h4.25v.27h-.36a1.06,1.06,0,0,0-.89.36,2.15,2.15,0,0,0-.18,1.12v6.4a3.08,3.08,0,0,0,.1,1,.63.63,0,0,0,.3.31,1.32,1.32,0,0,0,.67.18Z"/><path class="cls-1" d="M484.26,205.38l.11,2.32h-.28a2.57,2.57,0,0,0-.22-.88,1.44,1.44,0,0,0-.6-.62,2,2,0,0,0-1-.2h-1.39v7.57a2.06,2.06,0,0,0,.19,1.14,1.13,1.13,0,0,0,.86.31h.34v.27h-4.2V215h.35a1,1,0,0,0,.89-.38,2.23,2.23,0,0,0,.16-1.07V206h-1.19a3.34,3.34,0,0,0-1,.1,1.36,1.36,0,0,0-.65.53,2.26,2.26,0,0,0-.32,1.07h-.28l.12-2.32Z"/><path class="cls-1" d="M487.82,210h4.61v-2.83a3.35,3.35,0,0,0-.1-1,.64.64,0,0,0-.31-.32,1.41,1.41,0,0,0-.66-.17H491v-.27h4.24v.27h-.35a1.31,1.31,0,0,0-.67.17.61.61,0,0,0-.32.35,3.86,3.86,0,0,0-.08,1v6.39a3.51,3.51,0,0,0,.09,1,.68.68,0,0,0,.3.31,1.38,1.38,0,0,0,.68.18h.35v.27H491V215h.35a1,1,0,0,0,.88-.36,2.06,2.06,0,0,0,.19-1.13v-3h-4.61v3a3.08,3.08,0,0,0,.1,1,.68.68,0,0,0,.3.31,1.35,1.35,0,0,0,.67.18h.36v.27H485V215h.35a1,1,0,0,0,.89-.36,2.19,2.19,0,0,0,.18-1.13v-6.39a3,3,0,0,0-.1-1,.61.61,0,0,0-.3-.32,1.42,1.42,0,0,0-.67-.17H485v-.27h4.25v.27h-.36a1.34,1.34,0,0,0-.67.17.6.6,0,0,0-.31.35,3.31,3.31,0,0,0-.09,1Z"/><path class="cls-1" d="M505.87,205.38h3.46v.27h-.19a1.39,1.39,0,0,0-.56.17,2.14,2.14,0,0,0-.66.48,6.48,6.48,0,0,0-.74,1l-2.39,3.76v2.49a1.92,1.92,0,0,0,.21,1.14,1.12,1.12,0,0,0,.87.31h.32v.27H502V215h.36a1,1,0,0,0,.89-.38,2.36,2.36,0,0,0,.16-1.07v-2.35l-2.72-4.15a8.69,8.69,0,0,0-.65-.91,2.77,2.77,0,0,0-.72-.44.94.94,0,0,0-.42-.07v-.27h4.24v.27h-.22a1.23,1.23,0,0,0-.63.16.51.51,0,0,0-.29.48,2.36,2.36,0,0,0,.44,1l2.07,3.19,1.95-3.05a2.26,2.26,0,0,0,.43-1,.66.66,0,0,0-.1-.37.65.65,0,0,0-.31-.25,1.45,1.45,0,0,0-.59-.09Z"/><path class="cls-1" d="M515,205.15a4.53,4.53,0,0,1,3.35,1.46,5.08,5.08,0,0,1,1.41,3.66,5.19,5.19,0,0,1-1.42,3.75,4.77,4.77,0,0,1-6.89,0,5.2,5.2,0,0,1-1.39-3.76,5,5,0,0,1,1.6-3.86A4.76,4.76,0,0,1,515,205.15Zm-.14.53a2.62,2.62,0,0,0-2.13,1,5.58,5.58,0,0,0-1,3.6,5.89,5.89,0,0,0,1,3.73,2.56,2.56,0,0,0,2.1,1,2.9,2.9,0,0,0,2.31-1.08,5.38,5.38,0,0,0,.91-3.44,6,6,0,0,0-1-3.79A2.7,2.7,0,0,0,514.88,205.68Z"/><path class="cls-1" d="M527.5,205.65v-.27H531v.27h-.38a1,1,0,0,0-.9.49,2.27,2.27,0,0,0-.15,1.05v4a7,7,0,0,1-.3,2.31,2.83,2.83,0,0,1-1.16,1.41,4.13,4.13,0,0,1-2.35.59,4.49,4.49,0,0,1-2.47-.56,3.09,3.09,0,0,1-1.19-1.52,8.6,8.6,0,0,1-.23-2.44v-3.87a2,2,0,0,0-.25-1.2,1,1,0,0,0-.82-.28h-.37v-.27h4.28v.27h-.38a1,1,0,0,0-.88.38,2.24,2.24,0,0,0-.18,1.1v4.32a9.49,9.49,0,0,0,.11,1.32,2.82,2.82,0,0,0,.38,1.16,2.09,2.09,0,0,0,.8.69,2.78,2.78,0,0,0,1.28.27,3.56,3.56,0,0,0,1.74-.42,2.29,2.29,0,0,0,1-1.09,6.21,6.21,0,0,0,.28-2.24v-4a2,2,0,0,0-.2-1.16,1.05,1.05,0,0,0-.85-.32Z"/></g></g></g></g></g></svg>