<?xml version="1.0" encoding="utf-8"?>
<!-- Generator: Adobe Illustrator 22.1.0, SVG Export Plug-In . SVG Version: 6.00 Build 0)  -->
<svg version="1.1" id="Capa_1" xmlns="http://www.w3.org/2000/svg" xmlns:xlink="http://www.w3.org/1999/xlink" x="0px" y="0px"
	 viewBox="0 0 363.1 360" style="enable-background:new 0 0 363.1 360;" xml:space="preserve">
<style type="text/css">
	.st0{enable-background:new    ;}
	.st1{fill:#FFFFFF;}
	.st2{fill:none;stroke:#FFFFFF;stroke-width:2;stroke-miterlimit:10;}
</style>
<title>making-of-logo-featured</title>
<g id="Making_of">
	<g class="st0">
		<path class="st1" d="M7.4,182c0-7.6,0-9-0.1-10.6c-0.1-1.7-0.5-2.5-2.2-2.9c-0.4-0.1-1.2-0.1-2-0.1c-0.5,0-0.8-0.1-0.8-0.5
			c0-0.4,0.3-0.5,1.1-0.5c1.4,0,2.8,0,4,0c1.3,0,2.5,0.1,3.2,0.1c1.6,0,11.6,0,12.5-0.1c0.9-0.1,1.8-0.2,2.1-0.3
			c0.2,0,0.6-0.2,0.8-0.2s0.3,0.2,0.3,0.5c0,0.4-0.2,1-0.4,3.2c-0.1,0.5-0.1,2.7-0.2,3.3c-0.1,0.2-0.2,0.5-0.5,0.5
			c-0.4,0-0.5-0.2-0.5-0.7c0-0.3,0-1.2-0.3-1.8c-0.4-0.9-0.9-1.5-3.4-1.8c-0.9-0.1-6.1-0.2-7.1-0.2c-0.2,0-0.4,0.1-0.4,0.5v12.7
			c0,0.4,0,0.5,0.4,0.5c1.1,0,6.9,0,8-0.1c1.2-0.1,2-0.2,2.4-0.8c0.4-0.4,0.6-0.7,0.8-0.7c0.2,0,0.3,0.1,0.3,0.4s-0.2,1.1-0.4,3.7
			c0,1-0.2,3-0.2,3.3c0,0.4,0,1-0.5,1c-0.4,0-0.5-0.2-0.5-0.5c0-0.5,0-1.1-0.2-1.8c-0.2-1-1-1.8-2.8-2c-1-0.1-5.9-0.1-7.1-0.1
			c-0.2,0-0.3,0.2-0.3,0.5v4c0,1.7-0.1,6.3,0,7.8c0.1,3.5,0.9,4.2,6,4.2c1.3,0,3.4,0,4.7-0.6c1.3-0.6,1.9-1.7,2.2-3.7
			c0.1-0.5,0.2-0.8,0.6-0.8c0.4,0,0.4,0.4,0.4,0.9c0,1.2-0.4,4.6-0.7,5.6c-0.3,1.3-0.8,1.3-2.7,1.3c-3.8,0-6.5-0.1-8.7-0.1
			c-2.1-0.1-3.7-0.2-5.2-0.2c-0.5,0-1.6,0-2.9,0c-1.2,0-2.5,0.1-3.5,0.1c-0.6,0-1-0.2-1-0.5c0-0.2,0.2-0.4,0.8-0.4
			c0.8,0,1.4-0.1,1.8-0.2c1-0.2,1.2-1.3,1.5-2.8c0.2-2.1,0.2-6.1,0.2-10.7V182z"/>
		<path class="st1" d="M41.2,190.8c0,6.4,0,9.9,1.1,10.8c0.9,0.8,2.1,1.1,6.1,1.1c2.7,0,4.6,0,5.9-1.4c0.6-0.6,1.2-2,1.3-3
			c0.1-0.5,0.1-0.8,0.6-0.8c0.3,0,0.4,0.2,0.4,0.8c0,0.6-0.4,4.3-0.8,5.8c-0.3,1.1-0.6,1.3-3.2,1.3c-3.6,0-6.2-0.1-8.5-0.1
			c-2.3-0.1-4.1-0.2-6.1-0.2c-0.5,0-1.6,0-2.9,0c-1.2,0-2.5,0.1-3.5,0.1c-0.6,0-1-0.2-1-0.5c0-0.2,0.2-0.4,0.8-0.4
			c0.8,0,1.4-0.1,1.8-0.2c1-0.2,1.2-1.3,1.5-2.8c0.2-2.1,0.2-6.1,0.2-10.7V182c0-7.6,0-9-0.1-10.6c-0.1-1.7-0.5-2.5-2.2-2.9
			c-0.4-0.1-1-0.1-1.6-0.1c-0.6,0-0.9-0.1-0.9-0.5c0-0.4,0.4-0.5,1.1-0.5c2.4,0,5.5,0.2,6.9,0.2c1.2,0,4.9-0.2,6.8-0.2
			c0.7,0,1,0.1,1,0.5c0,0.3-0.3,0.5-0.9,0.5c-0.5,0-1.4,0-2,0.1c-1.4,0.2-1.8,1.1-1.9,2.9c-0.1,1.6-0.1,3-0.1,10.6V190.8z"/>
	</g>
	<g class="st0">
		<path class="st1" d="M74.4,167.7c0.1-0.9,0.4-1.3,0.9-1.3c0.4,0,0.7,0.2,1.4,1.5l13.7,28.2l13.6-28.6c0.4-0.8,0.6-1.2,1.1-1.2
			s0.8,0.5,0.9,1.5l4.6,30.9c0.5,3.2,1,4.6,2.5,5.1c1.5,0.5,2.5,0.5,3.1,0.5c0.5,0,0.8,0,0.8,0.3c0,0.4-0.6,0.6-1.3,0.6
			c-1.2,0-8.2-0.2-10.2-0.3c-1.2-0.1-1.5-0.2-1.5-0.5c0-0.2,0.2-0.4,0.5-0.5c0.3-0.1,0.5-0.8,0.2-2.2l-3-22h-0.2l-10.9,22.7
			c-1.1,2.4-1.4,2.8-1.9,2.8s-1-1-1.8-2.5c-1.2-2.3-5.2-10-5.8-11.4c-0.5-1-3.5-7.4-5.2-11.1h-0.2l-2.6,19.9
			c-0.1,0.9-0.1,1.5-0.1,2.3c0,1,0.6,1.4,1.5,1.6c0.9,0.2,1.6,0.2,2.1,0.2c0.4,0,0.8,0.1,0.8,0.3c0,0.5-0.5,0.6-1.2,0.6
			c-2.1,0-4.4-0.2-5.2-0.2c-1,0-3.4,0.2-5,0.2c-0.5,0-0.9-0.1-0.9-0.6c0-0.2,0.3-0.3,0.8-0.3c0.4,0,0.8,0,1.5-0.2
			c1.4-0.3,1.8-2.2,2-4L74.4,167.7z"/>
	</g>
	<g class="st0">
		<path class="st1" d="M123.3,192.2c-0.2,0-0.4,0.1-0.5,0.4l-2.7,7.2c-0.5,1.2-0.8,2.5-0.8,3.1c0,0.9,0.5,1.5,2,1.5h0.8
			c0.6,0,0.8,0.1,0.8,0.4c0,0.4-0.3,0.5-0.9,0.5c-1.6,0-3.8-0.2-5.3-0.2c-0.6,0-3.3,0.2-5.9,0.2c-0.7,0-1-0.1-1-0.5
			c0-0.3,0.2-0.4,0.6-0.4c0.5,0,1.1,0,1.5-0.1c2.3-0.3,3.3-2,4.3-4.5l12.6-31.4c0.6-1.5,0.9-2,1.4-2c0.5,0,0.8,0.4,1.3,1.6
			c1.2,2.8,9.2,23.2,12.4,30.8c1.9,4.5,3.4,5.2,4.4,5.5c0.8,0.2,1.5,0.2,2.1,0.2c0.4,0,0.6,0,0.6,0.4c0,0.4-0.4,0.5-2.3,0.5
			c-1.8,0-5.5,0-9.5-0.1c-0.9,0-1.5,0-1.5-0.4c0-0.3,0.2-0.4,0.7-0.5c0.4-0.1,0.7-0.5,0.5-1.2l-4-10.6c-0.1-0.2-0.2-0.3-0.5-0.3
			H123.3z M133.5,189.7c0.2,0,0.3-0.1,0.2-0.3l-4.5-12.4c0-0.2-0.1-0.5-0.2-0.5s-0.2,0.2-0.3,0.5l-4.6,12.3c0,0.2,0,0.3,0.2,0.3
			H133.5z"/>
		<path class="st1" d="M158.4,184.2h0.2c1.7-1.9,9-9.3,10.5-11c1.4-1.6,2.5-2.9,2.5-3.8c0-0.5-0.2-0.9-0.7-1
			c-0.5-0.1-0.7-0.2-0.7-0.5c0-0.4,0.2-0.5,0.8-0.5c1.1,0,3.8,0.2,5.2,0.2c1.5,0,4.3-0.2,5.9-0.2c0.5,0,0.9,0.1,0.9,0.5
			c0,0.3-0.2,0.5-0.8,0.5c-0.7,0-2,0.2-2.9,0.5c-1.6,0.6-3.3,1.7-5.4,3.8c-1.6,1.5-9.1,9-10.8,10.8c1.8,2.4,11.6,12.9,13.6,14.8
			c2.2,2.1,4.5,4.4,7.2,5.4c1.5,0.6,2.5,0.8,3.1,0.8c0.3,0,0.7,0.1,0.7,0.4c0,0.3-0.2,0.5-1.2,0.5h-4.4c-1.5,0-2.4,0-3.5-0.1
			c-2.7-0.2-4.1-1.3-6.2-3.2c-2.2-2-12.1-13.5-13.1-15l-0.6-0.8h-0.2v4.6c0,4.6,0,8.5,0.1,10.7c0.1,1.4,0.6,2.5,1.8,2.7
			c0.7,0.1,1.8,0.2,2.5,0.2c0.4,0,0.6,0.2,0.6,0.4c0,0.3-0.4,0.5-0.9,0.5c-2.8,0-6-0.2-7.2-0.2c-1.1,0-4.3,0.2-6.3,0.2
			c-0.6,0-1-0.2-1-0.5c0-0.2,0.2-0.4,0.8-0.4c0.8,0,1.4-0.1,1.8-0.2c1-0.2,1.2-1.3,1.5-2.8c0.2-2.1,0.2-6.1,0.2-10.7V182
			c0-7.6,0-9-0.1-10.6c-0.1-1.7-0.5-2.5-2.2-2.9c-0.4-0.1-1.2-0.1-2-0.1c-0.5,0-0.8-0.1-0.8-0.5c0-0.4,0.3-0.5,1.1-0.5
			c2.6,0,5.8,0.2,7,0.2c1.2,0,4.4-0.2,6.1-0.2c0.7,0,1,0.1,1,0.5c0,0.3-0.3,0.5-0.7,0.5c-0.5,0-0.8,0-1.4,0.1
			c-1.4,0.2-1.8,1.1-1.9,2.9c-0.1,1.6-0.1,3-0.1,10.6V184.2z"/>
		<path class="st1" d="M186.7,182c0-7.6,0-9-0.1-10.6c-0.1-1.7-0.6-2.5-1.7-2.8c-0.5-0.2-1.2-0.2-1.8-0.2c-0.5,0-0.8-0.1-0.8-0.5
			c0-0.3,0.4-0.4,1.2-0.4c1.9,0,5,0.2,6.5,0.2c1.2,0,4.2-0.2,6.1-0.2c0.6,0,1,0.1,1,0.4c0,0.4-0.3,0.5-0.8,0.5s-0.9,0-1.5,0.1
			c-1.4,0.2-1.8,1.1-1.9,2.9c-0.1,1.6-0.1,3-0.1,10.6v8.8c0,4.8,0,8.8,0.2,11c0.1,1.4,0.5,2.2,2,2.5c0.7,0.1,1.8,0.2,2.5,0.2
			c0.5,0,0.8,0.2,0.8,0.4c0,0.3-0.4,0.5-1,0.5c-3.3,0-6.5-0.2-7.8-0.2c-1.2,0-4.3,0.2-6.3,0.2c-0.6,0-1-0.2-1-0.5
			c0-0.2,0.2-0.4,0.8-0.4c0.8,0,1.4-0.1,1.8-0.2c1-0.2,1.3-1,1.5-2.5c0.2-2.1,0.2-6.1,0.2-10.9V182z"/>
	</g>
	<g class="st0">
		<path class="st1" d="M208.4,198.5c0.1,3.9,0.8,5.2,1.8,5.6c0.8,0.3,1.8,0.3,2.6,0.3c0.5,0,0.8,0.1,0.8,0.4c0,0.4-0.5,0.5-1.2,0.5
			c-3.2,0-5.2-0.2-6.2-0.2c-0.5,0-2.8,0.2-5.4,0.2c-0.6,0-1.1-0.1-1.1-0.5c0-0.3,0.3-0.4,0.8-0.4c0.7,0,1.5,0,2.2-0.2
			c1.3-0.4,1.5-1.9,1.5-6.2l0.5-29.6c0-1,0.2-1.7,0.7-1.7c0.5,0,1,0.6,1.8,1.5c0.6,0.7,8.2,8.8,15.5,16.1c3.4,3.4,10.2,10.6,11,11.4
			h0.2l-0.5-22.5c0-3-0.5-4-1.7-4.5c-0.8-0.3-2-0.3-2.7-0.3c-0.6,0-0.8-0.2-0.8-0.5c0-0.4,0.5-0.5,1.3-0.5c2.6,0,5,0.2,6.1,0.2
			c0.5,0,2.5-0.2,4.9-0.2c0.7,0,1.2,0,1.2,0.5c0,0.3-0.3,0.5-0.9,0.5c-0.5,0-0.9,0-1.5,0.1c-1.4,0.4-1.8,1.5-1.9,4.3l-0.5,31.6
			c0,1.1-0.2,1.5-0.7,1.5c-0.5,0-1.1-0.5-1.7-1.1c-3.2-3-9.6-9.6-14.8-14.7c-5.5-5.4-11-11.7-11.9-12.6h-0.1L208.4,198.5z"/>
	</g>
	<g class="st0">
		<path class="st1" d="M278.9,201.9c0,1.3,0,1.5-0.7,1.8c-3.2,1.7-8.2,2.2-12.1,2.2c-12.3,0-23.1-5.8-23.1-19.6
			c0-8,4.2-13.6,8.7-16.4c4.8-2.9,9.2-3.2,13.5-3.2c3.5,0,7.9,0.6,8.9,0.8c1.1,0.2,2.8,0.5,4,0.6c0.6,0,0.7,0.2,0.7,0.6
			c0,0.5-0.3,2-0.3,8.2c0,0.8-0.2,1.1-0.5,1.1c-0.4,0-0.5-0.2-0.5-0.7c-0.2-1.2-0.4-2.8-1.7-4.2c-1.5-1.6-5.5-3.9-11.2-3.9
			c-2.8,0-6.4,0.2-9.9,3.1c-2.8,2.3-4.6,6.1-4.6,12.3c0,10.8,6.9,18.8,17.4,18.8c1.3,0,3.1,0,4.2-0.5c0.8-0.4,1-1,1-1.9v-4.7
			c0-2.5,0-4.4,0-5.9c0-1.7-0.5-2.5-2.2-2.8c-0.4-0.1-1.2-0.2-2-0.2c-0.4,0-0.8-0.1-0.8-0.4c0-0.4,0.4-0.5,1.1-0.5
			c2.6,0,5.8,0.2,7.2,0.2c1.5,0,4.2-0.2,5.9-0.2c0.6,0,1,0.1,1,0.5c0,0.3-0.3,0.4-0.7,0.4c-0.4,0-0.8,0-1.3,0.2
			c-1.4,0.2-1.9,1.1-1.9,2.8c0,1.5,0,3.5,0,6V201.9z"/>
	</g>
	<g class="st0">
		<path class="st1" d="M294.5,186.4c0-8.6,5.7-19.6,20.7-19.6c12.5,0,20.2,7.3,20.2,18.7c0,11.5-8,20.5-20.7,20.5
			C300.4,206,294.5,195.2,294.5,186.4z M328.4,187.3c0-11.2-6.5-18.2-14.7-18.2c-5.8,0-12.3,3.2-12.3,15.7
			c0,10.4,5.8,18.7,15.4,18.7C320.3,203.5,328.4,201.8,328.4,187.3z"/>
	</g>
	<g class="st0">
		<path class="st1" d="M348.3,190.8c0,4.8,0,8.5,0.2,10.7c0.1,1.5,0.5,2.5,2,2.8c0.7,0.1,1.8,0.2,2.5,0.2c0.7,0,0.8,0.2,0.8,0.4
			c0,0.3-0.3,0.5-1.1,0.5c-3.2,0-6.3-0.2-7.6-0.2s-4.5,0.2-6.4,0.2c-0.7,0-1-0.1-1-0.5c0-0.2,0.2-0.4,0.8-0.4c0.8,0,1.4-0.1,1.8-0.2
			c1-0.2,1.2-1.3,1.5-2.8c0.2-2.1,0.2-5.9,0.2-10.7V182c0-7.6,0-9-0.1-10.6c-0.1-1.7-0.5-2.5-2.2-2.9c-0.4-0.1-1.2-0.1-2-0.1
			c-0.5,0-0.8-0.1-0.8-0.4c0-0.4,0.4-0.5,1.2-0.5c1.3,0,2.8,0,4,0c1.3,0,2.5,0.1,3.1,0.1c1.9,0,12.1,0,13.2-0.1c1,0,1.6,0,2.1-0.2
			c0.3-0.1,0.5-0.3,0.8-0.3c0.2,0,0.4,0.2,0.4,0.5c0,0.4-0.2,1-0.4,2.2c-0.1,0.5-0.2,3.5-0.2,4.1c-0.1,0.4-0.2,0.7-0.5,0.7
			c-0.4,0-0.5-0.2-0.5-0.8c0-0.4,0-1.2-0.3-1.9c-0.3-0.7-1.4-1.5-3.3-1.5l-7.7-0.2c-0.3,0-0.5,0.2-0.5,0.7v12.5c0,0.3,0,0.4,0.4,0.4
			l6.4,0c0.8,0,1.5,0,2.2,0c0.9,0,1.6-0.2,2.1-0.9c0.2-0.3,0.4-0.5,0.7-0.5c0.2,0,0.3,0.2,0.3,0.5s-0.2,1.6-0.4,3.1
			c-0.1,1-0.2,3.3-0.2,3.7c0,0.4,0,0.9-0.5,0.9c-0.3,0-0.4-0.3-0.4-0.7c0-0.4-0.1-1-0.3-1.6c-0.3-0.7-1-1.6-2.5-1.8
			c-1.2-0.2-6.6-0.2-7.4-0.2c-0.2,0-0.4,0.1-0.4,0.5V190.8z"/>
	</g>
	<line class="st2" x1="0" y1="221.6" x2="364" y2="221.6"/>
	<line class="st2" x1="122" y1="149.2" x2="364" y2="149.2"/>
	<g class="st0">
		<path class="st1" d="M9.3,140.5v2.9H6.2v6.9H3v-6.9h-3.1v-2.9H9.3z"/>
		<path class="st1" d="M8.7,150.3v-6.9H6.6v-2.9h10.5v2.9h-5.2v1.1h3.4v1.7h-3.4v1.1H18v2.9H8.7z"/>
		<path class="st1" d="M17,150.3l3.2-9.9h4.9l3.3,9.9h-3.7l-0.6-1.8h-2.9l-0.6,1.8H17z M22.7,142.6l-1.4,3.9H24L22.7,142.6z"/>
		<path class="st1" d="M31.2,145.3c0,0.5,0.2,1,0.4,1.2s0.4,0.5,0.7,0.6s0.7,0.3,1.3,0.3c0.6,0,1-0.1,1.3-0.2s0.5-0.3,0.9-0.6
			l1.9,2.2c-0.6,0.5-1.1,0.9-1.7,1.1s-1.4,0.3-2.4,0.4c-1-0.1-1.8-0.2-2.3-0.4c-0.5-0.2-1-0.6-1.6-1c-0.5-0.4-0.9-0.9-1.2-1.5
			c-0.3-0.6-0.4-1.3-0.4-2.1c0-0.8,0.1-1.5,0.4-2.1c0.3-0.6,0.7-1.1,1.2-1.5c0.5-0.4,1-0.7,1.6-1c0.5-0.2,1.3-0.4,2.3-0.4
			c1.1,0.1,1.9,0.2,2.4,0.4s1.1,0.6,1.7,1.1l-1.9,2.2c-0.3-0.3-0.6-0.5-0.9-0.6s-0.7-0.2-1.3-0.2c-0.6,0.1-1,0.2-1.3,0.3
			s-0.5,0.4-0.7,0.6S31.2,144.7,31.2,145.3z"/>
		<path class="st1" d="M43.8,143.9v-3.4H47v9.9h-3.2v-3.6h-2.6v3.6H38v-6.9H36v-2.9h5.3v3.4H43.8z"/>
		<path class="st1" d="M47.7,150.3v-6.9h-2.1v-2.9h10.5v2.9h-5.2v1.1h3.4v1.7h-3.4v1.1H57v2.9H47.7z"/>
		<path class="st1" d="M57,150.3v-9.9h6.4c0.8,0.1,1.4,0.3,2,0.6s0.9,0.8,1.1,1.4c0.2,0.9,0.2,1.5,0,2s-0.5,0.9-0.9,1.2
			s-1,0.6-1.8,0.8l0.7,0.9h5.3v2.9h-6.2l-3.1-3.3v3.3H57z M60.6,142.9v1.8h2.5c0.1,0,0.3,0,0.4-0.1c0.2-0.1,0.2-0.3,0.2-0.7
			c0-0.4-0.1-0.6-0.3-0.7c-0.2-0.1-0.3-0.2-0.4-0.2H60.6z"/>
		<path class="st1" d="M80,146.1l-1,4.2h-3.2l-3-9.9h3.2l1.4,4.3l1.2-4.3h3l1.4,4.3l0.9-4.3h3.2l-2.5,9.9h-3.2L80,146.1z"/>
		<path class="st1" d="M85.4,150.3l3.2-9.9h4.9l3.3,9.9h-3.7l-0.6-1.8h-2.9l-0.6,1.8H85.4z M91.2,142.6l-1.4,3.9h2.7L91.2,142.6z"/>
		<path class="st1" d="M96.8,150.3v-9.9h6.4c0.8,0.1,1.4,0.3,2,0.6s0.9,0.8,1.1,1.4c0.2,0.9,0.2,1.5,0,2s-0.5,0.9-0.9,1.2
			s-1,0.6-1.8,0.8l0.7,0.9h5.3v2.9h-6.2l-3.1-3.3v3.3H96.8z M100.3,142.9v1.8h2.5c0.1,0,0.3,0,0.4-0.1c0.2-0.1,0.2-0.3,0.2-0.7
			c0-0.4-0.1-0.6-0.3-0.7c-0.2-0.1-0.3-0.2-0.4-0.2H100.3z"/>
		<path class="st1" d="M115.8,143.4h-3.1c-1.2,0-1.3,0.3-0.5,1c1.5,1.3,2.2,2.6,2.2,3.8s-0.8,2-2.2,2.2h-8.6v-2.9h5.4
			c1.3,0,1.5-0.3,0.5-1.1c-1.6-1.5-2.3-2.8-2-4s1-1.8,2.2-1.8h6.1V143.4z"/>
	</g>
</g>
</svg>
